<svg width="24" height="24" viewBox="0 0 24 24" fill="none" xmlns="http://www.w3.org/2000/svg">
<path d="M21 15H12.75V12C12.75 11.586 12.414 11.25 12 11.25C11.586 11.25 11.25 11.586 11.25 12V15H3C2.17125 15 1.5 15.6712 1.5 16.5V19.5C1.5 20.3287 2.17125 21 3 21H21C21.8288 21 22.5 20.3287 22.5 19.5V16.5C22.5 15.6712 21.8288 15 21 15ZM6.75 18.75H4.5C4.086 18.75 3.75 18.4148 3.75 18C3.75 17.5852 4.086 17.25 4.5 17.25H6.75C7.164 17.25 7.5 17.5852 7.5 18C7.5 18.4148 7.164 18.75 6.75 18.75ZM16.5 18.75C16.5 19.1648 16.164 19.5 15.75 19.5C15.336 19.5 15 19.1648 15 18.75V17.25C15 16.8352 15.336 16.5 15.75 16.5C16.164 16.5 16.5 16.8352 16.5 17.25V18.75ZM19.5 18.75C19.5 19.1648 19.164 19.5 18.75 19.5C18.336 19.5 18 19.1648 18 18.75V17.25C18 16.8352 18.336 16.5 18.75 16.5C19.164 16.5 19.5 16.8352 19.5 17.25V18.75Z" fill="#D45ED4"/>
<path d="M12 8.25C12.414 8.25 12.75 8.586 12.75 9C12.75 9.414 12.414 9.75 12 9.75C11.586 9.75 11.25 9.414 11.25 9C11.25 8.586 11.586 8.25 12 8.25Z" fill="#D45ED4"/>
<path d="M13.376 7.31077C13.0888 7.05427 12.6163 6.74977 11.9998 6.74977C11.3833 6.74977 10.9108 7.05427 10.6235 7.31077C10.3138 7.58527 9.84055 7.55827 9.56455 7.24852C9.2893 6.93877 9.31705 6.46477 9.6268 6.18952C11.0098 4.96027 12.9905 4.96027 14.3735 6.18952C14.6833 6.46477 14.711 6.93877 14.4358 7.24852C14.1613 7.55602 13.6873 7.58602 13.376 7.31077Z" fill="#D45ED4"/>
<path d="M7.69301 5.00175C7.41551 4.69425 7.44026 4.22025 7.74776 3.94275C8.97626 2.83575 10.447 2.25 12.0003 2.25C13.5535 2.25 15.0243 2.83575 16.252 3.94275C16.5595 4.22025 16.5843 4.69425 16.3068 5.00175C16.03 5.30925 15.5553 5.334 15.2478 5.0565C13.351 3.3465 10.6488 3.3465 8.75201 5.0565C8.44451 5.334 7.96976 5.30925 7.69301 5.00175Z" fill="#D45ED4"/>
</svg>
