<svg width="24" height="24" viewBox="0 0 24 24" fill="none" xmlns="http://www.w3.org/2000/svg">
<path d="M22.2387 3.88281H1.76133C0.790127 3.88281 0 4.67294 0 5.64414V18.3571C0 19.3283 0.790127 20.1184 1.76133 20.1184H22.2387C23.2099 20.1184 24 19.3283 24 18.3571V5.64414C24 4.67294 23.2099 3.88281 22.2387 3.88281ZM7.38264 14.454H9.76179C10.0473 14.454 10.2786 14.6854 10.2786 14.9708C10.2786 15.2563 10.0472 15.4876 9.76179 15.4876H7.38264C7.09717 15.4876 6.86584 15.2563 6.86584 14.9708C6.86584 14.6854 7.09722 14.454 7.38264 14.454ZM2.235 9.27026C2.235 8.98479 2.46638 8.75346 2.7518 8.75346H5.84781C6.13328 8.75346 6.36461 8.98484 6.36461 9.27026V11.5087C6.36461 11.7942 6.13323 12.0255 5.84781 12.0255H2.7518C2.46633 12.0255 2.235 11.7941 2.235 11.5087V9.27026ZM2.7518 14.454H5.13095C5.41642 14.454 5.64775 14.6854 5.64775 14.9708C5.64775 15.2563 5.41637 15.4876 5.13095 15.4876H2.7518C2.46633 15.4876 2.235 15.2563 2.235 14.9708C2.235 14.6854 2.46643 14.454 2.7518 14.454ZM11.2453 17.7858H2.7518C2.46633 17.7858 2.235 17.5544 2.235 17.269C2.235 16.9836 2.46638 16.7522 2.7518 16.7522H11.2453C11.5308 16.7522 11.7621 16.9836 11.7621 17.269C11.7621 17.5544 11.5308 17.7858 11.2453 17.7858ZM14.3926 15.4876H12.0135C11.728 15.4876 11.4967 15.2563 11.4967 14.9708C11.4967 14.6854 11.7281 14.454 12.0135 14.454H14.3926C14.6781 14.454 14.9094 14.6854 14.9094 14.9708C14.9094 15.2563 14.6781 15.4876 14.3926 15.4876ZM19.0235 15.4876H16.6443C16.3588 15.4876 16.1275 15.2563 16.1275 14.9708C16.1275 14.6854 16.3589 14.454 16.6443 14.454H19.0235C19.3089 14.454 19.5403 14.6854 19.5403 14.9708C19.5403 15.2563 19.3088 15.4876 19.0235 15.4876ZM21.2482 7.93812H15.6369C15.3514 7.93812 15.1201 7.70674 15.1201 7.42132C15.1201 7.1359 15.3515 6.90452 15.6369 6.90452H21.2482C21.5337 6.90452 21.765 7.1359 21.765 7.42132C21.765 7.70674 21.5336 7.93812 21.2482 7.93812Z" fill="#D45ED4"/>
</svg>
