<svg width="24" height="24" viewBox="0 0 24 24" fill="none" xmlns="http://www.w3.org/2000/svg">
<path fill-rule="evenodd" clip-rule="evenodd" d="M1.66992 9.24813C1.00837 9.24813 0.46875 8.7977 0.46875 8.24542V3.59059C0.46875 3.03836 1.00833 2.58789 1.66992 2.58789H22.3301C22.9916 2.58789 23.5312 3.03836 23.5312 3.59059V8.24547C23.5312 8.7977 22.9916 9.24817 22.3301 9.24817H20.4349V6.38678H21.171C21.4298 6.38678 21.6397 6.17692 21.6397 5.91803C21.6397 5.65914 21.4298 5.44928 21.171 5.44928H2.82905C2.57016 5.44928 2.3603 5.65914 2.3603 5.91803C2.3603 6.17692 2.57016 6.38678 2.82905 6.38678H3.56512V9.24813H1.66992ZM4.50262 6.38678V20.9444C4.50262 21.2026 4.71319 21.4132 4.97137 21.4132H19.0287C19.2868 21.4132 19.4974 21.2026 19.4974 20.9444V6.38678H17.5601V16.7458C17.5601 16.9945 17.3667 17.1994 17.1184 17.2137C16.1388 17.2704 15.3546 18.0546 15.298 19.0342C15.2836 19.2824 15.0787 19.4759 14.8301 19.4759H9.16997C8.9213 19.4759 8.71641 19.2825 8.70206 19.0342C8.64544 18.0546 7.86117 17.2704 6.88163 17.2137C6.63338 17.1994 6.43992 16.9945 6.43992 16.7458V6.38678H4.50262ZM16.0132 10.3507C16.0132 8.13423 14.2164 6.33747 12 6.33747C9.78356 6.33747 7.9868 8.13428 7.9868 10.3507C7.9868 12.5671 9.78356 14.3639 12 14.3639C14.2164 14.3639 16.0132 12.5671 16.0132 10.3507ZM14.2374 9.87227L14.1082 9.87536C14.0437 9.67886 13.9408 9.50135 13.8094 9.35416C13.2848 8.76677 12.4142 8.76686 11.8897 9.35416C11.6584 9.61314 11.5153 9.96583 11.5153 10.3507C11.5153 10.501 11.4646 10.633 11.3827 10.7247C11.313 10.8028 11.2194 10.8511 11.1187 10.8511C11.0179 10.8511 10.9244 10.8028 10.8546 10.7247C10.7727 10.6329 10.722 10.501 10.722 10.3507C10.722 10.2458 10.7384 10.1718 10.7687 10.1118C10.8069 10.0362 10.8759 9.95547 10.9657 9.86027C11.1427 9.67216 11.1337 9.37619 10.9456 9.19923C10.7575 9.02228 10.4615 9.03128 10.2846 9.21939C10.1399 9.37272 10.0229 9.51447 9.93375 9.69058C9.90084 9.75564 9.87309 9.82249 9.85073 9.89261L9.74048 9.89528C9.48263 9.90133 9.27848 10.1153 9.28453 10.3732C9.29058 10.631 9.50456 10.8352 9.76242 10.8291L9.86016 10.8267C9.92456 11.023 10.0274 11.2002 10.1587 11.3472C10.4022 11.6199 10.7414 11.7886 11.1186 11.7886C11.4957 11.7886 11.835 11.6199 12.0784 11.3472C12.3097 11.0883 12.4527 10.7356 12.4527 10.3507C12.4527 10.2003 12.5034 10.0684 12.5853 9.97666C12.7369 9.80692 12.962 9.80711 13.1134 9.97666C13.1954 10.0684 13.2461 10.2003 13.2461 10.3506C13.2461 10.4263 13.2332 10.497 13.2098 10.5601C13.186 10.6245 13.1531 10.6803 13.1135 10.7246C12.9415 10.9168 12.9579 11.2119 13.1501 11.3838C13.3422 11.5557 13.6373 11.5394 13.8093 11.3472C13.9292 11.2129 14.0249 11.0552 14.0888 10.8824C14.0977 10.8584 14.106 10.8341 14.1136 10.8096L14.2594 10.8061C14.5172 10.8001 14.7214 10.5861 14.7153 10.3282C14.7093 10.0703 14.4953 9.86617 14.2374 9.87227Z" fill="#16DBCC"/>
</svg>
