<svg width="24" height="24" viewBox="0 0 24 24" fill="none" xmlns="http://www.w3.org/2000/svg">
<g clip-path="url(#clip0_1091_21237)">
<path d="M19.5 18C19.9142 18 20.25 17.6642 20.25 17.25C20.25 16.8358 19.9142 16.5 19.5 16.5C19.0858 16.5 18.75 16.8358 18.75 17.25C18.75 17.6642 19.0858 18 19.5 18Z" fill="#396AFF"/>
<path d="M3.75 10.5H12.75V18H3.75V10.5Z" fill="#396AFF"/>
<path d="M19.5 12C19.9142 12 20.25 11.6642 20.25 11.25C20.25 10.8358 19.9142 10.5 19.5 10.5C19.0858 10.5 18.75 10.8358 18.75 11.25C18.75 11.6642 19.0858 12 19.5 12Z" fill="#396AFF"/>
<path d="M21.75 6H2.25C1.65346 6.00066 1.08155 6.23792 0.659733 6.65973C0.237918 7.08155 0.000655109 7.65346 0 8.25L0 20.25C0.000655109 20.8465 0.237918 21.4185 0.659733 21.8403C1.08155 22.2621 1.65346 22.4993 2.25 22.5H21.75C22.3465 22.4993 22.9185 22.2621 23.3403 21.8403C23.7621 21.4185 23.9993 20.8465 24 20.25V8.25C23.9993 7.65346 23.7621 7.08155 23.3403 6.65973C22.9185 6.23792 22.3465 6.00066 21.75 6ZM14.25 18.75C14.25 18.9489 14.171 19.1397 14.0303 19.2803C13.8897 19.421 13.6989 19.5 13.5 19.5H3C2.80109 19.5 2.61032 19.421 2.46967 19.2803C2.32902 19.1397 2.25 18.9489 2.25 18.75V9.75C2.25 9.55109 2.32902 9.36032 2.46967 9.21967C2.61032 9.07902 2.80109 9 3 9H13.5C13.6989 9 13.8897 9.07902 14.0303 9.21967C14.171 9.36032 14.25 9.55109 14.25 9.75V18.75ZM19.5 19.5C19.055 19.5 18.62 19.368 18.25 19.1208C17.88 18.8736 17.5916 18.5222 17.4213 18.111C17.251 17.6999 17.2064 17.2475 17.2932 16.811C17.38 16.3746 17.5943 15.9737 17.909 15.659C18.2237 15.3443 18.6246 15.13 19.061 15.0432C19.4975 14.9564 19.9499 15.001 20.361 15.1713C20.7722 15.3416 21.1236 15.63 21.3708 16C21.618 16.37 21.75 16.805 21.75 17.25C21.7493 17.8465 21.5121 18.4185 21.0903 18.8403C20.6685 19.2621 20.0965 19.4993 19.5 19.5ZM19.5 13.5C19.055 13.5 18.62 13.368 18.25 13.1208C17.88 12.8736 17.5916 12.5222 17.4213 12.111C17.251 11.6999 17.2064 11.2475 17.2932 10.811C17.38 10.3746 17.5943 9.97368 17.909 9.65901C18.2237 9.34434 18.6246 9.13005 19.061 9.04323C19.4975 8.95642 19.9499 9.00097 20.361 9.17127C20.7722 9.34157 21.1236 9.62996 21.3708 9.99997C21.618 10.37 21.75 10.805 21.75 11.25C21.7493 11.8465 21.5121 12.4185 21.0903 12.8403C20.6685 13.2621 20.0965 13.4993 19.5 13.5Z" fill="#396AFF"/>
<path d="M12.4416 4.5H5.55664C5.66796 4.25453 5.80364 4.02086 5.96164 3.8025C6.2573 3.39429 6.63229 3.04992 7.06414 2.79C7.64776 2.43675 8.31694 2.25 8.99914 2.25C9.68134 2.25 10.3505 2.43675 10.9341 2.79C11.366 3.04992 11.741 3.39429 12.0366 3.8025C12.1946 4.02086 12.3303 4.25453 12.4416 4.5Z" fill="#396AFF"/>
<path d="M7.47661 4.34153C7.39943 4.41344 7.30719 4.46725 7.20661 4.49903H6.74911C6.62014 4.46891 6.50438 4.39787 6.41911 4.29653L5.96161 3.80153L3.62161 1.25903C3.48635 1.11283 3.41471 0.918886 3.42244 0.719863C3.43018 0.52084 3.51666 0.333042 3.66286 0.197781C3.80906 0.0625208 4.003 -0.00912174 4.20203 -0.00138586C4.40105 0.00635002 4.58885 0.0928306 4.72411 0.239031L7.06411 2.78903L7.52161 3.28403C7.58818 3.35637 7.63984 3.44114 7.67361 3.53347C7.70739 3.6258 7.72262 3.72389 7.71844 3.82211C7.71426 3.92034 7.69075 4.01678 7.64925 4.10591C7.60776 4.19504 7.54909 4.2751 7.47661 4.34153Z" fill="#396AFF"/>
<path d="M14.3768 1.25903L12.0368 3.80153L11.5793 4.29653C11.4956 4.39606 11.3828 4.46688 11.2568 4.49903H10.7918C10.6912 4.46725 10.599 4.41344 10.5218 4.34153C10.4493 4.2751 10.3907 4.19504 10.3492 4.10591C10.3077 4.01678 10.2842 3.92034 10.28 3.82211C10.2758 3.72389 10.291 3.6258 10.3248 3.53347C10.3586 3.44114 10.4102 3.35637 10.4768 3.28403L10.9343 2.78903L13.2743 0.239031C13.4096 0.0928306 13.5974 0.00635002 13.7964 -0.00138586C13.9954 -0.00912174 14.1894 0.0625208 14.3356 0.197781C14.4818 0.333042 14.5682 0.52084 14.576 0.719863C14.5837 0.918886 14.5121 1.11283 14.3768 1.25903Z" fill="#396AFF"/>
<path d="M3 24C2.80109 24 2.61032 23.921 2.46967 23.7803C2.32902 23.6397 2.25 23.4489 2.25 23.25V21C2.25 20.8011 2.32902 20.6103 2.46967 20.4697C2.61032 20.329 2.80109 20.25 3 20.25C3.19891 20.25 3.38968 20.329 3.53033 20.4697C3.67098 20.6103 3.75 20.8011 3.75 21V23.25C3.75 23.4489 3.67098 23.6397 3.53033 23.7803C3.38968 23.921 3.19891 24 3 24Z" fill="#396AFF"/>
<path d="M21 24C20.8011 24 20.6103 23.921 20.4697 23.7803C20.329 23.6397 20.25 23.4489 20.25 23.25V21C20.25 20.8011 20.329 20.6103 20.4697 20.4697C20.6103 20.329 20.8011 20.25 21 20.25C21.1989 20.25 21.3897 20.329 21.5303 20.4697C21.671 20.6103 21.75 20.8011 21.75 21V23.25C21.75 23.4489 21.671 23.6397 21.5303 23.7803C21.3897 23.921 21.1989 24 21 24Z" fill="#396AFF"/>
</g>
<defs>
<clipPath id="clip0_1091_21237">
<rect width="24" height="24" fill="white"/>
</clipPath>
</defs>
</svg>
