<svg width="24" height="24" viewBox="0 0 24 24" fill="none" xmlns="http://www.w3.org/2000/svg">
<path d="M15.1224 4.91403V3.36652H15.4753C16.3984 3.36652 17.1586 2.60633 17.1586 1.68326C17.1586 0.760181 16.3984 0 15.4753 0H8.52511C7.60203 0 6.84185 0.760181 6.84185 1.68326C6.84185 2.60633 7.60203 3.36652 8.52511 3.36652H8.87805V4.91403C6.8147 5.04977 5.21289 6.76018 5.21289 8.82353V13.086H18.7875V8.82353C18.7875 6.76018 17.1857 5.04977 15.1224 4.91403ZM13.7649 4.88688H12.679V4.28959H11.3215V4.88688H10.2355V3.33937H13.7649V4.88688Z" fill="#EAB318"/>
<path d="M5.21289 14.4434V18.7873C5.21289 20.2805 6.05452 21.6379 7.38484 22.3167V23.9999H16.6156V22.3167C17.9459 21.6379 18.7875 20.2805 18.7875 18.7873V14.4434H5.21289Z" fill="#EAB318"/>
</svg>
