<svg width="24" height="24" viewBox="0 0 24 24" fill="none" xmlns="http://www.w3.org/2000/svg">
<path d="M22.6571 18.4594C22.6853 18.3751 22.7013 18.2847 22.7013 18.1908V8.32284C22.7013 7.85505 22.3219 7.4759 21.8541 7.4759H17.1389V17.9792C17.1389 18.1478 17.1084 18.3091 17.0546 18.4594H16.5015C16.5297 18.3751 16.5457 18.2847 16.5457 18.1908V4.63796C16.5457 4.17017 16.1663 3.79102 15.6985 3.79102H8.30102C7.83324 3.79102 7.45408 4.17017 7.45408 4.63796V18.1908C7.45408 18.2847 7.47008 18.3751 7.49827 18.4594H6.94541C6.89157 18.3091 6.8611 18.1478 6.8611 17.9792V7.4759H2.25893C1.79114 7.4759 1.41199 7.85505 1.41199 8.32284V18.1908C1.41199 18.2847 1.42799 18.3751 1.45592 18.4594H0V20.2102H24V18.4594H22.6571ZM3.95281 15.0001H2.73865V13.7862H3.95281V15.0001ZM3.95281 12.8686H2.73865V11.6545H3.95281V12.8686ZM3.95281 10.8075H2.73865V9.59338H3.95281V10.8075ZM5.84477 15.0001H4.63061V13.7862H5.84477V15.0001ZM5.84477 12.8686H4.63061V11.6545H5.84477V12.8686ZM5.84477 10.8075H4.63061V9.59338H5.84477V10.8075ZM13.8847 18.4028H10.32V13.9556H13.8847V18.4028ZM11.9999 10.1437C10.3509 10.1437 9.01413 8.80688 9.01413 7.15795C9.01413 5.50877 10.3512 4.17195 11.9999 4.17195C13.6491 4.17195 14.9859 5.50877 14.9859 7.15795C14.9859 8.80713 13.6491 10.1437 11.9999 10.1437ZM19.7082 15.0001H18.4943V13.7862H19.7082V15.0001ZM19.7082 12.8686H18.4943V11.6545H19.7082V12.8686ZM19.7082 10.8075H18.4943V9.59338H19.7082V10.8075ZM21.5999 15.0001H20.386V13.7862H21.5999V15.0001ZM21.5999 12.8686H20.386V11.6545H21.5999V12.8686ZM21.5999 10.8075H20.386V9.59338H21.5999V10.8075ZM12.7409 6.41691H13.8845V7.89899H12.7409V9.04306H11.2588V7.89899H10.1153V6.41691H11.2588V5.27335H12.7409V6.41691Z" fill="#396AFF"/>
</svg>
