<svg width="24" height="24" viewBox="0 0 24 24" fill="none" xmlns="http://www.w3.org/2000/svg">
<g clip-path="url(#clip0_1091_21215)">
<path d="M9.5832 0H4.13281V3.32363L9.5832 2.41523V0Z" fill="#16DBCC"/>
<path d="M21.5818 22.5914V6.85609H12.7031V22.5914H11.2969V5.44984V3.55469L2.41819 5.03444V22.5914H0V23.9977H24V22.5914H21.5818ZM18.1098 8.87814H19.6035V10.2844H18.1098V8.87814ZM18.1098 12.3065H19.6035V13.7127H18.1098V12.3065ZM18.1098 15.7348H19.6035V17.141H18.1098V15.7348ZM18.1098 19.1631H19.6035V20.5694H18.1098V19.1631ZM14.6815 8.87814H16.1752V10.2844H14.6815V8.87814ZM14.6815 12.3065H16.1752V13.7127H14.6815V12.3065ZM14.6815 15.7348H16.1752V17.141H14.6815V15.7348ZM14.6815 19.1631H16.1752V20.5694H14.6815V19.1631ZM7.82484 5.44984H9.31852V6.85609H7.82484V5.44984ZM7.82484 8.87814H9.31852V10.2844H7.82484V8.87814ZM7.82484 12.3065H9.31852V13.7127H7.82484V12.3065ZM7.82484 15.7348H9.31852V17.141H7.82484V15.7348ZM4.39655 8.87814H5.89022V10.2844H4.39655V8.87814ZM4.39655 12.3065H5.89022V13.7127H4.39655V12.3065ZM4.39655 15.7348H5.89022V17.141H4.39655V15.7348ZM4.44023 19.1631H9.27483V22.5914H7.86858V20.5694H5.84648V22.5914H4.44023V19.1631Z" fill="#16DBCC"/>
</g>
<defs>
<clipPath id="clip0_1091_21215">
<rect width="24" height="24" fill="white"/>
</clipPath>
</defs>
</svg>
