<svg width="24" height="24" viewBox="0 0 24 24" fill="none" xmlns="http://www.w3.org/2000/svg">
<path d="M20.1725 4.03295C20.1205 4.03695 14.8045 4.49295 12.2765 2.11295C12.1245 1.96495 11.8845 1.96495 11.7285 2.11295C9.20048 4.49295 3.88848 4.03695 3.83248 4.03295C3.72048 4.02095 3.61248 4.06095 3.52848 4.13695C3.44448 4.21295 3.39648 4.31695 3.39648 4.42895V8.13695C3.39648 20.525 11.8565 21.985 11.9405 21.997C11.9605 22.001 11.9845 22.001 12.0045 22.001C12.0245 22.001 12.0445 22.001 12.0645 21.997C12.1485 21.985 20.6085 20.525 20.6085 8.13695V4.42895C20.6085 4.31695 20.5605 4.21295 20.4805 4.13695C20.3965 4.06095 20.2845 4.02095 20.1725 4.03295ZM16.2765 13.017C16.2765 13.237 16.0965 13.417 15.8765 13.417H13.4125V15.881C13.4125 16.101 13.2325 16.281 13.0125 16.281H10.9885C10.7685 16.281 10.5885 16.101 10.5885 15.881V13.417H8.12448C7.90448 13.417 7.72448 13.237 7.72448 13.017V10.993C7.72448 10.773 7.90448 10.593 8.12448 10.593H10.5885V8.12895C10.5885 7.90895 10.7685 7.72895 10.9885 7.72895H13.0125C13.2325 7.72895 13.4125 7.90895 13.4125 8.12895V10.593H15.8765C16.0965 10.593 16.2765 10.773 16.2765 10.993V13.017Z" fill="#16DBCC"/>
</svg>
