<svg width="24" height="24" viewBox="0 0 24 24" fill="none" xmlns="http://www.w3.org/2000/svg">
<g clip-path="url(#clip0_1091_21194)">
<path d="M4.22701 19.7484C4.22701 18.8312 3.63626 18.0565 2.818 17.7647V10.6552L1.409 9.99219V17.7648C0.590748 18.0565 0 18.8312 0 19.7484C0 20.9139 0.94807 21.8619 2.1135 21.8619C3.27894 21.8619 4.22701 20.9139 4.22701 19.7484Z" fill="#396AFF"/>
<path d="M19.6165 15.9361L18.9141 11.7227L12.0231 14.9653L5.08515 11.7227L4.38281 15.9361C4.52987 16.0297 7.17433 19.0444 12.0231 19.0444C16.8368 19.0444 19.4755 16.0257 19.6165 15.9361Z" fill="#396AFF"/>
<path d="M0 7.77273L12.0235 13.4087L24 7.77273L12.0235 2.13672L0 7.77273ZM12.728 8.47723H11.319V7.06823H12.728V8.47723Z" fill="#396AFF"/>
</g>
<defs>
<clipPath id="clip0_1091_21194">
<rect width="24" height="24" fill="white"/>
</clipPath>
</defs>
</svg>
