<svg width="24" height="24" viewBox="0 0 24 24" fill="none" xmlns="http://www.w3.org/2000/svg">
<path d="M21.2812 14.1562C20.427 14.1562 19.7344 14.8488 19.7344 15.7031V14.7656C19.7344 13.9113 19.0418 13.2188 18.1875 13.2188C17.3332 13.2188 16.6406 13.9113 16.6406 14.7656C16.6406 13.9113 15.948 13.2188 15.0938 13.2188C14.2395 13.2188 13.5469 13.9113 13.5469 14.7656V10.7812C13.5469 9.92695 12.8543 9.23438 12 9.23438C11.1457 9.23438 10.4531 9.92695 10.4531 10.7812V19.0781C10.4531 19.4664 10.1383 19.7812 9.75 19.7812C9.36169 19.7812 9.04688 19.4664 9.04688 19.0781V15.6931L8.55755 16.1825C7.78491 16.9551 7.35938 17.9824 7.35938 19.0751C7.35938 20.1566 7.79934 21.2142 8.56641 21.9765L10.2952 23.6947C10.4219 23.8791 10.6343 24 10.875 24H20.25C20.4022 24 20.5502 23.9506 20.6719 23.8594C22.0221 22.8467 22.8281 21.2346 22.8281 19.5469V15.7031C22.8281 14.8488 22.1355 14.1562 21.2812 14.1562Z" fill="#EAB318"/>
<path d="M16.7619 5.125C16.7619 5.125 16.1055 5.12528 16.0684 5.12542V5.97395C16.3404 5.97292 16.6317 5.97194 16.7619 5.97194C16.9954 5.97194 17.1854 5.78195 17.1854 5.54847C17.1854 5.31498 16.9954 5.125 16.7619 5.125Z" fill="#EAB318"/>
<path d="M22.5938 0H1.40625C0.629578 0 0 0.629578 0 1.40625V7.96875C0 8.74542 0.629578 9.375 1.40625 9.375H9.40369C9.90431 8.45438 10.8804 7.82812 12 7.82812C13.1196 7.82812 14.0956 8.45438 14.5963 9.375H22.5938C23.3704 9.375 24 8.74542 24 7.96875V1.40625C24 0.629578 23.3704 0 22.5938 0ZM9.22312 5.85459C9.08925 6.60427 8.37816 7.14844 7.5323 7.14844C6.858 7.14844 6.22453 6.87609 5.79427 6.40134C5.57695 6.16158 5.59519 5.79098 5.835 5.57372C6.07472 5.35641 6.44531 5.37464 6.66263 5.61445C6.86812 5.84123 7.1932 5.97661 7.5323 5.97661C7.85883 5.97661 8.04586 5.78091 8.06948 5.64867C8.09723 5.49337 7.87322 5.35177 7.65441 5.271C7.07048 5.05561 6.55177 4.8247 6.52997 4.81495C6.50175 4.80234 6.47461 4.78758 6.44873 4.77075C6.01523 4.48814 5.79187 3.99263 5.8658 3.47766C5.94413 2.9318 6.34139 2.48775 6.90244 2.31872C7.93322 2.00831 8.8493 2.55136 9.05133 2.92955C9.20381 3.21497 9.09605 3.56995 8.81063 3.72244C8.55849 3.85716 8.25202 3.78872 8.07886 3.57417C8.01211 3.52547 7.67934 3.30848 7.24045 3.44077C7.11727 3.47789 7.03903 3.552 7.02581 3.64416C7.02052 3.68114 7.02398 3.7305 7.06458 3.76983C7.21144 3.83391 7.62127 4.00969 8.06002 4.1715C9.07247 4.545 9.3247 5.28586 9.22312 5.85459ZM13.9592 5.3902C13.9592 6.05803 13.5937 6.60989 12.93 6.94402C12.6607 7.07967 12.3644 7.14839 12.0491 7.14839C12.0481 7.14839 12.0472 7.14839 12.0463 7.14839C11.679 7.14792 11.3405 7.05037 11.0403 6.85842C10.4706 6.49444 10.1816 6.00136 10.1816 5.39283V2.8125C10.1816 2.48892 10.4439 2.22656 10.7676 2.22656C11.0911 2.22656 11.3535 2.48892 11.3535 2.8125V5.39292C11.3535 5.56716 11.4055 5.70122 11.6713 5.871C11.7822 5.94187 11.9053 5.97638 12.0478 5.97656C12.1792 5.97548 12.2969 5.95083 12.403 5.89744C12.7417 5.72686 12.7874 5.54531 12.7874 5.39025V2.8125C12.7874 2.48892 13.0497 2.22656 13.3733 2.22656C13.6969 2.22656 13.9592 2.48892 13.9592 2.8125V5.3902H13.9592ZM16.7621 7.14398C16.4862 7.14398 15.4853 7.14844 15.4852 7.14844C15.4844 7.14844 15.4835 7.14844 15.4826 7.14844C15.3277 7.14844 15.1791 7.08708 15.0692 6.97772C14.9588 6.86775 14.8967 6.71836 14.8967 6.5625V4.54205V4.53923V2.8125C14.8967 2.48892 15.159 2.22656 15.4826 2.22656H16.5719C17.3708 2.22656 18.0207 2.87648 18.0207 3.67537C18.0207 3.92864 17.9552 4.16686 17.8405 4.37423C18.1581 4.66603 18.3575 5.08444 18.3575 5.54864C18.3575 6.42834 17.6418 7.14398 16.7621 7.14398Z" fill="#EAB318"/>
<path d="M16.5717 3.95231C16.7244 3.95231 16.8486 3.82809 16.8486 3.67537C16.8486 3.52266 16.7244 3.39844 16.5717 3.39844H16.0684V3.95334C16.0684 3.95334 16.4923 3.95231 16.5717 3.95231Z" fill="#EAB318"/>
</svg>
