<svg width="24" height="24" viewBox="0 0 24 24" fill="none" xmlns="http://www.w3.org/2000/svg">
<path d="M14.0348 6.96991C14.4643 6.96991 14.8137 6.6205 14.8137 6.19098C14.8104 5.97808 14.4778 5.41108 14.0348 4.82617C13.5919 5.41089 13.2594 5.97784 13.2559 6.19103C13.2559 6.62045 13.6053 6.96991 14.0348 6.96991Z" fill="#16DBCC"/>
<path d="M9.89062 16.9824H14.6097V18.2534H9.89062V16.9824Z" fill="#16DBCC"/>
<path d="M9.89062 14.3535H14.6097V15.5777H9.89062V14.3535Z" fill="#16DBCC"/>
<path d="M9.89062 11.6914H14.6097V12.95H9.89062V11.6914Z" fill="#16DBCC"/>
<path d="M16.0137 16.9824H18.1365V18.2534H16.0137V16.9824Z" fill="#16DBCC"/>
<path d="M21.7006 0H6.25987V22.6971C6.25987 23.1702 6.13523 23.6145 5.91797 24H18.6964C20.3561 24 21.7065 22.6496 21.7065 20.9897L21.7006 0ZM12.723 4.23867C13.1109 3.69895 14.0339 2.66869 14.0339 2.66869C14.0339 2.66869 14.9568 3.69895 15.3448 4.23867C16.127 5.32678 16.2174 5.87358 16.2174 6.19022C16.2174 7.3942 15.2378 8.37375 14.0339 8.37375C12.8298 8.37375 11.8503 7.3942 11.8503 6.19022C11.8503 5.87353 11.9407 5.32678 12.723 4.23867ZM19.5413 19.6587H8.48559V10.2863H19.5413V19.6587Z" fill="#16DBCC"/>
<path d="M16.0137 14.3535H18.1365V15.5777H16.0137V14.3535Z" fill="#16DBCC"/>
<path d="M16.0137 11.6914H18.1365V12.95H16.0137V11.6914Z" fill="#16DBCC"/>
<path d="M4.90075 22.6964V18.6621H2.30406H2.29492V22.6964C2.29492 23.416 2.87823 23.9993 3.59781 23.9993C4.31744 23.9993 4.90075 23.416 4.90075 22.6964Z" fill="#16DBCC"/>
</svg>
