<svg width="25" height="23" viewBox="0 0 25 23" fill="none" xmlns="http://www.w3.org/2000/svg">
<path d="M23.6842 19.1667V20.4444C23.6842 21.85 22.5 23 21.0526 23H2.63158C1.17105 23 0 21.85 0 20.4444V2.55556C0 1.15 1.17105 0 2.63158 0H21.0526C22.5 0 23.6842 1.15 23.6842 2.55556V3.83333H11.8421C10.3816 3.83333 9.21053 4.98333 9.21053 6.38889V16.6111C9.21053 18.0167 10.3816 19.1667 11.8421 19.1667H23.6842ZM11.8421 16.6111H25V6.38889H11.8421V16.6111ZM17.1053 13.4167C16.0132 13.4167 15.1316 12.5606 15.1316 11.5C15.1316 10.4394 16.0132 9.58333 17.1053 9.58333C18.1974 9.58333 19.0789 10.4394 19.0789 11.5C19.0789 12.5606 18.1974 13.4167 17.1053 13.4167Z" fill="#DA4ADD"/>
</svg>
