<svg width="30" height="30" viewBox="0 0 30 30" fill="none" xmlns="http://www.w3.org/2000/svg">
<path d="M10.7152 14.9706C11.7749 14.9706 12.8109 14.657 13.692 14.0694C14.5731 13.4817 15.2598 12.6465 15.6653 11.6694C16.0708 10.6922 16.1768 9.617 15.97 8.57969C15.7632 7.54237 15.2528 6.58956 14.5034 5.84176C13.7541 5.09395 12.7993 4.58474 11.7599 4.37852C10.7205 4.17229 9.64323 4.27832 8.66424 4.68319C7.68524 5.08807 6.84853 5.7736 6.25992 6.65309C5.67131 7.53259 5.35724 8.56654 5.35742 9.62419C5.35891 11.0419 5.9239 12.401 6.92839 13.4034C7.93288 14.4057 9.2948 14.9694 10.7152 14.9706Z" fill="#0CABA8"/>
<path d="M17.7234 19.3881C16.3658 17.9982 14.6238 17.0438 12.72 16.6468C10.8163 16.2498 8.83717 16.4282 7.03549 17.1592C5.23381 17.8902 3.69136 19.1407 2.60518 20.7508C1.51899 22.361 0.938379 24.2578 0.9375 26.1988C0.9375 26.447 1.03627 26.685 1.21209 26.8605C1.3879 27.0359 1.62636 27.1345 1.875 27.1345H19.5563C19.8049 27.1345 20.0433 27.0359 20.2192 26.8605C20.395 26.685 20.4938 26.447 20.4938 26.1988C20.4974 25.2067 20.3439 24.2202 20.0391 23.2758C19.5851 21.8158 18.7917 20.4836 17.7234 19.3881Z" fill="#0CABA8"/>
<path d="M22.0312 15.4386C24.2318 15.4386 26.0156 13.6582 26.0156 11.462C26.0156 9.26574 24.2318 7.48535 22.0312 7.48535C19.8307 7.48535 18.0469 9.26574 18.0469 11.462C18.0469 13.6582 19.8307 15.4386 22.0312 15.4386Z" fill="#0CABA8"/>
<path d="M22.031 16.5332C20.7743 16.5379 19.542 16.8795 18.4629 17.5222C18.6663 17.7037 18.8716 17.8824 19.0638 18.0789C20.3404 19.3885 21.2886 20.9806 21.8313 22.7255C22.0172 23.2999 22.1542 23.889 22.241 24.4864H28.1248C28.3734 24.4864 28.6119 24.3878 28.7877 24.2124C28.9635 24.0369 29.0623 23.7989 29.0623 23.5507C29.0603 21.6902 28.3189 19.9064 27.0007 18.5908C25.6825 17.2752 23.8952 16.5352 22.031 16.5332Z" fill="#0CABA8"/>
</svg>
