<svg width="281" height="182" viewBox="0 0 281 182" fill="none" xmlns="http://www.w3.org/2000/svg">
<path opacity="0.3" d="M199.563 181.088C200.692 180.422 201.808 179.734 202.913 179.025C216.988 169.977 229.066 156.646 233.055 140.389C237.045 124.132 231.331 104.981 217.044 96.2805C204.617 88.7185 188.708 90.1327 174.712 94.0955C160.717 98.0582 147.236 104.323 132.768 105.823C115.634 107.6 97.2618 102.728 81.7003 110.12C64.4285 118.327 56.6418 140.752 62.2395 159.045C64.8037 167.431 69.704 174.819 76.0283 180.855L199.563 181.088Z" fill="#FFCCD0"/>
<path opacity="0.6" d="M92.0638 181.018L92.0108 180.984C90.9077 180.283 89.8152 179.558 88.7651 178.83C73.4224 168.207 63.0437 153.865 59.5368 138.446C55.4121 120.308 61.9724 100.87 75.1341 92.2464C85.3895 85.5162 99.2274 84.7348 116.262 89.9261C120.692 91.2766 125.137 92.9071 129.436 94.4858C138.267 97.7268 147.398 101.078 156.794 102.125C162.61 102.771 168.671 102.56 174.533 102.354C185.315 101.977 196.462 101.589 206.267 106.6C222.381 114.843 230.866 137.828 225.179 157.833C222.725 166.469 217.732 173.302 208.484 180.679L208.426 180.724H208.353L92.0638 181.018ZM95.881 86.957C87.9511 86.957 81.0898 88.8369 75.3648 92.594C62.3463 101.136 55.8616 120.382 59.9478 138.355C63.4295 153.671 73.7499 167.921 89.0051 178.48C90.034 179.192 91.1039 179.902 92.1872 180.59L208.28 180.297C217.416 173 222.351 166.234 224.775 157.712C230.409 137.89 222.021 115.126 206.08 106.971C196.375 102.005 185.283 102.394 174.554 102.767C168.677 102.972 162.6 103.185 156.753 102.533C147.307 101.483 138.152 98.1222 129.298 94.8719C125.003 93.2958 120.563 91.6666 116.145 90.3201C108.772 88.0771 102.017 86.9556 95.881 86.9556V86.957Z" fill="#FFCCD0"/>
<path d="M251.783 171.969C247.633 171.969 244.256 168.813 244.256 164.938C244.256 161.062 247.633 157.906 251.783 157.906C255.933 157.906 259.311 161.062 259.311 164.938C259.311 168.813 255.939 171.969 251.783 171.969ZM251.783 160.52C249.078 160.52 246.877 162.499 246.877 164.934C246.877 167.368 249.078 169.346 251.783 169.346C254.487 169.346 256.688 167.367 256.688 164.934C256.688 162.5 254.494 160.52 251.783 160.52Z" fill="#3335CF"/>
<path d="M249.396 180.962H232.411L229.541 151.799H252.266L249.396 180.962ZM232.922 180.398H248.885L251.646 152.363H230.167L232.922 180.398Z" fill="#3335CF"/>
<path d="M246.27 178.303H235.528L233.691 160.374H248.106L246.27 178.303Z" fill="#EBEBFF"/>
<path d="M134.291 8.76599C130.313 10.6101 125.01 13.5765 126.021 18.8486C127.01 24.0226 133.248 23.094 136.893 21.8522C139.601 20.9396 142.187 19.7016 144.596 18.1654C146.154 17.1664 148.346 15.4391 147.814 13.2979C147.357 11.4591 145.225 10.9218 143.586 11.2588C141.209 11.747 138.495 13.1957 136.633 14.7227C134.943 16.1091 133.626 18.2676 133.958 20.5309C134.26 22.6005 135.968 24.0757 137.868 24.7244C140.234 25.5337 143.446 25.3679 145.823 24.6448C147.269 24.2057 148.607 22.895 147.66 21.3282C146.54 19.4709 144.213 19.9219 142.602 20.7391C140.425 21.8416 137.849 23.2824 136.769 25.5934C135.951 27.3486 136.08 29.5256 137.67 30.7966C139.228 32.0423 141.475 32.0463 143.362 31.903C144.924 31.7836 147.472 31.4573 147.723 29.4858C147.973 27.5144 145.53 26.595 143.977 27.1814C141.573 28.0902 140.067 31.0566 139.337 33.3544C138.485 36.0657 138.482 38.9727 139.327 41.6859C139.435 42.0308 139.978 41.8835 139.871 41.5359C138.783 38.0044 139.16 34.1239 141.023 30.9226C141.916 29.385 143.675 26.9546 145.775 27.6351C146.897 27.9987 147.692 29.3266 146.703 30.327C146.004 31.0301 144.827 31.2012 143.888 31.302C142.527 31.4467 141.064 31.505 139.725 31.1614C137.417 30.5671 136.269 28.4776 137.128 26.197C137.829 24.3397 139.546 23.1696 141.181 22.1932C142.735 21.2645 145.833 19.3236 147.173 21.6201C148.671 24.1911 143.796 24.4644 142.457 24.5652C140.49 24.7138 138.409 24.6435 136.688 23.5596C134.867 22.4134 134.053 20.4327 134.715 18.3565C135.376 16.2802 137.113 14.8766 138.958 13.8538C140.401 13.0578 142.095 12.1291 143.731 11.8094C144.879 11.5878 146.329 11.7696 147.013 12.8601C147.833 14.1655 146.856 15.5917 145.91 16.4819C143.259 18.9773 139.263 20.5534 135.842 21.6068C132.278 22.7039 126.428 22.9334 126.483 17.6931C126.526 13.1533 131.013 10.9099 134.57 9.26084C134.899 9.10827 134.613 8.62271 134.287 8.77395L134.291 8.76599Z" fill="#1B1B43"/>
<path d="M93.3842 35.3398C94.2964 37.2609 95.1264 39.2097 95.9351 41.1679L97.1164 44.1144L98.25 47.0795L96.5583 46.5807L99.3982 44.3519C100.346 43.6103 101.313 42.8925 102.27 42.1642L103.426 41.282L103.957 42.6206C104.341 43.5837 104.698 44.5588 105.07 45.5273C105.443 46.4958 105.781 47.4775 106.131 48.446C106.466 49.4303 106.816 50.4081 107.132 51.3991C107.447 52.3901 107.764 53.3891 108.049 54.3854L107.234 54.7198C106.735 53.8026 106.256 52.8779 105.797 51.9457C105.327 51.017 104.893 50.0738 104.443 49.1372C104.015 48.1912 103.571 47.2533 103.154 46.3021C102.738 45.3509 102.314 44.4049 101.913 43.4484L103.604 43.9035C102.655 44.6424 101.716 45.396 100.759 46.1243L97.8788 48.3014L96.6564 49.23L96.1883 47.8078L95.194 44.7937L94.2486 41.7622C93.6387 39.7338 93.0554 37.6987 92.5449 35.633L93.3842 35.3398Z" fill="#FF6673"/>
<path d="M173.675 41.5529C173.17 43.6185 172.583 45.6536 171.972 47.6821L171.028 50.7135L170.033 53.7277L169.564 55.1499L168.343 54.2212L165.47 52.0481C164.512 51.3198 163.574 50.5662 162.624 49.8273L164.315 49.3722C163.917 50.3288 163.486 51.2747 163.074 52.2259C162.661 53.1771 162.213 54.1164 161.785 55.061C161.336 55.9976 160.901 56.9409 160.43 57.8695C159.959 58.7982 159.493 59.7269 158.993 60.6436L158.179 60.3093C158.463 59.3063 158.769 58.3109 159.096 57.323C159.412 56.3319 159.759 55.3542 160.097 54.3698C160.435 53.3854 160.795 52.4143 161.158 51.4511C161.521 50.488 161.887 49.5076 162.272 48.5444L162.802 47.2058L163.958 48.088C164.915 48.8177 165.882 49.5341 166.83 50.2757L169.67 52.5045L167.978 53.0033L169.112 50.0382L170.293 47.0917C171.1 45.1336 171.932 43.1847 172.844 41.2637L173.675 41.5529Z" fill="#FF6673"/>
<path d="M158.84 99.7682L139.271 98.5742L113.736 105.324C109.322 106.492 105.249 108.694 101.853 111.749C98.4583 114.803 95.8389 118.623 94.2117 122.892L78.2578 164.699L109.609 136.902L118.244 180.668L176.815 180.48L176.626 119.719L158.84 99.7682Z" fill="#3335CF"/>
<path d="M143.229 122.456C139.682 122.456 136.37 121.075 134.18 118.632L134.599 118.256C136.943 120.869 140.648 122.211 144.507 121.838C148.642 121.44 152.255 119.122 154.421 115.488L154.905 115.778C152.651 119.566 148.877 121.98 144.564 122.399C144.114 122.435 143.669 122.456 143.229 122.456Z" fill="#C5C5FF"/>
<path d="M145.664 114.808C141.914 116.623 137.312 114.831 135.42 110.819L134.783 109.46L128.329 95.7387L124.382 87.337L143.461 78.1113L151.767 95.7719C155.176 103.037 152.455 111.523 145.664 114.808Z" fill="#FFBC96"/>
<path d="M145.275 92.1943C143.597 100.377 139.4 105.984 134.782 109.461L128.328 95.7392L145.275 92.1943Z" fill="#1B1B43"/>
<path d="M147.512 81.9548C147.512 91.8371 141.944 98.6097 134.882 102.102C127.614 105.695 120.025 91.8862 116.4 82.6592C112.637 73.0794 122.995 65.8955 131.667 65.8955C140.339 65.8955 147.512 72.0804 147.512 81.9548Z" fill="#FFBC96"/>
<path d="M147.904 76.3263C147.06 66.1826 144.999 56.5935 135.608 59.0452C132.042 54.0675 117.118 54.1604 113.458 65.9942C111.096 73.6292 103.514 77.3584 103.514 77.3584C112.618 82.149 121.015 80.3554 132.705 71.4415C136.36 76.7906 146.775 77.1661 146.775 77.1661L147.904 76.3263Z" fill="#1B1B43"/>
<path d="M150.821 81.0944C151.231 77.8917 149.536 75.035 147.034 74.7138C144.532 74.3926 142.171 76.7286 141.76 79.9314C141.349 83.1341 143.045 85.9908 145.547 86.312C148.049 86.6332 150.41 84.2972 150.821 81.0944Z" fill="#FFBC96"/>
<path d="M147.2 78.0922C146.594 78.5923 146.394 79.2703 146.404 79.9946C146.41 80.3574 146.466 80.7176 146.57 81.0652C146.671 81.4171 146.844 81.7442 147.078 82.0257L146.911 82.311C146.447 82.1584 146.101 81.7684 145.887 81.3544C145.672 80.9346 145.561 80.4691 145.564 79.9973C145.558 79.5144 145.686 79.0394 145.935 78.6255C146.058 78.4177 146.222 78.2368 146.416 78.0935C146.61 77.9501 146.831 77.8473 147.066 77.791L147.2 78.0922Z" fill="#1B1B43"/>
<path d="M131.464 85.8161C132.249 85.7641 132.838 85.0083 132.779 84.1281C132.721 83.2479 132.038 82.5765 131.253 82.6285C130.468 82.6805 129.879 83.4362 129.938 84.3165C129.996 85.1967 130.679 85.8681 131.464 85.8161Z" fill="#1B1B43"/>
<path d="M124.419 88.4108C125.084 88.1533 125.39 87.3397 125.101 86.5935C124.813 85.8473 124.039 85.4511 123.374 85.7086C122.709 85.9661 122.404 86.7797 122.692 87.5259C122.981 88.2722 123.754 88.6683 124.419 88.4108Z" fill="#1B1B43"/>
<path d="M135.227 80.0854C135.256 80.5324 132.884 80.3892 131.866 80.6041C130.995 80.7872 129.67 81.6362 129.073 80.7898C128.534 80.0257 129.888 79.1593 131.565 79.0479C133.242 78.9365 135.196 79.6422 135.227 80.0854Z" fill="#1B1B43"/>
<path d="M119.941 84.9974C120.207 85.3636 121.418 84.1046 122.114 83.7809C122.708 83.5049 123.971 83.5328 123.764 82.5776C123.577 81.7166 122.285 81.6887 121.294 82.4118C120.302 83.1348 119.675 84.6313 119.941 84.9974Z" fill="#1B1B43"/>
<path d="M129.436 95.0532C129.979 94.3992 130.753 93.976 131.54 93.7106C132.322 93.4474 133.149 93.3411 133.973 93.3975L134.034 93.7212C133.286 94.0768 132.529 94.2745 131.8 94.5172C131.07 94.76 130.373 95.0161 129.634 95.3238L129.436 95.0532Z" fill="#1B1B43"/>
<path d="M127.302 87.9753C127.355 88.6164 127.228 89.2596 126.936 89.8326C126.779 90.1265 126.579 90.3949 126.342 90.6286C126.123 90.8528 125.9 91.0399 125.848 91.1739C125.819 91.2443 125.808 91.321 125.817 91.3967C125.817 91.4578 125.83 91.4618 125.826 91.471C125.822 91.4803 125.851 91.5069 125.867 91.5334C126.042 91.6837 126.247 91.7961 126.468 91.8637C127.014 92.0395 127.569 92.1866 128.13 92.3042L128.122 92.6345C127.505 92.7251 126.877 92.7054 126.266 92.5761C125.906 92.5093 125.569 92.3507 125.288 92.1158C125.201 92.028 125.129 91.9267 125.074 91.816C125.023 91.7034 124.994 91.5824 124.987 91.4591C124.961 91.238 124.997 91.0141 125.093 90.813C125.311 90.415 125.586 90.2319 125.787 90.0422C125.986 89.8703 126.164 89.6757 126.318 89.4625C126.623 89.0393 126.814 88.5059 126.971 87.9395L127.302 87.9753Z" fill="#D28572"/>
<path opacity="0.2" d="M142.662 86.5512C142.686 84.5606 141.094 82.9272 139.104 82.9029C137.115 82.8785 135.482 84.4725 135.458 86.4631C135.434 88.4537 137.027 90.0871 139.016 90.1114C141.005 90.1357 142.638 88.5418 142.662 86.5512Z" fill="#FE5B52"/>
<path d="M191.467 120.185C188.735 114.435 184.512 109.524 179.238 105.962C173.965 102.4 167.834 100.318 161.483 99.9317L158.841 99.7686L178.322 144.156L199.645 136.236L191.467 120.185Z" fill="#3335CF"/>
<path d="M123.408 91.2547C123.197 88.0136 123.76 80.4065 121.789 81.2516C119.817 82.0967 119.324 93.0841 119.324 93.0841C119.324 93.0841 119.043 74.7761 116.937 75.6159C114.832 76.4557 114.825 89.7038 110.176 103.792L84.0816 158.933C80.9433 165.566 84.897 173.382 92.0977 174.776C94.6585 175.272 97.3121 174.861 99.6029 173.613C101.894 172.364 103.679 170.357 104.652 167.936C111.414 151.132 123.824 114.869 125.029 107.807C126.016 102.031 125.761 99.533 125.379 98.0485C124.748 95.5942 123.573 93.7819 123.408 91.2547Z" fill="#FFBC96"/>
<path d="M110.337 102.573C111.132 100.401 111.663 98.1296 112.143 95.861C112.623 93.5924 113.024 91.2999 113.438 89.0114L114.662 82.1393C114.878 80.9944 115.101 79.8495 115.368 78.7099C115.501 78.1394 115.648 77.5716 115.829 77.0051C115.92 76.7176 116.027 76.4355 116.149 76.16C116.215 76.0132 116.293 75.8721 116.383 75.7381C116.493 75.5552 116.665 75.4178 116.868 75.3508H116.847C116.93 75.3346 117.014 75.3257 117.099 75.3242C117.178 75.3398 117.255 75.3638 117.329 75.3959C117.443 75.4594 117.543 75.5446 117.624 75.6466C117.757 75.8133 117.866 75.9982 117.947 76.1958C118.102 76.5549 118.227 76.9258 118.322 77.3049C118.512 78.0428 118.664 78.7898 118.779 79.543C119.013 81.0382 119.176 82.5399 119.3 84.0431C119.544 87.0506 119.674 90.0635 119.644 93.083L119.004 93.0697C119.074 91.3649 119.202 89.6721 119.402 87.9793C119.602 86.2865 119.843 84.595 120.375 82.938C120.513 82.513 120.698 82.1045 120.925 81.7201C121.054 81.5094 121.219 81.3234 121.413 81.1708C121.527 81.0829 121.657 81.0187 121.796 80.982C121.935 80.9453 122.08 80.9369 122.222 80.9572C122.289 80.9746 122.355 80.9954 122.419 81.0196C122.495 81.0384 122.566 81.0738 122.626 81.1231C122.665 81.1533 122.703 81.1861 122.738 81.2212C122.761 81.2492 122.781 81.2794 122.799 81.3115C122.837 81.3666 122.87 81.4252 122.898 81.4866C122.99 81.697 123.063 81.9149 123.117 82.138C123.218 82.5597 123.297 82.9867 123.353 83.4169C123.558 85.1122 123.647 86.8197 123.618 88.5272C123.618 89.3855 123.558 90.2187 123.633 91.0478C123.703 91.8776 123.847 92.6994 124.063 93.5035C124.285 94.3122 124.548 95.1092 124.85 95.8915C125.179 96.6837 125.44 97.5026 125.631 98.3392C125.972 100.022 126.055 101.747 125.877 103.455C125.713 105.15 125.402 106.829 124.949 108.471L124.705 108.407C125.124 106.774 125.402 105.108 125.536 103.427C125.678 101.756 125.567 100.073 125.205 98.4361C125.008 97.6229 124.746 96.827 124.421 96.056C124.108 95.2603 123.836 94.4491 123.606 93.6256C123.377 92.7946 123.222 91.9448 123.143 91.0863C123.061 90.2227 123.111 89.3617 123.11 88.5245C123.129 86.843 123.031 85.1621 122.82 83.4938C122.765 83.0844 122.687 82.6782 122.588 82.2773C122.541 82.0889 122.479 81.9047 122.402 81.7267C122.385 81.6923 122.366 81.659 122.345 81.6272C122.324 81.5821 122.309 81.5794 122.309 81.5794C122.309 81.5794 122.264 81.5582 122.235 81.5463C122.206 81.5343 122.166 81.5197 122.132 81.5105C121.882 81.4707 121.612 81.6909 121.41 82.0252C121.21 82.3726 121.048 82.7404 120.926 83.1224C120.432 84.6971 120.203 86.3806 120.012 88.0496C119.821 89.7185 119.715 91.4127 119.656 93.0909L119.016 93.0763C119.044 90.0834 118.946 87.0811 118.716 84.0935C118.601 82.5996 118.451 81.1085 118.226 79.6319C118.12 78.8975 117.976 78.1691 117.795 77.4495C117.709 77.099 117.596 76.7557 117.457 76.4227C117.396 76.2715 117.315 76.1295 117.215 76.0008C117.182 75.9549 117.14 75.9154 117.092 75.8841C117.078 75.8841 117.067 75.8748 117.055 75.8695C117.043 75.8642 117.039 75.8774 117.026 75.8695H117.006C116.937 75.9108 116.88 75.9682 116.839 76.0366C116.767 76.1443 116.704 76.2579 116.651 76.3763C116.535 76.631 116.435 76.8924 116.35 77.159C116.173 77.7003 116.027 78.2588 115.891 78.82C115.626 79.9437 115.391 81.0819 115.17 82.2215L113.906 89.0831C113.49 91.3729 113.034 93.6574 112.518 95.9287C112.002 98.1999 111.429 100.467 110.584 102.652L110.337 102.573Z" fill="#D28572"/>
<path d="M209.843 167.211C209.746 173.702 206.926 178.239 203.377 180.854L196.185 180.741L194.406 180.713H194.366L185.913 161.457L185.897 161.412L178.322 144.157L199.643 136.234L207.598 155.777C209.234 160.1 209.893 163.909 209.843 167.211Z" fill="#FFBC96"/>
<path d="M203.941 159.44L147.969 165.706L140.686 163.355C139.063 162.83 137.336 162.715 135.658 163.021C133.981 163.327 132.405 164.045 131.072 165.109C124.721 170.185 114.396 179.541 117.071 180.293C121.579 181.561 127.462 179.189 132.744 177.861C135.661 177.127 138.744 177.477 141.422 178.847L145.084 180.724L200.844 180.716L203.941 159.44Z" fill="#FFBC96"/>
<path d="M118.402 179.298C119.912 178.414 121.452 177.573 122.984 176.745C124.517 175.918 126.08 175.123 127.625 174.31C128.407 173.881 129.219 173.51 130.055 173.202C130.906 172.905 131.787 172.702 132.682 172.597C133.573 172.497 134.473 172.487 135.367 172.566C136.253 172.656 137.127 172.844 137.972 173.125L137.886 173.445C137.044 173.271 136.188 173.175 135.329 173.157C134.478 173.129 133.625 173.186 132.785 173.328C131.949 173.466 131.128 173.684 130.334 173.979C129.538 174.259 128.796 174.659 128.005 175.055C126.438 175.83 124.886 176.631 123.307 177.382C121.728 178.133 120.154 178.888 118.551 179.592L118.402 179.298Z" fill="#D28572"/>
<path d="M119.219 176.499C120.236 175.536 121.299 174.632 122.384 173.752C123.468 172.872 124.58 172.027 125.721 171.213C126.861 170.395 128.045 169.638 129.266 168.947C130.506 168.295 131.768 167.584 133.244 167.446L133.271 167.775C132.621 167.945 131.997 168.202 131.415 168.539C130.807 168.845 130.222 169.216 129.641 169.581C128.477 170.317 127.341 171.111 126.205 171.9C125.068 172.689 123.951 173.516 122.816 174.318C121.681 175.121 120.562 175.953 119.428 176.754L119.219 176.499Z" fill="#D28572"/>
<path d="M193.336 160.786L185.827 160.971L185.848 161.816L193.357 161.631L193.336 160.786Z" fill="#D28572"/>
<path d="M173.121 132.939L172.615 133.188L178.066 144.296L178.572 144.047L173.121 132.939Z" fill="#EBEBFF"/>
<path opacity="0.2" d="M209.843 167.21C209.747 173.701 206.927 178.239 203.377 180.854L196.186 180.741C196.184 180.732 196.184 180.722 196.186 180.713C195.728 179.08 195.655 177.363 195.971 175.697C196.288 174.031 196.986 172.461 198.01 171.109C199.035 169.758 200.358 168.663 201.877 167.909C203.395 167.156 205.067 166.764 206.762 166.766C207.805 166.764 208.843 166.913 209.843 167.21Z" fill="#FE5B52"/>
<path d="M120.685 173.917H88.585V180.679H120.685V173.917Z" fill="#1B1B43"/>
<path d="M99.4728 180.679H48.5059L33.8633 129.681H84.8302L99.4728 180.679Z" fill="#EBEBFF"/>
<path d="M48.3016 180.737L33.582 129.47H49.3503V129.893H34.1429L48.7086 180.621L48.3016 180.737Z" fill="#1B1B43"/>
<path d="M94.0127 162.035L84.6708 129.893H61.1768V129.47H84.9876L94.4184 161.917L94.0127 162.035Z" fill="#1B1B43"/>
<path d="M100.153 6.53148C100.818 4.29405 99.5447 1.94057 97.3087 1.27484C95.0726 0.60911 92.7206 1.88322 92.0553 4.12065C91.3899 6.35808 92.6633 8.71156 94.8993 9.37729C97.1354 10.043 99.4874 8.76891 100.153 6.53148Z" fill="#EBEBFF"/>
<path d="M11.8472 107.432C12.5379 104.504 10.7256 101.571 7.7994 100.879C4.8732 100.188 1.94117 102.002 1.25053 104.93C0.559879 107.858 2.37215 110.792 5.29835 111.483C8.22455 112.174 11.1566 110.36 11.8472 107.432Z" fill="#FFABAE"/>
<path d="M273.21 121.12C275.543 121.12 277.435 119.228 277.435 116.894C277.435 114.559 275.543 112.667 273.21 112.667C270.878 112.667 268.986 114.559 268.986 116.894C268.986 119.228 270.878 121.12 273.21 121.12Z" fill="#FF99A1"/>
<path d="M267.935 119.661L267.925 119.098C268.602 119.084 269.273 118.966 269.913 118.747L270.096 119.278C269.4 119.517 268.671 119.646 267.935 119.661ZM265.758 119.367C265.05 119.156 264.379 118.835 263.769 118.417L264.089 117.953C264.649 118.337 265.264 118.632 265.915 118.827L265.758 119.367ZM272.044 118.254L271.707 117.803C272.251 117.396 272.729 116.909 273.125 116.357L273.582 116.684C273.153 117.282 272.635 117.81 272.044 118.248V118.254ZM262.176 116.907C261.725 116.325 261.367 115.676 261.115 114.984L261.645 114.79C261.878 115.428 262.209 116.026 262.625 116.562L262.176 116.907ZM274.57 114.72L274.039 114.547C274.246 113.9 274.352 113.225 274.351 112.546C274.351 112.373 274.344 112.2 274.331 112.032L274.892 111.987C274.907 112.172 274.914 112.359 274.914 112.546C274.913 113.284 274.797 114.017 274.57 114.72ZM260.689 112.826C260.689 112.735 260.689 112.641 260.689 112.548C260.689 111.904 260.776 111.262 260.948 110.641L261.49 110.791C261.332 111.363 261.252 111.953 261.253 112.546C261.253 112.631 261.253 112.718 261.253 112.804L260.689 112.826ZM273.856 110.06C273.598 109.435 273.245 108.853 272.809 108.336L273.24 107.973C273.715 108.537 274.098 109.171 274.378 109.853L273.856 110.06ZM262.322 108.949L261.852 108.639C262.257 108.023 262.755 107.474 263.328 107.01L263.682 107.448C263.153 107.875 262.694 108.381 262.32 108.949H262.322ZM271.283 106.998C270.71 106.637 270.083 106.369 269.427 106.202L269.566 105.657C270.281 105.839 270.962 106.133 271.585 106.527L271.283 106.998ZM265.433 106.433L265.229 105.903C265.917 105.636 266.642 105.478 267.378 105.436L267.41 105.999C266.734 106.04 266.069 106.186 265.439 106.433H265.433Z" fill="#FF99A1"/>
<path d="M173.247 17.7148C172.635 17.7153 172.036 17.534 171.526 17.1938C171.016 16.8536 170.619 16.3697 170.384 15.8035C170.149 15.2373 170.087 14.6141 170.207 14.0127C170.326 13.4114 170.621 12.8589 171.054 12.4252C171.487 11.9916 172.039 11.6961 172.639 11.5763C173.24 11.4566 173.863 11.5178 174.429 11.7523C174.995 11.9867 175.479 12.384 175.82 12.8937C176.16 13.4034 176.342 14.0026 176.342 14.6157C176.341 15.4368 176.014 16.2241 175.434 16.805C174.854 17.3859 174.068 17.713 173.247 17.7148ZM173.247 12.0791C172.746 12.0791 172.256 12.2279 171.839 12.5066C171.422 12.7853 171.097 13.1815 170.905 13.645C170.713 14.1085 170.663 14.6185 170.761 15.1106C170.859 15.6026 171.1 16.0546 171.455 16.4093C171.809 16.7641 172.261 17.0057 172.753 17.1035C173.244 17.2014 173.754 17.1512 174.217 16.9592C174.681 16.7672 175.077 16.4421 175.355 16.0249C175.634 15.6078 175.782 15.1174 175.782 14.6157C175.782 13.9432 175.514 13.2984 175.039 12.8228C174.564 12.3473 173.919 12.0798 173.247 12.0791Z" fill="#9192FF"/>
<path d="M281 180.242H3.54492V181.089H281V180.242Z" fill="#1B1B43"/>
</svg>
