<svg width="30" height="30" viewBox="0 0 30 30" fill="none" xmlns="http://www.w3.org/2000/svg">
<g clip-path="url(#clip0_1117_12586)">
<path d="M27.9818 14.3653H26.1975C25.7913 13.2291 25.1368 12.2118 24.2991 11.3801L27.0509 10.1654C27.444 9.99181 27.6593 9.5581 27.5475 9.14325C27.2156 7.91178 26.0955 7.00586 24.7648 7.00586H22.4951C21.19 7.00586 20.088 7.87756 19.733 9.07294H17.3359C16.4356 12.3986 13.3946 14.8522 9.79126 14.8522C7.5917 14.8522 5.60179 13.9377 4.18024 12.469C3.77987 13.0403 3.45192 13.6664 3.21022 14.3342C2.49227 14.1771 1.90193 13.6092 1.73688 12.8697C1.63117 12.3959 1.16107 12.0972 0.687633 12.2033C0.213901 12.3091 -0.0844597 12.7788 0.0213024 13.2526C0.201069 14.0581 0.653473 14.7894 1.29514 15.3118C1.7343 15.6693 2.25069 15.9182 2.79784 16.043C2.75524 16.378 2.73321 16.7195 2.73321 17.066V17.9182C2.73321 21.1482 4.64021 23.9303 7.38457 25.191V27.1279C7.38457 28.182 8.23917 29.0366 9.29333 29.0366C10.3475 29.0366 11.2021 28.182 11.2021 27.1279V25.9113H18.3524V27.1279C18.3524 28.182 19.207 29.0366 20.2612 29.0366C21.3154 29.0366 22.1699 28.182 22.1699 27.1279V25.1165C24.1766 24.1404 25.7132 22.3424 26.3467 20.1577H27.9816C29.0964 20.1577 30.0001 19.2498 30.0001 18.1298V16.3931C30.0002 15.2732 29.0965 14.3653 27.9818 14.3653ZM21.4964 14.8727C21.0128 14.8727 20.6207 14.4807 20.6207 13.997C20.6207 13.5133 21.0127 13.1213 21.4964 13.1213C21.9801 13.1213 22.3722 13.5133 22.3722 13.997C22.3722 14.4807 21.9801 14.8727 21.4964 14.8727Z" fill="#16DBCC"/>
<path d="M9.79052 0.963379C6.45001 0.963379 3.73242 3.68437 3.73242 7.02885C3.73242 10.3734 6.45007 13.0944 9.79052 13.0944C13.131 13.0944 15.8486 10.3734 15.8486 7.02885C15.8486 3.68425 13.1308 0.963379 9.79052 0.963379ZM9.22795 6.10207H10.3531C11.6222 6.10207 12.6547 7.13532 12.6547 8.40534C12.6547 9.56785 11.7893 10.5314 10.6694 10.6862V11.0163C10.6694 11.5017 10.2759 11.8953 9.79052 11.8953C9.30512 11.8953 8.91161 11.5017 8.91161 11.0163V10.7085H8.68737C7.71635 10.7085 6.92626 9.91806 6.92626 8.94646C6.92626 8.46106 7.31978 8.06755 7.80518 8.06755C8.29057 8.06755 8.68409 8.46106 8.68409 8.94646L10.353 8.95068C10.6529 8.95068 10.8968 8.70599 10.8968 8.40528C10.8968 8.10458 10.6529 7.85989 10.353 7.85989H9.2279C7.95875 7.85989 6.92626 6.8267 6.92626 5.55668C6.92626 4.39411 7.79164 3.43054 8.91161 3.27573V3.04141C8.91161 2.55602 9.30512 2.1625 9.79052 2.1625C10.2759 2.1625 10.6694 2.55602 10.6694 3.04141V3.25341H10.8936C11.8646 3.25341 12.6547 4.0439 12.6547 5.0155C12.6547 5.5009 12.2612 5.89441 11.7758 5.89441C11.2904 5.89441 10.8969 5.5009 10.8969 5.0155C10.8969 5.0141 10.8968 5.01351 10.8968 5.01351L9.22795 5.01123C8.92807 5.01123 8.68414 5.25592 8.68414 5.55668C8.68414 5.85738 8.92807 6.10207 9.22795 6.10207Z" fill="#16DBCC"/>
</g>
<defs>
<clipPath id="clip0_1117_12586">
<rect width="30" height="30" fill="white"/>
</clipPath>
</defs>
</svg>
