<svg width="213" height="211" viewBox="0 0 213 211" fill="none" xmlns="http://www.w3.org/2000/svg">
<path d="M158.9 130.589H193.538V103.806H158.9V130.589Z" fill="#EBEBEB"/>
<path d="M161.369 128.254H165.544V123.526H161.369V128.254Z" fill="white"/>
<path d="M182.974 103.878H179.038V109.592H182.974V103.878Z" fill="#FAFAFA"/>
<path d="M182.974 124.794H179.038V130.508H182.974V124.794Z" fill="#FAFAFA"/>
<path d="M167.543 130.776C167.481 130.776 167.433 124.885 167.433 117.62C167.433 110.355 167.481 104.464 167.543 104.464C167.605 104.464 167.653 110.355 167.653 117.62C167.653 124.885 167.605 130.776 167.543 130.776Z" fill="#E0E0E0"/>
<path d="M144.769 176.712H204.534V130.503H144.769V176.712Z" fill="#EBEBEB"/>
<path d="M149.045 172.676H156.245V164.517H149.045V172.676Z" fill="white"/>
<path d="M186.305 130.623H179.518V140.482H186.305V130.623Z" fill="#FAFAFA"/>
<path d="M186.305 166.713H179.518V176.573H186.305V166.713Z" fill="#FAFAFA"/>
<path d="M159.692 177.029C159.586 177.029 159.5 166.867 159.5 154.33C159.5 141.794 159.586 131.632 159.692 131.632C159.797 131.632 159.879 141.794 159.879 154.33C159.879 166.867 159.797 177.029 159.692 177.029Z" fill="#E0E0E0"/>
<path d="M202.636 34.394L205.838 40.8951L213 41.9378L207.818 47.0022L209.04 54.1472L202.636 50.7741L196.237 54.1472L197.459 47.0022L192.277 41.9378L199.439 40.8951L202.636 34.394Z" fill="#EBEBEB"/>
<path d="M11.9936 118.36L14.0117 122.459L18.5272 123.117L15.2628 126.308L16.0298 130.815L11.9936 128.686L7.96227 130.815L8.72923 126.308L5.46484 123.117L9.98034 122.459L11.9936 118.36Z" fill="#EBEBEB"/>
<path d="M14.5004 82.6597L18.9775 91.7603L28.996 93.2162L21.7482 100.303L23.4595 110.303L14.5004 105.584L5.53651 110.303L7.2478 100.303L0 93.2162L10.0185 91.7603L14.5004 82.6597Z" fill="#EBEBEB"/>
<path d="M199.789 63.7568L201.716 67.6777L206.035 68.3071L202.914 71.3631L203.648 75.6731L199.789 73.6358L195.925 75.6731L196.663 71.3631L193.538 68.3071L197.857 67.6777L199.789 63.7568Z" fill="#EBEBEB"/>
<path d="M136.404 0.211426L138.336 4.13227L142.655 4.76172L139.53 7.81286L140.268 12.1229L136.404 10.0904L132.545 12.1229L133.284 7.81286L130.158 4.76172L134.477 4.13227L136.404 0.211426Z" fill="#EBEBEB"/>
<path d="M180.591 42.1777L181.856 44.7436L184.68 45.1568L182.638 47.1557L183.117 49.9762L180.591 48.6404L178.06 49.9762L178.544 47.1557L176.502 45.1568L179.325 44.7436L180.591 42.1777Z" fill="#EBEBEB"/>
<path d="M63.9649 171.768L66.424 176.765L71.9317 177.567L67.9483 181.459L68.8878 186.956L63.9649 184.361L59.0419 186.956L59.9815 181.459L55.998 177.567L61.501 176.765L63.9649 171.768Z" fill="#EBEBEB"/>
<path d="M70.465 166.794L71.4812 168.861L73.7534 169.192L72.1092 170.802L72.4975 173.07L70.465 171.998L68.4278 173.07L68.816 170.802L67.1719 169.192L69.4488 168.861L70.465 166.794Z" fill="#EBEBEB"/>
<path d="M161.373 147.652L163.54 152.048L168.377 152.75L164.878 156.176L165.702 161.005L161.373 158.722L157.045 161.005L157.869 156.176L154.37 152.75L159.207 152.048L161.373 147.652Z" fill="#82BD33"/>
<path d="M171.698 143.755L172.719 145.826L175.001 146.157L173.352 147.772L173.74 150.049L171.698 148.973L169.661 150.049L170.049 147.772L168.4 146.157L170.682 145.826L171.698 143.755Z" fill="#82BD33"/>
<path d="M129.727 147.445L37.8066 167.982C37.2746 168.104 36.7237 168.119 36.1858 168.026C35.6479 167.934 35.1335 167.736 34.6724 167.443C34.2112 167.151 33.8123 166.77 33.4988 166.322C33.1852 165.874 32.9631 165.368 32.8453 164.834L3.03441 30.656C2.91565 30.1243 2.9027 29.5744 2.9963 29.0377C3.0899 28.501 3.28821 27.9881 3.57987 27.5284C3.87152 27.0687 4.2508 26.6711 4.69598 26.3586C5.14115 26.046 5.64347 25.8245 6.17417 25.7069L98.0947 5.17048C98.6254 5.05139 99.1743 5.03835 99.71 5.13212C100.246 5.22588 100.758 5.42461 101.217 5.71692C101.676 6.00924 102.073 6.38941 102.385 6.83568C102.697 7.28196 102.919 7.78557 103.037 8.31772L132.867 142.496C132.986 143.028 132.999 143.578 132.905 144.114C132.811 144.651 132.613 145.164 132.321 145.624C132.03 146.083 131.65 146.481 131.205 146.794C130.76 147.106 130.258 147.328 129.727 147.445Z" fill="#E0E0E0"/>
<path d="M129.727 147.445L130.034 147.359C130.332 147.261 130.619 147.134 130.892 146.979C131.339 146.715 131.734 146.372 132.057 145.965C132.497 145.408 132.786 144.746 132.896 144.043C132.965 143.618 132.965 143.185 132.896 142.76C132.819 142.313 132.699 141.842 132.594 141.352C132.373 140.391 132.114 139.296 131.874 138.133C131.354 135.804 130.754 133.125 130.077 130.094C127.378 118 123.476 100.501 118.654 78.8735C116.257 68.0624 113.611 56.2181 110.778 43.4994C109.366 37.1441 107.904 30.5773 106.392 23.7991C105.641 20.41 104.877 16.9745 104.101 13.4925C103.708 11.7531 103.32 9.99928 102.922 8.23586C102.706 7.35691 102.201 6.5763 101.489 6.01944C100.777 5.46259 99.8988 5.16183 98.9958 5.1655C98.5455 5.17551 98.098 5.24004 97.6632 5.3577L96.321 5.6556L93.6222 6.26103L88.1768 7.47668L77.0942 9.95604L54.2579 15.0733L6.20762 25.798C5.19194 26.0236 4.30201 26.6328 3.72268 27.4989C3.14334 28.3651 2.91914 29.4217 3.09663 30.4492C3.53284 32.4913 4.0026 34.5382 4.4484 36.5755C5.35597 40.6437 6.25556 44.6879 7.14715 48.708L12.42 72.4493C15.8809 88.0125 19.2172 103.004 22.3953 117.323C25.5734 131.642 28.5886 145.191 31.4167 157.929C31.7683 159.531 32.1182 161.107 32.4665 162.658C32.6439 163.436 32.8021 164.224 32.989 164.988C33.1904 165.74 33.603 166.419 34.1778 166.944C34.749 167.46 35.453 167.806 36.2103 167.943C36.5858 168.004 36.9678 168.016 37.3463 167.977C37.7202 167.929 38.0989 167.837 38.4728 167.751L42.9356 166.756L59.8711 162.979L110.98 151.597L124.881 148.512L128.495 147.714L129.727 147.445L128.5 147.733L124.886 148.55L110.984 151.669L59.8854 163.119L42.9691 166.91L38.5063 167.909C38.1325 167.991 37.7586 168.087 37.3655 168.14C36.9725 168.18 36.5759 168.167 36.1863 168.102C35.3932 167.964 34.656 167.601 34.0616 167.057C33.4671 166.513 33.0401 165.81 32.8308 165.031C32.6391 164.258 32.4809 163.479 32.3035 162.701C31.9552 161.141 31.6037 159.565 31.249 157.973C28.4208 145.254 25.3961 131.666 22.2132 117.366C19.0303 103.066 15.694 88.0558 12.2283 72.4925L6.95541 48.7561C6.06382 44.7391 5.16423 40.6917 4.25666 36.6139C3.80607 34.5766 3.3411 32.5393 2.90009 30.478C2.71556 29.4016 2.95178 28.2953 3.55967 27.3889C4.16756 26.4825 5.10042 25.8456 6.16448 25.6106L54.2195 14.8715L77.0702 9.78787L88.148 7.31331L93.5935 6.09766L96.297 5.46341L97.6392 5.1655C98.0825 5.05032 98.5379 4.98902 98.9958 4.98291C99.9314 4.9851 100.84 5.29936 101.577 5.87617C102.315 6.45298 102.84 7.25951 103.07 8.1686C103.463 9.93682 103.856 11.6858 104.245 13.43C105.028 16.9152 105.798 20.346 106.555 23.7222C108.054 30.4972 109.513 37.064 110.932 43.4226C113.755 56.1413 116.382 67.9855 118.783 78.8014C123.577 100.424 127.46 117.938 130.144 130.037C130.81 133.059 131.405 135.75 131.922 138.075C132.176 139.243 132.402 140.314 132.632 141.299C132.737 141.78 132.857 142.26 132.929 142.707C133.001 143.137 133.001 143.575 132.929 144.005C132.82 144.72 132.526 145.394 132.076 145.96C131.749 146.367 131.351 146.71 130.901 146.974C130.625 147.13 130.333 147.254 130.029 147.344L129.727 147.445Z" fill="#263238"/>
<g opacity="0.3">
<path d="M42.466 163.23L126.218 144.039L123.568 127.582L118.822 118.361L38.7031 149.91L42.466 163.23Z" fill="black"/>
</g>
<g opacity="0.3">
<path d="M77.4297 10.0908L80.5982 15.333L81.2166 18.1103L79.0643 18.5908L77.4297 10.0908Z" fill="black"/>
</g>
<path d="M7.80371 31.4339L36.862 162.129L127.944 141.78L122.747 118.413L98.8854 11.085L7.80371 31.4339Z" fill="white"/>
<path d="M7.80362 31.4342L98.8805 11.0083H98.9572V11.09C107.039 47.4106 117.12 92.7358 128.03 141.785V141.886H127.934L36.8571 162.225H36.7709V162.134C19.6628 84.9566 7.97619 32.2174 7.79883 31.439C7.97619 32.2366 19.7395 84.9614 36.9482 162.134L36.838 162.066L127.915 141.708L127.838 141.828C116.942 92.7886 106.871 47.4635 98.8038 11.1332L98.8997 11.1957L7.80362 31.4342Z" fill="#263238"/>
<path d="M33.4466 15.8834L73.6142 6.91296C74.3997 6.73754 75.2225 6.88208 75.9017 7.31479C76.5808 7.7475 77.0607 8.43293 77.2357 9.22029L79.5561 19.6602L33.4558 29.9555L31.1375 19.525C31.0493 19.1338 31.0391 18.7291 31.1075 18.3339C31.176 17.9388 31.3217 17.5611 31.5363 17.2227C31.7509 16.8842 32.0302 16.5916 32.358 16.3618C32.6859 16.1319 33.0559 15.9694 33.4466 15.8834Z" fill="#263238"/>
<path d="M58.2795 5.05518L46.5498 7.67388L50.1641 17.4472L58.9986 15.4723L58.2795 5.05518Z" fill="#263238"/>
<path d="M73.619 6.90485C73.619 6.95771 64.6503 9.00942 53.5629 11.4888C42.4755 13.9681 33.4685 15.943 33.4541 15.8901C33.4397 15.8373 42.4228 13.7856 53.5198 11.3062C64.6168 8.82684 73.5903 6.86641 73.619 6.90485Z" fill="#455A64"/>
<path d="M34.0244 27.566C33.9717 27.566 33.5067 25.6921 32.989 23.3569C32.4713 21.0217 32.0878 19.1141 32.1454 19.0997C32.2029 19.0853 32.6631 20.9736 33.1808 23.3136C33.6985 25.6537 34.0772 27.566 34.0244 27.566Z" fill="#455A64"/>
<path d="M77.3626 16.8222C76.9774 15.5582 76.6574 14.2752 76.4039 12.9782C76.0866 11.7106 75.8338 10.4276 75.6465 9.13428C76.0308 10.3904 76.3508 11.6654 76.6052 12.9542C76.9232 14.2298 77.176 15.5208 77.3626 16.8222Z" fill="#455A64"/>
<path d="M75.5358 19.1045C75.5358 19.1574 66.3275 21.262 54.9477 23.8038C43.5679 26.3456 34.3355 28.3685 34.3116 28.3108C34.2876 28.2532 43.5151 26.1534 54.9237 23.6116C66.3323 21.0698 75.5071 19.0517 75.5358 19.1045Z" fill="#455A64"/>
<path d="M51.2765 57.1216C51.2765 57.1793 45.0689 58.6112 37.3753 60.3313C29.6817 62.0515 23.4741 63.3921 23.4406 63.3392C23.407 63.2864 29.6721 61.8497 37.3418 60.1343C45.0114 58.419 51.2621 57.0688 51.2765 57.1216Z" fill="#263238"/>
<path d="M97.6345 51.8888C97.6345 51.9464 81.3989 55.6222 61.3476 60.1004C41.2963 64.5787 25.0223 68.1679 25.0127 68.1151C25.0031 68.0622 41.2435 64.3816 61.3044 59.9034C81.3653 55.4252 97.6249 51.8359 97.6345 51.8888Z" fill="#263238"/>
<path d="M98.6364 56.3959C98.6364 56.4488 82.3959 60.1246 62.3446 64.6076C42.2934 69.0906 26.0242 72.6751 26.0098 72.6175C25.9954 72.5598 42.2454 68.8888 62.3015 64.4106C82.3576 59.9324 98.622 56.3287 98.6364 56.3959Z" fill="#263238"/>
<path d="M99.6334 60.8741C99.6334 60.927 83.3978 64.6028 63.3465 69.081C43.2952 73.5592 27.0212 77.1533 27.0068 77.0956C26.9925 77.038 43.2425 73.367 63.3034 68.884C83.3642 64.4009 99.6191 60.8213 99.6334 60.8741Z" fill="#263238"/>
<path d="M100.631 65.3669C100.631 65.4198 84.395 69.0955 64.3437 73.5738C44.2924 78.052 28.0184 81.6413 28.0088 81.5884C27.9992 81.5356 44.2396 77.8598 64.3005 73.3768C84.3614 68.8937 100.621 65.3092 100.631 65.3669Z" fill="#263238"/>
<path d="M101.633 69.8496C101.633 69.9073 85.3921 73.583 65.3408 78.0613C45.2895 82.5395 29.0107 86.1336 29.0107 86.0807C29.0107 86.0279 45.2464 82.3521 65.3025 77.8691C85.3586 73.386 101.618 69.8015 101.633 69.8496Z" fill="#263238"/>
<path d="M43.089 101.471C43.0696 101.423 43.0551 101.373 43.0459 101.322L42.9404 100.895C42.8494 100.506 42.7199 99.9626 42.5618 99.2851C42.2406 97.8965 41.79 95.9456 41.2531 93.6104L41.3586 93.6777L33.4972 95.4459C33.4972 95.4459 33.641 95.2201 33.5739 95.3258V95.3594V95.4267L33.6027 95.5612L33.665 95.8303L33.78 96.3637C33.8615 96.7192 33.9382 97.07 34.0149 97.4208C34.1683 98.1127 34.3217 98.795 34.4655 99.4581C34.7579 100.779 35.0311 102.029 35.2852 103.177L35.1797 103.11L40.8601 101.885L42.4755 101.548L42.9069 101.467L43.0603 101.438C43.0603 101.438 43.0219 101.438 42.9261 101.481L42.5186 101.582L40.9368 101.957L35.2421 103.316H35.1558V103.23L34.3217 99.5157C34.1731 98.8526 34.0197 98.1703 33.8423 97.4784C33.7657 97.1277 33.6842 96.7769 33.6075 96.4213C33.5643 96.2484 33.526 96.0658 33.4876 95.888L33.4253 95.6189L33.3965 95.4844V95.4171V95.3835V95.3594C33.3294 95.4699 33.4876 95.2153 33.4732 95.2393L41.3394 93.4951H41.4257V93.5816L42.6624 99.3475C42.8014 100.02 42.9117 100.558 42.9932 100.943C43.0267 101.116 43.0507 101.25 43.0747 101.361C43.0842 101.397 43.0891 101.434 43.089 101.471Z" fill="#263238"/>
<path d="M101.523 82.0447L46.6777 94.293L47.6972 98.8798L102.542 86.6315L101.523 82.0447Z" fill="#E0E0E0"/>
<path d="M46.1276 115.146C46.1095 115.096 46.0951 115.045 46.0845 114.993C46.0557 114.882 46.0221 114.738 45.979 114.565C45.8879 114.176 45.7585 113.638 45.6003 112.96C45.2791 111.567 44.8285 109.597 44.2917 107.281L44.3971 107.348L36.5358 109.116C36.5358 109.145 36.6796 108.89 36.6125 109.001V109.025V109.058V109.126L36.6412 109.26L36.7035 109.529C36.7419 109.712 36.7802 109.89 36.8234 110.067L37.0535 111.12C37.2069 111.816 37.3602 112.494 37.5041 113.157C37.7965 114.478 38.0697 115.728 38.3237 116.876L38.2183 116.809L43.9034 115.588L45.514 115.252L45.9454 115.166C45.9955 115.152 46.0469 115.143 46.0988 115.142L45.9694 115.18L45.5572 115.281L43.9753 115.66L38.2566 116.982H38.1704V116.895L37.3363 113.181C37.1877 112.518 37.0343 111.836 36.8569 111.144C36.7802 110.798 36.6987 110.442 36.622 110.091C36.5837 109.914 36.5406 109.736 36.5022 109.553L36.4399 109.284L36.4111 109.15V109.082V109.025L36.4878 108.9L44.3492 107.18H44.4355V107.261C44.9436 109.63 45.3942 111.586 45.6722 113.027C45.8112 113.7 45.9215 114.238 46.003 114.623C46.0365 114.796 46.0605 114.93 46.0845 115.041C46.1033 115.074 46.1178 115.109 46.1276 115.146Z" fill="#263238"/>
<path d="M104.559 95.7151L49.7139 107.963L50.7333 112.55L105.578 100.302L104.559 95.7151Z" fill="#E0E0E0"/>
<path d="M49.1673 128.816C49.1673 128.816 49.1673 128.758 49.1242 128.662C49.0811 128.566 49.0619 128.408 49.0187 128.235C48.9277 127.845 48.7982 127.307 48.6401 126.63C48.3189 125.241 47.8683 123.266 47.3314 120.95L47.4369 121.018L39.5563 122.786C39.5563 122.815 39.7001 122.56 39.633 122.671V122.704V122.738V122.805L39.6618 122.94L39.7241 123.209C39.7625 123.391 39.8008 123.569 39.8439 123.747L40.074 124.799C40.2274 125.496 40.3808 126.173 40.5246 126.836L41.3443 130.555L41.2389 130.493L46.924 129.268L48.5346 128.931L48.966 128.845C49.017 128.839 49.0684 128.839 49.1194 128.845L48.99 128.883L48.5777 128.984L46.9959 129.364L41.2772 130.685H41.1909V130.599C40.9369 129.455 40.6541 128.196 40.3569 126.884C40.2083 126.221 40.0549 125.544 39.8775 124.847C39.8008 124.501 39.7193 124.15 39.6426 123.795C39.6043 123.617 39.5611 123.439 39.5228 123.262L39.4653 122.992L39.4317 122.858V122.786V122.704C39.3646 122.81 39.5228 122.555 39.5084 122.584L47.3746 120.84H47.4608V120.926L48.6976 126.692C48.8366 127.365 48.9468 127.903 49.0283 128.292C49.0619 128.461 49.0906 128.595 49.1098 128.706C49.134 128.74 49.1534 128.777 49.1673 128.816Z" fill="#263238"/>
<path d="M107.597 109.39L52.752 121.639L53.7714 126.225L108.616 113.977L107.597 109.39Z" fill="#E0E0E0"/>
<path d="M35.5342 98.646L36.3587 97.3487L38.8082 98.7133L41.9575 93.9468L43.1798 94.7876L39.1101 100.794L35.5342 98.646Z" fill="#82BD33"/>
<path d="M38.4727 111.859L39.2971 110.562L41.7418 111.927L44.896 107.16L46.1135 108.001L42.0486 114.007L38.4727 111.859Z" fill="#82BD33"/>
<path d="M41.4834 125.41L42.3079 124.112L44.7574 125.472L47.9067 120.71L49.1291 121.551L45.0594 127.558L41.4834 125.41Z" fill="#82BD33"/>
<path d="M66.5914 142.405C66.5914 142.462 61.9705 143.543 56.247 144.807C50.5236 146.071 45.8739 147.075 45.8643 147.022C45.8547 146.969 50.4804 145.888 56.2039 144.62C61.9273 143.351 66.5771 142.356 66.5914 142.405Z" fill="#263238"/>
<path d="M76.9172 139.935C75.6661 140.321 74.3957 140.642 73.1112 140.896C71.8463 141.211 70.5664 141.463 69.2764 141.65C70.5262 141.265 71.795 140.944 73.0776 140.689C75.182 140.223 76.9077 139.882 76.9172 139.935Z" fill="#263238"/>
<path d="M111.114 129.148C111.114 129.201 106.958 130.181 101.809 131.329C96.6611 132.478 92.4715 133.367 92.4619 133.314C92.4523 133.261 96.6131 132.285 101.766 131.132C106.919 129.979 111.104 129.095 111.114 129.148Z" fill="#263238"/>
<path d="M106.666 141.794C106.666 141.794 106.709 141.665 106.757 141.415C106.82 141.045 106.801 140.666 106.699 140.305C106.529 139.734 106.308 139.179 106.038 138.647C105.656 137.942 105.432 137.161 105.381 136.36C105.393 135.867 105.507 135.382 105.716 134.936C105.926 134.49 106.227 134.093 106.599 133.77C107.035 133.407 107.556 133.162 108.113 133.059C108.671 132.956 109.245 132.997 109.782 133.179C110.371 133.359 110.897 133.704 111.296 134.174C111.509 134.427 111.635 134.742 111.656 135.072C111.661 135.25 111.61 135.425 111.509 135.571C111.408 135.717 111.263 135.827 111.095 135.884C110.782 135.986 110.461 136.065 110.136 136.12L109.178 136.317C108.535 136.447 107.883 136.562 107.212 136.648C105.913 136.836 104.593 136.844 103.291 136.672C102.703 136.545 102.089 136.645 101.57 136.951C101.158 137.367 100.81 137.841 100.535 138.359C100.368 138.614 100.136 138.819 99.8638 138.955C99.5866 139.077 99.2735 139.091 98.9866 138.993C98.4935 138.773 98.0244 138.503 97.5869 138.186C97.3839 138.051 97.1527 137.963 96.911 137.931C96.6849 137.906 96.4573 137.962 96.2687 138.09C95.9371 138.394 95.6627 138.755 95.4586 139.156C95.2405 139.501 94.9427 139.787 94.5905 139.991C94.2383 140.195 93.8422 140.311 93.4357 140.329C92.8209 140.354 92.2202 140.14 91.758 139.733C91.4676 139.481 91.2395 139.166 91.0917 138.811C91.04 138.689 91.003 138.561 90.9814 138.431C90.9814 138.431 91.0246 138.561 91.13 138.796C91.2855 139.136 91.5167 139.435 91.8059 139.671C92.2567 140.053 92.8362 140.249 93.4261 140.218C93.8139 140.198 94.1909 140.084 94.5249 139.886C94.8589 139.688 95.1399 139.411 95.3436 139.08C95.5544 138.659 95.8403 138.282 96.1872 137.965C96.4055 137.813 96.6704 137.743 96.935 137.768C97.1973 137.807 97.4487 137.9 97.6732 138.042C98.1036 138.347 98.5628 138.609 99.0441 138.825C99.2905 138.908 99.5588 138.896 99.7967 138.791C100.041 138.67 100.245 138.482 100.386 138.248C100.671 137.717 101.033 137.232 101.46 136.807C101.726 136.617 102.036 136.501 102.361 136.471C102.68 136.437 103.001 136.437 103.32 136.471C104.608 136.638 105.912 136.63 107.198 136.447C107.859 136.36 108.507 136.24 109.149 136.115L110.108 135.923C110.415 135.866 110.719 135.79 111.018 135.697C111.15 135.655 111.264 135.572 111.343 135.459C111.423 135.346 111.464 135.21 111.459 135.072C111.438 134.785 111.327 134.511 111.143 134.289C110.765 133.838 110.266 133.505 109.705 133.328C109.197 133.155 108.653 133.115 108.124 133.21C107.596 133.306 107.101 133.535 106.685 133.876C106.328 134.181 106.038 134.557 105.835 134.981C105.632 135.404 105.52 135.866 105.506 136.336C105.549 137.119 105.758 137.884 106.119 138.58C106.385 139.119 106.598 139.682 106.757 140.262C106.851 140.633 106.859 141.021 106.781 141.396C106.758 141.533 106.72 141.666 106.666 141.794Z" fill="#263238"/>
<path d="M116.574 135.644C116.493 135.677 116.41 135.703 116.325 135.721L115.596 135.894L112.921 136.514C110.668 137.042 107.552 137.782 104.125 138.652C100.698 139.522 97.6058 140.363 95.3768 140.978L92.7308 141.708L92.007 141.9C91.924 141.926 91.839 141.946 91.7529 141.958C91.8301 141.916 91.9122 141.884 91.9974 141.862L92.7068 141.636C93.3252 141.439 94.2216 141.156 95.3337 140.843C97.5627 140.19 100.645 139.33 104.077 138.441C107.509 137.552 110.625 136.85 112.892 136.365C114.024 136.12 114.944 135.928 115.582 135.803L116.315 135.663C116.4 135.649 116.487 135.643 116.574 135.644Z" fill="#263238"/>
<path d="M77.2517 30.2126L40.0225 38.5269L41.5809 45.5384L78.8101 37.2241L77.2517 30.2126Z" fill="#E0E0E0"/>
<path d="M112.471 143.99L124.502 207.689L135.494 187.331L156.327 199.588L134.209 137.561L112.471 143.99Z" fill="#A1CE66"/>
<g opacity="0.3">
<path d="M116.521 165.416C117.666 165.632 118.847 165.566 119.96 165.224C121.074 164.881 122.089 164.273 122.916 163.45C124.014 162.316 124.742 160.769 126.123 160.01C127.364 159.328 128.893 159.424 130.26 159.803C131.626 160.183 132.91 160.812 134.277 161.168C135.625 161.512 137.027 161.584 138.403 161.38C139.779 161.175 141.101 160.698 142.291 159.976L138.821 150.318L122.715 148.3L115.045 157.55L116.521 165.416Z" fill="black"/>
</g>
<path d="M134.712 184.803C134.645 184.803 132.853 178.201 130.71 170.028C128.567 161.855 126.875 155.205 126.952 155.19C127.028 155.176 128.807 161.783 130.95 169.966C133.092 178.149 134.78 184.784 134.712 184.803Z" fill="#263238"/>
<path d="M114.235 147.305L102.208 211L91.2115 190.641L70.3789 202.899L92.4962 140.876L114.235 147.305Z" fill="#A1CE66"/>
<g opacity="0.3">
<path d="M85.8809 159.428C85.8809 159.428 89.3034 162.249 93.3827 160.952C97.462 159.654 99.9978 159.376 102.208 160.952C104.417 162.528 110.395 167.655 110.395 167.655L111.78 160.308L103.751 149.256L95.372 150.952L89.4089 151.534L87.1895 155.748L85.8809 159.428Z" fill="black"/>
</g>
<path d="M184.752 89.8094C184.752 94.3789 178.928 98.3142 178.074 102.634C177.197 107.083 181.061 112.95 179.369 117.049C177.677 121.147 170.74 122.618 168.281 126.322C165.822 130.027 167.117 136.965 163.967 140.127C160.818 143.289 153.901 141.958 150.195 144.451C146.49 146.945 145.1 153.835 140.944 155.565C136.86 157.261 131.007 153.389 126.563 154.268C122.249 155.123 118.328 160.961 113.769 160.961C109.211 160.961 105.28 155.123 100.971 154.268C96.5319 153.389 90.6791 157.261 86.5902 155.565C82.5013 153.869 81.0393 146.916 77.3435 144.451C73.6477 141.986 66.7258 143.284 63.5669 140.127C60.408 136.97 61.7406 130.036 59.2528 126.322C56.7649 122.608 49.891 121.215 48.1701 117.049C46.4493 112.883 50.3416 107.088 49.4644 102.634C48.6111 98.3094 42.7822 94.3789 42.7822 89.8094C42.7822 85.2399 48.6111 81.2998 49.4644 76.9802C50.3416 72.5308 46.4732 66.6639 48.1701 62.5653C49.867 58.4667 56.7985 56.9964 59.2528 53.2966C61.707 49.5967 60.4176 42.6536 63.5669 39.4871C66.7163 36.3207 73.6333 37.6564 77.3435 35.1627C81.0537 32.6689 82.4342 25.7786 86.5902 24.0536C90.7462 22.3286 96.5271 26.2302 100.971 25.3509C105.285 24.4957 109.211 18.6528 113.769 18.6528C118.328 18.6528 122.254 24.4957 126.563 25.3509C131.002 26.2302 136.855 22.3527 140.944 24.0536C145.1 25.7786 146.5 32.7025 150.195 35.1627C153.891 37.6228 160.813 36.3303 163.967 39.4871C167.121 42.644 165.793 49.5775 168.281 53.2966C170.769 57.0156 177.643 58.3994 179.369 62.5653C181.094 66.7312 177.197 72.526 178.074 76.9802C178.928 81.2998 184.752 85.2255 184.752 89.8094Z" fill="#C1DE99"/>
<path d="M97.1603 49.9238C97.1603 49.9238 97.1076 49.8613 97.0309 49.7268C96.9542 49.5923 96.8344 49.376 96.7049 49.1406C96.4221 48.6313 96.0338 47.8817 95.5737 46.9495C94.6485 45.0852 93.4501 42.4617 92.2949 39.5019C91.1397 36.542 90.2529 33.7936 89.6729 31.8139C89.3852 30.8097 89.1647 29.9977 89.0257 29.4115C88.9634 29.152 88.9107 28.931 88.8723 28.758C88.8475 28.6836 88.8346 28.6058 88.834 28.5273C88.8712 28.5974 88.9002 28.6716 88.9203 28.7484L89.1168 29.3874C89.3037 29.9784 89.5482 30.7761 89.8406 31.7419C90.4638 33.7263 91.3793 36.4507 92.525 39.4298C93.6706 42.4089 94.8499 45.0083 95.7319 46.8919L96.7912 49.1166L97.074 49.722C97.1088 49.7865 97.1377 49.8541 97.1603 49.9238Z" fill="#263238"/>
<path d="M103.478 47.5163C103.394 47.3486 103.331 47.1711 103.291 46.9878C103.19 46.6418 103.056 46.1373 102.898 45.5127C102.582 44.2682 102.188 42.5288 101.834 40.5972C101.479 38.6656 101.23 36.9022 101.086 35.6241C101.009 34.985 100.961 34.4661 100.933 34.1057C100.911 33.9206 100.911 33.7335 100.933 33.5483C100.988 33.7267 101.025 33.9103 101.043 34.0961L101.273 35.6001C101.465 36.8734 101.752 38.6272 102.093 40.554C102.433 42.4808 102.812 44.2201 103.08 45.4742C103.209 46.0604 103.315 46.5602 103.401 46.9638C103.445 47.1449 103.471 47.3301 103.478 47.5163Z" fill="#263238"/>
<path d="M114.622 46.4062C114.55 46.4062 114.373 41.015 114.224 34.3698C114.076 27.7245 114.009 22.3285 114.076 22.3237C114.143 22.3189 114.325 27.7101 114.474 34.365C114.622 41.0198 114.689 46.4062 114.622 46.4062Z" fill="#263238"/>
<path d="M125.84 35.3312C125.907 35.3312 125.13 38.046 124.109 41.3518C123.088 44.6576 122.192 47.3147 122.144 47.2955C122.096 47.2763 122.853 44.5807 123.874 41.2749C124.895 37.9691 125.768 35.3119 125.84 35.3312Z" fill="#263238"/>
<path d="M130.413 49.2606C130.422 49.1811 130.443 49.1034 130.475 49.0299L130.691 48.3957C130.883 47.8479 131.17 47.0599 131.554 46.0893C132.307 44.1673 133.38 41.4814 134.607 38.5503C135.835 35.6193 136.975 32.9814 137.814 31.0786C138.227 30.1561 138.567 29.3969 138.826 28.8299L139.109 28.2245C139.18 28.09 139.219 28.0179 139.228 28.0227C139.211 28.0983 139.187 28.1723 139.156 28.2437L138.912 28.8684L137.977 31.1507C137.158 33.1015 136.06 35.7346 134.837 38.6512C133.615 41.5679 132.532 44.201 131.717 46.1566L130.782 48.4341L130.519 49.0492C130.492 49.1237 130.457 49.1947 130.413 49.2606Z" fill="#263238"/>
<path d="M136.386 52.3933C136.459 52.2233 136.55 52.0622 136.659 51.9128C136.851 51.6053 137.138 51.168 137.493 50.6347C138.212 49.5728 139.247 48.1217 140.451 46.5745C141.654 45.0273 142.809 43.6915 143.662 42.7305C144.089 42.25 144.444 41.8704 144.693 41.611C144.813 41.467 144.95 41.338 145.1 41.2266C145.008 41.3905 144.895 41.5422 144.765 41.6782C144.506 41.9954 144.18 42.3846 143.806 42.8458C142.986 43.8357 141.86 45.2051 140.657 46.7523C139.454 48.2995 138.404 49.7265 137.646 50.7644L136.75 51.9897C136.643 52.1365 136.521 52.2718 136.386 52.3933Z" fill="#263238"/>
<path d="M145.12 59.553C145.072 59.5049 148.868 55.8916 153.59 51.4854C158.311 47.0793 162.185 43.5476 162.218 43.5957C162.252 43.6437 158.474 47.2619 153.748 51.668C149.022 56.0742 145.168 59.6058 145.12 59.553Z" fill="#263238"/>
<path d="M160.353 61.0469C159.89 61.3399 159.41 61.6031 158.915 61.8349C158.013 62.3154 156.791 62.9833 155.439 63.7569C154.087 64.5305 152.841 65.1743 151.916 65.6068C151.437 65.823 151.082 65.9912 150.814 66.0873C150.682 66.1557 150.542 66.2043 150.396 66.2314C150.859 65.9384 151.339 65.6752 151.835 65.4434C152.736 64.9629 153.958 64.295 155.31 63.5214C156.662 62.7478 157.908 62.0799 158.833 61.6715C159.312 61.4553 159.667 61.2871 159.936 61.191C160.066 61.1206 160.207 61.0719 160.353 61.0469Z" fill="#263238"/>
<path d="M174.442 66.9042C174.466 66.9714 169.95 68.6244 164.375 70.5992C158.8 72.574 154.232 74.1164 154.213 74.054C154.194 73.9915 158.7 72.3338 164.279 70.3589C169.859 68.3841 174.418 66.8417 174.442 66.9042Z" fill="#263238"/>
<path d="M178.928 92.5963C178.928 92.6636 174.015 92.2551 167.97 91.6785C161.926 91.1019 157.027 90.5782 157.036 90.5061C157.046 90.4341 161.945 90.8521 167.994 91.4287C174.044 92.0053 178.933 92.529 178.928 92.5963Z" fill="#263238"/>
<path d="M175.319 115.641C175.29 115.703 170.703 113.589 165.075 110.927C159.447 108.265 154.908 106.05 154.937 105.988C154.965 105.925 159.553 108.035 165.18 110.701C170.808 113.368 175.347 115.578 175.319 115.641Z" fill="#263238"/>
<path d="M160.228 137.566C160.176 137.609 156.873 133.76 152.842 128.975C148.81 124.189 145.589 120.263 145.651 120.22C145.714 120.177 149.007 124.021 153.038 128.811C157.069 133.602 160.281 137.518 160.228 137.566Z" fill="#263238"/>
<path d="M147.631 140.483C147.482 140.316 147.349 140.136 147.233 139.945C146.989 139.589 146.643 139.065 146.231 138.417C145.397 137.115 144.28 135.293 143.101 133.251C141.922 131.209 140.915 129.326 140.225 127.966C139.875 127.279 139.592 126.721 139.41 126.332C139.302 126.134 139.212 125.927 139.142 125.712C139.277 125.892 139.396 126.083 139.496 126.284C139.726 126.707 140.024 127.245 140.383 127.884C141.126 129.234 142.162 131.099 143.336 133.141C144.51 135.183 145.603 137.014 146.399 138.335C146.773 138.969 147.089 139.493 147.334 139.906C147.454 140.087 147.553 140.28 147.631 140.483Z" fill="#263238"/>
<path d="M139.807 151.486C139.807 151.486 139.76 151.423 139.683 151.289L139.371 150.703C139.098 150.189 138.729 149.439 138.288 148.507C137.406 146.638 136.27 144.014 135.191 141.045C134.113 138.075 133.298 135.336 132.795 133.357C132.531 132.357 132.315 131.541 132.21 130.978C132.157 130.719 132.114 130.498 132.076 130.325C132.056 130.249 132.045 130.172 132.042 130.094C132.081 130.163 132.109 130.238 132.123 130.315L132.306 130.954C132.473 131.55 132.694 132.343 132.962 133.309C133.528 135.293 134.367 138.022 135.445 140.997C136.524 143.971 137.626 146.58 138.47 148.468L139.477 150.693C139.582 150.933 139.673 151.135 139.75 151.299C139.777 151.358 139.796 151.421 139.807 151.486Z" fill="#263238"/>
<path d="M123.961 143.755C123.857 143.202 123.788 142.644 123.755 142.083C123.645 141.05 123.467 139.623 123.208 138.061C122.949 136.499 122.647 135.096 122.417 134.083C122.267 133.54 122.151 132.988 122.072 132.43C122.144 132.563 122.198 132.705 122.235 132.853C122.331 133.131 122.451 133.535 122.59 134.039C122.863 135.044 123.189 136.442 123.453 138.023C123.682 139.362 123.842 140.712 123.932 142.068C123.966 142.587 123.985 143.029 123.985 143.303C123.997 143.454 123.989 143.606 123.961 143.755Z" fill="#263238"/>
<path d="M113.592 157.588C113.581 157.507 113.581 157.425 113.592 157.343C113.592 157.151 113.592 156.916 113.592 156.637C113.592 156.022 113.592 155.133 113.592 154.037C113.631 151.842 113.731 148.814 113.904 145.475C114.076 142.136 114.292 139.108 114.47 136.922C114.556 135.827 114.637 134.943 114.7 134.332C114.733 134.054 114.757 133.818 114.776 133.631C114.782 133.547 114.798 133.465 114.824 133.386C114.835 133.469 114.835 133.553 114.824 133.636C114.824 133.823 114.824 134.058 114.791 134.342C114.752 134.991 114.704 135.865 114.642 136.932C114.513 139.156 114.34 142.164 114.163 145.485C113.985 148.805 113.861 151.851 113.779 154.042C113.741 155.109 113.707 155.964 113.683 156.637C113.683 156.92 113.655 157.151 113.645 157.343C113.64 157.427 113.622 157.51 113.592 157.588Z" fill="#263238"/>
<path d="M105.166 133.386C105.162 133.8 105.114 134.212 105.022 134.616C104.897 135.365 104.696 136.398 104.432 137.528C104.168 138.657 103.89 139.675 103.67 140.411C103.574 140.812 103.435 141.202 103.253 141.573C103.296 141.163 103.377 140.757 103.497 140.363L104.188 137.48C104.437 136.398 104.667 135.418 104.849 134.597C104.916 134.184 105.022 133.778 105.166 133.386Z" fill="#263238"/>
<path d="M89.927 126.068C89.299 127.109 88.599 128.104 87.8322 129.047C87.1288 130.039 86.3618 130.985 85.5361 131.877C86.1628 130.835 86.8628 129.84 87.6309 128.898C88.3311 127.903 89.0982 126.958 89.927 126.068Z" fill="#263238"/>
<path d="M81.9361 120.667C81.9841 120.71 79.0121 124.213 75.2923 128.485C71.5725 132.756 68.5095 136.173 68.4567 136.139C68.404 136.105 71.3808 132.593 75.1006 128.321C78.8203 124.05 81.8834 120.619 81.9361 120.667Z" fill="#263238"/>
<path d="M77.933 114.704C76.7574 115.841 75.5238 116.915 74.2372 117.923C72.152 119.644 70.4263 120.999 70.4023 120.946C71.5787 119.812 72.8123 118.739 74.0981 117.731C75.325 116.658 76.6048 115.648 77.933 114.704Z" fill="#263238"/>
<path d="M73.2549 105.714C73.2837 105.776 69.1421 107.842 63.9987 110.322C58.8552 112.801 54.6705 114.766 54.6369 114.704C54.6034 114.641 58.7498 112.58 63.8932 110.096C69.0366 107.612 73.2262 105.651 73.2549 105.714Z" fill="#263238"/>
<path d="M71.3757 101.231C71.238 101.292 71.0929 101.334 70.9442 101.356C70.6614 101.423 70.254 101.51 69.7506 101.601C68.7392 101.793 67.3299 102.005 65.7672 102.163C64.2045 102.322 62.7809 102.389 61.7503 102.403C61.2374 102.403 60.8203 102.403 60.5327 102.403C60.3828 102.413 60.2322 102.399 60.0869 102.36C60.6368 102.284 61.1906 102.241 61.7455 102.23C62.7713 102.168 64.1854 102.072 65.7433 101.913C67.3012 101.755 68.7057 101.572 69.7219 101.433C70.2677 101.326 70.8203 101.259 71.3757 101.231Z" fill="#263238"/>
<path d="M69.8565 90.8762C69.5773 90.8994 69.2967 90.8994 69.0176 90.8762L66.7359 90.7609C64.8185 90.6648 62.1533 90.5783 59.2149 90.5927C56.2764 90.6071 53.6112 90.7273 51.689 90.8426L49.4121 90.9819C49.1337 91.0138 48.8532 91.0235 48.5732 91.0107C48.8456 90.9452 49.123 90.9035 49.4025 90.8858C49.9394 90.8233 50.7159 90.7465 51.6746 90.6648C53.5921 90.5062 56.2668 90.3621 59.2101 90.3428C62.1533 90.3236 64.8233 90.4438 66.7503 90.5831C67.709 90.6552 68.4903 90.7224 69.0272 90.7801C69.3055 90.7926 69.5826 90.8247 69.8565 90.8762Z" fill="#263238"/>
<path d="M70.7958 81.7851C70.7958 81.8524 67.6753 81.0404 63.8644 79.9737C60.0536 78.907 56.9809 77.994 57.0001 77.9268C57.0193 77.8595 60.1207 78.6667 63.9315 79.7334C67.7424 80.8001 70.815 81.7179 70.7958 81.7851Z" fill="#263238"/>
<path d="M72.8044 74.1744C72.7274 74.1699 72.6514 74.1537 72.5792 74.1264L71.9416 73.9342C71.3952 73.7612 70.6042 73.4921 69.6407 73.1414C67.1232 72.2147 64.6559 71.1562 62.2491 69.9701C59.8433 68.7827 57.5023 67.4674 55.2362 66.03C54.3686 65.4775 53.6735 65.0162 53.2038 64.6846L52.6669 64.2954C52.547 64.2041 52.4847 64.1561 52.4895 64.1465C52.562 64.1758 52.6311 64.2128 52.6956 64.257L53.2613 64.603C53.7406 64.9105 54.4501 65.3477 55.3273 65.8811C57.0865 66.9478 59.5504 68.3556 62.3594 69.725C65.1684 71.0944 67.7856 72.2092 69.703 72.9588C70.6617 73.3288 71.4335 73.6219 71.9752 73.8237L72.5935 74.0591C72.6669 74.0916 72.7375 74.1302 72.8044 74.1744Z" fill="#263238"/>
<path d="M77.3151 66.4865C77.2768 66.5394 74.8513 64.8961 71.8985 62.8107C68.9456 60.7254 66.5824 58.9908 66.6256 58.9331C66.6687 58.8754 69.0894 60.5235 72.047 62.6089C75.0047 64.6942 77.3535 66.4433 77.3151 66.4865Z" fill="#263238"/>
<path d="M67.7802 43.144C67.7802 43.144 67.8473 43.1825 67.9624 43.2738L68.4417 43.6966L70.2105 45.263L76.0155 50.4572L81.8444 55.6225L83.6084 57.1937L84.0877 57.631C84.1456 57.6787 84.1972 57.7336 84.2411 57.7944C84.2411 57.7944 84.174 57.7607 84.0542 57.6694L83.5748 57.2706C83.1386 56.9199 82.5203 56.4009 81.7581 55.7571C80.2338 54.4693 78.1534 52.6675 75.8765 50.6446C73.5995 48.6217 71.5623 46.7574 70.1242 45.3928C69.3956 44.7105 68.8108 44.1579 68.4082 43.7639L67.9528 43.3122C67.8377 43.2065 67.7706 43.1488 67.7802 43.144Z" fill="#263238"/>
<path d="M82.7314 43.5811C82.7314 43.5811 82.8609 43.6868 83.0574 43.9126C83.2539 44.1384 83.5368 44.47 83.8675 44.8736C84.5338 45.7097 85.4206 46.8917 86.341 48.2371C87.2613 49.5824 88.0331 50.8413 88.5652 51.7687C88.8336 52.2492 89.0445 52.6096 89.1787 52.8738C89.2617 53.0053 89.3262 53.1476 89.3705 53.2967C89.0191 52.8382 88.6988 52.3566 88.4118 51.8552C87.8413 50.9519 87.0456 49.717 86.13 48.3716C85.2145 47.0262 84.3517 45.8394 83.7333 44.9793C83.3719 44.5336 83.0374 44.0667 82.7314 43.5811Z" fill="#263238"/>
<g opacity="0.2">
<path d="M63.5723 39.492L84.4289 57.7941L89.6107 53.6378L77.5118 35.0522C77.5118 35.0522 76.5819 35.7345 74.1563 36.4265C71.8411 37.0944 64.9624 37.2721 63.5723 39.492Z" fill="black"/>
</g>
<g opacity="0.2">
<path d="M86.7871 24.0103L96.9685 49.5583L103.478 47.5162L101.307 25.3557C101.307 25.3557 100.19 25.62 97.702 25.3029C95.2908 24.9953 89.4475 22.7034 86.7871 24.0103Z" fill="black"/>
</g>
<g opacity="0.3">
<path d="M113.938 18.6627L114.623 46.4065L120.72 46.6996L126.894 25.4041C125.612 25.1488 124.392 24.6426 123.304 23.9145C121.195 22.5596 116.89 18.4369 113.938 18.6627Z" fill="black"/>
</g>
<g opacity="0.2">
<path d="M140.532 23.9048L130.413 49.4816L135.906 52.1195L149.832 34.8889C148.785 34.0032 147.892 32.9494 147.19 31.7705C145.877 29.6419 143.614 24.7553 140.532 23.9048Z" fill="black"/>
</g>
<g opacity="0.2">
<path d="M164.298 39.8618L145.45 59.5621L149.649 65.2368L168.066 52.9169C167.459 51.7973 167.049 50.5816 166.853 49.3228C166.412 46.9203 166.35 42.5574 164.298 39.8618Z" fill="black"/>
</g>
<g opacity="0.2">
<path d="M179.178 62.0898L153.796 72.5598L155.9 79.0609L177.984 76.6585C177.984 76.6585 177.845 75.9762 178.137 73.4824C178.415 71.0655 180.966 65.6647 179.178 62.0898Z" fill="black"/>
</g>
<g opacity="0.2">
<path d="M184.8 89.8096L157.127 90.7706L156.896 96.8873L177.988 103.076C178.128 102.195 178.41 101.344 178.822 100.553C180.394 97.6128 184.8 93.4613 184.8 89.8096Z" fill="black"/>
</g>
<g opacity="0.2">
<path d="M179.695 116.035L154.218 106.084L151.644 111.653L168.982 125.41C169.893 124.535 170.902 123.767 171.987 123.122C174.096 121.772 179.11 119.586 179.695 116.035Z" fill="black"/>
</g>
<g opacity="0.2">
<path d="M142.223 115.641L135.915 120.927C136.394 121.407 144.797 135.745 149.979 144.596C150.047 144.538 150.117 144.483 150.19 144.432C153.598 142.145 159.667 143.063 163.089 140.8L142.223 115.641Z" fill="black"/>
<path d="M130.633 125.674L121.219 128.893L125.677 154.513C125.966 154.411 126.263 154.329 126.564 154.268C131.002 153.389 136.855 157.262 140.944 155.565C141.504 155.325 142.024 155.001 142.488 154.604L130.633 125.674Z" fill="black"/>
<path d="M113.443 160.952L114.943 127.481L106.794 125.41L100.74 154.239L100.961 154.278C105.179 155.099 109.019 160.664 113.443 160.952Z" fill="black"/>
<path d="M92.9751 121.796C92.9751 121.796 82.2184 136.24 76.5908 144.015C76.8512 144.146 77.1041 144.292 77.3482 144.452C81.044 146.931 82.4389 153.836 86.5949 155.566C86.7866 155.643 86.9832 155.705 87.1797 155.763L102.207 127.25L92.9751 121.796Z" fill="black"/>
<path d="M81.9359 110.168L58.9941 125.972C59.0804 126.087 59.1763 126.198 59.253 126.318C61.7456 130.047 60.4178 136.961 63.5672 140.123C63.8578 140.409 64.1794 140.662 64.5259 140.877C72.6317 131.719 87.1848 115.276 87.7121 114.704L81.9359 110.168Z" fill="black"/>
<path d="M76.6768 98.8813L49.5503 103.273C49.9865 107.636 46.5543 113.142 48.1697 117.044C48.2671 117.282 48.3841 117.512 48.5197 117.731C58.0108 112.993 77.8416 103.139 78.6661 103.086L76.6768 98.8813Z" fill="black"/>
<path d="M75.196 83.7363L49.5555 76.3223C49.5315 76.5433 49.5027 76.7643 49.4644 76.9805C48.6111 81.305 42.7822 85.2403 42.7822 89.8098C42.7835 90.1141 42.8092 90.4177 42.8589 90.7179H74.1558L75.196 83.7363Z" fill="black"/>
<path d="M48.2754 62.3686C57.8624 67.5147 76.5907 77.927 76.5907 77.927L81.2021 69.1484L59.545 52.8115C59.4491 52.9797 59.358 53.1527 59.2525 53.292C56.8126 56.939 50.1353 58.3612 48.2754 62.3686Z" fill="black"/>
</g>
<path d="M184.752 89.8095L184.723 89.5019C184.712 89.2006 184.67 88.9012 184.599 88.6082C184.32 87.456 183.832 86.3649 183.161 85.3889C182.336 84.0627 181.09 82.578 179.805 80.6993C179.08 79.6999 178.523 78.588 178.156 77.4079C177.844 76.0304 177.844 74.6003 178.156 73.2228C178.425 71.7572 178.861 70.2485 179.239 68.6484C179.618 67.0484 179.973 65.3186 179.618 63.5504C179.417 62.6554 179.008 61.8207 178.425 61.1143C177.798 60.3951 177.083 59.7589 176.296 59.2211C174.705 58.0872 172.874 57.1838 171.124 56.0018C170.219 55.4168 169.397 54.7121 168.679 53.9068C167.975 53.0328 167.464 52.0191 167.179 50.9326C166.565 48.7463 166.426 46.4111 165.961 44.0759C165.758 42.8869 165.358 41.7403 164.777 40.6836C164.147 39.6198 163.19 38.7889 162.05 38.3148C160.873 37.8407 159.641 37.5178 158.383 37.3538C157.113 37.1424 155.809 36.9934 154.505 36.7628C153.169 36.5697 151.874 36.159 150.67 35.5471C149.477 34.828 148.466 33.8411 147.717 32.6641C146.922 31.5206 146.236 30.2905 145.507 29.0748C144.81 27.831 143.973 26.6704 143.015 25.6153C142.027 24.5479 140.679 23.8854 139.233 23.7557C137.755 23.7009 136.277 23.8743 134.851 24.2699C133.413 24.6206 131.937 25.0483 130.427 25.3318C128.901 25.6923 127.308 25.6626 125.797 25.2453C124.323 24.6657 122.944 23.8672 121.708 22.8764C120.428 21.9154 119.181 20.9545 117.815 20.0992C116.449 19.2439 114.901 18.6241 113.29 18.8066H112.988C112.888 18.8066 112.792 18.8499 112.696 18.8691C112.499 18.9172 112.298 18.9508 112.106 19.0085C111.72 19.1316 111.342 19.2792 110.975 19.4505C110.233 19.804 109.522 20.2169 108.847 20.6854C107.485 21.6464 106.196 22.6939 104.796 23.6452C104.099 24.1342 103.361 24.5619 102.591 24.9234C101.802 25.2774 100.956 25.4904 100.094 25.5528C98.364 25.5639 96.6423 25.3195 94.9838 24.8273C93.3139 24.3494 91.6106 23.9976 89.8883 23.775C89.0282 23.6901 88.16 23.7486 87.3189 23.9479C86.4812 24.1814 85.7085 24.6057 85.0612 25.1876C83.7382 26.3456 82.8178 27.9024 81.8975 29.4304C81.0285 31.0304 80.0127 32.5457 78.8632 33.9567C78.2546 34.6556 77.5235 35.237 76.7061 35.672C75.8716 36.0675 74.9952 36.3673 74.0936 36.5658C72.2912 36.9646 70.4505 37.1327 68.6338 37.4595C66.817 37.7862 64.962 38.3003 63.6485 39.5785C63.0146 40.2554 62.5252 41.0549 62.2105 41.9281C61.8931 42.8088 61.6604 43.7178 61.5154 44.6429C61.1799 46.4976 61.0361 48.4004 60.5567 50.2695C60.3507 51.2181 60.0067 52.1312 59.5357 52.9795C59.0394 53.8199 58.3888 54.5585 57.6183 55.1561C56.1035 56.3766 54.3827 57.2799 52.7337 58.289C51.9076 58.7873 51.1149 59.3395 50.3609 59.9419C49.6108 60.5427 48.9799 61.2794 48.501 62.1137C48.0444 62.9634 47.8133 63.9164 47.8299 64.8814C47.8469 65.8513 47.9609 66.8172 48.1703 67.7643C48.5729 69.6863 49.1817 71.5747 49.5076 73.5303C49.7009 74.5339 49.7397 75.5612 49.6227 76.5766C49.4866 77.5894 49.1614 78.5675 48.664 79.4596C47.6621 81.2134 46.3583 82.7558 45.2031 84.3895C44.6098 85.1946 44.093 86.0536 43.6596 86.9553C43.1846 87.8348 42.9359 88.819 42.9359 89.8191C42.9359 90.8191 43.1846 91.8034 43.6596 92.6828C44.0923 93.5849 44.6091 94.444 45.2031 95.2487C46.3583 96.8824 47.6621 98.4247 48.664 100.179C49.1522 101.054 49.4771 102.012 49.6227 103.004C49.7445 104.006 49.7121 105.02 49.5268 106.012C49.2057 107.987 48.5969 109.88 48.1894 111.802C47.9818 112.749 47.8678 113.715 47.8491 114.685C47.8302 115.651 48.0597 116.606 48.5154 117.457C48.9906 118.294 49.6201 119.033 50.3705 119.634C51.1245 120.236 51.9171 120.788 52.7433 121.287C54.3922 122.296 56.0987 123.209 57.6327 124.42C58.402 125.019 59.0523 125.757 59.5501 126.596C60.0246 127.441 60.3689 128.353 60.5711 129.301C61.0217 131.175 61.1751 133.078 61.5298 134.933C61.6786 135.858 61.9129 136.766 62.2297 137.648C62.5369 138.52 63.0181 139.321 63.6437 140.002C64.9715 141.295 66.841 141.809 68.6338 142.135C70.4266 142.462 72.2912 142.616 74.0936 143.029C74.9965 143.228 75.8744 143.528 76.7109 143.923C77.5272 144.36 78.258 144.941 78.868 145.638C80.006 147.051 81.0121 148.567 81.8735 150.165C82.7938 151.692 83.7142 153.249 85.0372 154.407C85.6835 154.988 86.4543 155.412 87.2902 155.647C88.1385 155.862 89.0165 155.933 89.8883 155.858C91.6075 155.627 93.3074 155.269 94.9742 154.787C96.6336 154.291 98.3573 154.045 100.089 154.057C100.952 154.122 101.797 154.336 102.586 154.691C103.356 155.053 104.094 155.481 104.791 155.969C106.191 156.93 107.476 157.992 108.842 158.924C109.514 159.396 110.224 159.81 110.965 160.164C111.333 160.334 111.711 160.482 112.097 160.606C112.293 160.659 112.49 160.697 112.686 160.745L112.983 160.807H113.281C114.896 160.99 116.449 160.327 117.811 159.515C119.172 158.703 120.423 157.679 121.698 156.738C122.937 155.747 124.316 154.948 125.792 154.369C127.304 153.954 128.896 153.924 130.422 154.282C131.932 154.571 133.389 154.998 134.847 155.349C136.275 155.74 137.753 155.913 139.233 155.863C140.678 155.728 142.022 155.065 143.01 153.999C143.966 152.94 144.802 151.778 145.503 150.535C146.226 149.324 146.912 148.094 147.708 146.945C148.461 145.77 149.472 144.784 150.665 144.062C151.868 143.45 153.164 143.04 154.5 142.851C155.809 142.616 157.108 142.467 158.378 142.26C159.637 142.089 160.869 141.758 162.045 141.275C163.184 140.799 164.14 139.969 164.773 138.906C165.35 137.849 165.748 136.702 165.952 135.514C166.431 133.179 166.556 130.839 167.174 128.653C167.456 127.567 167.968 126.554 168.675 125.683C169.39 124.876 170.212 124.171 171.119 123.588C172.869 122.406 174.7 121.503 176.287 120.369C177.077 119.832 177.794 119.194 178.42 118.471C179.003 117.767 179.41 116.933 179.609 116.04C179.776 115.177 179.8 114.292 179.68 113.421C179.581 112.586 179.431 111.758 179.23 110.942C178.846 109.342 178.415 107.833 178.147 106.367C177.835 104.99 177.835 103.56 178.147 102.182C178.515 101.003 179.072 99.8914 179.796 98.8908C181.095 97.0121 182.346 95.5274 183.151 94.2012C183.823 93.2257 184.311 92.1344 184.589 90.9819C184.661 90.689 184.703 90.3895 184.714 90.0882L184.742 89.7854C184.742 89.7854 184.742 89.8863 184.742 90.0882C184.733 90.3907 184.695 90.6916 184.627 90.9867C184.354 92.1484 183.867 93.2485 183.189 94.23C182.37 95.5658 181.128 97.0553 179.834 98.9341C179.115 99.9268 178.566 101.033 178.209 102.206C177.897 103.569 177.897 104.985 178.209 106.348C178.477 107.79 178.913 109.313 179.302 110.913C179.511 111.735 179.671 112.57 179.781 113.411C179.9 114.294 179.876 115.189 179.709 116.064C179.509 116.978 179.095 117.831 178.501 118.553C177.87 119.284 177.146 119.93 176.349 120.475C174.748 121.618 172.922 122.526 171.182 123.704C170.293 124.282 169.487 124.979 168.785 125.775C168.092 126.632 167.592 127.628 167.318 128.696C166.709 130.858 166.575 133.193 166.105 135.543C165.903 136.75 165.499 137.915 164.912 138.988C164.264 140.082 163.283 140.938 162.112 141.429C160.924 141.918 159.679 142.254 158.407 142.429C157.132 142.64 155.828 142.789 154.529 143.024C153.21 143.213 151.931 143.617 150.742 144.221C149.582 144.926 148.599 145.888 147.866 147.032C147.08 148.17 146.394 149.396 145.666 150.616C144.96 151.872 144.118 153.045 143.154 154.114C142.135 155.216 140.745 155.901 139.252 156.036C137.752 156.095 136.251 155.922 134.804 155.522C133.342 155.171 131.884 154.748 130.389 154.465C128.895 154.115 127.339 154.143 125.859 154.547C124.406 155.121 123.047 155.909 121.827 156.887C120.557 157.824 119.306 158.833 117.926 159.678C117.566 159.871 117.226 160.096 116.852 160.255C116.665 160.341 116.483 160.433 116.296 160.51L115.716 160.716C114.929 160.987 114.094 161.085 113.266 161.004L112.955 160.98C112.854 160.98 112.753 160.937 112.648 160.918C112.447 160.87 112.24 160.832 112.044 160.774C111.646 160.651 111.256 160.5 110.879 160.322C110.127 159.964 109.405 159.545 108.722 159.068C107.346 158.107 106.057 157.06 104.671 156.113C103.983 155.635 103.257 155.214 102.5 154.854C101.734 154.513 100.915 154.306 100.079 154.244C98.3704 154.236 96.6696 154.481 95.0317 154.969C93.3474 155.466 91.628 155.834 89.8883 156.07C88.9993 156.157 88.1021 156.097 87.2326 155.892C86.3617 155.649 85.5581 155.208 84.8838 154.604C83.5225 153.408 82.5925 151.837 81.6722 150.304C80.8193 148.718 79.8212 147.216 78.6906 145.816C78.1016 145.139 77.3931 144.577 76.6006 144.158C75.7837 143.769 74.9248 143.476 74.0409 143.284C72.2577 142.89 70.4218 142.722 68.5907 142.39C67.6681 142.236 66.7616 141.998 65.8823 141.679C64.9905 141.351 64.175 140.844 63.4856 140.189C62.8312 139.489 62.33 138.659 62.0139 137.753C61.6903 136.858 61.4512 135.935 61.2997 134.995C60.9642 133.126 60.8204 131.223 60.341 129.378C60.142 128.454 59.8059 127.565 59.344 126.74C58.8588 125.926 58.2245 125.21 57.4745 124.631C55.9885 123.435 54.2724 122.531 52.6186 121.517C51.7843 121.013 50.9837 120.454 50.2219 119.845C49.4465 119.222 48.7959 118.458 48.3045 117.592C47.8311 116.706 47.5934 115.713 47.6142 114.709C47.6256 113.714 47.7413 112.724 47.9593 111.754C48.3668 109.832 48.9756 107.91 49.2919 105.988C49.4729 105.02 49.5036 104.029 49.383 103.052C49.2378 102.081 48.9126 101.145 48.4243 100.294C47.4656 98.5641 46.1426 97.0313 44.9778 95.3832C44.3708 94.562 43.8397 93.6871 43.3911 92.7693C42.9035 91.8558 42.6484 90.8359 42.6484 89.7999C42.6484 88.7639 42.9035 87.7439 43.3911 86.8304C43.8335 85.9153 44.3599 85.0435 44.9634 84.2261C46.1282 82.578 47.4273 81.0452 48.4051 79.3202C48.893 78.4669 49.2181 77.53 49.3638 76.5574C49.4757 75.5794 49.4434 74.5902 49.268 73.6216C48.9468 71.6996 48.338 69.7776 47.9306 67.8556C47.7165 66.8865 47.6024 65.8979 47.5902 64.9054C47.5711 63.9005 47.8105 62.9076 48.2853 62.0224C48.7799 61.1602 49.4301 60.3977 50.2027 59.7737C50.9634 59.1631 51.7641 58.6045 52.5995 58.1016C54.2532 57.0877 55.9549 56.1796 57.4553 54.988C58.2039 54.4089 58.8366 53.6932 59.32 52.8786C59.7796 52.0519 60.1141 51.1612 60.3122 50.2358C60.758 48.3907 60.9114 46.4928 61.2709 44.6237C61.4208 43.6841 61.6583 42.7607 61.9804 41.8656C62.2694 40.9494 62.7726 40.1157 63.4479 39.4337C64.1232 38.7517 64.9513 38.2413 65.8631 37.9448C66.7424 37.6255 67.649 37.3874 68.5715 37.2336C70.4026 36.9021 72.2385 36.7531 74.0217 36.3447C74.904 36.1469 75.7623 35.8537 76.5814 35.4702C77.3716 35.0478 78.0782 34.4844 78.6666 33.8077C79.7972 32.4077 80.7954 30.9053 81.6482 29.3199C82.5686 27.7871 83.4985 26.2159 84.8647 25.0243C85.5422 24.4115 86.353 23.9657 87.2326 23.7221C88.1025 23.5194 88.9993 23.4594 89.8883 23.5443C91.6173 23.7761 93.3269 24.1358 95.0029 24.6206C96.6401 25.1133 98.3412 25.3595 100.051 25.351C100.879 25.2848 101.689 25.0768 102.447 24.736C103.207 24.3814 103.933 23.9601 104.619 23.4771C106.009 22.5161 107.298 21.4638 108.674 20.5268C109.356 20.0482 110.078 19.6287 110.831 19.2727C111.208 19.0966 111.595 18.9442 111.991 18.8163C112.192 18.7586 112.399 18.725 112.6 18.6769L112.902 18.6096H113.214C114.041 18.5313 114.876 18.6295 115.663 18.8979L116.243 19.1046C116.43 19.1814 116.612 19.2727 116.799 19.3592C117.178 19.5226 117.518 19.7436 117.873 19.9358C119.258 20.7815 120.504 21.7905 121.78 22.7275C122.998 23.7038 124.355 24.4925 125.806 25.0675C127.285 25.4739 128.843 25.502 130.336 25.1492C131.832 24.8705 133.289 24.4477 134.751 24.0969C136.199 23.6978 137.699 23.5228 139.199 23.578C140.691 23.7154 142.081 24.3997 143.101 25.4999C144.066 26.5708 144.91 27.7456 145.618 29.0028C146.346 30.2184 147.027 31.4485 147.813 32.5825C148.545 33.729 149.528 34.6923 150.689 35.3982C151.877 36.0038 153.157 36.4081 154.476 36.5946C155.775 36.83 157.079 36.979 158.354 37.1904C159.626 37.3672 160.871 37.703 162.059 38.1898C163.23 38.6808 164.213 39.5345 164.864 40.6259C165.449 41.7001 165.852 42.8644 166.057 44.0711C166.537 46.4207 166.661 48.7559 167.265 50.9182C167.543 51.9849 168.043 52.9806 168.732 53.8396C169.433 54.6379 170.239 55.3363 171.129 55.9153C172.869 57.0925 174.7 58.0007 176.296 59.1442C177.094 59.6889 177.817 60.335 178.449 61.0662C179.043 61.7867 179.458 62.638 179.661 63.5504C179.828 64.4264 179.853 65.3237 179.733 66.2075C179.623 67.0476 179.463 67.8804 179.254 68.7013C178.87 70.3061 178.429 71.8101 178.161 73.2708C177.849 74.6337 177.849 76.0498 178.161 77.4127C178.518 78.5863 179.067 79.6921 179.786 80.6849C181.075 82.5684 182.317 84.0483 183.141 85.3889C183.817 86.3711 184.305 87.471 184.579 88.6322C184.647 88.9273 184.685 89.2282 184.694 89.5308C184.752 89.7038 184.752 89.8095 184.752 89.8095Z" fill="#263238"/>
<path d="M100.434 155.859C100.501 155.859 98.7324 163.066 96.4843 171.917C94.2361 180.767 92.357 187.932 92.2899 187.917C92.2228 187.903 93.9916 180.71 96.2398 171.854C98.488 162.999 100.386 155.82 100.434 155.859Z" fill="#263238"/>
<path d="M113.765 133.424C137.798 133.424 157.28 113.895 157.28 89.8049C157.28 65.7146 137.798 46.1855 113.765 46.1855C89.7316 46.1855 70.249 65.7146 70.249 89.8049C70.249 113.895 89.7316 133.424 113.765 133.424Z" fill="white"/>
<path d="M86.9738 74.6934C86.3746 75.294 83.0766 81.3098 82.7746 86.2733C82.4727 91.2368 83.1869 119.096 83.1869 119.096L83.3163 120.946C91.1489 130.128 119.622 143.793 145.268 120.898L146.706 103.759L142.473 67.4763L127.757 63.8678L124.31 58.27L101.34 63.6612L99.2883 68.5142L86.9738 74.6934Z" fill="#455A64"/>
<path d="M122.734 43.682C123.745 39.9101 124.738 36.1142 125.088 32.227C125.437 28.3398 125.116 24.3228 123.573 20.7383C123.338 20.1954 121.397 16.5676 120.812 16.6589C120.395 16.7214 121.651 20.1329 121.459 20.5029C119.613 24.0922 119.278 28.3061 119.81 32.3087C120.359 36.1956 121.34 40.0088 122.734 43.6772" fill="#263238"/>
<path d="M122.35 28.7867C122.167 18.999 116.329 10.9507 106.574 11.4072L105.673 11.5033C101.31 11.9643 97.2798 14.0547 94.3843 17.3587C91.4888 20.6626 89.9401 24.938 90.0461 29.3345C90.257 37.8152 90.5926 47.1849 91.1247 51.6919C92.2224 61.0183 101.67 61.4892 101.67 61.4892L102.107 67.6252L106.109 71.9832L124.665 60.4514L122.35 28.7867Z" fill="#FFBF9D"/>
<path d="M101.694 61.5611C101.694 61.5611 107.605 61.2872 113.448 56.6841C113.448 56.6841 111.492 65.1456 102.107 65.2849L101.694 61.5611Z" fill="#FF9A6C"/>
<path d="M95.41 36.9406C95.4429 37.2914 95.6122 37.615 95.8813 37.8416C96.1504 38.0682 96.4977 38.1795 96.848 38.1515C97.0186 38.1472 97.1867 38.1087 97.3422 38.0384C97.4978 37.9681 97.6378 37.8673 97.7539 37.7419C97.87 37.6165 97.96 37.4692 98.0184 37.3085C98.0769 37.1477 98.1027 36.9769 98.0944 36.8061C98.0603 36.4558 97.8906 36.1329 97.6218 35.9065C97.353 35.6802 97.0064 35.5684 96.6563 35.5952C96.4855 35.5988 96.3171 35.6368 96.1613 35.707C96.0054 35.7771 95.8652 35.8779 95.7489 36.0034C95.6327 36.1288 95.5427 36.2765 95.4845 36.4375C95.4263 36.5985 95.401 36.7696 95.41 36.9406Z" fill="#263238"/>
<path d="M92.4483 33.0004C92.6304 33.1541 93.5604 32.3036 94.9936 32.1547C96.4269 32.0057 97.5486 32.6352 97.6876 32.419C97.7547 32.3373 97.5534 32.0394 97.0596 31.7511C96.3952 31.388 95.6354 31.2387 94.8834 31.3234C94.1386 31.4004 93.4373 31.7115 92.8797 32.2123C92.4722 32.6015 92.3572 32.9283 92.4483 33.0004Z" fill="#263238"/>
<path d="M108.06 35.8643C108.093 36.2151 108.262 36.5387 108.531 36.7653C108.801 36.9919 109.148 37.1032 109.498 37.0752C109.669 37.0709 109.837 37.0325 109.992 36.9621C110.148 36.8918 110.288 36.791 110.404 36.6656C110.52 36.5403 110.61 36.3929 110.669 36.2322C110.727 36.0715 110.753 35.9006 110.745 35.7298C110.712 35.3787 110.542 35.0545 110.273 34.8272C110.005 34.5998 109.657 34.4874 109.306 34.5141C109.136 34.519 108.967 34.5581 108.812 34.6289C108.656 34.6998 108.516 34.801 108.4 34.9268C108.284 35.0525 108.194 35.2002 108.136 35.3612C108.078 35.5222 108.052 35.6932 108.06 35.8643Z" fill="#263238"/>
<path d="M106.536 32.097C106.718 32.2556 107.653 31.4003 109.081 31.2513C110.51 31.1024 111.641 31.7318 111.775 31.5204C111.842 31.4339 111.646 31.136 111.152 30.8525C110.486 30.4876 109.724 30.3382 108.971 30.4249C108.225 30.4985 107.523 30.8101 106.967 31.3138C106.564 31.6982 106.449 32.0297 106.536 32.097Z" fill="#263238"/>
<path d="M102.557 43.6726C102.557 43.5909 101.651 43.5284 100.189 43.4948C99.8203 43.4948 99.4656 43.4611 99.3793 43.2161C99.3069 42.8416 99.3521 42.4538 99.5087 42.1061L100.295 39.2232C101.378 35.0909 102.121 31.7082 101.958 31.665C101.795 31.6217 100.774 34.9371 99.6909 39.0742L98.9527 41.9812C98.7721 42.4424 98.7586 42.9525 98.9143 43.4227C98.9797 43.5479 99.073 43.6563 99.1869 43.7396C99.3007 43.8229 99.4322 43.8789 99.571 43.9032C99.7796 43.9288 99.9904 43.9288 100.199 43.9032C101.661 43.8407 102.562 43.7542 102.557 43.6726Z" fill="#263238"/>
<path d="M106.877 44.22C106.642 44.22 106.805 45.7864 105.592 47.0357C104.379 48.285 102.716 48.285 102.716 48.506C102.716 48.6021 103.114 48.7702 103.818 48.7126C104.726 48.6272 105.575 48.224 106.215 47.5738C106.826 46.9448 107.17 46.1024 107.174 45.2242C107.198 44.5659 106.982 44.2007 106.877 44.22Z" fill="#263238"/>
<path d="M106.004 26.2642C106.186 26.639 107.595 26.3027 109.297 26.3315C110.999 26.3603 112.408 26.6726 112.59 26.2979C112.671 26.1201 112.398 25.7789 111.809 25.457C111.026 25.0769 110.169 24.8794 109.299 24.8794C108.43 24.8794 107.572 25.0769 106.79 25.457C106.186 25.7453 105.922 26.0864 106.004 26.2642Z" fill="#263238"/>
<path d="M92.539 28.1666C92.8218 28.4645 93.7758 28.0224 94.9598 27.8783C96.1438 27.7341 97.1744 27.8783 97.3565 27.5035C97.4428 27.3257 97.2511 27.023 96.7813 26.7539C96.152 26.4462 95.4457 26.3327 94.752 26.4276C94.0582 26.5226 93.4082 26.8217 92.8842 27.2872C92.5103 27.6668 92.4096 28.0176 92.539 28.1666Z" fill="#263238"/>
<path d="M122.316 35.7873C122.47 35.7008 128.519 33.2118 128.989 39.6312C129.459 46.0506 122.964 45.1761 122.92 44.9936C122.877 44.811 122.316 35.7873 122.316 35.7873Z" fill="#FFBF9D"/>
<path d="M124.694 42.4232C124.722 42.4232 124.809 42.4905 125.005 42.5626C125.278 42.6573 125.577 42.6418 125.839 42.5193C126.496 42.2214 126.985 41.1067 126.932 39.9487C126.91 39.3979 126.764 38.8592 126.506 38.3726C126.431 38.1772 126.309 38.003 126.152 37.8649C125.996 37.7268 125.807 37.6289 125.604 37.5798C125.475 37.5541 125.34 37.5752 125.224 37.6394C125.108 37.7035 125.019 37.8067 124.972 37.9306C124.895 38.118 124.948 38.2429 124.914 38.2573C124.881 38.2717 124.77 38.1564 124.799 37.8922C124.824 37.7297 124.904 37.5806 125.024 37.4693C125.191 37.3238 125.408 37.2496 125.628 37.2627C125.895 37.2942 126.148 37.3945 126.364 37.5537C126.58 37.7129 126.751 37.9255 126.86 38.1708C127.175 38.7052 127.353 39.3094 127.378 39.9295C127.431 41.222 126.86 42.4809 125.94 42.8124C125.772 42.8757 125.593 42.9003 125.414 42.8845C125.236 42.8687 125.063 42.8129 124.909 42.7211C124.718 42.577 124.674 42.4328 124.694 42.4232Z" fill="#FF9A6C"/>
<path d="M93.503 18.4367C92.434 17.9274 95.3245 14.3669 97.8172 13.0456C101.551 11.0515 107.351 9.59562 110.961 10.374C115.309 11.335 118.99 13.209 121.382 16.9664C123.774 20.7239 124.872 25.2069 125.035 29.6611C125.083 31.0209 125.035 32.4432 124.383 33.6348C123.582 35.1099 121.924 36.1142 122.125 38.065C122.173 38.4172 122.15 38.7755 122.058 39.1188C121.966 39.462 121.806 39.7834 121.588 40.0638C120.495 41.39 118.99 40.3089 118.257 39.1749C116.689 36.7725 116.339 33.7694 116.033 30.896C115.812 28.8587 115.596 26.7733 116.033 24.7745C116.272 23.6838 116.713 22.6411 116.895 21.5407C117.078 20.4404 116.967 19.2151 116.239 18.3695C116.069 18.1921 115.883 18.0312 115.683 17.889C114.74 17.1634 113.62 16.7034 112.441 16.5564C111.261 16.4094 110.063 16.5808 108.972 17.0529C105.448 18.5617 99.423 20.868 97.7357 19.7437C95.3149 18.1292 94.6822 16.9953 94.6822 16.9953L93.503 18.4367Z" fill="#263238"/>
<path d="M86.9741 74.6934C86.605 75.2075 81.3657 76.9517 79.3764 80.2719C77.3871 83.5921 75.4217 98.4971 75.4217 98.4971L74.1562 108.29C76.6489 112.239 79.9948 117.472 83.542 121.162L86.9741 74.6934Z" fill="#455A64"/>
<g opacity="0.3">
<path d="M126.343 89.0693C126.484 91.079 126.864 93.0647 127.474 94.9842C128.16 96.8726 129.363 98.6504 131.122 99.6258C131.855 100.029 132.685 100.299 133.303 100.875C133.921 101.452 134.295 102.384 134.894 103.061C135.644 103.807 136.569 104.35 137.584 104.642C140.439 105.692 143.469 106.181 146.509 106.084C146.605 105.055 146.61 101.279 146.706 100.246L126.343 89.0693Z" fill="black"/>
</g>
<path d="M142.473 67.4761C142.473 67.4761 149.079 69.4365 151.015 72.257C152.952 75.0775 156.379 86.0136 157.084 88.0413C157.788 90.069 157.17 94.7682 155.852 98.1317C154.534 101.495 152.242 104.421 148.288 104.859C144.333 105.296 138.082 103.009 136.673 101.495C135.264 99.9816 134.684 96.6325 134.684 96.6325C136.44 96.324 138.172 95.8888 139.865 95.3304" fill="#455A64"/>
<path d="M139.865 95.3642L139.784 95.3978L139.535 95.4891C139.314 95.566 138.983 95.6765 138.547 95.8063C137.287 96.1841 136.006 96.492 134.712 96.7288L134.765 96.6567C134.926 97.4823 135.152 98.2937 135.441 99.0832C135.599 99.5308 135.789 99.9661 136.011 100.385C136.239 100.833 136.538 101.241 136.898 101.591C137.304 101.941 137.752 102.237 138.231 102.476C138.737 102.742 139.257 102.981 139.789 103.191C140.929 103.649 142.102 104.021 143.297 104.306C144.588 104.624 145.909 104.793 147.238 104.811C147.583 104.814 147.929 104.798 148.273 104.763C148.62 104.723 148.964 104.662 149.304 104.58C150 104.423 150.669 104.162 151.288 103.807C152.578 103.059 153.66 102 154.438 100.727C155.26 99.4038 155.889 97.9703 156.307 96.4693C156.648 95.316 156.903 94.1387 157.069 92.9473C157.248 91.7937 157.305 90.6246 157.242 89.4589C157.204 88.8981 157.089 88.3452 156.901 87.8156C156.719 87.2775 156.542 86.7441 156.369 86.2156L155.339 83.126C154.658 81.1175 153.987 79.2196 153.316 77.4561C152.727 75.8152 152.017 74.2204 151.192 72.6848C150.811 72.0321 150.303 71.4634 149.697 71.0127C149.169 70.5916 148.608 70.214 148.019 69.8835C147.073 69.3428 146.095 68.8613 145.09 68.442C144.266 68.1009 143.614 67.8606 143.173 67.7021L142.67 67.5243C142.61 67.5083 142.552 67.4857 142.497 67.457C142.557 67.4649 142.617 67.4794 142.674 67.5003L143.187 67.654C143.638 67.7982 144.299 68.024 145.133 68.3508C146.147 68.7518 147.135 69.2156 148.091 69.7394C148.69 70.0699 149.262 70.4474 149.802 70.8685C150.426 71.3273 150.951 71.9075 151.346 72.5743C152.189 74.1183 152.913 75.7246 153.512 77.3793C154.198 79.1379 154.874 81.0406 155.559 83.0491C155.9 84.0533 156.245 85.0864 156.599 86.1387C156.777 86.6624 156.954 87.1958 157.132 87.7339C157.329 88.2817 157.45 88.8541 157.491 89.4349C157.559 90.6179 157.503 91.8049 157.323 92.9761C157.154 94.1804 156.896 95.3705 156.552 96.5366C156.123 98.0631 155.478 99.5196 154.634 100.861C153.835 102.169 152.721 103.254 151.394 104.018C150.754 104.382 150.065 104.65 149.347 104.811C148.998 104.894 148.644 104.957 148.288 104.998C147.933 104.998 147.578 105.061 147.233 105.046C145.886 105.022 144.547 104.844 143.24 104.518C142.034 104.228 140.851 103.847 139.702 103.379C139.167 103.162 138.644 102.916 138.135 102.644C137.642 102.396 137.181 102.088 136.764 101.726C136.393 101.358 136.085 100.931 135.853 100.462C135.631 100.037 135.44 99.5949 135.283 99.1409C135.002 98.3372 134.782 97.5131 134.626 96.676V96.6135H134.688C136.376 96.3204 137.67 95.9888 138.547 95.7486L139.544 95.4651L139.798 95.393C139.837 95.3642 139.865 95.3594 139.865 95.3642Z" fill="#263238"/>
<path d="M151.989 91.8227C151.941 91.8227 151.787 91.0058 151.236 89.7854C150.512 88.1988 149.501 86.7603 148.254 85.5426C147.564 84.8836 146.782 84.3269 145.934 83.8897L145.354 83.6302C145.163 83.5437 144.961 83.5053 144.779 83.4428C144.434 83.334 144.079 83.2599 143.72 83.2218L143.48 83.1882H142.828C142.603 83.1848 142.378 83.2041 142.157 83.2458C141.964 83.2846 141.769 83.3055 141.572 83.3083C141.754 83.2329 141.944 83.1797 142.138 83.1497C142.361 83.0863 142.591 83.0524 142.823 83.0488H143.255H143.49L143.739 83.0777C144.11 83.1036 144.478 83.168 144.837 83.2699C145.038 83.3204 145.236 83.3813 145.431 83.4524L146.035 83.7119C146.915 84.1473 147.723 84.7143 148.432 85.3936C149.706 86.6276 150.715 88.1089 151.399 89.7469C151.521 90.0256 151.627 90.3111 151.715 90.6022C151.789 90.821 151.85 91.044 151.897 91.2701C151.945 91.451 151.976 91.636 151.989 91.8227Z" fill="#263238"/>
<path d="M155.593 85.879C155.321 85.1797 154.987 84.5059 154.596 83.8657C153.603 82.3459 152.116 81.217 150.387 80.6704C148.36 80.0506 146.39 80.2428 145.014 80.3725L143.37 80.5695C143.17 80.6056 142.968 80.6233 142.766 80.6224C142.955 80.5482 143.153 80.4981 143.355 80.4734C143.739 80.3966 144.314 80.2956 144.995 80.1995C146.811 79.8813 148.675 79.96 150.459 80.4302C151.436 80.7244 152.343 81.2149 153.124 81.8717C153.764 82.4168 154.312 83.0627 154.745 83.784C155.041 84.2575 155.278 84.7658 155.449 85.2976C155.519 85.4852 155.568 85.6803 155.593 85.879Z" fill="#263238"/>
<path d="M150.612 78.7723C148.028 78.1616 145.327 78.2679 142.799 79.0799C143.13 78.863 143.495 78.7008 143.877 78.5994C144.785 78.3198 145.724 78.1583 146.672 78.1189C147.62 78.0852 148.569 78.1723 149.495 78.3783C149.885 78.453 150.262 78.5858 150.612 78.7723Z" fill="#263238"/>
<path d="M139.923 69.1289C139.961 69.1289 139.865 69.8064 139.788 70.8923C139.587 73.6738 139.827 76.4696 140.498 79.1761L140.325 79.2337C140.129 78.6812 139.975 78.2295 139.875 77.9124C139.812 77.7578 139.767 77.5966 139.74 77.4319C139.838 77.5811 139.915 77.7427 139.971 77.9124C140.1 78.2151 140.277 78.6571 140.498 79.2049L140.325 79.2578C139.946 77.9283 139.694 76.5655 139.573 75.188C139.447 73.763 139.46 72.3292 139.611 70.9067C139.673 70.3638 139.745 69.9457 139.803 69.6238C139.819 69.4539 139.859 69.2873 139.923 69.1289Z" fill="#263238"/>
<path d="M130.58 56.8042C130.58 56.8042 127.153 56.8042 126.722 60.9317C126.391 64.1029 126.722 67.1781 126.722 68.5715C126.722 69.965 126.113 74.8997 126.113 74.8997C126.113 74.8997 123.774 76.9802 123.812 79.4788C123.85 81.9774 125.634 82.7558 125.634 82.7558C125.335 83.53 125.269 84.3752 125.444 85.1866C125.62 85.998 126.029 86.7399 126.621 87.3205C126.621 87.3205 125.629 89.622 126.444 91.1644C126.913 91.9317 127.646 92.5006 128.505 92.7645C128.364 93.0681 128.29 93.3985 128.288 93.7332C128.285 94.068 128.355 94.3993 128.491 94.705C128.627 95.0106 128.828 95.2833 129.078 95.5047C129.328 95.7262 129.623 95.8912 129.943 95.9886C131.095 96.3462 132.301 96.4943 133.504 96.4259L136.064 96.3778L138.317 97.6271C138.317 97.6271 142.181 95.9406 142.277 93.6582L142.377 91.3759C142.377 91.3759 141.27 87.628 141.179 86.4267C141.088 85.2255 142.071 82.357 141.476 81.0692C140.882 79.7815 138.806 79.0223 139.003 77.2253C139.199 75.4282 138.806 74.4288 137.915 73.4342C137.023 72.4395 133.087 70.4599 133.087 70.4599C133.087 70.4599 132.076 67.5769 132.076 65.6021C132.076 63.6272 134.046 57.5586 130.58 56.8042Z" fill="#FFBF9D"/>
<path d="M132.891 71.2095C132.597 71.4512 132.275 71.6576 131.932 71.8245C131.328 72.1801 130.494 72.651 129.536 73.1603C128.577 73.6696 127.743 74.1213 127.139 74.4336C126.812 74.6314 126.465 74.7925 126.104 74.9141C126.397 74.6697 126.719 74.4616 127.062 74.2943C127.666 73.9387 128.5 73.4678 129.459 72.9585C130.418 72.4492 131.252 71.9975 131.856 71.6852C132.182 71.4873 132.529 71.3277 132.891 71.2095Z" fill="#FF9A6C"/>
<path d="M135.144 78.979C135.144 78.979 135.048 79.0895 134.842 79.2481C134.556 79.4733 134.258 79.6834 133.95 79.8775C132.938 80.5278 131.862 81.072 130.739 81.5016C129.615 81.9384 128.451 82.2603 127.263 82.4626C126.784 82.5347 126.434 82.5779 126.18 82.5923C126.047 82.6173 125.91 82.6173 125.777 82.5923C125.777 82.5539 126.333 82.477 127.215 82.2896C128.378 82.0446 129.521 81.7105 130.633 81.2902C131.743 80.8599 132.817 80.3426 133.845 79.743C134.265 79.4663 134.698 79.2113 135.144 78.979Z" fill="#FF9A6C"/>
<path d="M138.087 76.5047C138.149 76.5287 138.02 76.9852 137.607 77.3359C137.195 77.6867 136.754 77.7924 136.74 77.7299C136.725 77.6675 137.08 77.4849 137.44 77.1485C137.799 76.8122 138.02 76.4758 138.087 76.5047Z" fill="#FF9A6C"/>
<path d="M136.673 85.7783C136.212 86.0025 135.73 86.1796 135.235 86.3069C134.055 86.6586 132.854 86.933 131.639 87.1285C130.425 87.327 129.198 87.4425 127.968 87.4745C127.458 87.5139 126.945 87.4978 126.438 87.4264C126.942 87.3546 127.449 87.3129 127.958 87.3015C128.917 87.2342 130.187 87.1093 131.601 86.8835C133.015 86.6576 134.276 86.3645 135.187 86.1339C135.675 85.9865 136.171 85.8677 136.673 85.7783Z" fill="#FF9A6C"/>
<path d="M139.808 85.2254C139.881 84.9752 139.969 84.7297 140.072 84.4902C140.262 83.9033 140.326 83.2826 140.259 82.6692C140.183 82.0561 139.973 81.4673 139.645 80.9442C139.49 80.7353 139.348 80.517 139.219 80.2907C139.219 80.2667 139.492 80.4445 139.794 80.8433C140.182 81.3704 140.426 81.9894 140.503 82.6396C140.581 83.2898 140.488 83.9491 140.235 84.5527C140.038 84.99 139.832 85.2254 139.808 85.2254Z" fill="#FF9A6C"/>
<path d="M136.865 92.7359C136.472 92.881 136.063 92.9778 135.647 93.0242C134.652 93.1817 133.645 93.2604 132.637 93.2597C131.627 93.2579 130.618 93.1727 129.622 93.005C129.206 92.9579 128.797 92.8595 128.404 92.7119C128.821 92.7193 129.236 92.7594 129.646 92.832C130.639 92.9446 131.637 93.0039 132.637 93.0098C133.635 93.0078 134.631 92.9532 135.623 92.8465C136.034 92.7765 136.449 92.7396 136.865 92.7359Z" fill="#FF9A6C"/>
<path d="M130.768 65.6501C130.768 65.6789 130.61 65.8087 130.288 65.924C129.866 66.0656 129.417 66.1115 128.974 66.0583C128.531 66.0051 128.106 65.8542 127.729 65.6165C127.441 65.4291 127.307 65.2657 127.326 65.2417C127.856 65.5085 128.421 65.6994 129.004 65.8087C129.596 65.8403 130.19 65.7869 130.768 65.6501Z" fill="#FF9A6C"/>
<path d="M140.517 85.4995C140.56 85.6179 140.58 85.7436 140.575 85.8695C140.575 86.211 140.534 86.5513 140.455 86.8833C140.364 87.3014 140.205 87.7867 140.052 88.3248C139.866 88.8879 139.806 89.4848 139.875 90.0738C139.956 90.6841 140.412 91.1742 140.484 91.794C140.533 92.3179 140.399 92.8427 140.105 93.2787C139.926 93.5679 139.719 93.8383 139.486 94.086C139.323 94.2637 139.223 94.3502 139.208 94.3406C139.194 94.331 139.539 93.9178 139.951 93.1922C140.199 92.7832 140.306 92.3034 140.253 91.8276C140.196 91.3039 139.736 90.8138 139.625 90.1171C139.553 89.4912 139.623 88.8568 139.832 88.2624C139.999 87.7194 140.172 87.2437 140.282 86.8209C140.393 86.3868 140.471 85.9451 140.517 85.4995Z" fill="#FF9A6C"/>
<path d="M141.807 88.5171C141.885 88.6579 141.94 88.8104 141.97 88.9687C142.056 89.2619 142.171 89.6943 142.277 90.2325C142.407 90.8655 142.484 91.5085 142.507 92.1544C142.548 92.9622 142.4 93.7685 142.076 94.5089C141.698 95.2178 141.198 95.8539 140.599 96.3876C140.122 96.823 139.614 97.2229 139.08 97.584C138.624 97.8964 138.241 98.127 137.972 98.276C137.84 98.3655 137.697 98.4366 137.546 98.4874C137.522 98.4537 138.097 98.0886 138.984 97.4399C139.498 97.0648 139.988 96.6571 140.451 96.2194C141.02 95.6972 141.497 95.0813 141.86 94.3984C142.167 93.6916 142.313 92.9249 142.286 92.1544C142.275 91.5184 142.218 90.8841 142.114 90.2565C141.927 89.185 141.769 88.5267 141.807 88.5171Z" fill="#263238"/>
<path d="M105.64 72.5213C105.441 72.4037 105.254 72.2652 105.084 72.1081L103.646 70.902L102.649 70.0612C102.479 69.9013 102.288 69.7641 102.083 69.6528C101.984 69.6017 101.874 69.5751 101.762 69.5751C101.65 69.5751 101.54 69.6017 101.441 69.6528C101.029 69.869 100.751 70.3975 100.401 70.8396C100.051 71.2816 99.7057 71.8006 99.3414 72.2811C98.7662 73.0595 98.2053 73.8042 97.6924 74.4961L97.3809 74.9094L97.4815 74.4001C97.7563 72.9711 98.1557 71.5691 98.6751 70.2101C98.8668 69.7296 99.0394 69.3164 99.1545 69.0521C99.2084 68.9102 99.2809 68.7761 99.3702 68.6533C99.3373 68.7999 99.2907 68.9431 99.2312 69.081C99.1305 69.3548 98.9819 69.7537 98.8093 70.263C98.3406 71.6289 97.9737 73.0278 97.7116 74.4481L97.4959 74.352L99.1401 72.1321L100.199 70.6906L100.708 70.0131C100.869 69.7725 101.086 69.5746 101.34 69.4365C101.474 69.378 101.618 69.3506 101.764 69.3564C101.909 69.3622 102.051 69.4011 102.179 69.4702C102.397 69.5931 102.598 69.7433 102.778 69.917L103.737 70.7819L105.137 72.0456C105.317 72.1906 105.485 72.3497 105.64 72.5213Z" fill="#263238"/>
<path d="M125.878 68.4613C125.822 68.5244 125.76 68.5809 125.691 68.6295L125.125 69.0715L123.011 70.6619L115.96 75.8657L115.855 75.9426L115.783 75.8321C115.725 75.7456 115.668 75.6495 115.606 75.5582L112.068 69.9556L112.197 69.9989C110.834 70.5416 109.519 71.1991 108.267 71.9641C107.816 72.238 107.466 72.4446 107.226 72.6224C107.11 72.7104 106.985 72.7861 106.853 72.8482C106.954 72.7422 107.067 72.6472 107.188 72.5647C107.418 72.3965 107.759 72.1515 108.204 71.8584C109.441 71.0515 110.751 70.363 112.116 69.8019L112.197 69.7682L112.245 69.8403C113.285 71.4596 114.508 73.3767 115.816 75.4237C115.879 75.515 115.936 75.611 115.994 75.6975L115.812 75.6639L122.911 70.5226L125.068 68.9898L125.662 68.5862C125.801 68.4949 125.873 68.4517 125.878 68.4613Z" fill="#263238"/>
<path d="M82.8562 87.5703C82.878 87.681 82.8877 87.7938 82.8849 87.9067C82.8849 88.1565 82.8849 88.4784 82.9089 88.8676C82.9089 89.7373 82.952 90.953 82.976 92.4425C83.0335 95.46 83.1534 99.65 83.3115 104.239C83.4697 108.827 83.5608 113.017 83.5704 116.04C83.5704 117.553 83.5704 118.774 83.5704 119.619C83.5704 120.018 83.5704 120.345 83.5464 120.58C83.5516 120.695 83.5436 120.809 83.5225 120.922C83.5155 120.808 83.5155 120.694 83.5225 120.58C83.5225 120.335 83.5225 120.009 83.4937 119.619C83.4937 118.745 83.4553 117.529 83.4266 116.044C83.3739 113.022 83.2492 108.837 83.0958 104.243C82.9424 99.65 82.8466 95.4649 82.837 92.4425C82.837 90.9338 82.837 89.7085 82.837 88.8676C82.837 88.464 82.837 88.1421 82.837 87.9067C82.8362 87.7942 82.8426 87.6819 82.8562 87.5703Z" fill="#263238"/>
<path d="M105.798 130.969C105.782 130.925 105.772 130.88 105.769 130.834C105.769 130.728 105.769 130.594 105.726 130.426C105.687 130.046 105.635 129.522 105.572 128.854C105.438 127.49 105.285 125.491 105.131 123.064C104.978 120.638 104.848 117.697 104.767 114.459C104.685 111.22 104.676 107.65 104.767 103.888C104.858 100.126 105.026 96.5843 105.246 93.3506C105.467 90.1169 105.726 87.2051 105.984 84.769C106.243 82.3328 106.464 80.358 106.675 79.003C106.771 78.3351 106.843 77.8162 106.895 77.4414C106.924 77.2732 106.943 77.1387 106.962 77.033C106.965 76.9869 106.974 76.9415 106.991 76.8984C106.999 76.9446 106.999 76.9916 106.991 77.0378C106.991 77.1435 106.967 77.278 106.953 77.4462C106.91 77.821 106.852 78.3447 106.775 79.0126C106.612 80.3772 106.402 82.3473 106.167 84.7786C105.932 87.2099 105.687 90.1265 105.481 93.3602C105.275 96.5939 105.117 100.154 105.031 103.893C104.944 107.631 104.968 111.191 105.031 114.43C105.093 117.668 105.213 120.58 105.347 123.026C105.481 125.472 105.601 127.456 105.706 128.821C105.75 129.489 105.788 130.017 105.812 130.397C105.812 130.565 105.812 130.7 105.836 130.805C105.828 130.861 105.815 130.915 105.798 130.969Z" fill="#263238"/>
<path d="M91.5136 52.3213L91.0055 52.6576L89.5099 53.6186C88.8484 54.0462 88.0719 54.6565 87.1611 55.3292C86.6818 55.6751 86.2408 56.0932 85.7231 56.516L84.9417 57.1743C84.6733 57.4049 84.4192 57.6548 84.146 57.919C81.4948 60.3981 79.166 63.2023 77.2146 66.2652L76.3613 67.6395C76.0593 68.0959 75.8292 68.6005 75.5512 69.0809C75.2732 69.5614 75 70.0804 74.7507 70.6089C74.5014 71.1375 74.2713 71.6804 74.0125 72.2282C73.8927 72.5021 73.7584 72.7712 73.6434 73.0546C73.5283 73.3381 73.4277 73.6264 73.3174 73.9195C73.1017 74.4961 72.8716 75.0775 72.6607 75.6782C72.306 76.8938 71.8554 78.1239 71.587 79.4356C70.2204 85.1112 69.9923 91.0024 70.9159 96.7671C72.1177 104.19 75.2187 111.175 79.9165 117.039C84.6142 122.902 90.7482 127.445 97.7198 130.224C104.691 133.003 112.263 133.922 119.695 132.893C127.127 131.864 134.166 128.922 140.125 124.352C141.629 123.193 143.06 121.941 144.41 120.604L145.369 119.586C145.695 119.249 146.011 118.908 146.328 118.548L147.238 117.496C147.526 117.131 147.809 116.765 148.096 116.405C152.432 110.807 155.325 104.224 156.519 97.238C156.799 95.6162 156.99 93.9799 157.089 92.3369C157.137 91.5249 157.137 90.7225 157.166 89.9345C157.194 89.1464 157.108 88.344 157.079 87.5608C157.079 87.1716 157.046 86.7776 157.031 86.3884C157.017 85.9992 156.945 85.6196 156.907 85.2352C156.811 84.4712 156.72 83.712 156.629 82.9625C156.538 82.2129 156.341 81.4825 156.197 80.7522C156.077 80.0279 155.917 79.3109 155.718 78.6044L155.124 76.5238C155.03 76.1825 154.917 75.8472 154.783 75.5196C154.659 75.188 154.534 74.8565 154.414 74.5298C154.16 73.8811 153.935 73.218 153.662 72.6078C153.388 71.9976 153.091 71.3777 152.808 70.7771C150.724 66.433 147.927 62.47 144.535 59.053C141.965 56.4931 139.097 54.2523 135.993 52.3789L134.162 51.3266C133.885 51.1642 133.6 51.0167 133.308 50.8846L132.503 50.5002L131.065 49.8179C130.634 49.5969 130.207 49.4719 129.847 49.3374L128.179 48.6935L127.614 48.4629L128.189 48.6695L129.862 49.2941C130.226 49.4383 130.653 49.5632 131.089 49.7746L132.527 50.4473L133.337 50.8317C133.631 50.9604 133.917 51.1048 134.195 51.2642L136.031 52.3117C139.155 54.1732 142.041 56.4096 144.626 58.9713C148.038 62.3858 150.855 66.3506 152.957 70.7002C153.24 71.3105 153.527 71.9207 153.82 72.5453C154.112 73.17 154.299 73.8282 154.577 74.4673L154.951 75.4571C155.085 75.7864 155.198 76.1233 155.291 76.4662C155.493 77.1581 155.694 77.85 155.895 78.5563C156.103 79.2655 156.271 79.9858 156.399 80.7137C156.542 81.4441 156.715 82.1552 156.84 82.9288C156.964 83.7024 157.022 84.4472 157.118 85.216C157.161 85.6004 157.223 85.9848 157.247 86.374C157.271 86.7632 157.281 87.1572 157.295 87.5512C157.324 88.3392 157.367 89.132 157.386 89.9537C157.405 90.7753 157.362 91.5633 157.309 92.3562C156.82 101.152 153.672 109.59 148.283 116.549L147.411 117.645L146.49 118.707C146.193 119.067 145.872 119.413 145.532 119.749L144.573 120.777C143.215 122.122 141.774 123.38 140.259 124.545C134.271 129.133 127.199 132.087 119.733 133.121C112.267 134.154 104.661 133.23 97.6568 130.44C90.6527 127.65 84.4894 123.088 79.7676 117.199C75.0459 111.31 71.9268 104.296 70.7146 96.8392C70.2282 93.8334 70.0674 90.7838 70.2352 87.7434C70.3561 84.939 70.7592 82.154 71.4384 79.4308C71.7068 78.1143 72.1622 76.8842 72.5169 75.6589C72.7326 75.0631 72.9675 74.4769 73.188 73.8955C73.2983 73.6072 73.4085 73.3189 73.514 73.0306C73.6194 72.7423 73.768 72.4781 73.8879 72.1994C74.1419 71.6516 74.3672 71.1134 74.6309 70.5801C74.8945 70.0467 75.1773 69.5518 75.441 69.0473C75.7046 68.5428 75.9539 68.0431 76.2559 67.5818L77.1187 66.2076C79.0803 63.1399 81.4277 60.338 84.1028 57.871C84.3761 57.6163 84.6301 57.3569 84.8986 57.1262L85.6847 56.4679C86.2024 56.0499 86.6434 55.6367 87.1228 55.2907C88.0575 54.618 88.8245 54.0174 89.4908 53.5946L91.0007 52.6336C91.3267 52.4222 91.5136 52.3213 91.5136 52.3213Z" fill="#263238"/>
<path d="M177.875 22.5001L181.625 26.2501L189.125 18.7501M175.691 8.80696C177.036 8.69962 178.312 8.17078 179.339 7.29571C180.5 6.30622 181.975 5.7627 183.5 5.7627C185.025 5.7627 186.5 6.30622 187.661 7.29571C188.688 8.17078 189.965 8.69962 191.309 8.80696C192.83 8.9279 194.257 9.58663 195.335 10.6649C196.414 11.7433 197.072 13.1706 197.193 14.6907C197.301 16.0357 197.829 17.3125 198.704 18.3395C199.694 19.4999 200.237 20.975 200.237 22.5001C200.237 24.0251 199.694 25.5003 198.704 26.6607C197.829 27.6877 197.301 28.9645 197.193 30.3095C197.072 31.8296 196.414 33.2569 195.335 34.3352C194.257 35.4135 192.83 36.0723 191.309 36.1932C189.965 36.3006 188.688 36.8294 187.661 37.7045C186.5 38.694 185.025 39.2375 183.5 39.2375C181.975 39.2375 180.5 38.694 179.339 37.7045C178.312 36.8294 177.036 36.3006 175.691 36.1932C174.171 36.0723 172.743 35.4135 171.665 34.3352C170.587 33.2569 169.928 31.8296 169.807 30.3095C169.7 28.9645 169.171 27.6877 168.296 26.6607C167.306 25.5003 166.763 24.0251 166.763 22.5001C166.763 20.975 167.306 19.4999 168.296 18.3395C169.171 17.3125 169.7 16.0357 169.807 14.6907C169.928 13.1706 170.587 11.7433 171.665 10.6649C172.743 9.58663 174.171 8.9279 175.691 8.80696V8.80696Z" stroke="#63AD00" stroke-width="2" stroke-linecap="round" stroke-linejoin="round"/>
</svg>
