<svg width="314" height="234" viewBox="0 0 314 234" fill="none" xmlns="http://www.w3.org/2000/svg">
<g clip-path="url(#clip0_1056_19168)">
<path d="M314 205.64H0V205.797H314V205.64Z" fill="#EBEBEB"/>
<path d="M282.538 215.744H261.738V215.901H282.538V215.744Z" fill="#EBEBEB"/>
<path d="M208.004 217.452H202.547V217.609H208.004V217.452Z" fill="#EBEBEB"/>
<path d="M261.11 209.916H249.059V210.073H261.11V209.916Z" fill="#EBEBEB"/>
<path d="M60.0686 210.971H32.9453V211.128H60.0686V210.971Z" fill="#EBEBEB"/>
<path d="M69.6393 210.971H65.6641V211.128H69.6393V210.971Z" fill="#EBEBEB"/>
<path d="M141.394 213.621H82.5625V213.778H141.394V213.621Z" fill="#EBEBEB"/>
<path d="M148.836 177.63H27.5757C26.6257 177.629 25.7153 177.25 25.0442 176.578C24.373 175.906 23.9961 174.994 23.9961 174.044V3.58574C24.0044 2.64124 24.3849 1.73815 25.0552 1.07262C25.7254 0.407083 26.6312 0.032868 27.5757 0.03125H148.836C149.787 0.03125 150.699 0.409049 151.372 1.08153C152.044 1.75402 152.422 2.66611 152.422 3.61714V174.044C152.422 174.995 152.044 175.908 151.372 176.58C150.699 177.253 149.787 177.63 148.836 177.63ZM27.5757 0.156851C26.6674 0.158515 25.7969 0.520505 25.1552 1.16337C24.5135 1.80623 24.1531 2.67743 24.1531 3.58574V174.044C24.1531 174.953 24.5135 175.824 25.1552 176.467C25.7969 177.11 26.6674 177.472 27.5757 177.473H148.836C149.745 177.472 150.616 177.11 151.259 176.467C151.902 175.825 152.263 174.953 152.265 174.044V3.58574C152.263 2.67685 151.902 1.80567 151.259 1.16298C150.616 0.520301 149.745 0.158511 148.836 0.156851H27.5757Z" fill="#EBEBEB"/>
<path d="M284.677 177.63H163.41C162.46 177.629 161.548 177.25 160.876 176.578C160.204 175.906 159.826 174.995 159.824 174.044V3.58574C159.834 2.64067 160.216 1.73758 160.887 1.07222C161.559 0.406864 162.465 0.0328503 163.41 0.03125H284.677C285.62 0.0345184 286.524 0.409464 287.193 1.07482C287.862 1.74017 288.242 2.64233 288.25 3.58574V174.044C288.25 174.993 287.874 175.904 287.204 176.576C286.535 177.248 285.626 177.627 284.677 177.63ZM163.41 0.156851C162.501 0.158511 161.63 0.520301 160.987 1.16298C160.345 1.80567 159.983 2.67685 159.981 3.58574V174.044C159.983 174.953 160.345 175.825 160.987 176.467C161.63 177.11 162.501 177.472 163.41 177.473H284.677C285.586 177.472 286.457 177.11 287.1 176.467C287.742 175.825 288.104 174.953 288.106 174.044V3.58574C288.104 2.67685 287.742 1.80567 287.1 1.16298C286.457 0.520301 285.586 0.158511 284.677 0.156851H163.41Z" fill="#EBEBEB"/>
<path d="M277.489 204.841V173.868H263.196V145.15H261.18V161.61H255.679V157.057H245.788V141.294H243.954V122.033H242.484V140.948H239.005V168.97H232.405V140.948H220.498V164.643H207.995V135.924H205.979V152.384H200.477V147.831H190.586V132.068H188.753V112.808H187.283V131.717H183.804V159.738H177.21V131.717H165.297V158.821H157.265V143.058H155.431V123.798H153.968V142.713H150.482V170.728H143.888V142.713H131.975V170.728H126.11V173.868H115.842V145.15H113.826V161.61H108.325V157.057H98.4337V141.294H96.6V122.033H95.1305V140.948H91.9402V139.372H80.0271V140.948H73.4268V139.372H69.9477V120.457H68.4844V139.718H66.6507V155.48H56.7534V160.033H51.2584V143.573H49.2425V172.292H34.9492V204.841H277.489Z" fill="#EBEBEB"/>
<path d="M268.646 86.4507C268.645 85.9779 268.534 85.5119 268.321 85.0896C268.109 84.6674 267.801 84.3005 267.421 84.0182C267.042 83.7359 266.602 83.546 266.137 83.4635C265.671 83.381 265.193 83.4082 264.74 83.543C264.875 82.6303 264.812 81.6991 264.555 80.8129C264.298 79.9268 263.852 79.1066 263.249 78.4085C262.645 77.7103 261.898 77.1506 261.059 76.7676C260.219 76.3846 259.307 76.1873 258.384 76.1891C257.986 76.1895 257.589 76.2253 257.197 76.2959C256.56 75.2614 255.604 74.4617 254.473 74.0168C253.343 73.5719 252.098 73.5059 250.926 73.8287C249.755 74.1514 248.72 74.8456 247.977 75.8068C247.233 76.7681 246.822 77.9446 246.804 79.1596H246.71C245.337 79.1596 244.021 79.7048 243.051 80.6752C242.08 81.6457 241.535 82.9619 241.535 84.3343C241.535 85.7068 242.08 87.023 243.051 87.9934C244.021 88.9639 245.337 89.5091 246.71 89.5091H265.707C266.5 89.4861 267.252 89.1527 267.802 88.5808C268.351 88.0088 268.654 87.2439 268.646 86.4507Z" fill="#F0F0F0"/>
<path d="M178.797 40.38C178.794 39.6307 178.967 38.8911 179.302 38.2209C179.637 37.5507 180.125 36.9685 180.726 36.5213C181.327 36.074 182.025 35.7742 182.763 35.646C183.502 35.5178 184.26 35.5647 184.976 35.783C184.906 35.2942 184.87 34.8011 184.87 34.3072C184.868 32.8137 185.195 31.3383 185.829 29.986C186.463 28.6338 187.388 27.4382 188.537 26.4844C189.687 25.5307 191.032 24.8424 192.478 24.4686C193.924 24.0948 195.435 24.0447 196.902 24.322C197.902 22.6727 199.412 21.3938 201.203 20.6787C202.994 19.9637 204.97 19.8512 206.831 20.3585C208.692 20.8657 210.337 21.9651 211.517 23.4903C212.698 25.0155 213.35 26.8836 213.375 28.8122H213.519C215.69 28.8122 217.772 29.6746 219.307 31.2098C220.843 32.745 221.705 34.8271 221.705 36.9982C221.705 39.1693 220.843 41.2514 219.307 42.7866C217.772 44.3218 215.69 45.1842 213.519 45.1842H183.463C182.212 45.1498 181.025 44.6283 180.153 43.7309C179.281 42.8335 178.795 41.6311 178.797 40.38Z" fill="#F0F0F0"/>
<path d="M90.1055 92.6429C90.1045 91.7421 90.3143 90.8536 90.7182 90.0484C91.1221 89.2433 91.7089 88.5439 92.4315 88.0062C93.1542 87.4684 93.9927 87.1073 94.8799 86.9517C95.7672 86.7962 96.6785 86.8504 97.541 87.1102C97.4525 86.524 97.4084 85.932 97.4091 85.3392C97.4091 82.0947 98.698 78.983 100.992 76.6888C103.286 74.3946 106.398 73.1057 109.643 73.1057C110.397 73.1075 111.149 73.1769 111.891 73.3129C113.089 71.3192 114.906 69.7714 117.065 68.905C119.223 68.0385 121.606 67.9009 123.85 68.5129C126.094 69.125 128.077 70.4532 129.497 72.2957C130.917 74.1382 131.697 76.394 131.717 78.72H131.88C133.195 78.6869 134.502 78.9171 135.726 79.3972C136.951 79.8773 138.066 80.5975 139.008 81.5155C139.949 82.4334 140.697 83.5306 141.208 84.7422C141.719 85.9538 141.982 87.2554 141.982 88.5703C141.982 89.8852 141.719 91.1868 141.208 92.3984C140.697 93.61 139.949 94.7071 139.008 95.625C138.066 96.543 136.951 97.2632 135.726 97.7433C134.502 98.2234 133.195 98.4537 131.88 98.4205H95.7072C94.2051 98.3763 92.7794 97.748 91.7333 96.669C90.6872 95.5901 90.1032 94.1457 90.1055 92.6429Z" fill="#F0F0F0"/>
<path d="M115.613 53.5055C115.613 53.0058 115.415 52.5266 115.062 52.1733C114.708 51.82 114.229 51.6215 113.729 51.6215C113.546 51.6194 113.364 51.647 113.189 51.7031C113.217 51.5096 113.231 51.3145 113.233 51.1191C113.233 50.0598 112.812 49.0439 112.063 48.2948C111.314 47.5458 110.298 47.125 109.239 47.125C108.993 47.1256 108.747 47.1487 108.504 47.1941C108.111 46.5468 107.517 46.045 106.813 45.7646C106.11 45.4842 105.334 45.4403 104.603 45.6395C103.872 45.8387 103.226 46.2702 102.761 46.869C102.297 47.4678 102.04 48.2012 102.03 48.9587H101.973C101.12 48.9587 100.303 49.2975 99.6996 49.9005C99.0966 50.5035 98.7578 51.3213 98.7578 52.1741C98.7578 53.0269 99.0966 53.8447 99.6996 54.4477C100.303 55.0507 101.12 55.3895 101.973 55.3895H113.786C114.276 55.3748 114.74 55.1698 115.082 54.8181C115.423 54.4663 115.614 53.9955 115.613 53.5055Z" fill="#F0F0F0"/>
<path d="M46.9258 110.78C46.9258 110.28 47.1243 109.801 47.4776 109.448C47.8309 109.094 48.3101 108.896 48.8098 108.896C48.9945 108.895 49.1784 108.921 49.3561 108.971C49.3254 108.78 49.3107 108.587 49.3122 108.393C49.3122 107.869 49.4155 107.35 49.6162 106.865C49.8169 106.38 50.1111 105.94 50.482 105.569C50.8529 105.198 51.2932 104.904 51.7778 104.703C52.2624 104.503 52.7817 104.399 53.3063 104.399C53.5528 104.4 53.7987 104.423 54.041 104.468C54.4347 103.821 55.0281 103.319 55.7319 103.039C56.4357 102.759 57.2116 102.715 57.9425 102.914C58.6735 103.113 59.3198 103.545 59.7839 104.143C60.2481 104.742 60.5049 105.476 60.5157 106.233H60.5722C61.425 106.233 62.2428 106.572 62.8458 107.175C63.4488 107.778 63.7876 108.596 63.7876 109.449C63.7876 110.301 63.4488 111.119 62.8458 111.722C62.2428 112.325 61.425 112.664 60.5722 112.664H48.7595C48.2686 112.651 47.8022 112.447 47.4597 112.095C47.1172 111.743 46.9256 111.271 46.9258 110.78Z" fill="#F0F0F0"/>
<path d="M223.699 116.934C223.699 116.435 223.898 115.955 224.251 115.602C224.604 115.249 225.084 115.05 225.583 115.05C225.768 115.05 225.952 115.075 226.13 115.126C226.099 114.935 226.084 114.741 226.086 114.548C226.086 113.488 226.506 112.473 227.255 111.724C228.004 110.974 229.02 110.554 230.08 110.554C230.326 110.554 230.572 110.577 230.814 110.623C231.208 109.975 231.802 109.474 232.505 109.193C233.209 108.913 233.985 108.869 234.716 109.068C235.447 109.267 236.093 109.699 236.557 110.298C237.022 110.896 237.278 111.63 237.289 112.387H237.346C238.198 112.387 239.016 112.726 239.619 113.329C240.222 113.932 240.561 114.75 240.561 115.603C240.561 116.456 240.222 117.273 239.619 117.876C239.016 118.479 238.198 118.818 237.346 118.818H225.533C225.042 118.805 224.576 118.601 224.233 118.249C223.891 117.897 223.699 117.425 223.699 116.934Z" fill="#F0F0F0"/>
<path d="M157.001 234C224.249 234 278.764 230.817 278.764 226.891C278.764 222.965 224.249 219.782 157.001 219.782C89.7534 219.782 35.2383 222.965 35.2383 226.891C35.2383 230.817 89.7534 234 157.001 234Z" fill="#F5F5F5"/>
<path d="M244.165 41.4981L217.318 82.3748L216.137 84.1709L213.801 85.2573L130.704 123.873L138.912 151.995L140.79 158.432L134.284 163.808L78.2224 218.281H31.832L115.708 148.629L110.627 120.972L109.246 113.442L115.739 110.453L204.3 69.6703L233.144 33.9935L225.407 32.4611L249.729 22.3691L248.479 48.6762L244.165 41.4981Z" fill="#263238"/>
<path opacity="0.6" d="M244.165 41.4981L217.318 82.3748L216.137 84.1709L213.801 85.2573L130.704 123.873L138.912 151.995L140.79 158.432L134.284 163.808L78.2224 218.281H31.832L115.708 148.629L110.627 120.972L109.246 113.442L115.739 110.453L204.3 69.6703L233.144 33.9935L225.407 32.4611L249.729 22.3691L248.479 48.6762L244.165 41.4981Z" fill="#FAFAFA"/>
<path d="M157.051 126.454L155.645 129.205L154.213 131.999L151.707 131.082L152.963 128.627L154.546 125.537L157.051 126.454Z" fill="#FFC2BC"/>
<path opacity="0.2" d="M157.049 126.454L155.642 129.205L152.961 128.627L154.543 125.537L157.049 126.454Z" fill="black"/>
<path d="M211.773 110.559C211.773 110.559 203.547 48.651 193.461 21.3203" stroke="#263238" stroke-linecap="round" stroke-linejoin="round"/>
<path d="M195.871 109.128L198.54 109.021L199.061 102.829L196.386 102.936L195.871 109.128Z" fill="#FFC2BC"/>
<path d="M198.794 107.608L195.88 107.514C195.827 107.514 195.775 107.531 195.732 107.563C195.689 107.594 195.657 107.639 195.641 107.69L195.013 110.038C194.998 110.095 194.996 110.154 195.007 110.212C195.018 110.27 195.042 110.324 195.077 110.371C195.112 110.418 195.157 110.457 195.209 110.484C195.261 110.511 195.319 110.526 195.377 110.528C196.433 110.528 197.959 110.528 199.284 110.566C200.829 110.616 201.796 110.566 203.629 110.597C204.722 110.629 205.074 109.536 204.615 109.423C202.543 108.902 201.186 108.996 199.428 107.834C199.241 107.702 199.022 107.624 198.794 107.608Z" fill="#263238"/>
<path opacity="0.2" d="M199.064 102.829L198.794 106.019L196.125 106.126L196.389 102.936L199.064 102.829Z" fill="black"/>
<path d="M194.788 86.6953C195.466 87.9952 195.516 101.623 195.516 105.083H200.132C200.729 101.497 203.68 82.2427 199.504 79.4921C194.907 76.4588 183.252 77.5013 183.252 77.5013L182.41 75.7994L180.727 72.4082L171.081 76.0192L168.977 76.7979L168.111 77.1245H168.035C168.035 77.1245 168.035 77.2187 168.035 77.382C168.067 77.7588 168.154 78.5187 168.311 79.467C168.494 80.6044 168.75 81.7288 169.078 82.833C169.969 85.7407 171.552 88.4851 174.303 87.5682C174.422 87.5305 174.541 87.4803 174.661 87.43C174.887 87.3295 175.132 87.2353 175.383 87.1411C177.588 86.4307 179.868 85.9818 182.178 85.8035C188.006 85.2509 194.273 85.6905 194.788 86.6953Z" fill="#263238"/>
<path d="M200.336 105.486L194.942 105.624L194.91 103.89L200.838 103.646L200.336 105.486Z" fill="#407BFF"/>
<path d="M154.675 130.655H151.422C151.369 130.655 151.318 130.674 151.277 130.707C151.236 130.74 151.207 130.786 151.196 130.837L150.643 133.205C150.63 133.262 150.629 133.322 150.643 133.379C150.656 133.437 150.682 133.491 150.719 133.537C150.755 133.583 150.802 133.62 150.855 133.645C150.909 133.67 150.967 133.683 151.026 133.682C152.075 133.682 152.841 133.601 154.166 133.601C154.976 133.601 157.419 133.689 158.562 133.689C159.705 133.689 159.818 132.577 159.378 132.476C157.331 132.031 155.786 131.409 155.133 130.819C155.071 130.762 154.999 130.719 154.92 130.691C154.842 130.663 154.758 130.651 154.675 130.655Z" fill="#263238"/>
<path d="M178.351 77.0998L177.792 79.0278C177.497 80.0577 177.088 81.4581 176.611 83.0847L175.418 87.1478C173.383 94.0245 170.796 102.609 169.364 106.685C166.513 114.774 156.974 129.161 156.974 129.161L152.383 127.478C152.383 127.478 159.429 113.926 161.74 105.724C163.354 99.9968 165.885 89.7038 167.549 82.7895L168.347 79.4737C168.617 78.3432 168.836 77.4201 168.975 76.7732C169.113 76.1264 169.226 75.7119 169.226 75.7119L171.078 75.9945L178.351 77.0998Z" fill="#263238"/>
<path d="M157.471 129.462L152.07 127.478L152.679 125.87L158.438 127.61L157.471 129.462Z" fill="#407BFF"/>
<path opacity="0.2" d="M182.427 75.7931L178.352 80.5471L177.793 79.0273L177.165 77.3694L176.593 83.0842L169.095 82.8393L167.531 82.7891L168.329 79.4732C168.172 78.5249 168.084 77.7651 168.053 77.3883L168.103 77.1057L168.969 76.7791C169.133 76.1009 169.221 75.7178 169.221 75.7178L171.073 76.0004L180.738 72.4082L182.427 75.7931Z" fill="black"/>
<path opacity="0.2" d="M182.203 85.8102C179.625 85.9831 177.086 86.531 174.667 87.4368C174.547 87.487 174.428 87.5372 174.309 87.5749L174.855 84.8871C174.855 84.8871 179.559 84.6673 182.203 85.8102Z" fill="black"/>
<path d="M147.129 78.3742L145.489 80.5471L144.102 77.9032C144.102 77.9032 145.678 76.0506 146.614 76.9047L147.129 78.3742Z" fill="#FFC2BC"/>
<path d="M142.982 81.539L142.574 78.8324L144.1 77.8652L145.488 80.5468L142.982 81.539Z" fill="#FFC2BC"/>
<path d="M147.574 78.1731L147.116 78.4054L146.438 76.6847L147.166 76.333L147.574 78.1731Z" fill="white"/>
<path d="M165.856 62.4926C165.617 62.9113 165.372 63.3132 165.121 63.6984C164.489 64.7283 163.828 65.7415 163.137 66.7379L162.565 67.5606C161.987 68.3895 161.378 69.1997 160.725 70.0098C160.399 70.4117 160.066 70.8199 159.695 71.2218C159.324 71.6427 158.927 72.0411 158.508 72.415C156.902 73.7824 155.135 74.9487 153.246 75.8879C151.425 76.8289 149.536 77.6309 147.594 78.2869L146.777 76.4531C147.594 75.957 148.442 75.4483 149.252 74.9208C150.062 74.3932 150.884 73.872 151.669 73.3194C152.454 72.7667 153.227 72.2078 153.955 71.6238C154.672 71.0628 155.351 70.4566 155.99 69.8088C157.196 68.4076 158.282 66.9077 159.237 65.3249C160.286 63.6984 161.611 60.8472 162.647 59.2207L165.856 62.4926Z" fill="#263238"/>
<path opacity="0.2" d="M165.121 63.6982C164.489 64.7281 163.828 65.7413 163.137 66.7377C163.207 65.4169 163.574 64.129 164.211 62.9697C164.589 63.1006 164.911 63.3578 165.121 63.6982Z" fill="black"/>
<path d="M201.13 55.7286L199.309 57.4242L199.566 58.9942C200.232 59.8734 201.764 58.787 202.122 58.5107C202.179 58.4691 202.24 58.4334 202.304 58.4039L203.271 58.0146C203.442 57.9435 203.584 57.8167 203.674 57.6549C203.764 57.4931 203.797 57.3056 203.767 57.1228L203.579 55.9673C203.562 55.8588 203.523 55.755 203.464 55.6621C203.406 55.5692 203.329 55.4892 203.238 55.427C203.148 55.3647 203.046 55.3215 202.938 55.2999C202.83 55.2784 202.719 55.2789 202.612 55.3016L201.525 55.5214C201.376 55.5504 201.239 55.6224 201.13 55.7286Z" fill="#FFC2BC"/>
<path d="M198.887 57.4303L199.389 57.3047L199.678 59.1322L198.887 59.3143V57.4303Z" fill="white"/>
<path d="M199.307 59.3329C197.312 59.7552 195.289 60.0281 193.253 60.1493C191.156 60.3122 189.047 60.2151 186.973 59.8605C186.421 59.7549 185.876 59.6165 185.34 59.446C184.813 59.2827 184.323 59.1069 183.833 58.9247C182.86 58.5668 181.949 58.1837 181.001 57.7629L179.889 57.2605C179.048 56.8712 178.219 56.4693 177.377 56.0485C176.749 55.747 176.165 55.4205 175.562 55.0939L177.176 51.2568C178.903 52.1235 180.944 53.2978 182.678 54.1582C184.305 55.0327 186.005 55.7639 187.758 56.3437C188.638 56.5763 189.531 56.7504 190.434 56.8649C191.363 56.9968 192.318 57.0784 193.266 57.1538C194.214 57.2291 195.194 57.2731 196.161 57.2857C197.128 57.2982 198.12 57.3296 199.075 57.3422L199.307 59.3329Z" fill="#263238"/>
<path opacity="0.2" d="M179.87 57.2612C179.028 56.8718 178.199 56.4699 177.358 56.0491L177.031 54.2656C178.288 54.9159 179.288 55.9714 179.87 57.2612Z" fill="black"/>
<path d="M163.203 58.8749C164.241 61.4281 165.069 64.062 165.677 66.7501C166.13 68.6341 167.731 70.5181 168.007 72.2451C168.271 74.1499 168.649 76.0373 169.138 77.8971C171.053 76.8672 176.85 75.5923 180.737 73.5011C180.9 57.8513 176.699 51.7471 176.699 51.7471C175.632 52.0185 174.583 52.3562 173.559 52.7582L172.881 53.0408C171.01 53.9235 169.186 54.9024 167.417 55.9735C167.072 56.1808 166.726 56.3943 166.393 56.6015C164.685 57.7194 163.203 58.8749 163.203 58.8749Z" fill="#407BFF"/>
<path opacity="0.7" d="M163.203 58.8749C164.241 61.4281 165.069 64.062 165.677 66.7501C166.13 68.6341 167.731 70.5181 168.007 72.2451C168.271 74.1499 168.649 76.0373 169.138 77.8971C171.053 76.8672 176.85 75.5923 180.737 73.5011C180.9 57.8513 176.699 51.7471 176.699 51.7471C175.632 52.0185 174.583 52.3562 173.559 52.7582L172.881 53.0408C171.01 53.9235 169.186 54.9024 167.417 55.9735C167.072 56.1808 166.726 56.3943 166.393 56.6015C164.685 57.7194 163.203 58.8749 163.203 58.8749Z" fill="white"/>
<path d="M173.498 58.5793L173.737 57.1287L172.738 57.0596L172.129 57.7378L173.498 58.5793Z" fill="#407BFF"/>
<path d="M172.737 57.0663C170.891 58.0962 169.063 56.8967 167.882 56.074L167.757 55.9861C168.278 55.2639 168.328 54.1021 168.159 52.934C167.958 51.6433 167.613 50.3793 167.129 49.166L171.355 51.5901C171.355 51.879 171.305 52.1365 171.293 52.3625C171.236 52.9089 171.23 53.2794 171.531 53.5181C172 53.7795 172.534 53.8995 173.07 53.8635C173.553 54.4224 174.006 56.3566 172.737 57.0663Z" fill="#FFC2BC"/>
<path d="M166.419 56.62C166.419 56.62 171.738 62.1715 175.631 65.1922C175.631 65.1922 175.343 55.3765 173.584 52.7703L177.201 51.2568C177.201 51.2568 180.681 58.9436 181.177 71.78L182.747 75.0142L178.351 79.4855L176.938 76.1697L175.989 81.671L166.921 82.4748L168.033 76.1948L162.676 59.2387L166.419 56.62Z" fill="#263238"/>
<path d="M173.02 58.285C173.02 58.285 174.276 62.568 174.188 64.8539L175.808 65.6954L176.097 64.4394C176.097 64.4394 174.671 58.9193 173.359 57.9521L173.02 58.285Z" fill="#407BFF"/>
<path d="M166.608 56.1615C166.608 56.1615 173.252 63.4526 175.601 65.1922C175.601 65.1922 174.916 55.32 173.39 52.8394C173.39 52.8394 174.439 52.1172 176.675 54.2963L175.557 56.3687L177.541 57.7378C177.541 57.7378 176.863 65.1356 175.557 68.6462C175.652 67.9049 175.694 67.1578 175.682 66.4105L167.889 62.0898L168.234 59.7034L165.289 59.5778C165.289 59.5778 165.616 56.7581 166.608 56.1615Z" fill="#263238"/>
<path opacity="0.2" d="M166.608 56.1615C166.608 56.1615 173.252 63.4526 175.601 65.1922C175.601 65.1922 174.916 55.32 173.39 52.8394C173.39 52.8394 174.439 52.1172 176.675 54.2963L175.557 56.3687L177.541 57.7378C177.541 57.7378 176.863 65.1356 175.557 68.6462C175.652 67.9049 175.694 67.1578 175.682 66.4105L167.889 62.0898L168.234 59.7034L165.289 59.5778C165.289 59.5778 165.616 56.7581 166.608 56.1615Z" fill="white"/>
<path d="M193.664 21.898C193.664 21.898 189.896 21.471 187.792 22.4632C185.688 23.4555 183.572 26.6897 180.156 26.9974C176.739 27.3051 176.055 26.1936 176.055 26.1936C176.055 26.1936 179.063 31.5316 184.847 31.4751C190.631 31.4185 193.639 30.464 197.049 32.6117C197.061 32.6117 194.436 23.5622 193.664 21.898Z" fill="#407BFF"/>
<path opacity="0.2" d="M171.532 53.5054C171.18 54.5981 170.307 56.143 168.241 56.1053C168.122 56.1152 168.003 56.1152 167.883 56.1053L167.758 56.0174C168.279 55.2952 168.329 54.1334 168.16 52.9653C169.088 52.3642 170.217 52.1543 171.3 52.3812C171.237 52.8962 171.231 53.2667 171.532 53.5054Z" fill="black"/>
<path d="M172.739 57.0665C172.772 57.8254 172.609 58.58 172.268 59.2583C171.106 59.095 167.633 57.3743 167.457 55.9361C167.547 55.5909 167.734 55.279 167.997 55.0381C169.321 56.2023 170.982 56.913 172.739 57.0665Z" fill="white"/>
<path d="M172.738 57.0665C173.384 57.2343 173.987 57.5407 174.503 57.9645C174.829 56.6143 173.479 53.3676 173.134 53.1917C172.57 53.1371 172.003 53.2325 171.488 53.468C171.488 53.468 173.385 55.239 172.738 57.0665Z" fill="white"/>
<path d="M163.438 47.8098C163.369 48.8836 164.066 50.8933 165.272 49.8885C166.478 48.8836 163.558 45.9634 163.438 47.8098Z" fill="#263238"/>
<path d="M170.954 47.4008C171.733 49.9129 172.317 51.3698 171.544 53.0968C170.376 55.6968 166.885 55.6905 165.359 53.4359C163.99 51.4138 162.941 47.6206 165.007 45.7429C165.464 45.3287 166.018 45.037 166.618 44.895C167.218 44.753 167.844 44.7653 168.438 44.9309C169.032 45.0965 169.574 45.4098 170.014 45.8418C170.454 46.2737 170.778 46.8101 170.954 47.4008Z" fill="#FFC2BC"/>
<path d="M171.355 44.2043C171.104 42.5589 169.151 42.7913 168.008 43.6579V46.9047C168.449 46.6951 168.869 46.4449 169.264 46.1573C169.264 46.1573 169.71 48.5877 171.198 49.2974C173.095 47.4573 173.252 44.6187 171.355 44.2043Z" fill="#263238"/>
<path d="M172.698 49.1034C172.734 49.7634 172.509 50.411 172.07 50.9057C171.474 51.5337 170.708 51.1255 170.488 50.3154C170.268 49.5053 170.356 48.3874 171.116 48.042C171.29 47.9695 171.479 47.9411 171.667 47.9596C171.855 47.978 172.035 48.0427 172.192 48.1478C172.349 48.2529 172.477 48.3952 172.565 48.5619C172.654 48.7286 172.699 48.9147 172.698 49.1034Z" fill="#FFC2BC"/>
<path d="M167.448 49.4739C167.523 49.6749 167.448 49.8758 167.341 49.9261C167.234 49.9763 167.039 49.8507 166.964 49.6498C166.889 49.4488 166.964 49.2478 167.071 49.1976C167.178 49.1474 167.366 49.273 167.448 49.4739Z" fill="#263238"/>
<path d="M165.162 50.3089C165.244 50.5098 165.194 50.7108 165.062 50.761C164.93 50.8113 164.761 50.6857 164.685 50.4847C164.61 50.2838 164.654 50.0828 164.786 50.0326C164.918 49.9823 165.081 50.1079 165.162 50.3089Z" fill="#263238"/>
<path d="M165.924 50.1455C165.9 50.8309 165.779 51.5094 165.566 52.1614C165.741 52.205 165.922 52.2107 166.099 52.1782C166.275 52.1457 166.443 52.0757 166.59 51.973L165.924 50.1455Z" fill="#ED893E"/>
<path d="M167.964 52.3504L167.707 52.4634C167.691 52.4692 167.673 52.4685 167.658 52.4615C167.643 52.4544 167.631 52.4415 167.625 52.4257C167.619 52.4099 167.62 52.3924 167.627 52.3771C167.634 52.3618 167.647 52.3499 167.663 52.3441C167.915 52.2579 168.144 52.1136 168.331 51.9227C168.517 51.7318 168.656 51.4996 168.737 51.2451C168.738 51.2368 168.741 51.2288 168.746 51.2217C168.751 51.2147 168.757 51.2086 168.764 51.2039C168.771 51.1992 168.779 51.196 168.787 51.1944C168.795 51.1929 168.804 51.193 168.812 51.1948C168.82 51.1962 168.828 51.1993 168.835 51.204C168.842 51.2088 168.847 51.2149 168.852 51.2221C168.856 51.2294 168.858 51.2374 168.859 51.2457C168.86 51.254 168.859 51.2624 168.856 51.2702C168.789 51.5016 168.675 51.7168 168.522 51.9025C168.368 52.0883 168.179 52.2407 167.964 52.3504Z" fill="#263238"/>
<path d="M167.876 48.4815C167.855 48.4925 167.833 48.4983 167.81 48.4983C167.787 48.4983 167.764 48.4925 167.744 48.4815C167.612 48.3917 167.46 48.3347 167.302 48.315C167.144 48.2953 166.983 48.3137 166.833 48.3685C166.802 48.3818 166.767 48.3824 166.736 48.37C166.705 48.3576 166.68 48.3334 166.667 48.3026C166.653 48.2718 166.653 48.2369 166.665 48.2057C166.678 48.1745 166.702 48.1495 166.733 48.1361C166.921 48.0644 167.123 48.0389 167.323 48.0619C167.523 48.0849 167.715 48.1555 167.882 48.268C167.909 48.2871 167.928 48.3159 167.935 48.3485C167.942 48.3812 167.937 48.4152 167.92 48.4439C167.908 48.4593 167.893 48.4721 167.876 48.4815Z" fill="#263238"/>
<path d="M163.908 49.8883C163.884 49.8975 163.857 49.8975 163.832 49.8883C163.816 49.8867 163.8 49.8819 163.785 49.8741C163.771 49.8663 163.758 49.8556 163.747 49.8428C163.737 49.83 163.729 49.8151 163.724 49.7992C163.719 49.7833 163.718 49.7666 163.719 49.7501C163.737 49.5483 163.804 49.3538 163.913 49.1832C164.022 49.0126 164.171 48.871 164.347 48.7705C164.362 48.7629 164.378 48.7584 164.395 48.7572C164.412 48.7559 164.428 48.758 164.444 48.7633C164.46 48.7685 164.474 48.7769 164.487 48.7878C164.499 48.7987 164.51 48.8121 164.517 48.827C164.533 48.8561 164.536 48.8903 164.527 48.9221C164.517 48.9539 164.496 48.9806 164.467 48.9965C164.331 49.0781 164.217 49.1917 164.135 49.3275C164.053 49.4632 164.005 49.6169 163.996 49.7753C163.994 49.8008 163.985 49.8253 163.969 49.8455C163.954 49.8657 163.932 49.8807 163.908 49.8883Z" fill="#263238"/>
<path d="M169.207 46.1769C169.207 46.1769 167.618 47.816 166.067 47.7344C166.485 47.5442 166.866 47.2805 167.191 46.9557C167.191 46.9557 164.158 48.2682 162.663 47.5837C161.168 46.8992 161.338 46.1581 161.338 46.1581C161.338 46.1581 161.507 46.5914 162.958 46.5475C162.958 46.5475 161.702 45.7248 162.211 44.563C162.283 44.702 162.39 44.8204 162.521 44.9072C162.651 44.9939 162.802 45.0462 162.958 45.0591C163.45 44.3012 164.111 43.6675 164.889 43.2078C165.667 42.748 166.541 42.4746 167.442 42.4089C170.701 42.0384 171.361 43.3258 171.505 44.2929C171.65 45.2601 169.207 46.1769 169.207 46.1769Z" fill="#263238"/>
<path d="M230.129 215.744H185.666C185.229 215.744 184.875 216.098 184.875 216.535V226.671C184.875 227.108 185.229 227.463 185.666 227.463H230.129C230.566 227.463 230.92 227.108 230.92 226.671V216.535C230.92 216.098 230.566 215.744 230.129 215.744Z" fill="#407BFF"/>
<path opacity="0.2" d="M188.759 216.423H186.938V226.892H188.759V216.423Z" fill="black"/>
<path opacity="0.2" d="M192.895 216.372H191.57V226.841H192.895V216.372Z" fill="black"/>
<path opacity="0.2" d="M196.709 216.423H196.043V226.892H196.709V216.423Z" fill="black"/>
<path opacity="0.2" d="M201.845 216.372H201.512V226.841H201.845V216.372Z" fill="black"/>
<path opacity="0.2" d="M227.038 226.835H228.859V216.366H227.038V226.835Z" fill="black"/>
<path opacity="0.2" d="M222.901 226.892H224.227V216.423H222.901V226.892Z" fill="black"/>
<path opacity="0.2" d="M219.094 226.835H219.754V216.366H219.094V226.835Z" fill="black"/>
<path opacity="0.2" d="M213.952 226.892H214.285V216.423H213.952V226.892Z" fill="black"/>
<path opacity="0.2" d="M207.817 226.892H207.98V216.423H207.817V226.892Z" fill="black"/>
<path opacity="0.2" d="M229.69 217.528H186.201C186.055 217.528 185.914 217.47 185.81 217.366C185.707 217.263 185.648 217.122 185.648 216.975C185.65 216.829 185.709 216.69 185.812 216.587C185.915 216.483 186.055 216.424 186.201 216.423H229.69C229.837 216.423 229.977 216.481 230.081 216.585C230.184 216.688 230.243 216.829 230.243 216.975C230.244 217.048 230.23 217.121 230.202 217.188C230.175 217.255 230.134 217.317 230.083 217.368C230.031 217.42 229.97 217.46 229.903 217.488C229.835 217.515 229.763 217.529 229.69 217.528Z" fill="white"/>
<path d="M231.386 204.058H186.924C186.487 204.058 186.133 204.412 186.133 204.849V214.985C186.133 215.422 186.487 215.776 186.924 215.776H231.386C231.824 215.776 232.178 215.422 232.178 214.985V204.849C232.178 204.412 231.824 204.058 231.386 204.058Z" fill="#407BFF"/>
<path opacity="0.2" d="M190.013 204.729H188.191V215.198H190.013V204.729Z" fill="black"/>
<path opacity="0.2" d="M194.157 204.679H192.832V215.148H194.157V204.679Z" fill="black"/>
<path opacity="0.2" d="M197.964 204.729H197.305V215.198H197.964V204.729Z" fill="black"/>
<path opacity="0.2" d="M203.102 204.679H202.77V215.148H203.102V204.679Z" fill="black"/>
<path opacity="0.2" d="M228.304 215.142H230.125V204.673H228.304V215.142Z" fill="black"/>
<path opacity="0.2" d="M224.155 215.198H225.48V204.729H224.155V215.198Z" fill="black"/>
<path opacity="0.2" d="M220.346 215.142H221.012V204.673H220.346V215.142Z" fill="black"/>
<path opacity="0.2" d="M215.21 215.198H215.543V204.729H215.21V215.198Z" fill="black"/>
<path opacity="0.2" d="M209.071 215.198H209.234V204.729H209.071V215.198Z" fill="black"/>
<path opacity="0.2" d="M230.948 205.841H187.459C187.313 205.839 187.173 205.78 187.07 205.677C186.967 205.574 186.908 205.434 186.906 205.288C186.906 205.141 186.964 205.001 187.068 204.897C187.172 204.794 187.312 204.735 187.459 204.735H230.948C231.021 204.735 231.093 204.748 231.16 204.776C231.228 204.803 231.289 204.844 231.341 204.895C231.392 204.947 231.433 205.008 231.46 205.076C231.488 205.143 231.501 205.215 231.501 205.288C231.501 205.435 231.442 205.575 231.339 205.679C231.235 205.782 231.094 205.841 230.948 205.841Z" fill="white"/>
<path d="M231.386 192.364H186.924C186.487 192.364 186.133 192.719 186.133 193.156V203.291C186.133 203.729 186.487 204.083 186.924 204.083H231.386C231.824 204.083 232.178 203.729 232.178 203.291V193.156C232.178 192.719 231.824 192.364 231.386 192.364Z" fill="#407BFF"/>
<path opacity="0.2" d="M190.013 193.042H188.191V203.511H190.013V193.042Z" fill="black"/>
<path opacity="0.2" d="M194.157 192.992H192.832V203.461H194.157V192.992Z" fill="black"/>
<path opacity="0.2" d="M197.964 193.042H197.305V203.511H197.964V193.042Z" fill="black"/>
<path opacity="0.2" d="M203.102 192.992H202.77V203.461H203.102V192.992Z" fill="black"/>
<path opacity="0.2" d="M228.304 203.454H230.125V192.985H228.304V203.454Z" fill="black"/>
<path opacity="0.2" d="M224.155 203.511H225.48V193.042H224.155V203.511Z" fill="black"/>
<path opacity="0.2" d="M220.346 203.454H221.012V192.985H220.346V203.454Z" fill="black"/>
<path opacity="0.2" d="M215.21 203.511H215.543V193.042H215.21V203.511Z" fill="black"/>
<path opacity="0.2" d="M209.071 203.511H209.234V193.042H209.071V203.511Z" fill="black"/>
<path opacity="0.2" d="M230.948 194.147H187.459C187.312 194.147 187.172 194.089 187.068 193.985C186.964 193.882 186.906 193.741 186.906 193.595C186.908 193.449 186.967 193.309 187.07 193.206C187.173 193.102 187.313 193.044 187.459 193.042H230.948C231.094 193.042 231.235 193.1 231.339 193.204C231.442 193.308 231.501 193.448 231.501 193.595C231.501 193.667 231.488 193.74 231.46 193.807C231.433 193.875 231.392 193.936 231.341 193.987C231.289 194.039 231.228 194.079 231.16 194.107C231.093 194.134 231.021 194.148 230.948 194.147Z" fill="white"/>
<path d="M230.129 180.677H185.666C185.229 180.677 184.875 181.031 184.875 181.468V191.604C184.875 192.041 185.229 192.395 185.666 192.395H230.129C230.566 192.395 230.92 192.041 230.92 191.604V181.468C230.92 181.031 230.566 180.677 230.129 180.677Z" fill="#407BFF"/>
<path opacity="0.2" d="M188.759 181.355H186.938V191.824H188.759V181.355Z" fill="black"/>
<path opacity="0.2" d="M192.895 181.299H191.57V191.768H192.895V181.299Z" fill="black"/>
<path opacity="0.2" d="M196.709 181.355H196.043V191.824H196.709V181.355Z" fill="black"/>
<path opacity="0.2" d="M201.845 181.299H201.512V191.768H201.845V181.299Z" fill="black"/>
<path opacity="0.2" d="M227.038 191.768H228.859V181.299H227.038V191.768Z" fill="black"/>
<path opacity="0.2" d="M222.901 191.817H224.227V181.349H222.901V191.817Z" fill="black"/>
<path opacity="0.2" d="M219.094 191.768H219.754V181.299H219.094V191.768Z" fill="black"/>
<path opacity="0.2" d="M213.952 191.817H214.285V181.349H213.952V191.817Z" fill="black"/>
<path opacity="0.2" d="M207.817 191.817H207.98V181.349H207.817V191.817Z" fill="black"/>
<path opacity="0.2" d="M229.69 182.46H186.201C186.055 182.458 185.915 182.399 185.812 182.296C185.709 182.193 185.65 182.053 185.648 181.907C185.648 181.761 185.707 181.62 185.81 181.516C185.914 181.413 186.055 181.355 186.201 181.355H229.69C229.763 181.354 229.835 181.367 229.903 181.395C229.97 181.422 230.031 181.463 230.083 181.515C230.134 181.566 230.175 181.627 230.202 181.695C230.23 181.762 230.244 181.834 230.243 181.907C230.243 182.054 230.184 182.194 230.081 182.298C229.977 182.402 229.837 182.46 229.69 182.46Z" fill="white"/>
<path d="M228.246 168.983H183.783C183.346 168.983 182.992 169.338 182.992 169.775V179.911C182.992 180.348 183.346 180.702 183.783 180.702H228.246C228.683 180.702 229.037 180.348 229.037 179.911V169.775C229.037 169.338 228.683 168.983 228.246 168.983Z" fill="#407BFF"/>
<path opacity="0.2" d="M186.872 169.661H185.051V180.13H186.872V169.661Z" fill="black"/>
<path opacity="0.2" d="M191.013 169.611H189.688V180.08H191.013V169.611Z" fill="black"/>
<path opacity="0.2" d="M194.816 169.661H194.156V180.13H194.816V169.661Z" fill="black"/>
<path opacity="0.2" d="M199.962 169.611H199.629V180.08H199.962V169.611Z" fill="black"/>
<path opacity="0.2" d="M225.155 180.08H226.977V169.611H225.155V180.08Z" fill="black"/>
<path opacity="0.2" d="M221.011 180.131H222.336V169.662H221.011V180.131Z" fill="black"/>
<path opacity="0.2" d="M217.212 180.08H217.871V169.611H217.212V180.08Z" fill="black"/>
<path opacity="0.2" d="M212.073 180.131H212.406V169.662H212.073V180.131Z" fill="black"/>
<path opacity="0.2" d="M205.934 180.131H206.098V169.662H205.934V180.131Z" fill="black"/>
<path opacity="0.2" d="M227.807 170.766H184.318C184.245 170.767 184.173 170.754 184.106 170.726C184.038 170.699 183.977 170.658 183.926 170.606C183.874 170.555 183.833 170.494 183.806 170.426C183.779 170.359 183.765 170.287 183.766 170.214C183.766 170.067 183.824 169.927 183.928 169.823C184.031 169.719 184.172 169.661 184.318 169.661H227.807C227.954 169.661 228.094 169.719 228.198 169.823C228.302 169.927 228.36 170.067 228.36 170.214C228.361 170.287 228.347 170.359 228.32 170.426C228.292 170.494 228.251 170.555 228.2 170.606C228.148 170.658 228.087 170.699 228.02 170.726C227.952 170.754 227.88 170.767 227.807 170.766Z" fill="white"/>
<path d="M230.129 157.296H185.666C185.229 157.296 184.875 157.65 184.875 158.087V168.223C184.875 168.66 185.229 169.014 185.666 169.014H230.129C230.566 169.014 230.92 168.66 230.92 168.223V158.087C230.92 157.65 230.566 157.296 230.129 157.296Z" fill="#407BFF"/>
<path opacity="0.2" d="M188.759 157.975H186.938V168.443H188.759V157.975Z" fill="black"/>
<path opacity="0.2" d="M192.895 157.918H191.57V168.387H192.895V157.918Z" fill="black"/>
<path opacity="0.2" d="M196.709 157.975H196.043V168.443H196.709V157.975Z" fill="black"/>
<path opacity="0.2" d="M201.845 157.918H201.512V168.387H201.845V157.918Z" fill="black"/>
<path opacity="0.2" d="M227.038 168.387H228.859V157.918H227.038V168.387Z" fill="black"/>
<path opacity="0.2" d="M222.901 168.437H224.227V157.968H222.901V168.437Z" fill="black"/>
<path opacity="0.2" d="M219.094 168.387H219.754V157.918H219.094V168.387Z" fill="black"/>
<path opacity="0.2" d="M213.952 168.437H214.285V157.968H213.952V168.437Z" fill="black"/>
<path opacity="0.2" d="M207.817 168.437H207.98V157.968H207.817V168.437Z" fill="black"/>
<path opacity="0.2" d="M229.69 159.08H186.201C186.055 159.08 185.914 159.022 185.81 158.918C185.707 158.814 185.648 158.674 185.648 158.527C185.648 158.381 185.707 158.24 185.81 158.137C185.914 158.033 186.055 157.975 186.201 157.975H229.69C229.763 157.974 229.835 157.988 229.903 158.015C229.97 158.042 230.031 158.083 230.083 158.135C230.134 158.186 230.175 158.247 230.202 158.315C230.23 158.382 230.244 158.454 230.243 158.527C230.244 158.6 230.23 158.672 230.202 158.74C230.175 158.807 230.134 158.868 230.083 158.92C230.031 158.971 229.97 159.012 229.903 159.04C229.835 159.067 229.763 159.081 229.69 159.08Z" fill="white"/>
<path d="M230.129 145.603H185.666C185.229 145.603 184.875 145.957 184.875 146.394V156.53C184.875 156.967 185.229 157.321 185.666 157.321H230.129C230.566 157.321 230.92 156.967 230.92 156.53V146.394C230.92 145.957 230.566 145.603 230.129 145.603Z" fill="#407BFF"/>
<path opacity="0.2" d="M188.759 146.281H186.938V156.75H188.759V146.281Z" fill="black"/>
<path opacity="0.2" d="M192.895 146.23H191.57V156.699H192.895V146.23Z" fill="black"/>
<path opacity="0.2" d="M196.709 146.281H196.043V156.75H196.709V146.281Z" fill="black"/>
<path opacity="0.2" d="M201.845 146.23H201.512V156.699H201.845V146.23Z" fill="black"/>
<path opacity="0.2" d="M227.038 156.699H228.859V146.23H227.038V156.699Z" fill="black"/>
<path opacity="0.2" d="M222.901 156.75H224.227V146.281H222.901V156.75Z" fill="black"/>
<path opacity="0.2" d="M219.094 156.699H219.754V146.23H219.094V156.699Z" fill="black"/>
<path opacity="0.2" d="M213.952 156.75H214.285V146.281H213.952V156.75Z" fill="black"/>
<path opacity="0.2" d="M207.817 156.75H207.98V146.281H207.817V156.75Z" fill="black"/>
<path opacity="0.2" d="M229.69 147.393H186.201C186.054 147.391 185.913 147.332 185.81 147.227C185.706 147.122 185.648 146.981 185.648 146.834C185.65 146.688 185.709 146.548 185.812 146.445C185.915 146.342 186.055 146.283 186.201 146.281H229.69C229.837 146.281 229.977 146.339 230.081 146.443C230.184 146.547 230.243 146.687 230.243 146.834C230.244 146.907 230.23 146.98 230.202 147.047C230.175 147.115 230.134 147.177 230.083 147.229C230.032 147.281 229.97 147.322 229.903 147.35C229.836 147.378 229.763 147.393 229.69 147.393Z" fill="white"/>
<path d="M232.015 133.916H187.553C187.116 133.916 186.762 134.27 186.762 134.707V144.843C186.762 145.28 187.116 145.635 187.553 145.635H232.015C232.452 145.635 232.807 145.28 232.807 144.843V134.707C232.807 134.27 232.452 133.916 232.015 133.916Z" fill="#407BFF"/>
<path opacity="0.2" d="M190.642 134.594H188.82V145.063H190.642V134.594Z" fill="black"/>
<path opacity="0.2" d="M194.786 134.544H193.461V145.013H194.786V134.544Z" fill="black"/>
<path opacity="0.2" d="M198.599 134.594H197.934V145.063H198.599V134.594Z" fill="black"/>
<path opacity="0.2" d="M203.727 134.544H203.395V145.013H203.727V134.544Z" fill="black"/>
<path opacity="0.2" d="M228.929 145.006H230.75V134.537H228.929V145.006Z" fill="black"/>
<path opacity="0.2" d="M224.784 145.057H226.109V134.588H224.784V145.057Z" fill="black"/>
<path opacity="0.2" d="M220.981 145.006H221.641V134.537H220.981V145.006Z" fill="black"/>
<path opacity="0.2" d="M215.835 145.057H216.168V134.588H215.835V145.057Z" fill="black"/>
<path opacity="0.2" d="M209.708 145.057H209.871V134.588H209.708V145.057Z" fill="black"/>
<path opacity="0.2" d="M231.573 135.681H188.09C188.017 135.681 187.945 135.668 187.877 135.64C187.809 135.613 187.747 135.572 187.695 135.521C187.643 135.469 187.602 135.408 187.574 135.341C187.546 135.273 187.531 135.201 187.531 135.128C187.531 135.055 187.546 134.982 187.574 134.915C187.602 134.847 187.643 134.786 187.695 134.735C187.747 134.683 187.809 134.643 187.877 134.615C187.945 134.588 188.017 134.574 188.09 134.575H231.573C231.646 134.574 231.719 134.588 231.786 134.615C231.854 134.643 231.916 134.683 231.968 134.735C232.02 134.786 232.061 134.847 232.089 134.915C232.117 134.982 232.132 135.055 232.132 135.128C232.132 135.201 232.117 135.273 232.089 135.341C232.061 135.408 232.02 135.469 231.968 135.521C231.916 135.572 231.854 135.613 231.786 135.64C231.719 135.668 231.646 135.681 231.573 135.681Z" fill="white"/>
<path d="M228.875 122.229H184.412C183.975 122.229 183.621 122.583 183.621 123.02V133.156C183.621 133.593 183.975 133.947 184.412 133.947H228.875C229.312 133.947 229.666 133.593 229.666 133.156V123.02C229.666 122.583 229.312 122.229 228.875 122.229Z" fill="#407BFF"/>
<path opacity="0.2" d="M187.501 122.9H185.68V133.369H187.501V122.9Z" fill="black"/>
<path opacity="0.2" d="M191.638 122.851H190.312V133.319H191.638V122.851Z" fill="black"/>
<path opacity="0.2" d="M195.445 122.9H194.785V133.369H195.445V122.9Z" fill="black"/>
<path opacity="0.2" d="M200.587 122.851H200.254V133.319H200.587V122.851Z" fill="black"/>
<path opacity="0.2" d="M225.784 133.319H227.605V122.851H225.784V133.319Z" fill="black"/>
<path opacity="0.2" d="M221.64 133.363H222.965V122.894H221.64V133.363Z" fill="black"/>
<path opacity="0.2" d="M217.841 133.319H218.5V122.851H217.841V133.319Z" fill="black"/>
<path opacity="0.2" d="M212.695 133.363H213.027V122.894H212.695V133.363Z" fill="black"/>
<path opacity="0.2" d="M206.559 133.363H206.723V122.894H206.559V133.363Z" fill="black"/>
<path opacity="0.2" d="M228.432 124.013H184.943C184.797 124.011 184.658 123.952 184.554 123.849C184.451 123.746 184.392 123.606 184.391 123.46C184.391 123.313 184.449 123.173 184.552 123.069C184.656 122.965 184.797 122.907 184.943 122.907H228.432C228.505 122.906 228.577 122.92 228.645 122.948C228.712 122.975 228.773 123.016 228.825 123.067C228.876 123.119 228.917 123.18 228.945 123.247C228.972 123.315 228.986 123.387 228.985 123.46C228.985 123.606 228.927 123.747 228.823 123.851C228.719 123.954 228.579 124.013 228.432 124.013Z" fill="white"/>
<path d="M227.617 110.535H183.155C182.718 110.535 182.363 110.889 182.363 111.326V121.462C182.363 121.899 182.718 122.254 183.155 122.254H227.617C228.054 122.254 228.408 121.899 228.408 121.462V111.326C228.408 110.889 228.054 110.535 227.617 110.535Z" fill="#407BFF"/>
<path opacity="0.2" d="M186.243 111.214H184.422V121.683H186.243V111.214Z" fill="black"/>
<path opacity="0.2" d="M190.384 111.163H189.059V121.632H190.384V111.163Z" fill="black"/>
<path opacity="0.2" d="M194.197 111.214H193.531V121.683H194.197V111.214Z" fill="black"/>
<path opacity="0.2" d="M199.333 111.163H199V121.632H199.333V111.163Z" fill="black"/>
<path opacity="0.2" d="M224.526 121.626H226.348V111.157H224.526V121.626Z" fill="black"/>
<path opacity="0.2" d="M220.382 121.676H221.707V111.207H220.382V121.676Z" fill="black"/>
<path opacity="0.2" d="M216.579 121.626H217.238V111.157H216.579V121.626Z" fill="black"/>
<path opacity="0.2" d="M211.448 121.676H211.781V111.207H211.448V121.676Z" fill="black"/>
<path opacity="0.2" d="M205.305 121.676H205.469V111.207H205.305V121.676Z" fill="black"/>
<path opacity="0.2" d="M227.178 112.318H183.689C183.617 112.319 183.544 112.305 183.477 112.278C183.409 112.25 183.348 112.21 183.297 112.158C183.245 112.107 183.205 112.045 183.177 111.978C183.15 111.911 183.136 111.838 183.137 111.766C183.136 111.693 183.15 111.621 183.177 111.553C183.205 111.486 183.245 111.424 183.297 111.373C183.348 111.321 183.409 111.281 183.477 111.253C183.544 111.226 183.617 111.212 183.689 111.213H227.178C227.251 111.212 227.323 111.226 227.391 111.253C227.458 111.281 227.52 111.321 227.571 111.373C227.623 111.424 227.663 111.486 227.691 111.553C227.718 111.621 227.732 111.693 227.731 111.766C227.732 111.838 227.718 111.911 227.691 111.978C227.663 112.045 227.623 112.107 227.571 112.158C227.52 112.21 227.458 112.25 227.391 112.278C227.323 112.305 227.251 112.319 227.178 112.318Z" fill="white"/>
<path d="M173.578 215.744H129.116C128.678 215.744 128.324 216.098 128.324 216.535V226.671C128.324 227.108 128.678 227.463 129.116 227.463H173.578C174.015 227.463 174.369 227.108 174.369 226.671V216.535C174.369 216.098 174.015 215.744 173.578 215.744Z" fill="#407BFF"/>
<path opacity="0.2" d="M132.2 216.423H130.379V226.892H132.2V216.423Z" fill="black"/>
<path opacity="0.2" d="M136.345 216.372H135.02V226.841H136.345V216.372Z" fill="black"/>
<path opacity="0.2" d="M140.152 216.423H139.492V226.892H140.152V216.423Z" fill="black"/>
<path opacity="0.2" d="M145.286 216.372H144.953V226.841H145.286V216.372Z" fill="black"/>
<path opacity="0.2" d="M170.487 226.835H172.309V216.366H170.487V226.835Z" fill="black"/>
<path opacity="0.2" d="M166.343 226.892H167.668V216.423H166.343V226.892Z" fill="black"/>
<path opacity="0.2" d="M162.54 226.835H163.199V216.366H162.54V226.835Z" fill="black"/>
<path opacity="0.2" d="M157.402 226.892H157.734V216.423H157.402V226.892Z" fill="black"/>
<path opacity="0.2" d="M151.266 226.892H151.43V216.423H151.266V226.892Z" fill="black"/>
<path opacity="0.2" d="M173.139 217.528H129.65C129.578 217.529 129.505 217.515 129.438 217.488C129.37 217.46 129.309 217.42 129.258 217.368C129.206 217.317 129.166 217.255 129.138 217.188C129.111 217.121 129.097 217.048 129.098 216.975C129.098 216.829 129.156 216.688 129.26 216.585C129.363 216.481 129.504 216.423 129.65 216.423H173.139C173.285 216.424 173.425 216.483 173.528 216.587C173.632 216.69 173.69 216.829 173.692 216.975C173.692 217.122 173.634 217.263 173.53 217.366C173.426 217.47 173.286 217.528 173.139 217.528Z" fill="white"/>
<path d="M171.687 204.058H127.225C126.788 204.058 126.434 204.412 126.434 204.849V214.985C126.434 215.422 126.788 215.776 127.225 215.776H171.687C172.124 215.776 172.479 215.422 172.479 214.985V204.849C172.479 204.412 172.124 204.058 171.687 204.058Z" fill="#407BFF"/>
<path opacity="0.2" d="M130.313 204.729H128.492V215.198H130.313V204.729Z" fill="black"/>
<path opacity="0.2" d="M134.462 204.679H133.137V215.148H134.462V204.679Z" fill="black"/>
<path opacity="0.2" d="M138.265 204.729H137.605V215.198H138.265V204.729Z" fill="black"/>
<path opacity="0.2" d="M143.403 204.679H143.07V215.148H143.403V204.679Z" fill="black"/>
<path opacity="0.2" d="M168.605 215.142H170.426V204.673H168.605V215.142Z" fill="black"/>
<path opacity="0.2" d="M164.46 215.198H165.785V204.729H164.46V215.198Z" fill="black"/>
<path opacity="0.2" d="M160.653 215.142H161.312V204.673H160.653V215.142Z" fill="black"/>
<path opacity="0.2" d="M155.511 215.198H155.844V204.729H155.511V215.198Z" fill="black"/>
<path opacity="0.2" d="M149.376 215.198H149.539V204.729H149.376V215.198Z" fill="black"/>
<path opacity="0.2" d="M171.249 205.841H127.76C127.614 205.839 127.474 205.78 127.371 205.677C127.267 205.574 127.209 205.434 127.207 205.288C127.207 205.141 127.265 205.001 127.369 204.897C127.473 204.794 127.613 204.735 127.76 204.735H171.249C171.321 204.735 171.394 204.748 171.461 204.776C171.529 204.803 171.59 204.844 171.641 204.895C171.693 204.947 171.733 205.008 171.761 205.076C171.788 205.143 171.802 205.215 171.801 205.288C171.801 205.435 171.743 205.575 171.639 205.679C171.536 205.782 171.395 205.841 171.249 205.841Z" fill="white"/>
<path d="M173.578 192.364H129.116C128.678 192.364 128.324 192.719 128.324 193.156V203.291C128.324 203.729 128.678 204.083 129.116 204.083H173.578C174.015 204.083 174.369 203.729 174.369 203.291V193.156C174.369 192.719 174.015 192.364 173.578 192.364Z" fill="#407BFF"/>
<path opacity="0.2" d="M132.2 193.042H130.379V203.511H132.2V193.042Z" fill="black"/>
<path opacity="0.2" d="M136.345 192.992H135.02V203.461H136.345V192.992Z" fill="black"/>
<path opacity="0.2" d="M140.152 193.042H139.492V203.511H140.152V193.042Z" fill="black"/>
<path opacity="0.2" d="M145.286 192.992H144.953V203.461H145.286V192.992Z" fill="black"/>
<path opacity="0.2" d="M170.487 203.454H172.309V192.985H170.487V203.454Z" fill="black"/>
<path opacity="0.2" d="M166.343 203.511H167.668V193.042H166.343V203.511Z" fill="black"/>
<path opacity="0.2" d="M162.54 203.454H163.199V192.985H162.54V203.454Z" fill="black"/>
<path opacity="0.2" d="M157.402 203.511H157.734V193.042H157.402V203.511Z" fill="black"/>
<path opacity="0.2" d="M151.266 203.511H151.43V193.042H151.266V203.511Z" fill="black"/>
<path opacity="0.2" d="M173.139 194.147H129.65C129.578 194.148 129.505 194.134 129.438 194.107C129.37 194.079 129.309 194.039 129.258 193.987C129.206 193.936 129.166 193.875 129.138 193.807C129.111 193.74 129.097 193.667 129.098 193.595C129.098 193.448 129.156 193.308 129.26 193.204C129.363 193.1 129.504 193.042 129.65 193.042H173.139C173.285 193.044 173.425 193.102 173.528 193.206C173.632 193.309 173.69 193.449 173.692 193.595C173.692 193.741 173.634 193.882 173.53 193.985C173.426 194.089 173.286 194.147 173.139 194.147Z" fill="white"/>
<path d="M172.316 180.677H127.854C127.417 180.677 127.062 181.031 127.062 181.468V191.604C127.062 192.041 127.417 192.395 127.854 192.395H172.316C172.753 192.395 173.107 192.041 173.107 191.604V181.468C173.107 181.031 172.753 180.677 172.316 180.677Z" fill="#407BFF"/>
<path opacity="0.2" d="M130.942 181.355H129.121V191.824H130.942V181.355Z" fill="black"/>
<path opacity="0.2" d="M135.087 181.299H133.762V191.768H135.087V181.299Z" fill="black"/>
<path opacity="0.2" d="M138.894 181.355H138.234V191.824H138.894V181.355Z" fill="black"/>
<path opacity="0.2" d="M144.032 181.299H143.699V191.768H144.032V181.299Z" fill="black"/>
<path opacity="0.2" d="M169.233 191.768H171.055V181.299H169.233V191.768Z" fill="black"/>
<path opacity="0.2" d="M165.089 191.817H166.414V181.349H165.089V191.817Z" fill="black"/>
<path opacity="0.2" d="M161.276 191.768H161.941V181.299H161.276V191.768Z" fill="black"/>
<path opacity="0.2" d="M156.14 191.817H156.473V181.349H156.14V191.817Z" fill="black"/>
<path opacity="0.2" d="M150.009 191.817H150.172V181.349H150.009V191.817Z" fill="black"/>
<path opacity="0.2" d="M171.878 182.46H128.395C128.248 182.46 128.106 182.402 128.002 182.298C127.897 182.195 127.838 182.054 127.836 181.907C127.836 181.834 127.85 181.762 127.879 181.694C127.907 181.627 127.948 181.566 128 181.514C128.052 181.463 128.114 181.422 128.181 181.395C128.249 181.367 128.322 181.354 128.395 181.355H171.878C171.951 181.354 172.023 181.367 172.091 181.395C172.159 181.422 172.22 181.463 172.272 181.514C172.324 181.566 172.366 181.627 172.394 181.694C172.422 181.762 172.436 181.834 172.436 181.907C172.435 182.054 172.375 182.195 172.271 182.298C172.166 182.402 172.025 182.46 171.878 182.46Z" fill="white"/>
<path d="M172.316 168.983H127.854C127.417 168.983 127.062 169.338 127.062 169.775V179.911C127.062 180.348 127.417 180.702 127.854 180.702H172.316C172.753 180.702 173.107 180.348 173.107 179.911V169.775C173.107 169.338 172.753 168.983 172.316 168.983Z" fill="#407BFF"/>
<path opacity="0.2" d="M130.942 169.661H129.121V180.13H130.942V169.661Z" fill="black"/>
<path opacity="0.2" d="M135.087 169.611H133.762V180.08H135.087V169.611Z" fill="black"/>
<path opacity="0.2" d="M138.894 169.661H138.234V180.13H138.894V169.661Z" fill="black"/>
<path opacity="0.2" d="M144.032 169.611H143.699V180.08H144.032V169.611Z" fill="black"/>
<path opacity="0.2" d="M169.233 180.08H171.055V169.611H169.233V180.08Z" fill="black"/>
<path opacity="0.2" d="M165.089 180.131H166.414V169.662H165.089V180.131Z" fill="black"/>
<path opacity="0.2" d="M161.276 180.08H161.941V169.611H161.276V180.08Z" fill="black"/>
<path opacity="0.2" d="M156.14 180.131H156.473V169.662H156.14V180.131Z" fill="black"/>
<path opacity="0.2" d="M150.009 180.131H150.172V169.662H150.009V180.131Z" fill="black"/>
<path opacity="0.2" d="M171.878 170.766H128.395C128.322 170.767 128.249 170.754 128.181 170.726C128.114 170.699 128.052 170.658 128 170.607C127.948 170.555 127.907 170.494 127.879 170.427C127.85 170.359 127.836 170.287 127.836 170.214C127.838 170.067 127.897 169.926 128.002 169.823C128.106 169.719 128.248 169.661 128.395 169.661H171.878C172.025 169.661 172.166 169.719 172.271 169.823C172.375 169.926 172.435 170.067 172.436 170.214C172.436 170.287 172.422 170.359 172.394 170.427C172.366 170.494 172.324 170.555 172.272 170.607C172.22 170.658 172.159 170.699 172.091 170.726C172.023 170.754 171.951 170.767 171.878 170.766Z" fill="white"/>
<path d="M172.316 157.296H127.854C127.417 157.296 127.062 157.65 127.062 158.087V168.223C127.062 168.66 127.417 169.014 127.854 169.014H172.316C172.753 169.014 173.107 168.66 173.107 168.223V158.087C173.107 157.65 172.753 157.296 172.316 157.296Z" fill="#407BFF"/>
<path opacity="0.2" d="M130.942 157.975H129.121V168.443H130.942V157.975Z" fill="black"/>
<path opacity="0.2" d="M135.087 157.918H133.762V168.387H135.087V157.918Z" fill="black"/>
<path opacity="0.2" d="M138.894 157.975H138.234V168.443H138.894V157.975Z" fill="black"/>
<path opacity="0.2" d="M144.032 157.918H143.699V168.387H144.032V157.918Z" fill="black"/>
<path opacity="0.2" d="M169.233 168.387H171.055V157.918H169.233V168.387Z" fill="black"/>
<path opacity="0.2" d="M165.089 168.437H166.414V157.968H165.089V168.437Z" fill="black"/>
<path opacity="0.2" d="M161.276 168.387H161.941V157.918H161.276V168.387Z" fill="black"/>
<path opacity="0.2" d="M156.14 168.437H156.473V157.968H156.14V168.437Z" fill="black"/>
<path opacity="0.2" d="M150.009 168.437H150.172V157.968H150.009V168.437Z" fill="black"/>
<path opacity="0.2" d="M171.878 159.08H128.395C128.322 159.081 128.249 159.067 128.181 159.04C128.114 159.012 128.052 158.972 128 158.92C127.948 158.869 127.907 158.808 127.879 158.74C127.85 158.673 127.836 158.6 127.836 158.527C127.836 158.454 127.85 158.382 127.879 158.314C127.907 158.247 127.948 158.186 128 158.134C128.052 158.083 128.114 158.042 128.181 158.015C128.249 157.987 128.322 157.974 128.395 157.975H171.878C171.951 157.974 172.023 157.987 172.091 158.015C172.159 158.042 172.22 158.083 172.272 158.134C172.324 158.186 172.366 158.247 172.394 158.314C172.422 158.382 172.436 158.454 172.436 158.527C172.436 158.6 172.422 158.673 172.394 158.74C172.366 158.808 172.324 158.869 172.272 158.92C172.22 158.972 172.159 159.012 172.091 159.04C172.023 159.067 171.951 159.081 171.878 159.08Z" fill="white"/>
<path d="M172.863 133.79H128.401C127.964 133.79 127.609 134.144 127.609 134.581V144.717C127.609 145.154 127.964 145.509 128.401 145.509H172.863C173.3 145.509 173.654 145.154 173.654 144.717V134.581C173.654 134.144 173.3 133.79 172.863 133.79Z" fill="#407BFF"/>
<path opacity="0.2" d="M131.489 134.469H129.668V144.938H131.489V134.469Z" fill="black"/>
<path opacity="0.2" d="M135.634 134.418H134.309V144.887H135.634V134.418Z" fill="black"/>
<path opacity="0.2" d="M139.441 134.469H138.781V144.938H139.441V134.469Z" fill="black"/>
<path opacity="0.2" d="M144.579 134.418H144.246V144.887H144.579V134.418Z" fill="black"/>
<path opacity="0.2" d="M169.78 144.881H171.602V134.412H169.78V144.881Z" fill="black"/>
<path opacity="0.2" d="M165.636 144.938H166.961V134.469H165.636V144.938Z" fill="black"/>
<path opacity="0.2" d="M161.829 144.881H162.488V134.412H161.829V144.881Z" fill="black"/>
<path opacity="0.2" d="M156.687 144.938H157.02V134.469H156.687V144.938Z" fill="black"/>
<path opacity="0.2" d="M150.555 144.938H150.719V134.469H150.555V144.938Z" fill="black"/>
<path opacity="0.2" d="M172.424 135.574H128.942C128.869 135.575 128.796 135.561 128.728 135.534C128.661 135.506 128.599 135.466 128.547 135.414C128.495 135.363 128.454 135.302 128.425 135.234C128.397 135.167 128.383 135.095 128.383 135.021C128.384 134.874 128.444 134.734 128.549 134.63C128.653 134.527 128.795 134.469 128.942 134.469H172.424C172.572 134.469 172.713 134.527 172.817 134.63C172.922 134.734 172.982 134.874 172.983 135.021C172.983 135.095 172.969 135.167 172.941 135.234C172.913 135.302 172.871 135.363 172.819 135.414C172.767 135.466 172.706 135.506 172.638 135.534C172.57 135.561 172.498 135.575 172.424 135.574Z" fill="white"/>
<path d="M173.578 145.603H129.116C128.678 145.603 128.324 145.957 128.324 146.394V156.53C128.324 156.967 128.678 157.321 129.116 157.321H173.578C174.015 157.321 174.369 156.967 174.369 156.53V146.394C174.369 145.957 174.015 145.603 173.578 145.603Z" fill="#407BFF"/>
<path opacity="0.2" d="M132.2 146.281H130.379V156.75H132.2V146.281Z" fill="black"/>
<path opacity="0.2" d="M136.345 146.23H135.02V156.699H136.345V146.23Z" fill="black"/>
<path opacity="0.2" d="M140.152 146.281H139.492V156.75H140.152V146.281Z" fill="black"/>
<path opacity="0.2" d="M145.286 146.23H144.953V156.699H145.286V146.23Z" fill="black"/>
<path opacity="0.2" d="M170.487 156.699H172.309V146.23H170.487V156.699Z" fill="black"/>
<path opacity="0.2" d="M166.343 156.75H167.668V146.281H166.343V156.75Z" fill="black"/>
<path opacity="0.2" d="M162.54 156.699H163.199V146.23H162.54V156.699Z" fill="black"/>
<path opacity="0.2" d="M157.402 156.75H157.734V146.281H157.402V156.75Z" fill="black"/>
<path opacity="0.2" d="M151.266 156.75H151.43V146.281H151.266V156.75Z" fill="black"/>
<path opacity="0.2" d="M173.139 147.393H129.65C129.577 147.393 129.505 147.378 129.437 147.35C129.37 147.322 129.309 147.281 129.257 147.229C129.206 147.177 129.165 147.115 129.138 147.047C129.111 146.98 129.097 146.907 129.098 146.834C129.098 146.687 129.156 146.547 129.26 146.443C129.363 146.339 129.504 146.281 129.65 146.281H173.139C173.285 146.283 173.425 146.342 173.528 146.445C173.632 146.548 173.69 146.688 173.692 146.834C173.692 146.981 173.634 147.122 173.53 147.227C173.427 147.332 173.286 147.391 173.139 147.393Z" fill="white"/>
<path d="M117.019 215.744H72.5569C72.1199 215.744 71.7656 216.098 71.7656 216.535V226.671C71.7656 227.108 72.1199 227.463 72.5569 227.463H117.019C117.456 227.463 117.811 227.108 117.811 226.671V216.535C117.811 216.098 117.456 215.744 117.019 215.744Z" fill="#407BFF"/>
<path opacity="0.2" d="M75.6493 216.423H73.8281V226.892H75.6493V216.423Z" fill="black"/>
<path opacity="0.2" d="M79.786 216.372H78.4609V226.841H79.786V216.372Z" fill="black"/>
<path opacity="0.2" d="M83.593 216.423H82.9336V226.892H83.593V216.423Z" fill="black"/>
<path opacity="0.2" d="M88.7274 216.372H88.3945V226.841H88.7274V216.372Z" fill="black"/>
<path opacity="0.2" d="M113.929 226.835H115.75V216.366H113.929V226.835Z" fill="black"/>
<path opacity="0.2" d="M109.792 226.892H111.117V216.423H109.792V226.892Z" fill="black"/>
<path opacity="0.2" d="M105.981 226.835H106.641V216.366H105.981V226.835Z" fill="black"/>
<path opacity="0.2" d="M100.843 226.892H101.176V216.423H100.843V226.892Z" fill="black"/>
<path opacity="0.2" d="M94.7078 226.892H94.8711V216.423H94.7078V226.892Z" fill="black"/>
<path opacity="0.2" d="M116.581 217.528H73.0917C73.0189 217.529 72.9467 217.515 72.8793 217.488C72.8118 217.46 72.7506 217.42 72.6991 217.368C72.6476 217.317 72.6069 217.255 72.5795 217.188C72.552 217.121 72.5383 217.048 72.5391 216.975C72.5391 216.829 72.5973 216.688 72.701 216.585C72.8046 216.481 72.9452 216.423 73.0917 216.423H116.581C116.727 216.423 116.868 216.481 116.972 216.585C117.075 216.688 117.133 216.829 117.133 216.975C117.134 217.048 117.121 217.121 117.093 217.188C117.066 217.255 117.025 217.317 116.973 217.368C116.922 217.42 116.861 217.46 116.793 217.488C116.726 217.515 116.654 217.529 116.581 217.528Z" fill="white"/>
<path d="M117.648 204.058H73.1858C72.7488 204.058 72.3945 204.412 72.3945 204.849V214.985C72.3945 215.422 72.7488 215.776 73.1858 215.776H117.648C118.085 215.776 118.439 215.422 118.439 214.985V204.849C118.439 204.412 118.085 204.058 117.648 204.058Z" fill="#407BFF"/>
<path opacity="0.2" d="M76.2743 204.729H74.4531V215.198H76.2743V204.729Z" fill="black"/>
<path opacity="0.2" d="M80.4149 204.679H79.0898V215.148H80.4149V204.679Z" fill="black"/>
<path opacity="0.2" d="M84.2219 204.729H83.5625V215.198H84.2219V204.729Z" fill="black"/>
<path opacity="0.2" d="M89.3641 204.679H89.0312V215.148H89.3641V204.679Z" fill="black"/>
<path opacity="0.2" d="M114.558 215.142H116.379V204.673H114.558V215.142Z" fill="black"/>
<path opacity="0.2" d="M110.413 215.198H111.738V204.729H110.413V215.198Z" fill="black"/>
<path opacity="0.2" d="M106.61 215.142H107.27V204.673H106.61V215.142Z" fill="black"/>
<path opacity="0.2" d="M101.472 215.198H101.805V204.729H101.472V215.198Z" fill="black"/>
<path opacity="0.2" d="M95.3367 215.198H95.5V204.729H95.3367V215.198Z" fill="black"/>
<path opacity="0.2" d="M117.21 205.841H73.7206C73.5741 205.841 73.4335 205.782 73.3299 205.679C73.2262 205.575 73.168 205.435 73.168 205.288C73.1672 205.215 73.1809 205.143 73.2084 205.076C73.2358 205.008 73.2765 204.947 73.328 204.895C73.3795 204.844 73.4407 204.803 73.5082 204.776C73.5756 204.748 73.6478 204.735 73.7206 204.735H117.21C117.282 204.735 117.355 204.748 117.422 204.776C117.49 204.803 117.551 204.844 117.602 204.895C117.654 204.947 117.694 205.008 117.722 205.076C117.749 205.143 117.763 205.215 117.762 205.288C117.762 205.435 117.704 205.575 117.6 205.679C117.497 205.782 117.356 205.841 117.21 205.841Z" fill="white"/>
<path d="M115.136 192.364H70.6741C70.2371 192.364 69.8828 192.719 69.8828 193.156V203.291C69.8828 203.729 70.2371 204.083 70.6741 204.083H115.136C115.574 204.083 115.928 203.729 115.928 203.291V193.156C115.928 192.719 115.574 192.364 115.136 192.364Z" fill="#407BFF"/>
<path opacity="0.2" d="M73.7587 193.042H71.9375V203.511H73.7587V193.042Z" fill="black"/>
<path opacity="0.2" d="M77.9032 192.992H76.5781V203.461H77.9032V192.992Z" fill="black"/>
<path opacity="0.2" d="M81.7063 193.042H81.0469V203.511H81.7063V193.042Z" fill="black"/>
<path opacity="0.2" d="M86.8446 192.992H86.5117V203.461H86.8446V192.992Z" fill="black"/>
<path opacity="0.2" d="M112.042 203.454H113.863V192.985H112.042V203.454Z" fill="black"/>
<path opacity="0.2" d="M107.909 203.511H109.234V193.042H107.909V203.511Z" fill="black"/>
<path opacity="0.2" d="M104.095 203.454H104.754V192.985H104.095V203.454Z" fill="black"/>
<path opacity="0.2" d="M98.9601 203.511H99.293V193.042H98.9601V203.511Z" fill="black"/>
<path opacity="0.2" d="M92.825 203.511H92.9883V193.042H92.825V203.511Z" fill="black"/>
<path opacity="0.2" d="M114.698 194.147H71.2089C71.1361 194.148 71.0639 194.134 70.9964 194.107C70.929 194.079 70.8678 194.039 70.8163 193.987C70.7648 193.936 70.7241 193.875 70.6966 193.807C70.6692 193.74 70.6554 193.667 70.6563 193.595C70.6563 193.448 70.7145 193.308 70.8181 193.204C70.9218 193.1 71.0624 193.042 71.2089 193.042H114.698C114.844 193.044 114.984 193.102 115.087 193.206C115.19 193.309 115.249 193.449 115.251 193.595C115.251 193.741 115.192 193.882 115.089 193.985C114.985 194.089 114.844 194.147 114.698 194.147Z" fill="white"/>
<path d="M90.0924 184.62L88.8301 187.729L87.8755 190.077L85.4766 189.223L86.3369 187.113L87.6934 183.76L90.0924 184.62Z" fill="#E4897B"/>
<path d="M141.361 167.978L139.32 169.492L138.573 167.834L136.84 164.003L138.881 162.483L140.52 166.113L141.361 167.978Z" fill="#E4897B"/>
<path opacity="0.2" d="M87.6924 183.76L90.0914 184.62L88.8291 187.729L86.3359 187.113L87.6924 183.76Z" fill="black"/>
<path opacity="0.2" d="M140.52 166.113L138.573 167.834L136.84 164.003L138.881 162.483L140.52 166.113Z" fill="black"/>
<path d="M108.095 98.5528C108.164 98.7475 108.321 98.8668 108.447 98.8228C108.573 98.7789 108.623 98.5842 108.554 98.3895C108.485 98.1948 108.328 98.0755 108.202 98.1195C108.076 98.1634 108.014 98.3581 108.095 98.5528Z" fill="#263238"/>
<path d="M108.305 98.873C108.744 99.3819 109.251 99.8278 109.812 100.198C109.715 100.34 109.587 100.459 109.438 100.546C109.289 100.633 109.123 100.686 108.952 100.701L108.305 98.873Z" fill="#DE5753"/>
<path d="M107.011 97.7297C106.982 97.7381 106.952 97.7381 106.923 97.7297C106.902 97.7076 106.891 97.6784 106.891 97.6481C106.891 97.6178 106.902 97.5886 106.923 97.5664C107.028 97.4074 107.169 97.2755 107.335 97.1816C107.501 97.0877 107.687 97.0345 107.877 97.0264C107.91 97.028 107.94 97.0419 107.962 97.0653C107.984 97.0887 107.997 97.1197 107.997 97.152C107.997 97.1682 107.994 97.1842 107.987 97.1991C107.981 97.214 107.971 97.2275 107.96 97.2386C107.948 97.2498 107.934 97.2585 107.919 97.2641C107.904 97.2697 107.887 97.2721 107.871 97.2713C107.72 97.2777 107.573 97.3204 107.441 97.3958C107.31 97.4712 107.199 97.5772 107.118 97.7046C107.102 97.7159 107.085 97.7239 107.067 97.7282C107.048 97.7325 107.029 97.7331 107.011 97.7297Z" fill="#263238"/>
<path d="M103.45 101.718C103.482 103.602 103.243 107.031 101.742 108.029C101.742 108.029 101.912 109.976 105.316 110.579C109.084 111.251 107.438 109.04 107.438 109.04C105.485 108.192 105.805 106.685 106.415 105.323L103.45 101.718Z" fill="#E4897B"/>
<path d="M101.504 100.418C102.483 102.742 102.942 104.186 104.574 104.952C107.024 106.145 109.598 104.023 109.303 101.454C109.065 99.1368 107.495 95.7268 104.832 95.6012C104.246 95.5712 103.662 95.6915 103.136 95.9507C102.61 96.2098 102.159 96.5991 101.825 97.0817C101.492 97.5643 101.287 98.1242 101.231 98.7081C101.174 99.292 101.268 99.8806 101.504 100.418Z" fill="#E4897B"/>
<path d="M103.163 104.198C104.268 104.644 107.741 102.157 106.554 99.2934C106.554 99.2934 107.741 97.378 107.314 95.5254C106.887 93.6728 105.493 93.1139 104.174 93.7168C103.006 94.2443 103.131 94.9037 103.131 94.9037C103.131 94.9037 97.4793 96.3858 99.0241 98.5524C97.0334 101.416 101.775 103.652 103.163 104.198Z" fill="#263238"/>
<path d="M105.623 99.9474C105.872 100.523 106.302 101.002 106.847 101.31C107.576 101.706 107.997 101.153 107.846 100.418C107.695 99.6837 107.174 98.7542 106.42 98.66C105.667 98.5658 105.334 99.2566 105.623 99.9474Z" fill="#E4897B"/>
<path d="M100.838 108.049C100.574 107.521 100.286 106.918 100.926 106.755C101.567 106.592 106.113 106.328 107.413 106.755C106.986 107.465 107.646 108.369 107.646 108.369L100.838 108.049Z" fill="#407BFF"/>
<path opacity="0.5" d="M100.838 108.049C100.574 107.521 100.286 106.918 100.926 106.755C101.567 106.592 106.113 106.328 107.413 106.755C106.986 107.465 107.646 108.369 107.646 108.369L100.838 108.049Z" fill="#FAFAFA"/>
<path d="M88.0376 189.061H85.2619C85.2115 189.061 85.1629 189.079 85.124 189.111C85.0851 189.143 85.0584 189.187 85.0484 189.236L84.546 191.497C84.5324 191.552 84.5316 191.609 84.5437 191.664C84.5558 191.719 84.5805 191.77 84.6157 191.814C84.651 191.858 84.696 191.893 84.7471 191.916C84.7981 191.94 84.854 191.951 84.9102 191.949C85.9087 191.949 87.3594 191.874 88.6154 191.874C90.0912 191.874 91.3598 191.956 93.0868 191.956C94.1355 191.956 94.4244 190.901 93.9848 190.806C91.994 190.367 90.3738 190.323 88.6531 189.262C88.47 189.14 88.2572 189.07 88.0376 189.061Z" fill="#263238"/>
<path d="M106 130.499C106 130.499 105.208 135.831 104.248 141.96C103.827 144.586 103.375 147.355 102.929 149.917C102.433 152.787 101.949 155.387 101.547 157.221C99.7951 165.197 90.4944 187.177 90.4944 187.177L85.9414 186.191C85.9414 186.191 92.4475 169.09 93.8982 157.931C95.0223 149.371 97.2266 130.493 97.2266 130.493L106 130.499Z" fill="#263238"/>
<path d="M91.5817 185.65L90.7338 187.295L85.6094 186.184L86.0364 184.664L91.5817 185.65Z" fill="#407BFF"/>
<path opacity="0.3" d="M91.5817 185.65L90.7338 187.295L85.6094 186.184L86.0364 184.664L91.5817 185.65Z" fill="black"/>
<path opacity="0.2" d="M104.246 141.96C103.825 144.585 103.373 147.354 102.927 149.917C101.671 144.849 102.079 141.815 102.079 141.815L104.246 141.96Z" fill="black"/>
<path d="M98.556 112.701C97.3314 113.857 96.044 115.082 94.8759 116.306C93.6956 117.505 92.5763 118.763 91.5224 120.074C91.0727 120.724 90.6677 121.404 90.3104 122.109C89.921 122.869 89.5254 123.641 89.1486 124.433L86.8438 129.193L85.0352 128.565C85.4245 126.8 85.9206 125.079 86.4607 123.352C86.7433 122.492 87.0448 121.632 87.3776 120.771C87.7286 119.846 88.1594 118.953 88.665 118.102C89.6855 116.545 90.8323 115.075 92.0939 113.706C93.3138 112.337 94.614 111.041 95.9875 109.825L98.556 112.701Z" fill="#DC897C"/>
<path d="M84.884 133.212L85.8072 131.573L82.9937 130.719C82.8351 131.098 82.7576 131.506 82.7663 131.917C82.7749 132.328 82.8695 132.733 83.044 133.105L84.884 133.212Z" fill="#E4897B"/>
<path d="M86.8395 129.168L85.0371 128.584L82.9961 130.719L85.8095 131.567L86.8395 129.168Z" fill="#E4897B"/>
<path d="M141.33 167.633L139.037 169.335C138.997 169.366 138.969 169.409 138.956 169.458C138.944 169.507 138.948 169.559 138.968 169.605L139.91 171.721C139.933 171.773 139.967 171.819 140.01 171.856C140.053 171.892 140.104 171.918 140.158 171.931C140.213 171.945 140.27 171.945 140.325 171.933C140.38 171.92 140.432 171.895 140.476 171.859C141.267 171.231 141.625 170.918 142.63 170.17C143.258 169.712 144.689 168.701 145.55 168.066C146.41 167.432 145.889 166.496 145.481 166.685C143.653 167.507 142.598 167.595 141.757 167.514C141.605 167.5 141.453 167.543 141.33 167.633Z" fill="#263238"/>
<path d="M97.4656 108.286C95.0227 108.136 91.418 113.417 91.418 113.417L94.9724 118.272C96.5324 117.362 97.8305 116.064 98.7404 114.504C100.43 111.652 99.9588 108.443 97.4656 108.286Z" fill="#407BFF"/>
<path opacity="0.6" d="M97.4656 108.286C95.0227 108.136 91.418 113.417 91.418 113.417L94.9724 118.272C96.5324 117.362 97.8305 116.064 98.7404 114.504C100.43 111.652 99.9588 108.443 97.4656 108.286Z" fill="#FAFAFA"/>
<path opacity="0.2" d="M98.1574 113.16C96.556 114.021 95.4884 116.137 94.8164 118.052L94.9734 118.272C96.5334 117.362 97.8314 116.064 98.7414 114.504C98.8419 114.341 98.9361 114.165 99.024 113.995L98.1574 113.16Z" fill="black"/>
<path d="M111.922 107.898C111.922 107.898 113.386 111.578 110.823 130.506H97.2273C97.1331 128.415 98.4456 118.229 96.4297 108.394C97.9331 108.102 99.454 107.909 100.983 107.816C102.722 107.735 108.519 106.56 110.051 106.705C112.067 106.881 111.922 107.898 111.922 107.898Z" fill="#407BFF"/>
<path opacity="0.6" d="M112.243 116.243C112.079 119.591 111.671 124.2 110.823 130.499H97.2273C97.1331 128.408 98.4456 118.222 96.4297 108.387C97.9331 108.095 99.454 107.902 100.983 107.809C102.722 107.728 108.519 106.553 110.051 106.698C112.067 106.88 111.935 107.897 111.935 107.897C111.935 107.897 112.243 108.67 112.324 111.326C112.356 112.538 112.349 114.14 112.243 116.243Z" fill="#FAFAFA"/>
<path d="M110.268 129.4L112.956 135.68C112.956 135.68 125.975 137.313 129.667 141.791C133.36 146.269 140.343 164.437 140.343 164.437L136.864 167.395C136.864 167.395 126.879 149.032 124.084 146.815C121.29 144.598 105.383 144.604 101.828 143.279C98.2736 141.954 97.25 130.481 97.25 130.481L110.268 129.4Z" fill="#263238"/>
<path d="M136.125 167.049L140.32 163.834L140.86 164.87L136.841 168.035L136.125 167.049Z" fill="#407BFF"/>
<path opacity="0.3" d="M136.125 167.049L140.32 163.834L140.86 164.87L136.841 168.035L136.125 167.049Z" fill="black"/>
<path d="M107.387 96.4297C107.387 96.4297 107.23 92.6993 105.258 92.5737C103.286 92.4481 101.735 94.2316 101.735 94.2316C101.544 93.9936 101.302 93.8012 101.027 93.6687C100.752 93.5361 100.451 93.4667 100.146 93.4655C99.0279 93.4027 97.0811 95.3055 97.0811 95.3055C97.0811 95.3055 99.5115 93.8109 100.535 94.4954C100.535 94.4954 97.7782 95.2616 97.0811 97.0074C96.7821 97.8944 96.2886 98.7033 95.6367 99.375H97.0811L96.1328 100.989C96.1328 100.989 98.1299 102.917 99.6371 102.597L99.1535 103.514C99.1535 103.514 102.111 104.594 103.317 104.261C104.523 103.928 103.38 97.9243 103.38 97.9243L107.387 96.4297Z" fill="#263238"/>
<path opacity="0.2" d="M112.243 116.244C109.775 114.567 109.813 110.705 109.813 110.705L112.325 111.333C112.356 112.539 112.35 114.14 112.243 116.244Z" fill="black"/>
<path d="M89.4766 135.31L72.7028 132.49L68.3633 145.402L71.139 150.439L89.4515 152.85L93.163 138.789L89.4766 135.31Z" fill="#407BFF"/>
<path opacity="0.4" d="M68.3633 145.402L69.4434 147.368L69.6884 147.801L71.139 150.439L89.4515 152.85L93.163 138.789L91.5867 137.301L91.1032 136.849L89.4829 135.31L72.7028 132.49L68.3633 145.402Z" fill="black"/>
<path opacity="0.2" d="M93.1634 138.789L76.559 136.208L72.7031 132.49L89.4833 135.31L93.1634 138.789Z" fill="white"/>
<path opacity="0.1" d="M76.5587 136.208L71.139 150.439L68.3633 145.402L72.7028 132.49L76.5587 136.208Z" fill="white"/>
<path d="M69.4453 147.367L69.6902 147.801L74.708 134.462L91.5886 137.3L91.105 136.848L74.4065 134.173L69.4453 147.367Z" fill="#263238"/>
<path d="M85.9219 136.076L85.0741 135.291L80.8477 134.524L81.5887 135.372L85.9219 136.076Z" fill="#263238"/>
<path d="M87.5532 136.39C87.5532 136.39 87.7479 131.956 87.6285 131.661C87.5092 131.366 81.5621 130.405 81.1162 130.311C80.6703 130.217 78.7109 134.538 78.7109 134.538L79.0501 135.059L80.1742 135.21C80.1742 135.21 81.5997 131.485 81.7442 131.391C83.3737 131.565 84.9923 131.829 86.5923 132.183C86.7179 132.283 86.2281 135.668 86.2281 135.668L86.6112 136.221L87.5532 136.39Z" fill="#263238"/>
<path d="M69.5 143.436L70.756 145.05L70.8753 144.73L71.8236 142.217L71.9366 141.916L72.1376 141.376C72.1376 141.376 71.7796 141.778 71.2898 142.236C70.7818 142.755 70.1726 143.163 69.5 143.436Z" fill="#407BFF"/>
<path opacity="0.2" d="M69.9062 143.555L70.842 144.729L71.7903 142.217L71.9033 141.916C71.3828 142.619 70.6968 143.182 69.9062 143.555Z" fill="white"/>
<path opacity="0.2" d="M71.2578 142.23H71.7916L72.1056 141.389C72.1056 141.389 71.7477 141.772 71.2578 142.23Z" fill="black"/>
<path d="M69.041 140.277L68.8086 142.551C69.7472 142.122 70.7921 141.982 71.8104 142.149L71.9298 141.835L72.6582 139.882L72.7399 139.681C71.4761 139.556 70.2016 139.762 69.041 140.277Z" fill="#407BFF"/>
<path d="M71.4297 136.422C71.8685 137.277 72.4456 138.053 73.1378 138.72L73.2258 138.481L73.4518 137.853L73.8286 136.817L74.0108 136.315L74.061 136.17C73.7602 135.71 73.4997 135.225 73.2823 134.72L71.4297 136.422Z" fill="#407BFF"/>
<path d="M75.2695 133.495C75.4986 133.854 75.6761 134.243 75.797 134.651L76.0608 134.694L76.425 134.751L77.0091 134.858L77.568 134.952L77.7627 134.983C77.7528 134.111 77.427 133.272 76.8458 132.622L75.2695 133.495Z" fill="#407BFF"/>
<path opacity="0.2" d="M75.6211 133.558C75.8085 133.92 75.9559 134.301 76.0607 134.695L76.4249 134.751C76.3942 134.703 76.3743 134.649 76.3667 134.593C76.3591 134.536 76.364 134.479 76.381 134.425C76.3973 134.375 76.4233 134.329 76.4574 134.29C76.4915 134.25 76.5332 134.218 76.5799 134.194C76.6266 134.171 76.6774 134.157 76.7295 134.154C76.7816 134.15 76.8339 134.157 76.8834 134.173C76.9327 134.189 76.9785 134.214 77.018 134.248C77.0574 134.281 77.0898 134.323 77.1132 134.369C77.1366 134.415 77.1505 134.465 77.1542 134.517C77.1579 134.569 77.1512 134.621 77.1346 134.67C77.1116 134.743 77.068 134.808 77.009 134.858L77.5679 134.952C77.5348 134.213 77.2786 133.502 76.8331 132.911L75.6211 133.558Z" fill="white"/>
<path opacity="0.2" d="M69.1913 140.365L69.0469 142.205C69.974 141.894 70.9535 141.768 71.9294 141.835L72.6579 139.882C71.48 139.739 70.2852 139.906 69.1913 140.365ZM71.2072 140.215C71.2826 140.188 71.3631 140.18 71.4423 140.19C71.5215 140.199 71.5974 140.227 71.6642 140.271C71.7309 140.315 71.7867 140.374 71.8273 140.442C71.8678 140.511 71.892 140.588 71.8979 140.668C71.9039 140.748 71.8915 140.827 71.8617 140.902C71.8319 140.976 71.7855 141.042 71.726 141.095C71.6665 141.148 71.5956 141.187 71.5187 141.209C71.4418 141.23 71.361 141.234 71.2826 141.219C71.2071 141.246 71.1267 141.254 71.0475 141.244C70.9682 141.234 70.8923 141.206 70.8256 141.163C70.7588 141.119 70.703 141.06 70.6625 140.991C70.622 140.923 70.5978 140.846 70.5918 140.766C70.5858 140.686 70.5982 140.606 70.628 140.532C70.6579 140.458 70.7043 140.392 70.7638 140.339C70.8232 140.285 70.8941 140.247 70.971 140.225C71.0479 140.203 71.1287 140.2 71.2072 140.215Z" fill="white"/>
<path opacity="0.2" d="M71.75 136.521C72.1629 137.23 72.6582 137.888 73.2258 138.481L73.4519 137.853C73.3235 137.801 73.2202 137.701 73.164 137.575C73.1078 137.448 73.1029 137.305 73.1504 137.175C73.1899 137.045 73.2762 136.936 73.3925 136.867C73.5087 136.799 73.6464 136.776 73.7784 136.804L73.9606 136.302C73.6415 135.949 73.3826 135.545 73.1944 135.108L71.75 136.521Z" fill="white"/>
<path d="M127.941 96.028L128.909 94.4141L131.044 96.4362C130.792 96.7612 130.476 97.0302 130.115 97.2259C129.754 97.4217 129.356 97.5399 128.946 97.5729L127.941 96.028Z" fill="#E4897B"/>
<path d="M130.405 92.2539L131.918 94.3766L131.045 96.4364L128.91 94.4142L130.405 92.2539Z" fill="#E4897B"/>
<path d="M111.23 107.019C112.968 106.662 114.687 106.218 116.38 105.687C118.011 105.203 119.576 104.52 121.04 103.653C121.173 103.569 121.301 103.477 121.423 103.376L121.856 102.974C122.158 102.685 122.484 102.346 122.767 102.045C123.363 101.379 123.979 100.695 124.569 99.9913C125.781 98.5971 126.962 97.1464 128.18 95.7334L129.769 96.7884C128.896 98.4903 127.929 100.111 126.905 101.725C126.384 102.522 125.85 103.326 125.26 104.111C124.965 104.5 124.632 104.896 124.318 105.292C124.155 105.486 123.947 105.687 123.765 105.888C123.541 106.111 123.304 106.32 123.056 106.516C121.388 107.712 119.554 108.656 117.611 109.317C115.753 109.989 113.841 110.5 111.896 110.843L111.23 107.019Z" fill="#DC897C"/>
<path d="M110.42 112.507C113.063 114.799 118.872 110.868 118.872 110.868L116.555 105.146C114.424 105.395 112.321 105.847 110.275 106.497C106.601 107.746 108.397 110.761 110.42 112.507Z" fill="#407BFF"/>
<path opacity="0.6" d="M110.42 112.507C113.063 114.799 118.872 110.868 118.872 110.868L116.555 105.146C114.424 105.395 112.321 105.847 110.275 106.497C106.601 107.746 108.397 110.761 110.42 112.507Z" fill="#FAFAFA"/>
</g>
<defs>
<clipPath id="clip0_1056_19168">
<rect width="314" height="234" fill="white"/>
</clipPath>
</defs>
</svg>
