<svg width="39" height="40" viewBox="0 0 39 40" fill="none" xmlns="http://www.w3.org/2000/svg">
<g clip-path="url(#clip0_1058_3439)">
<path d="M8.04075 15.1266H11.8043V9.78613H8.04075C5.90821 9.78613 3.86301 10.6417 2.35508 12.1647C0.847148 13.6876 0 15.7532 0 17.9069V23.2474C0 21.0936 0.847148 19.0281 2.35508 17.5051C3.86301 15.9822 5.90821 15.1266 8.04075 15.1266Z" fill="url(#paint0_linear_1058_3439)"/>
<path d="M8.04074 24.9139C5.90821 24.9139 3.86301 25.7694 2.35508 27.2924C0.847147 28.8153 0 30.8809 0 33.0347V39.9993L11.8049 30.8129V24.9121L8.04074 24.9139Z" fill="url(#paint1_linear_1058_3439)"/>
<path d="M22.2812 24.9096L25.1458 24.8722C26.1101 24.8722 27.5106 25.9127 27.5106 27.5428C27.5106 29.1728 26.1101 30.2127 25.1458 30.2127H26.9842C32.7169 30.2127 38.346 24.6041 36.1634 19.7333C35.3706 18.7402 34.4323 17.8751 33.381 17.168C32.4744 19.4071 30.9422 21.3314 28.9712 22.7061C27.0002 24.0808 24.6757 24.8464 22.2812 24.9096Z" fill="url(#paint2_linear_1058_3439)"/>
<path d="M0 33.0358C0 30.882 0.847148 28.8164 2.35508 27.2935C3.86301 25.7705 5.90821 24.915 8.04075 24.915H21.9593C28.7714 24.915 34.2935 19.3373 34.2935 12.458C34.2935 5.57863 28.7714 0.000976562 21.9593 0.000976562H8.04133C5.90879 0.000976563 3.86359 0.856561 2.35566 2.37951C0.847727 3.90246 0.000579036 5.96802 0.000579036 8.1218V17.9083C0.000579036 15.7545 0.847727 13.6889 2.35566 12.166C3.86359 10.643 5.90879 9.78744 8.04133 9.78744H20.5502C21.5145 9.78744 22.915 10.8274 22.915 12.458C22.915 14.0886 21.5145 15.1279 20.5502 15.1279H8.04133C5.90879 15.1279 3.86359 15.9835 2.35566 17.5064C0.847727 19.0294 0.000579036 21.0949 0.000579036 23.2487V33.0358H0Z" fill="url(#paint3_linear_1058_3439)"/>
<path d="M0 40.0004H26.5547C33.3668 40.0004 38.8889 34.4227 38.8889 27.5434C38.8935 24.7015 37.9312 21.9443 36.1631 19.7334C38.3451 24.6071 32.716 30.2157 26.9834 30.2157H8.04133C5.90879 30.2157 3.86359 31.0713 2.35566 32.5942C0.847727 34.1172 0.000579036 36.1827 0.000579036 38.3365L0 40.0004Z" fill="url(#paint4_linear_1058_3439)"/>
</g>
<defs>
<linearGradient id="paint0_linear_1058_3439" x1="8.17495" y1="5.85484" x2="3.68665" y2="25.612" gradientUnits="userSpaceOnUse">
<stop stop-color="#20B6FF"/>
<stop offset="1" stop-color="#0B2D92"/>
</linearGradient>
<linearGradient id="paint1_linear_1058_3439" x1="14694.2" y1="13589.8" x2="13126.2" y2="19044.5" gradientUnits="userSpaceOnUse">
<stop stop-color="#20B6FF"/>
<stop offset="1" stop-color="#0B2D92"/>
</linearGradient>
<linearGradient id="paint2_linear_1058_3439" x1="23838.7" y1="13189.2" x2="22611" y2="11312.1" gradientUnits="userSpaceOnUse">
<stop stop-color="#20B6FF"/>
<stop offset="1" stop-color="#0B2D92"/>
</linearGradient>
<linearGradient id="paint3_linear_1058_3439" x1="0" y1="16.5178" x2="34.2941" y2="16.5178" gradientUnits="userSpaceOnUse">
<stop stop-color="#00FFE5"/>
<stop offset="1" stop-color="#1A69F4"/>
</linearGradient>
<linearGradient id="paint4_linear_1058_3439" x1="42826.8" y1="21422.3" x2="68970.6" y2="21422.3" gradientUnits="userSpaceOnUse">
<stop stop-color="#00FFE5"/>
<stop offset="1" stop-color="#1A69F4"/>
</linearGradient>
<clipPath id="clip0_1058_3439">
<rect width="38.8889" height="40" fill="white"/>
</clipPath>
</defs>
</svg>
