<svg width="250" height="200" viewBox="0 0 250 200" fill="none" xmlns="http://www.w3.org/2000/svg">
<rect width="250" height="200" rx="25" fill="url(#paint0_linear_610_22477)"/>
<path d="M65.403 153H62.8717L67.4804 139.909H70.4079L75.023 153H72.4917L68.9953 142.594H68.893L65.403 153ZM65.4861 147.867H72.3895V149.772H65.4861V147.867ZM79.9896 153.173C79.2183 153.173 78.528 152.974 77.9186 152.578C77.3092 152.182 76.8277 151.607 76.474 150.852C76.1203 150.098 75.9434 149.182 75.9434 148.104C75.9434 147.013 76.1224 146.092 76.4804 145.342C76.8426 144.588 77.3305 144.019 77.9442 143.636C78.5578 143.248 79.2417 143.054 79.996 143.054C80.5713 143.054 81.0443 143.152 81.415 143.348C81.7858 143.54 82.0798 143.772 82.2971 144.045C82.5145 144.313 82.6828 144.567 82.8021 144.805H82.898V139.909H85.2183V153H82.9427V151.453H82.8021C82.6828 151.692 82.5102 151.945 82.2844 152.214C82.0585 152.478 81.7602 152.704 81.3895 152.891C81.0187 153.079 80.5521 153.173 79.9896 153.173ZM80.6352 151.274C81.1253 151.274 81.5429 151.142 81.8881 150.878C82.2332 150.609 82.4953 150.237 82.6743 149.759C82.8532 149.282 82.9427 148.726 82.9427 148.091C82.9427 147.456 82.8532 146.904 82.6743 146.435C82.4996 145.967 82.2396 145.602 81.8944 145.342C81.5535 145.082 81.1338 144.952 80.6352 144.952C80.1196 144.952 79.6892 145.087 79.344 145.355C78.9988 145.624 78.7389 145.994 78.5642 146.467C78.3895 146.94 78.3021 147.482 78.3021 148.091C78.3021 148.705 78.3895 149.252 78.5642 149.734C78.7432 150.211 79.0052 150.588 79.3504 150.865C79.6998 151.138 80.1281 151.274 80.6352 151.274ZM91.3275 153.173C90.5562 153.173 89.8659 152.974 89.2565 152.578C88.6471 152.182 88.1656 151.607 87.8119 150.852C87.4582 150.098 87.2813 149.182 87.2813 148.104C87.2813 147.013 87.4603 146.092 87.8183 145.342C88.1805 144.588 88.6684 144.019 89.282 143.636C89.8957 143.248 90.5796 143.054 91.3339 143.054C91.9092 143.054 92.3822 143.152 92.7529 143.348C93.1237 143.54 93.4177 143.772 93.635 144.045C93.8524 144.313 94.0207 144.567 94.14 144.805H94.2359V139.909H96.5562V153H94.2806V151.453H94.14C94.0207 151.692 93.8481 151.945 93.6222 152.214C93.3964 152.478 93.0981 152.704 92.7274 152.891C92.3566 153.079 91.89 153.173 91.3275 153.173ZM91.9731 151.274C92.4632 151.274 92.8808 151.142 93.2259 150.878C93.5711 150.609 93.8332 150.237 94.0122 149.759C94.1911 149.282 94.2806 148.726 94.2806 148.091C94.2806 147.456 94.1911 146.904 94.0122 146.435C93.8374 145.967 93.5775 145.602 93.2323 145.342C92.8914 145.082 92.4717 144.952 91.9731 144.952C91.4575 144.952 91.0271 145.087 90.6819 145.355C90.3367 145.624 90.0768 145.994 89.9021 146.467C89.7274 146.94 89.64 147.482 89.64 148.091C89.64 148.705 89.7274 149.252 89.9021 149.734C90.0811 150.211 90.3431 150.588 90.6883 150.865C91.0377 151.138 91.466 151.274 91.9731 151.274ZM114.347 139.909V153H112.237L106.069 144.083H105.96V153H103.589V139.909H105.711L111.873 148.832H111.988V139.909H114.347ZM121.175 153.192C120.191 153.192 119.341 152.987 118.625 152.578C117.913 152.165 117.366 151.581 116.982 150.827C116.598 150.068 116.407 149.175 116.407 148.148C116.407 147.138 116.598 146.252 116.982 145.489C117.37 144.722 117.911 144.126 118.606 143.7C119.3 143.269 120.116 143.054 121.054 143.054C121.659 143.054 122.23 143.152 122.767 143.348C123.308 143.54 123.785 143.838 124.199 144.243C124.616 144.648 124.944 145.163 125.183 145.79C125.422 146.412 125.541 147.153 125.541 148.014V148.724H117.493V147.164H123.323C123.319 146.721 123.223 146.327 123.035 145.982C122.848 145.632 122.586 145.357 122.249 145.157C121.917 144.957 121.529 144.857 121.086 144.857C120.613 144.857 120.197 144.972 119.839 145.202C119.481 145.428 119.202 145.726 119.002 146.097C118.806 146.463 118.706 146.866 118.701 147.305V148.666C118.701 149.237 118.806 149.727 119.015 150.136C119.223 150.541 119.515 150.852 119.89 151.07C120.265 151.283 120.704 151.389 121.207 151.389C121.544 151.389 121.848 151.342 122.121 151.249C122.394 151.151 122.63 151.008 122.831 150.82C123.031 150.633 123.182 150.401 123.285 150.124L125.445 150.366C125.309 150.937 125.049 151.436 124.665 151.862C124.286 152.284 123.8 152.612 123.208 152.847C122.616 153.077 121.938 153.192 121.175 153.192ZM129.472 153L126.698 143.182H129.057L130.782 150.085H130.872L132.636 143.182H134.969L136.733 150.047H136.829L138.53 143.182H140.895L138.114 153H135.704L133.863 146.365H133.729L131.888 153H129.472ZM158.283 144.326H155.892C155.824 143.934 155.698 143.587 155.515 143.284C155.332 142.977 155.104 142.717 154.831 142.504C154.558 142.291 154.247 142.131 153.898 142.025C153.552 141.914 153.18 141.859 152.779 141.859C152.067 141.859 151.437 142.038 150.887 142.396C150.337 142.749 149.907 143.269 149.596 143.955C149.285 144.637 149.129 145.47 149.129 146.455C149.129 147.456 149.285 148.3 149.596 148.986C149.911 149.668 150.342 150.183 150.887 150.533C151.437 150.878 152.065 151.05 152.773 151.05C153.165 151.05 153.531 150.999 153.872 150.897C154.217 150.79 154.526 150.635 154.799 150.43C155.076 150.226 155.308 149.974 155.496 149.676C155.687 149.378 155.82 149.037 155.892 148.653L158.283 148.666C158.193 149.288 157.999 149.872 157.701 150.418C157.407 150.963 157.021 151.445 156.544 151.862C156.067 152.276 155.508 152.599 154.869 152.834C154.23 153.064 153.521 153.179 152.741 153.179C151.59 153.179 150.563 152.913 149.66 152.38C148.756 151.847 148.045 151.078 147.525 150.072C147.005 149.067 146.745 147.861 146.745 146.455C146.745 145.044 147.007 143.838 147.531 142.837C148.055 141.831 148.769 141.062 149.672 140.529C150.576 139.996 151.599 139.73 152.741 139.73C153.469 139.73 154.147 139.832 154.773 140.037C155.4 140.241 155.958 140.542 156.448 140.938C156.938 141.33 157.341 141.812 157.656 142.383C157.976 142.95 158.185 143.597 158.283 144.326ZM163.177 153.198C162.555 153.198 161.995 153.087 161.496 152.866C161.002 152.64 160.61 152.308 160.32 151.869C160.035 151.43 159.892 150.888 159.892 150.245C159.892 149.691 159.994 149.233 160.199 148.871C160.403 148.509 160.682 148.219 161.036 148.001C161.39 147.784 161.788 147.62 162.231 147.509C162.679 147.394 163.141 147.311 163.618 147.26C164.194 147.2 164.66 147.147 165.018 147.1C165.376 147.049 165.636 146.972 165.798 146.87C165.964 146.763 166.047 146.599 166.047 146.378V146.339C166.047 145.858 165.905 145.485 165.619 145.221C165.334 144.957 164.922 144.825 164.385 144.825C163.819 144.825 163.369 144.948 163.037 145.195C162.709 145.442 162.487 145.734 162.372 146.071L160.211 145.764C160.382 145.168 160.663 144.669 161.055 144.268C161.447 143.864 161.927 143.561 162.493 143.361C163.06 143.156 163.687 143.054 164.373 143.054C164.846 143.054 165.316 143.109 165.785 143.22C166.254 143.331 166.682 143.514 167.07 143.77C167.458 144.021 167.769 144.364 168.003 144.799C168.242 145.234 168.361 145.777 168.361 146.429V153H166.137V151.651H166.06C165.919 151.924 165.721 152.18 165.466 152.418C165.214 152.653 164.897 152.842 164.513 152.987C164.134 153.128 163.689 153.198 163.177 153.198ZM163.778 151.498C164.243 151.498 164.645 151.406 164.986 151.223C165.327 151.036 165.589 150.788 165.772 150.482C165.96 150.175 166.054 149.84 166.054 149.478V148.321C165.981 148.381 165.858 148.436 165.683 148.487C165.513 148.538 165.321 148.583 165.108 148.621C164.895 148.66 164.684 148.694 164.475 148.724C164.266 148.754 164.085 148.779 163.932 148.8C163.586 148.847 163.277 148.924 163.005 149.031C162.732 149.137 162.517 149.286 162.359 149.478C162.201 149.665 162.123 149.908 162.123 150.207C162.123 150.633 162.278 150.955 162.589 151.172C162.9 151.389 163.297 151.498 163.778 151.498ZM170.688 153V143.182H172.932V144.818H173.034C173.213 144.251 173.52 143.815 173.954 143.508C174.393 143.197 174.894 143.041 175.456 143.041C175.584 143.041 175.727 143.048 175.885 143.06C176.047 143.069 176.181 143.084 176.287 143.105V145.234C176.189 145.2 176.034 145.17 175.821 145.144C175.612 145.114 175.41 145.099 175.214 145.099C174.792 145.099 174.412 145.191 174.076 145.374C173.743 145.553 173.481 145.803 173.29 146.122C173.098 146.442 173.002 146.81 173.002 147.228V153H170.688ZM181.064 153.173C180.293 153.173 179.602 152.974 178.993 152.578C178.383 152.182 177.902 151.607 177.548 150.852C177.195 150.098 177.018 149.182 177.018 148.104C177.018 147.013 177.197 146.092 177.555 145.342C177.917 144.588 178.405 144.019 179.018 143.636C179.632 143.248 180.316 143.054 181.07 143.054C181.646 143.054 182.119 143.152 182.489 143.348C182.86 143.54 183.154 143.772 183.371 144.045C183.589 144.313 183.757 144.567 183.876 144.805H183.972V139.909H186.293V153H184.017V151.453H183.876C183.757 151.692 183.584 151.945 183.359 152.214C183.133 152.478 182.834 152.704 182.464 152.891C182.093 153.079 181.626 153.173 181.064 153.173ZM181.709 151.274C182.199 151.274 182.617 151.142 182.962 150.878C183.307 150.609 183.57 150.237 183.748 149.759C183.927 149.282 184.017 148.726 184.017 148.091C184.017 147.456 183.927 146.904 183.748 146.435C183.574 145.967 183.314 145.602 182.969 145.342C182.628 145.082 182.208 144.952 181.709 144.952C181.194 144.952 180.763 145.087 180.418 145.355C180.073 145.624 179.813 145.994 179.638 146.467C179.464 146.94 179.376 147.482 179.376 148.091C179.376 148.705 179.464 149.252 179.638 149.734C179.817 150.211 180.079 150.588 180.425 150.865C180.774 151.138 181.202 151.274 181.709 151.274Z" fill="white"/>
<circle cx="126" cy="78" r="34.5" stroke="white"/>
<path d="M135.542 79.7916H127.792V87.5416H125.209V79.7916H117.459V77.2083H125.209V69.4583H127.792V77.2083H135.542V79.7916Z" fill="white"/>
<defs>
<linearGradient id="paint0_linear_610_22477" x1="8.57144" y1="-7.88972e-06" x2="289.217" y2="109.819" gradientUnits="userSpaceOnUse">
<stop stop-color="#2D60FF"/>
<stop offset="1" stop-color="#539BFF"/>
</linearGradient>
</defs>
</svg>
