<svg width="250" height="200" viewBox="0 0 250 200" fill="none" xmlns="http://www.w3.org/2000/svg">
<rect width="250" height="200" rx="25" fill="url(#paint0_linear_610_22477)"/>
<path d="M50.1881 153H47.6569L52.2655 139.909H55.1931L59.8082 153H57.2769L53.7805 142.594H53.6782L50.1881 153ZM50.2712 147.867H57.1746V149.772H50.2712V147.867ZM64.7748 153.173C64.0035 153.173 63.3131 152.974 62.7037 152.578C62.0944 152.182 61.6128 151.607 61.2591 150.852C60.9055 150.098 60.7286 149.182 60.7286 148.104C60.7286 147.013 60.9076 146.092 61.2655 145.342C61.6278 144.588 62.1157 144.019 62.7293 143.636C63.343 143.248 64.0269 143.054 64.7812 143.054C65.3564 143.054 65.8295 143.152 66.2002 143.348C66.5709 143.54 66.865 143.772 67.0823 144.045C67.2996 144.313 67.468 144.567 67.5873 144.805H67.6832V139.909H70.0035V153H67.7279V151.453H67.5873C67.468 151.692 67.2954 151.945 67.0695 152.214C66.8437 152.478 66.5454 152.704 66.1746 152.891C65.8039 153.079 65.3373 153.173 64.7748 153.173ZM65.4204 151.274C65.9104 151.274 66.328 151.142 66.6732 150.878C67.0184 150.609 67.2805 150.237 67.4594 149.759C67.6384 149.282 67.7279 148.726 67.7279 148.091C67.7279 147.456 67.6384 146.904 67.4594 146.435C67.2847 145.967 67.0248 145.602 66.6796 145.342C66.3387 145.082 65.9189 144.952 65.4204 144.952C64.9047 144.952 64.4743 145.087 64.1292 145.355C63.784 145.624 63.5241 145.994 63.3493 146.467C63.1746 146.94 63.0873 147.482 63.0873 148.091C63.0873 148.705 63.1746 149.252 63.3493 149.734C63.5283 150.211 63.7904 150.588 64.1356 150.865C64.485 151.138 64.9133 151.274 65.4204 151.274ZM76.1127 153.173C75.3414 153.173 74.651 152.974 74.0416 152.578C73.4323 152.182 72.9507 151.607 72.597 150.852C72.2433 150.098 72.0665 149.182 72.0665 148.104C72.0665 147.013 72.2455 146.092 72.6034 145.342C72.9656 144.588 73.4536 144.019 74.0672 143.636C74.6808 143.248 75.3648 143.054 76.1191 143.054C76.6943 143.054 77.1673 143.152 77.5381 143.348C77.9088 143.54 78.2029 143.772 78.4202 144.045C78.6375 144.313 78.8058 144.567 78.9252 144.805H79.021V139.909H81.3414V153H79.0658V151.453H78.9252C78.8058 151.692 78.6333 151.945 78.4074 152.214C78.1816 152.478 77.8833 152.704 77.5125 152.891C77.1418 153.079 76.6752 153.173 76.1127 153.173ZM76.7583 151.274C77.2483 151.274 77.6659 151.142 78.0111 150.878C78.3563 150.609 78.6183 150.237 78.7973 149.759C78.9763 149.282 79.0658 148.726 79.0658 148.091C79.0658 147.456 78.9763 146.904 78.7973 146.435C78.6226 145.967 78.3627 145.602 78.0175 145.342C77.6766 145.082 77.2568 144.952 76.7583 144.952C76.2426 144.952 75.8122 145.087 75.4671 145.355C75.1219 145.624 74.8619 145.994 74.6872 146.467C74.5125 146.94 74.4252 147.482 74.4252 148.091C74.4252 148.705 74.5125 149.252 74.6872 149.734C74.8662 150.211 75.1283 150.588 75.4735 150.865C75.8229 151.138 76.2512 151.274 76.7583 151.274ZM99.132 139.909V153H97.0226L90.8543 144.083H90.7457V153H88.3742V139.909H90.4964L96.6583 148.832H96.7733V139.909H99.132ZM105.96 153.192C104.976 153.192 104.126 152.987 103.41 152.578C102.698 152.165 102.151 151.581 101.767 150.827C101.384 150.068 101.192 149.175 101.192 148.148C101.192 147.138 101.384 146.252 101.767 145.489C102.155 144.722 102.696 144.126 103.391 143.7C104.085 143.269 104.901 143.054 105.839 143.054C106.444 143.054 107.015 143.152 107.552 143.348C108.093 143.54 108.57 143.838 108.984 144.243C109.401 144.648 109.729 145.163 109.968 145.79C110.207 146.412 110.326 147.153 110.326 148.014V148.724H102.278V147.164H108.108C108.104 146.721 108.008 146.327 107.82 145.982C107.633 145.632 107.371 145.357 107.034 145.157C106.702 144.957 106.314 144.857 105.871 144.857C105.398 144.857 104.982 144.972 104.624 145.202C104.266 145.428 103.987 145.726 103.787 146.097C103.591 146.463 103.491 146.866 103.487 147.305V148.666C103.487 149.237 103.591 149.727 103.8 150.136C104.009 150.541 104.301 150.852 104.676 151.07C105.051 151.283 105.489 151.389 105.992 151.389C106.329 151.389 106.634 151.342 106.906 151.249C107.179 151.151 107.416 151.008 107.616 150.82C107.816 150.633 107.967 150.401 108.07 150.124L110.23 150.366C110.094 150.937 109.834 151.436 109.45 151.862C109.071 152.284 108.585 152.612 107.993 152.847C107.401 153.077 106.723 153.192 105.96 153.192ZM114.257 153L111.483 143.182H113.842L115.568 150.085H115.657L117.421 143.182H119.754L121.519 150.047H121.614L123.315 143.182H125.68L122.899 153H120.489L118.649 146.365H118.514L116.673 153H114.257ZM133.544 153H131.012L135.621 139.909H138.549L143.164 153H140.632L137.136 142.594H137.034L133.544 153ZM133.627 147.867H140.53V149.772H133.627V147.867ZM148.769 153.192C147.789 153.192 146.948 152.977 146.245 152.546C145.546 152.116 145.007 151.521 144.627 150.763C144.252 150 144.065 149.122 144.065 148.129C144.065 147.132 144.257 146.252 144.64 145.489C145.024 144.722 145.565 144.126 146.264 143.7C146.967 143.269 147.798 143.054 148.757 143.054C149.554 143.054 150.259 143.201 150.872 143.495C151.49 143.785 151.983 144.196 152.349 144.729C152.715 145.257 152.924 145.875 152.975 146.582H150.764C150.674 146.109 150.461 145.715 150.125 145.4C149.792 145.08 149.347 144.92 148.789 144.92C148.316 144.92 147.9 145.048 147.542 145.304C147.184 145.555 146.905 145.918 146.705 146.391C146.509 146.864 146.411 147.43 146.411 148.091C146.411 148.76 146.509 149.335 146.705 149.817C146.901 150.294 147.176 150.663 147.529 150.923C147.887 151.178 148.307 151.306 148.789 151.306C149.13 151.306 149.434 151.242 149.703 151.114C149.975 150.982 150.203 150.793 150.387 150.545C150.57 150.298 150.696 149.998 150.764 149.644H152.975C152.92 150.339 152.715 150.955 152.362 151.491C152.008 152.024 151.527 152.442 150.917 152.744C150.308 153.043 149.592 153.192 148.769 153.192ZM159.158 153.192C158.178 153.192 157.336 152.977 156.633 152.546C155.934 152.116 155.395 151.521 155.016 150.763C154.641 150 154.454 149.122 154.454 148.129C154.454 147.132 154.645 146.252 155.029 145.489C155.412 144.722 155.954 144.126 156.652 143.7C157.356 143.269 158.187 143.054 159.145 143.054C159.942 143.054 160.647 143.201 161.261 143.495C161.879 143.785 162.371 144.196 162.738 144.729C163.104 145.257 163.313 145.875 163.364 146.582H161.152C161.063 146.109 160.85 145.715 160.513 145.4C160.181 145.08 159.736 144.92 159.177 144.92C158.704 144.92 158.289 145.048 157.931 145.304C157.573 145.555 157.294 145.918 157.093 146.391C156.897 146.864 156.799 147.43 156.799 148.091C156.799 148.76 156.897 149.335 157.093 149.817C157.29 150.294 157.564 150.663 157.918 150.923C158.276 151.178 158.696 151.306 159.177 151.306C159.518 151.306 159.823 151.242 160.091 151.114C160.364 150.982 160.592 150.793 160.775 150.545C160.959 150.298 161.084 149.998 161.152 149.644H163.364C163.309 150.339 163.104 150.955 162.75 151.491C162.397 152.024 161.915 152.442 161.306 152.744C160.696 153.043 159.981 153.192 159.158 153.192ZM169.547 153.192C168.588 153.192 167.757 152.981 167.054 152.559C166.351 152.137 165.805 151.547 165.418 150.788C165.034 150.03 164.842 149.143 164.842 148.129C164.842 147.115 165.034 146.227 165.418 145.464C165.805 144.701 166.351 144.109 167.054 143.687C167.757 143.265 168.588 143.054 169.547 143.054C170.506 143.054 171.337 143.265 172.04 143.687C172.743 144.109 173.286 144.701 173.67 145.464C174.057 146.227 174.251 147.115 174.251 148.129C174.251 149.143 174.057 150.03 173.67 150.788C173.286 151.547 172.743 152.137 172.04 152.559C171.337 152.981 170.506 153.192 169.547 153.192ZM169.56 151.338C170.079 151.338 170.514 151.195 170.864 150.91C171.213 150.62 171.473 150.232 171.643 149.746C171.818 149.261 171.905 148.719 171.905 148.123C171.905 147.522 171.818 146.979 171.643 146.493C171.473 146.003 171.213 145.613 170.864 145.323C170.514 145.033 170.079 144.888 169.56 144.888C169.027 144.888 168.584 145.033 168.23 145.323C167.881 145.613 167.619 146.003 167.444 146.493C167.273 146.979 167.188 147.522 167.188 148.123C167.188 148.719 167.273 149.261 167.444 149.746C167.619 150.232 167.881 150.62 168.23 150.91C168.584 151.195 169.027 151.338 169.56 151.338ZM182.473 148.871V143.182H184.787V153H182.543V151.255H182.441C182.22 151.805 181.855 152.254 181.348 152.604C180.845 152.953 180.225 153.128 179.488 153.128C178.845 153.128 178.276 152.985 177.781 152.7C177.291 152.41 176.908 151.99 176.631 151.44C176.354 150.886 176.215 150.217 176.215 149.433V143.182H178.529V149.075C178.529 149.697 178.7 150.192 179.041 150.558C179.381 150.925 179.829 151.108 180.383 151.108C180.724 151.108 181.054 151.025 181.374 150.859C181.693 150.692 181.955 150.445 182.16 150.117C182.369 149.785 182.473 149.369 182.473 148.871ZM189.48 147.247V153H187.166V143.182H189.378V144.85H189.493C189.719 144.3 190.079 143.864 190.573 143.54C191.072 143.216 191.688 143.054 192.421 143.054C193.098 143.054 193.688 143.199 194.191 143.489C194.698 143.778 195.09 144.198 195.367 144.748C195.649 145.298 195.787 145.964 195.783 146.749V153H193.469V147.107C193.469 146.45 193.299 145.937 192.958 145.566C192.621 145.195 192.154 145.01 191.558 145.01C191.153 145.01 190.793 145.099 190.478 145.278C190.166 145.453 189.921 145.707 189.742 146.039C189.568 146.371 189.48 146.774 189.48 147.247ZM203.038 143.182V144.972H197.394V143.182H203.038ZM198.787 140.83H201.101V150.047C201.101 150.358 201.148 150.597 201.242 150.763C201.34 150.925 201.468 151.036 201.625 151.095C201.783 151.155 201.958 151.185 202.149 151.185C202.294 151.185 202.426 151.174 202.546 151.153C202.669 151.131 202.763 151.112 202.827 151.095L203.217 152.904C203.093 152.947 202.916 152.994 202.686 153.045C202.46 153.096 202.184 153.126 201.855 153.134C201.276 153.151 200.754 153.064 200.289 152.872C199.825 152.676 199.456 152.374 199.184 151.964C198.915 151.555 198.783 151.044 198.787 150.43V140.83Z" fill="white"/>
<circle cx="126" cy="78" r="34.5" stroke="white"/>
<path d="M135.542 79.7916H127.792V87.5416H125.209V79.7916H117.459V77.2083H125.209V69.4583H127.792V77.2083H135.542V79.7916Z" fill="white"/>
<defs>
<linearGradient id="paint0_linear_610_22477" x1="8.57144" y1="-7.88972e-06" x2="289.217" y2="109.819" gradientUnits="userSpaceOnUse">
<stop stop-color="#2D60FF"/>
<stop offset="1" stop-color="#539BFF"/>
</linearGradient>
</defs>
</svg>
