<svg width="24" height="24" viewBox="0 0 24 24" fill="none" xmlns="http://www.w3.org/2000/svg">
<path d="M0.480469 7.10407V14.6881H7.20047L14.6885 4.32007H3.26447C1.72847 4.32007 0.480469 5.56807 0.480469 7.10407ZM2.40047 7.68007C2.40047 7.29607 2.68847 7.00807 3.07247 7.00807H5.85647C6.24047 7.00807 6.52847 7.29607 6.52847 7.68007V10.4641C6.52847 10.8481 6.24047 11.1361 5.85647 11.1361H3.07247C2.68847 11.1361 2.40047 10.8481 2.40047 10.4641V7.68007Z" fill="#D45ED4"/>
<path d="M20.7358 4.32009H19.4878L21.1198 2.01609C21.4078 1.63209 21.3118 0.960095 20.9278 0.672095C20.5438 0.384095 19.8718 0.480095 19.5838 0.864095C19.3918 1.15209 4.2238 22.0801 4.3198 21.9841C4.0318 22.3681 4.1278 23.0401 4.5118 23.3281C4.8958 23.6161 5.5678 23.5201 5.8558 23.1361L7.5838 20.7361H20.6398C22.1758 20.7361 23.4238 19.4881 23.4238 17.9521V17.8561H9.7918L11.9998 14.7841H23.5198V7.10409C23.5198 5.56809 22.2718 4.32009 20.7358 4.32009Z" fill="#D45ED4"/>
<path d="M0.480469 17.856C0.480469 19.296 1.53647 20.448 2.88047 20.64L4.99247 17.76H0.480469V17.856Z" fill="#D45ED4"/>
</svg>
