<svg width="377" height="250" viewBox="0 0 377 250" fill="none" xmlns="http://www.w3.org/2000/svg">
<g filter="url(#filter0_bd_1286_24852)">
<rect x="25" y="10" width="327" height="200" rx="10" fill="url(#paint0_radial_1286_24852)" shape-rendering="crispEdges"/>
</g>
<rect x="58" y="70" width="44" height="32" rx="5" fill="url(#paint1_linear_1286_24852)" stroke="#A07400" stroke-width="0.5"/>
<rect x="61" y="73" width="15" height="6" rx="3" stroke="#A07400" stroke-width="0.5"/>
<rect x="84" y="73" width="15" height="6" rx="3" stroke="#A07400" stroke-width="0.5"/>
<rect x="61" y="83" width="15" height="6" rx="3" stroke="#A07400" stroke-width="0.5"/>
<rect x="84" y="83" width="15" height="6" rx="3" stroke="#A07400" stroke-width="0.5"/>
<rect x="61" y="93" width="15" height="6" rx="3" stroke="#A07400" stroke-width="0.5"/>
<rect x="84" y="93" width="15" height="6" rx="3" stroke="#A07400" stroke-width="0.5"/>
<path d="M75.5188 28.7273L74.3114 36H72.9833L70.5863 31.4226H70.5295L69.766 36H68.2283L69.4357 28.7273H70.7852L73.1715 33.3011H73.2319L73.9883 28.7273H75.5188ZM75.5819 36L76.7892 28.7273H81.6898L81.4767 29.995H78.1138L77.8297 31.728H80.9405L80.7275 32.9957H77.6167L77.3326 34.7322H80.7097L80.4966 36H75.5819ZM88.9776 32.4631C88.8451 33.2396 88.5882 33.8989 88.207 34.4411C87.8282 34.9832 87.3654 35.3951 86.8185 35.6768C86.274 35.9586 85.6869 36.0994 85.0572 36.0994C84.3967 36.0994 83.8273 35.9491 83.3491 35.6484C82.8732 35.3478 82.5288 34.9134 82.3157 34.3452C82.1026 33.7746 82.0624 33.0869 82.195 32.282C82.3228 31.5031 82.5773 30.8426 82.9585 30.3004C83.3396 29.7559 83.8048 29.3416 84.354 29.0575C84.9033 28.7711 85.494 28.6278 86.1261 28.6278C86.7818 28.6278 87.3477 28.7794 87.8235 29.0824C88.3017 29.3854 88.6462 29.8234 88.8569 30.3963C89.07 30.9669 89.1102 31.6558 88.9776 32.4631ZM87.4471 32.282C87.5299 31.7824 87.5264 31.3634 87.4364 31.0249C87.3488 30.6839 87.1879 30.4259 86.9535 30.2507C86.7191 30.0755 86.4232 29.9879 86.0657 29.9879C85.6774 29.9879 85.3211 30.085 84.9968 30.2791C84.6748 30.4732 84.4026 30.755 84.18 31.1243C83.9599 31.4912 83.8072 31.9375 83.7219 32.4631C83.6367 32.965 83.6391 33.384 83.729 33.7202C83.8214 34.0563 83.9859 34.3108 84.2227 34.4837C84.4618 34.6541 84.7589 34.7393 85.114 34.7393C85.4999 34.7393 85.8526 34.6446 86.1722 34.4553C86.4942 34.2635 86.7653 33.9853 86.9854 33.6207C87.2056 33.2538 87.3595 32.8075 87.4471 32.282ZM91.8416 36L93.049 28.7273H95.9609C96.496 28.7273 96.9292 28.8066 97.2607 28.9652C97.5945 29.1238 97.8277 29.344 97.9602 29.6257C98.0928 29.9051 98.1283 30.227 98.0668 30.5916C98.017 30.8757 97.9164 31.1243 97.7649 31.3374C97.6158 31.5504 97.4311 31.7256 97.2109 31.8629C96.9908 32.0002 96.7517 32.0973 96.4936 32.1541L96.4794 32.2251C96.754 32.237 97.0014 32.3151 97.2216 32.4595C97.4418 32.6016 97.6063 32.8028 97.7152 33.0632C97.8241 33.3236 97.849 33.6326 97.7898 33.9901C97.7259 34.3759 97.5732 34.7204 97.3317 35.0234C97.0902 35.3241 96.7682 35.562 96.3658 35.7372C95.9657 35.9124 95.4934 36 94.9489 36H91.8416ZM93.5923 34.7429H94.8459C95.272 34.7429 95.5975 34.66 95.8224 34.4943C96.0473 34.3286 96.1823 34.1096 96.2273 33.8374C96.258 33.6361 96.2379 33.4586 96.1669 33.3047C96.0982 33.1508 95.9811 33.0301 95.8153 32.9425C95.652 32.8549 95.4448 32.8111 95.1939 32.8111H93.9084L93.5923 34.7429ZM94.0859 31.7706H95.2259C95.4342 31.7706 95.6271 31.7339 95.8047 31.6605C95.9846 31.5848 96.1326 31.4782 96.2486 31.3409C96.367 31.2012 96.4415 31.0367 96.4723 30.8473C96.5149 30.5821 96.4557 30.3703 96.2947 30.2116C96.1361 30.0507 95.8875 29.9702 95.549 29.9702H94.3842L94.0859 31.7706ZM99.7065 36H98.0588L101.777 28.7273H103.758L105.058 36H103.41L102.526 30.3892H102.469L99.7065 36ZM100.083 33.1413H103.975L103.769 34.3416H99.877L100.083 33.1413ZM113.224 28.7273L112.017 36H110.688L108.291 31.4226H108.235L107.471 36H105.933L107.141 28.7273H108.49L110.877 33.3011H110.937L111.693 28.7273H113.224ZM113.287 36L114.494 28.7273H116.032L115.503 31.9339H115.599L118.745 28.7273H120.588L117.36 31.9837L119.413 36H117.573L116.089 33.0099L115.173 33.9403L114.825 36H113.287Z" fill="white"/>
<path d="M61.258 150.92L59.956 155H59.428L58.12 150.92H58.672L59.32 152.99L59.71 154.298L60.106 152.984L60.742 150.92H61.258ZM64.4225 155L64.1165 154.052H62.5685L62.2625 155H61.7525L63.1085 150.92H63.6005L64.9625 155H64.4225ZM62.9465 152.876L62.7185 153.578H63.9605L63.7325 152.876L63.3425 151.616L62.9465 152.876ZM68.4374 154.514V155H66.2054V150.92H66.7274V154.514H68.4374ZM70.2425 155H69.7205V150.92H70.2425V155ZM71.9994 155V150.92H73.2654C73.7334 150.92 74.0934 151.062 74.3454 151.346C74.5974 151.626 74.7234 152.014 74.7234 152.51V153.404C74.7234 153.904 74.5974 154.296 74.3454 154.58C74.0934 154.86 73.7334 155 73.2654 155H71.9994ZM73.2534 151.412H72.5214V154.514H73.2534C73.8734 154.514 74.1834 154.144 74.1834 153.404V152.51C74.1834 151.778 73.8734 151.412 73.2534 151.412ZM58.078 157.412V156.92H60.976V157.412H59.788V161H59.266V157.412H58.078ZM64.4727 161V159.182H62.6907V161H62.1687V156.92H62.6907V158.69H64.4727V156.92H64.9947V161H64.4727ZM67.2664 159.404V161H66.7444V156.92H68.0224C68.4064 156.92 68.7024 157.022 68.9104 157.226C69.1224 157.426 69.2284 157.694 69.2284 158.03V158.288C69.2284 158.528 69.1724 158.736 69.0604 158.912C68.9524 159.088 68.7964 159.218 68.5924 159.302C68.7644 159.578 68.9244 159.858 69.0724 160.142C69.2204 160.426 69.3564 160.712 69.4804 161H68.8804C68.6524 160.456 68.3864 159.924 68.0824 159.404H67.2664ZM68.0224 157.4H67.2664V158.924H68.0224C68.2264 158.924 68.3884 158.868 68.5084 158.756C68.6284 158.64 68.6884 158.484 68.6884 158.288V158.03C68.6884 157.83 68.6284 157.676 68.5084 157.568C68.3884 157.456 68.2264 157.4 68.0224 157.4ZM70.744 156.92H71.284V159.536C71.284 159.864 71.352 160.12 71.488 160.304C71.628 160.488 71.844 160.58 72.136 160.58C72.432 160.58 72.648 160.488 72.784 160.304C72.92 160.12 72.988 159.864 72.988 159.536V156.92H73.528V159.536C73.528 160.012 73.412 160.386 73.18 160.658C72.948 160.926 72.6 161.06 72.136 161.06C71.668 161.06 71.318 160.926 71.086 160.658C70.858 160.386 70.744 160.012 70.744 159.536V156.92Z" fill="white"/>
<path d="M302.777 169.994H290.527V192.009H302.777V169.994Z" fill="#FF5F00"/>
<path d="M291.306 181C291.306 176.536 293.398 172.557 296.653 169.994C294.273 168.12 291.267 167 288 167C280.269 167 274 173.269 274 181C274 188.731 280.269 195 288 195C291.267 195 294.269 193.88 296.653 192.006C293.398 189.443 291.306 185.464 291.306 181Z" fill="#EB001B"/>
<path d="M319.305 181C319.305 188.731 313.036 195 305.305 195C302.038 195 299.036 193.88 296.652 192.006C299.907 189.443 302 185.464 302 181C302 176.536 299.907 172.557 296.652 169.994C299.032 168.12 302.038 167 305.305 167C313.036 167 319.305 173.269 319.305 181Z" fill="#F79E1B"/>
<path d="M317.968 189.676V189.225H318.15V189.132H317.688V189.225H317.87V189.676H317.968ZM318.866 189.676V189.132H318.726L318.562 189.505L318.399 189.132H318.255V189.676H318.356V189.268L318.508 189.622H318.613L318.765 189.268V189.68H318.866V189.676Z" fill="#F79E1B"/>
<path d="M281.232 155.296L281.808 158.596L283.692 151.84H284.664L286.548 158.56L287.148 155.296L287.856 151.84H288.888L287.088 160H286.032L284.16 153.328L282.288 160H281.22L279.432 151.84H280.524L281.232 155.296ZM295.927 156.664V157.384C295.927 158.232 295.707 158.9 295.267 159.388C294.835 159.876 294.215 160.12 293.407 160.12C292.607 160.12 291.987 159.876 291.547 159.388C291.107 158.9 290.887 158.232 290.887 157.384V156.664C290.887 155.832 291.103 155.172 291.535 154.684C291.975 154.188 292.599 153.94 293.407 153.94C294.215 153.94 294.835 154.188 295.267 154.684C295.707 155.172 295.927 155.832 295.927 156.664ZM294.907 156.664C294.907 156.096 294.779 155.652 294.523 155.332C294.267 155.004 293.895 154.84 293.407 154.84C292.927 154.84 292.555 155.004 292.291 155.332C292.035 155.652 291.907 156.096 291.907 156.664V157.384C291.907 157.976 292.035 158.432 292.291 158.752C292.555 159.072 292.927 159.232 293.407 159.232C293.895 159.232 294.267 159.072 294.523 158.752C294.779 158.432 294.907 157.976 294.907 157.384V156.664ZM301.795 154.924C301.435 154.924 301.083 154.988 300.739 155.116C300.403 155.244 300.043 155.488 299.659 155.848V160H298.675V154.06H299.611V155.02C300.019 154.62 300.391 154.34 300.727 154.18C301.071 154.02 301.427 153.94 301.795 153.94V154.924ZM304.029 158.56V151.12H305.013V158.512C305.013 158.728 305.045 158.892 305.109 159.004C305.181 159.108 305.321 159.16 305.529 159.16H305.721V160.06H305.445C304.917 160.06 304.549 159.92 304.341 159.64C304.133 159.36 304.029 159 304.029 158.56ZM311.778 160V159.172C311.41 159.524 311.074 159.772 310.77 159.916C310.474 160.052 310.166 160.12 309.846 160.12C309.214 160.12 308.726 159.88 308.382 159.4C308.046 158.92 307.878 158.248 307.878 157.384V156.688C307.878 155.848 308.086 155.18 308.502 154.684C308.926 154.188 309.538 153.94 310.338 153.94C310.57 153.94 310.802 153.964 311.034 154.012C311.266 154.06 311.498 154.128 311.73 154.216V151.12H312.714V160H311.778ZM308.898 157.384C308.898 158.008 308.994 158.468 309.186 158.764C309.386 159.052 309.682 159.196 310.074 159.196C310.306 159.196 310.546 159.14 310.794 159.028C311.042 158.908 311.354 158.664 311.73 158.296V155.128C311.498 155.024 311.274 154.952 311.058 154.912C310.842 154.864 310.63 154.84 310.422 154.84C309.878 154.84 309.486 155.004 309.246 155.332C309.014 155.66 308.898 156.112 308.898 156.688V157.384Z" fill="white"/>
<path d="M304 109.057C304.606 109.663 304.606 110.648 304 111.254L306.057 113.311C307.797 111.571 307.797 108.74 306.057 107L304 109.057Z" fill="white"/>
<path d="M310.17 103L308.113 105.057C310.987 107.931 310.987 112.608 308.113 115.482L310.17 117.538C314.178 113.53 314.178 107.008 310.17 103Z" fill="white"/>
<path d="M314.287 99L312.23 101.057C317.373 106.199 317.373 114.567 312.23 119.709L314.287 121.766C320.574 115.479 320.574 105.287 314.287 99Z" fill="white"/>
<path d="M285.272 37V28.84H287.804C288.74 28.84 289.46 29.124 289.964 29.692C290.468 30.252 290.72 31.028 290.72 32.02V33.808C290.72 34.808 290.468 35.592 289.964 36.16C289.46 36.72 288.74 37 287.804 37H285.272ZM287.78 29.824H286.316V36.028H287.78C289.02 36.028 289.64 35.288 289.64 33.808V32.02C289.64 30.556 289.02 29.824 287.78 29.824ZM298.433 36.028V37H293.873V28.84H298.313V29.824H294.917V32.38H297.953V33.364H294.917V36.028H298.433ZM301.208 37V28.84H303.608C304.392 28.84 304.968 29.032 305.336 29.416C305.712 29.792 305.9 30.3 305.9 30.94V31.204C305.9 31.556 305.82 31.868 305.66 32.14C305.5 32.412 305.268 32.628 304.964 32.788C305.388 32.924 305.708 33.148 305.924 33.46C306.148 33.764 306.26 34.132 306.26 34.564V34.828C306.26 35.484 306.068 36.012 305.684 36.412C305.308 36.804 304.716 37 303.908 37H301.208ZM303.608 29.8H302.252V32.38H303.608C304.008 32.38 304.308 32.28 304.508 32.08C304.716 31.872 304.82 31.588 304.82 31.228V30.94C304.82 30.588 304.716 30.312 304.508 30.112C304.308 29.904 304.008 29.8 303.608 29.8ZM303.908 33.34H302.252V36.052H303.908C304.332 36.052 304.648 35.944 304.856 35.728C305.072 35.512 305.18 35.212 305.18 34.828V34.54C305.18 34.172 305.072 33.88 304.856 33.664C304.648 33.448 304.332 33.34 303.908 33.34ZM310.231 37H309.187V28.84H310.231V37ZM312.629 29.824V28.84H318.425V29.824H316.049V37H315.005V29.824H312.629Z" fill="white"/>
<defs>
<filter id="filter0_bd_1286_24852" x="-10" y="-25" width="397" height="275" filterUnits="userSpaceOnUse" color-interpolation-filters="sRGB">
<feFlood flood-opacity="0" result="BackgroundImageFix"/>
<feGaussianBlur in="BackgroundImage" stdDeviation="17.5"/>
<feComposite in2="SourceAlpha" operator="in" result="effect1_backgroundBlur_1286_24852"/>
<feColorMatrix in="SourceAlpha" type="matrix" values="0 0 0 0 0 0 0 0 0 0 0 0 0 0 0 0 0 0 127 0" result="hardAlpha"/>
<feOffset dy="15"/>
<feGaussianBlur stdDeviation="12.5"/>
<feComposite in2="hardAlpha" operator="out"/>
<feColorMatrix type="matrix" values="0 0 0 0 0 0 0 0 0 0 0 0 0 0 0 0 0 0 0.15 0"/>
<feBlend mode="normal" in2="effect1_backgroundBlur_1286_24852" result="effect2_dropShadow_1286_24852"/>
<feBlend mode="normal" in="SourceGraphic" in2="effect2_dropShadow_1286_24852" result="shape"/>
</filter>
<radialGradient id="paint0_radial_1286_24852" cx="0" cy="0" r="1" gradientUnits="userSpaceOnUse" gradientTransform="translate(172.413 130.25) rotate(-32.9782) scale(243.882 183.082)">
<stop stop-color="#FFD600" stop-opacity="0.5"/>
<stop offset="0.0001" stop-color="#FFD600" stop-opacity="0.3"/>
<stop offset="1" stop-color="#1CB5E0" stop-opacity="0.5"/>
</radialGradient>
<linearGradient id="paint1_linear_1286_24852" x1="58" y1="70" x2="103.179" y2="100.238" gradientUnits="userSpaceOnUse">
<stop stop-color="#DAAA00"/>
<stop offset="0.510417" stop-color="#FFF9CF"/>
<stop offset="1" stop-color="#F0CA00"/>
</linearGradient>
</defs>
</svg>
