<svg width="377" height="250" viewBox="0 0 377 250" fill="none" xmlns="http://www.w3.org/2000/svg">
<g filter="url(#filter0_d_1286_24847)">
<rect x="25" y="10" width="327" height="200" rx="10" fill="url(#paint0_radial_1286_24847)"/>
<mask id="mask0_1286_24847" style="mask-type:alpha" maskUnits="userSpaceOnUse" x="25" y="10" width="327" height="200">
<rect x="25" y="10" width="327" height="200" rx="10" fill="url(#paint1_radial_1286_24847)"/>
</mask>
<g mask="url(#mask0_1286_24847)">
<path d="M388 136C205.6 117.6 116.667 9.33333 95 -42.5H0V112.5C144.4 101.3 218.5 192.167 237.5 239H388V136Z" fill="url(#paint2_linear_1286_24847)"/>
<path d="M389.518 191.586C240.755 84.4507 217.87 -53.7777 225.022 -109.5L142.75 -157L65.25 -22.7661C195.904 39.7345 214.643 155.477 207.681 205.536L338.018 280.786L389.518 191.586Z" fill="url(#paint3_linear_1286_24847)"/>
</g>
</g>
<rect x="58" y="70" width="44" height="32" rx="5" fill="url(#paint4_linear_1286_24847)" stroke="#4B6E8D" stroke-width="0.5"/>
<rect x="61" y="73" width="15" height="6" rx="3" stroke="#4B6E8D" stroke-width="0.5"/>
<rect x="84" y="73" width="15" height="6" rx="3" stroke="#4B6E8D" stroke-width="0.5"/>
<rect x="61" y="83" width="15" height="6" rx="3" stroke="#4B6E8D" stroke-width="0.5"/>
<rect x="84" y="83" width="15" height="6" rx="3" stroke="#4B6E8D" stroke-width="0.5"/>
<rect x="61" y="93" width="15" height="6" rx="3" stroke="#4B6E8D" stroke-width="0.5"/>
<rect x="84" y="93" width="15" height="6" rx="3" stroke="#4B6E8D" stroke-width="0.5"/>
<g clip-path="url(#clip0_1286_24847)">
<path opacity="0.3" d="M60.8947 30.2945H62.2495V28.4253H60.8947C60.127 28.4253 59.3907 28.7247 58.8478 29.2578C58.305 29.7908 58 30.5138 58 31.2676V33.1367C58 32.3829 58.305 31.66 58.8478 31.1269C59.3907 30.5939 60.127 30.2945 60.8947 30.2945V30.2945Z" fill="url(#paint5_linear_1286_24847)"/>
<path opacity="0.3" d="M60.8947 33.7199C60.127 33.7199 59.3907 34.0193 58.8478 34.5523C58.305 35.0854 58 35.8083 58 36.5621V38.9998L62.2497 35.7845V33.7192L60.8947 33.7199Z" fill="url(#paint6_linear_1286_24847)"/>
<path opacity="0.3" d="M66.0195 33.7184L67.0508 33.7053C67.3979 33.7053 67.9021 34.0695 67.9021 34.64C67.9021 35.2105 67.3979 35.5744 67.0508 35.5744H67.7126C69.7764 35.5744 71.8028 33.6114 71.0171 31.9067C70.7317 31.5591 70.3939 31.2563 70.0154 31.0088C69.6891 31.7925 69.1375 32.466 68.4279 32.9471C67.7184 33.4283 66.8815 33.6963 66.0195 33.7184V33.7184Z" fill="url(#paint7_linear_1286_24847)"/>
<path d="M58 36.5629C58 35.8091 58.305 35.0861 58.8478 34.5531C59.3907 34.0201 60.127 33.7206 60.8947 33.7206H65.9054C68.3577 33.7206 70.3457 31.7684 70.3457 29.3607C70.3457 26.9529 68.3577 25.0007 65.9054 25.0007H60.8949C60.1272 25.0007 59.3909 25.3002 58.848 25.8332C58.3052 26.3663 58.0002 27.0892 58.0002 27.843V31.2683C58.0002 30.5145 58.3052 29.7915 58.848 29.2585C59.3909 28.7254 60.1272 28.426 60.8949 28.426H65.3981C65.7452 28.426 66.2494 28.79 66.2494 29.3607C66.2494 29.9314 65.7452 30.2952 65.3981 30.2952H60.8949C60.1272 30.2952 59.3909 30.5946 58.848 31.1276C58.3052 31.6607 58.0002 32.3836 58.0002 33.1374V36.5629H58Z" fill="url(#paint8_linear_1286_24847)"/>
<path d="M58 38.9999H67.5597C70.0121 38.9999 72 37.0478 72 34.64C72.0017 33.6453 71.6552 32.6803 71.0187 31.9065C71.8042 33.6123 69.7778 35.5753 67.714 35.5753H60.8949C60.1272 35.5753 59.3909 35.8747 58.848 36.4078C58.3052 36.9408 58.0002 37.6638 58.0002 38.4176L58 38.9999Z" fill="url(#paint9_linear_1286_24847)"/>
</g>
<path d="M85.5188 27.7273L84.3114 35H82.9833L80.5863 30.4226H80.5295L79.766 35H78.2283L79.4357 27.7273H80.7852L83.1715 32.3011H83.2319L83.9883 27.7273H85.5188ZM85.5819 35L86.7892 27.7273H91.6898L91.4767 28.995H88.1138L87.8297 30.728H90.9405L90.7275 31.9957H87.6167L87.3326 33.7322H90.7097L90.4966 35H85.5819ZM98.9776 31.4631C98.8451 32.2396 98.5882 32.8989 98.207 33.4411C97.8282 33.9832 97.3654 34.3951 96.8185 34.6768C96.274 34.9586 95.6869 35.0994 95.0572 35.0994C94.3967 35.0994 93.8273 34.9491 93.3491 34.6484C92.8732 34.3478 92.5288 33.9134 92.3157 33.3452C92.1026 32.7746 92.0624 32.0869 92.195 31.282C92.3228 30.5031 92.5773 29.8426 92.9585 29.3004C93.3396 28.7559 93.8048 28.3416 94.354 28.0575C94.9033 27.7711 95.494 27.6278 96.1261 27.6278C96.7818 27.6278 97.3477 27.7794 97.8235 28.0824C98.3017 28.3854 98.6462 28.8234 98.8569 29.3963C99.07 29.9669 99.1102 30.6558 98.9776 31.4631ZM97.4471 31.282C97.5299 30.7824 97.5264 30.3634 97.4364 30.0249C97.3488 29.6839 97.1879 29.4259 96.9535 29.2507C96.7191 29.0755 96.4232 28.9879 96.0657 28.9879C95.6774 28.9879 95.3211 29.085 94.9968 29.2791C94.6748 29.4732 94.4026 29.755 94.18 30.1243C93.9599 30.4912 93.8072 30.9375 93.7219 31.4631C93.6367 31.965 93.6391 32.384 93.729 32.7202C93.8214 33.0563 93.9859 33.3108 94.2227 33.4837C94.4618 33.6541 94.7589 33.7393 95.114 33.7393C95.4999 33.7393 95.8526 33.6446 96.1722 33.4553C96.4942 33.2635 96.7653 32.9853 96.9854 32.6207C97.2056 32.2538 97.3595 31.8075 97.4471 31.282ZM101.842 35L103.049 27.7273H105.961C106.496 27.7273 106.929 27.8066 107.261 27.9652C107.594 28.1238 107.828 28.344 107.96 28.6257C108.093 28.9051 108.128 29.227 108.067 29.5916C108.017 29.8757 107.916 30.1243 107.765 30.3374C107.616 30.5504 107.431 30.7256 107.211 30.8629C106.991 31.0002 106.752 31.0973 106.494 31.1541L106.479 31.2251C106.754 31.237 107.001 31.3151 107.222 31.4595C107.442 31.6016 107.606 31.8028 107.715 32.0632C107.824 32.3236 107.849 32.6326 107.79 32.9901C107.726 33.3759 107.573 33.7204 107.332 34.0234C107.09 34.3241 106.768 34.562 106.366 34.7372C105.966 34.9124 105.493 35 104.949 35H101.842ZM103.592 33.7429H104.846C105.272 33.7429 105.598 33.66 105.822 33.4943C106.047 33.3286 106.182 33.1096 106.227 32.8374C106.258 32.6361 106.238 32.4586 106.167 32.3047C106.098 32.1508 105.981 32.0301 105.815 31.9425C105.652 31.8549 105.445 31.8111 105.194 31.8111H103.908L103.592 33.7429ZM104.086 30.7706H105.226C105.434 30.7706 105.627 30.7339 105.805 30.6605C105.985 30.5848 106.133 30.4782 106.249 30.3409C106.367 30.2012 106.442 30.0367 106.472 29.8473C106.515 29.5821 106.456 29.3703 106.295 29.2116C106.136 29.0507 105.888 28.9702 105.549 28.9702H104.384L104.086 30.7706ZM109.706 35H108.059L111.777 27.7273H113.758L115.058 35H113.41L112.526 29.3892H112.469L109.706 35ZM110.083 32.1413H113.975L113.769 33.3416H109.877L110.083 32.1413ZM123.224 27.7273L122.017 35H120.688L118.291 30.4226H118.235L117.471 35H115.933L117.141 27.7273H118.49L120.877 32.3011H120.937L121.693 27.7273H123.224ZM123.287 35L124.494 27.7273H126.032L125.503 30.9339H125.599L128.745 27.7273H130.588L127.36 30.9837L129.413 35H127.573L126.089 32.0099L125.173 32.9403L124.825 35H123.287Z" fill="white"/>
<path d="M61.258 150.92L59.956 155H59.428L58.12 150.92H58.672L59.32 152.99L59.71 154.298L60.106 152.984L60.742 150.92H61.258ZM64.4225 155L64.1165 154.052H62.5685L62.2625 155H61.7525L63.1085 150.92H63.6005L64.9625 155H64.4225ZM62.9465 152.876L62.7185 153.578H63.9605L63.7325 152.876L63.3425 151.616L62.9465 152.876ZM68.4374 154.514V155H66.2054V150.92H66.7274V154.514H68.4374ZM70.2425 155H69.7205V150.92H70.2425V155ZM71.9994 155V150.92H73.2654C73.7334 150.92 74.0934 151.062 74.3454 151.346C74.5974 151.626 74.7234 152.014 74.7234 152.51V153.404C74.7234 153.904 74.5974 154.296 74.3454 154.58C74.0934 154.86 73.7334 155 73.2654 155H71.9994ZM73.2534 151.412H72.5214V154.514H73.2534C73.8734 154.514 74.1834 154.144 74.1834 153.404V152.51C74.1834 151.778 73.8734 151.412 73.2534 151.412ZM58.078 157.412V156.92H60.976V157.412H59.788V161H59.266V157.412H58.078ZM64.4727 161V159.182H62.6907V161H62.1687V156.92H62.6907V158.69H64.4727V156.92H64.9947V161H64.4727ZM67.2664 159.404V161H66.7444V156.92H68.0224C68.4064 156.92 68.7024 157.022 68.9104 157.226C69.1224 157.426 69.2284 157.694 69.2284 158.03V158.288C69.2284 158.528 69.1724 158.736 69.0604 158.912C68.9524 159.088 68.7964 159.218 68.5924 159.302C68.7644 159.578 68.9244 159.858 69.0724 160.142C69.2204 160.426 69.3564 160.712 69.4804 161H68.8804C68.6524 160.456 68.3864 159.924 68.0824 159.404H67.2664ZM68.0224 157.4H67.2664V158.924H68.0224C68.2264 158.924 68.3884 158.868 68.5084 158.756C68.6284 158.64 68.6884 158.484 68.6884 158.288V158.03C68.6884 157.83 68.6284 157.676 68.5084 157.568C68.3884 157.456 68.2264 157.4 68.0224 157.4ZM70.744 156.92H71.284V159.536C71.284 159.864 71.352 160.12 71.488 160.304C71.628 160.488 71.844 160.58 72.136 160.58C72.432 160.58 72.648 160.488 72.784 160.304C72.92 160.12 72.988 159.864 72.988 159.536V156.92H73.528V159.536C73.528 160.012 73.412 160.386 73.18 160.658C72.948 160.926 72.6 161.06 72.136 161.06C71.668 161.06 71.318 160.926 71.086 160.658C70.858 160.386 70.744 160.012 70.744 159.536V156.92Z" fill="white"/>
<path d="M304 109.057C304.606 109.663 304.606 110.648 304 111.254L306.057 113.311C307.797 111.571 307.797 108.74 306.057 107L304 109.057Z" fill="white"/>
<path d="M310.17 103L308.113 105.057C310.987 107.931 310.987 112.608 308.113 115.482L310.17 117.538C314.178 113.53 314.178 107.008 310.17 103V103Z" fill="white"/>
<path d="M314.284 99L312.227 101.057C317.369 106.199 317.369 114.567 312.227 119.709L314.284 121.766C320.57 115.479 320.57 105.287 314.284 99Z" fill="white"/>
<path d="M285.272 37V28.84H287.804C288.74 28.84 289.46 29.124 289.964 29.692C290.468 30.252 290.72 31.028 290.72 32.02V33.808C290.72 34.808 290.468 35.592 289.964 36.16C289.46 36.72 288.74 37 287.804 37H285.272ZM287.78 29.824H286.316V36.028H287.78C289.02 36.028 289.64 35.288 289.64 33.808V32.02C289.64 30.556 289.02 29.824 287.78 29.824ZM298.433 36.028V37H293.873V28.84H298.313V29.824H294.917V32.38H297.953V33.364H294.917V36.028H298.433ZM301.208 37V28.84H303.608C304.392 28.84 304.968 29.032 305.336 29.416C305.712 29.792 305.9 30.3 305.9 30.94V31.204C305.9 31.556 305.82 31.868 305.66 32.14C305.5 32.412 305.268 32.628 304.964 32.788C305.388 32.924 305.708 33.148 305.924 33.46C306.148 33.764 306.26 34.132 306.26 34.564V34.828C306.26 35.484 306.068 36.012 305.684 36.412C305.308 36.804 304.716 37 303.908 37H301.208ZM303.608 29.8H302.252V32.38H303.608C304.008 32.38 304.308 32.28 304.508 32.08C304.716 31.872 304.82 31.588 304.82 31.228V30.94C304.82 30.588 304.716 30.312 304.508 30.112C304.308 29.904 304.008 29.8 303.608 29.8ZM303.908 33.34H302.252V36.052H303.908C304.332 36.052 304.648 35.944 304.856 35.728C305.072 35.512 305.18 35.212 305.18 34.828V34.54C305.18 34.172 305.072 33.88 304.856 33.664C304.648 33.448 304.332 33.34 303.908 33.34ZM310.231 37H309.187V28.84H310.231V37ZM312.629 29.824V28.84H318.425V29.824H316.049V37H315.005V29.824H312.629Z" fill="white"/>
<path d="M284.23 167.089L276.91 184.822H272.134L268.531 170.671C268.312 169.799 268.122 169.48 267.457 169.113C266.371 168.514 264.578 167.953 263 167.605L263.107 167.09H270.795C271.775 167.09 272.656 167.752 272.879 168.898L274.782 179.158L279.484 167.089H284.23ZM302.945 179.032C302.964 174.352 296.57 174.094 296.614 172.004C296.628 171.367 297.224 170.691 298.531 170.518C299.178 170.432 300.962 170.366 302.985 171.312L303.779 167.551C302.692 167.151 301.293 166.766 299.552 166.766C295.086 166.766 291.943 169.176 291.917 172.627C291.888 175.18 294.16 176.604 295.872 177.453C297.633 178.321 298.224 178.879 298.217 179.656C298.205 180.846 296.813 181.371 295.512 181.392C293.241 181.427 291.923 180.768 290.872 180.272L290.053 184.157C291.109 184.648 293.058 185.077 295.078 185.099C299.825 185.099 302.93 182.719 302.945 179.032ZM314.738 184.822H318.917L315.269 167.089H311.412C310.545 167.089 309.813 167.602 309.489 168.39L302.709 184.822H307.453L308.395 182.173H314.192L314.738 184.822ZM309.696 178.539L312.074 171.881L313.443 178.539H309.696ZM290.686 167.089L286.95 184.822H282.432L286.17 167.089H290.686Z" fill="white"/>
<defs>
<filter id="filter0_d_1286_24847" x="0" y="0" width="377" height="250" filterUnits="userSpaceOnUse" color-interpolation-filters="sRGB">
<feFlood flood-opacity="0" result="BackgroundImageFix"/>
<feColorMatrix in="SourceAlpha" type="matrix" values="0 0 0 0 0 0 0 0 0 0 0 0 0 0 0 0 0 0 127 0" result="hardAlpha"/>
<feOffset dy="15"/>
<feGaussianBlur stdDeviation="12.5"/>
<feComposite in2="hardAlpha" operator="out"/>
<feColorMatrix type="matrix" values="0 0 0 0 0 0 0 0 0 0 0 0 0 0 0 0 0 0 0.15 0"/>
<feBlend mode="normal" in2="BackgroundImageFix" result="effect1_dropShadow_1286_24847"/>
<feBlend mode="normal" in="SourceGraphic" in2="effect1_dropShadow_1286_24847" result="shape"/>
</filter>
<radialGradient id="paint0_radial_1286_24847" cx="0" cy="0" r="1" gradientUnits="userSpaceOnUse" gradientTransform="translate(225 -60) rotate(90) scale(454 340.816)">
<stop stop-color="#FF0099"/>
<stop offset="1" stop-color="#493240"/>
</radialGradient>
<radialGradient id="paint1_radial_1286_24847" cx="0" cy="0" r="1" gradientUnits="userSpaceOnUse" gradientTransform="translate(225 -60) rotate(90) scale(454 340.816)">
<stop stop-color="#FF0099"/>
<stop offset="1" stop-color="#493240"/>
</radialGradient>
<linearGradient id="paint2_linear_1286_24847" x1="331.5" y1="-169.5" x2="194" y2="183" gradientUnits="userSpaceOnUse">
<stop stop-color="white"/>
<stop offset="1" stop-color="white" stop-opacity="0"/>
</linearGradient>
<linearGradient id="paint3_linear_1286_24847" x1="493.337" y1="-101.235" x2="160" y2="135.5" gradientUnits="userSpaceOnUse">
<stop stop-color="white"/>
<stop offset="1" stop-color="white" stop-opacity="0"/>
</linearGradient>
<linearGradient id="paint4_linear_1286_24847" x1="58" y1="70" x2="103.179" y2="100.238" gradientUnits="userSpaceOnUse">
<stop stop-color="#66AECD"/>
<stop offset="0.510417" stop-color="white"/>
<stop offset="1" stop-color="#66AECD"/>
</linearGradient>
<linearGradient id="paint5_linear_1286_24847" x1="60.943" y1="27.0493" x2="59.4116" y2="33.983" gradientUnits="userSpaceOnUse">
<stop stop-color="#20B6FF"/>
<stop offset="1" stop-color="#0B2D92"/>
</linearGradient>
<linearGradient id="paint6_linear_1286_24847" x1="5347.91" y1="4781.44" x2="4812.11" y2="6698.58" gradientUnits="userSpaceOnUse">
<stop stop-color="#20B6FF"/>
<stop offset="1" stop-color="#0B2D92"/>
</linearGradient>
<linearGradient id="paint7_linear_1286_24847" x1="8639.93" y1="4641.22" x2="8215.19" y2="3973.27" gradientUnits="userSpaceOnUse">
<stop stop-color="#20B6FF"/>
<stop offset="1" stop-color="#0B2D92"/>
</linearGradient>
<linearGradient id="paint8_linear_1286_24847" x1="58" y1="30.7816" x2="70.3459" y2="30.7816" gradientUnits="userSpaceOnUse">
<stop stop-color="white"/>
<stop offset="1" stop-color="white"/>
</linearGradient>
<linearGradient id="paint9_linear_1286_24847" x1="15475.6" y1="7522.8" x2="24887.4" y2="7522.8" gradientUnits="userSpaceOnUse">
<stop stop-color="white"/>
<stop offset="1" stop-color="#1A69F4"/>
</linearGradient>
<clipPath id="clip0_1286_24847">
<rect width="14" height="14" fill="white" transform="translate(58 25)"/>
</clipPath>
</defs>
</svg>
