<svg width="30" height="22" viewBox="0 0 30 22" fill="none" xmlns="http://www.w3.org/2000/svg">
<path d="M26.4932 3.8318V3.42141C26.4932 1.53486 24.9584 0 23.0718 0H3.42141C1.5348 5.85938e-05 0 1.53486 0 3.42141V3.8318H26.4932Z" fill="#396AFF"/>
<path d="M15.6521 14.8376C15.6521 13.0629 16.2229 11.376 17.2767 9.98584H0V14.7584C0 16.645 1.5348 18.1798 3.42141 18.1798H16.3743C15.9015 17.1441 15.6521 16.0102 15.6521 14.8376ZM13.2466 13.8006H10.2937V12.0428H13.2466V13.8006ZM3.9409 12.0428H8.53594V13.8006H3.9409V12.0428Z" fill="#396AFF"/>
<path d="M19.1016 8.2279C20.4421 7.28999 22.0346 6.78468 23.7049 6.78468C24.6717 6.78468 25.6123 6.95442 26.4932 7.27886V5.5896H0V8.2279H19.1016Z" fill="#396AFF"/>
<path d="M30.0001 14.8375C30.0001 11.3608 27.1816 8.54248 23.705 8.54248C20.2283 8.54248 17.4099 11.3608 17.4099 14.8375C17.4099 18.3142 20.2283 21.1325 23.705 21.1325C27.1816 21.1325 30.0001 18.3142 30.0001 14.8375ZM24.5535 18.2005V18.9159H23.6746V18.9159V18.9159H22.7957V18.2058C22.2643 18.0258 21.8296 17.7092 21.405 17.3988L22.4427 15.9799C23.0131 16.3971 23.305 16.5976 23.705 16.5976C23.9312 16.5976 24.1143 16.49 24.1829 16.3167C24.266 16.1069 24.1486 15.9137 23.8686 15.7997C23.8686 15.7997 22.6123 15.3807 22.0315 14.7885C21.5442 14.2918 21.3891 13.5916 21.5443 12.9255C21.7005 12.2549 22.1533 11.7306 22.7957 11.4687V10.759H24.5535V11.4393C25 11.5633 25.3778 11.7465 25.5951 11.8645L24.7565 13.4093C24.2004 13.1075 23.6889 13.0169 23.4898 13.085C23.2966 13.1509 23.2672 13.2769 23.2562 13.3244C23.2405 13.3916 23.2321 13.4947 23.3396 13.6145C23.443 13.7297 24.5314 14.1717 24.5314 14.1717C25.7057 14.6498 26.2584 15.8503 25.8171 16.9642C25.5878 17.5432 25.1263 17.9816 24.5535 18.2005Z" fill="#396AFF"/>
</svg>
