<svg width="24" height="24" viewBox="0 0 24 24" fill="none" xmlns="http://www.w3.org/2000/svg">
<path d="M0 6.62598H19.7812V8.03223H0V6.62598Z" fill="#396AFF"/>
<path d="M19.7812 4.79785C19.7812 3.63474 18.835 2.68848 17.6719 2.68848H2.10938C0.946266 2.68848 0 3.63474 0 4.79785V5.21973H19.7812V4.79785Z" fill="#396AFF"/>
<path d="M19.7344 11.3738C19.75 11.3738 19.7656 11.3742 19.7812 11.3744V9.43848H0V15.2041C0 16.3672 0.946266 17.3135 2.10938 17.3135H14.069C14.0648 17.2247 14.0625 17.1354 14.0625 17.0457C14.0625 13.9181 16.6069 11.3738 19.7344 11.3738ZM3.51562 10.8447H5.27344C5.66175 10.8447 5.97656 11.1595 5.97656 11.5479C5.97656 11.9362 5.66175 12.251 5.27344 12.251H3.51562C3.12731 12.251 2.8125 11.9362 2.8125 11.5479C2.8125 11.1595 3.12731 10.8447 3.51562 10.8447ZM7.5 14.5009H3.51562C3.12731 14.5009 2.8125 14.1861 2.8125 13.7978C2.8125 13.4095 3.12731 13.0947 3.51562 13.0947H7.5C7.88831 13.0947 8.20312 13.4095 8.20312 13.7978C8.20312 14.1861 7.88831 14.5009 7.5 14.5009Z" fill="#396AFF"/>
<path d="M19.7344 12.78C17.3823 12.78 15.4688 14.6936 15.4688 17.0457C15.4688 19.3977 17.3823 21.3113 19.7344 21.3113C22.0864 21.3113 24 19.3977 24 17.0457C24 14.6936 22.0864 12.78 19.7344 12.78ZM21.7785 16.6836L20.091 18.3711C19.9537 18.5084 19.7737 18.5771 19.5938 18.5771C19.4139 18.5771 19.2339 18.5085 19.0966 18.3711L18.2295 17.504C17.9549 17.2294 17.9549 16.7842 18.2295 16.5096C18.504 16.235 18.9492 16.235 19.2238 16.5096L19.5938 16.8796L20.7842 15.6893C21.0587 15.4147 21.504 15.4147 21.7785 15.6893C22.053 15.9639 22.053 16.409 21.7785 16.6836Z" fill="#396AFF"/>
</svg>
