<svg width="24" height="20" viewBox="0 0 24 20" fill="none" xmlns="http://www.w3.org/2000/svg">
<path d="M15.3357 1.98621L13.5672 0.219697C13.4975 0.150045 13.4149 0.0947935 13.3239 0.0570977C13.2329 0.0194019 13.1353 0 13.0368 0C12.9383 0 12.8408 0.0194019 12.7498 0.0570977C12.6588 0.0947935 12.5761 0.150045 12.5065 0.219697L4.375 8.35117C4.29879 8.42684 4.24005 8.51826 4.2029 8.61903L3.14219 11.4456C3.09121 11.5804 3.08019 11.7271 3.11046 11.868C3.14073 12.0089 3.21101 12.1381 3.31286 12.2401C3.41471 12.3421 3.54381 12.4126 3.68469 12.443C3.82557 12.4735 3.97225 12.4627 4.10714 12.4119L6.93504 11.3512C7.03581 11.314 7.12723 11.2553 7.2029 11.1791L15.3357 3.04626C15.4053 2.97667 15.4606 2.89405 15.4983 2.8031C15.536 2.71216 15.5554 2.61468 15.5554 2.51624C15.5554 2.41779 15.536 2.32032 15.4983 2.22937C15.4606 2.13843 15.4053 2.0558 15.3357 1.98621Z" fill="#FEC251"/>
<path d="M21.2498 3.99902H16.4833C16.4525 4.03384 16.4283 4.07402 16.3942 4.10684L8.26205 12.239C8.03343 12.4688 7.75735 12.646 7.45312 12.758L4.63326 13.816C4.2284 13.9684 3.78815 14.0007 3.36538 13.909C2.94261 13.8173 2.55531 13.6055 2.25 13.299C1.94548 12.9932 1.73515 12.6063 1.64398 12.1845C1.55282 11.7626 1.58466 11.3234 1.73571 10.9191L2.79643 8.09188C2.91032 7.79017 3.08725 7.51622 3.3154 7.28831L6.60335 4.00036H2.75022C2.02121 4.00089 1.3222 4.29064 0.806582 4.806C0.290969 5.32136 0.000886679 6.02024 0 6.74925L0 17.2492C0.000532099 17.9785 0.290458 18.6777 0.806109 19.1934C1.32176 19.709 2.02098 19.9989 2.75022 19.9995H21.2498C21.979 19.9989 22.6782 19.709 23.1939 19.1934C23.7095 18.6777 23.9995 17.9785 24 17.2492V6.74925C23.9995 6.02001 23.7095 5.32078 23.1939 4.80513C22.6782 4.28948 21.979 3.99956 21.2498 3.99902ZM20.25 15.4995H3.75C3.55109 15.4995 3.36032 15.4205 3.21967 15.2798C3.07902 15.1391 3 14.9484 3 14.7495C3 14.5506 3.07902 14.3598 3.21967 14.2191C3.36032 14.0785 3.55109 13.9995 3.75 13.9995H20.25C20.4489 13.9995 20.6397 14.0785 20.7803 14.2191C20.921 14.3598 21 14.5506 21 14.7495C21 14.9484 20.921 15.1391 20.7803 15.2798C20.6397 15.4205 20.4489 15.4995 20.25 15.4995ZM20.25 10.4992H14.7502C14.5513 10.4992 14.3605 10.4202 14.2199 10.2796C14.0792 10.1389 14.0002 9.94816 14.0002 9.74925C14.0002 9.55033 14.0792 9.35957 14.2199 9.21892C14.3605 9.07826 14.5513 8.99925 14.7502 8.99925H20.25C20.4489 8.99925 20.6397 9.07826 20.7803 9.21892C20.921 9.35957 21 9.55033 21 9.74925C21 9.94816 20.921 10.1389 20.7803 10.2796C20.6397 10.4202 20.4489 10.4992 20.25 10.4992Z" fill="#FEC251"/>
</svg>
