<svg width="24" height="24" viewBox="0 0 24 24" fill="none" xmlns="http://www.w3.org/2000/svg">
<g clip-path="url(#clip0_1091_20977)">
<path d="M13.6616 4.9201H16.3109L12.2559 0.654297V3.50891C12.2559 4.28216 12.883 4.9201 13.6616 4.9201Z" fill="#EAB318"/>
<path d="M9.26567 15.6791H4.56719C4.32934 15.6791 4.1347 15.4847 4.1347 15.2466C4.1347 15.0088 4.32934 14.8141 4.56719 14.8141H9.55223C9.82781 14.1114 10.1955 13.5165 10.6498 12.9217H4.56719C4.32934 12.9217 4.1347 12.7273 4.1347 12.4892C4.1347 12.2514 4.32934 12.0567 4.56719 12.0567H11.4715C12.769 10.9213 14.4884 10.1969 16.3645 10.1969C16.5428 10.1969 16.6889 10.2131 16.9052 10.2294V5.78503H13.6611C12.4068 5.78503 11.3904 4.75781 11.3904 3.50884V0H3.09668C2.02606 0 1.17188 0.875792 1.17188 1.95172V18.4528C1.17188 19.5287 2.02606 20.3829 3.09668 20.3829H9.61156C9.23857 19.5179 9.03313 18.5447 9.03313 17.5283C9.02764 16.8904 9.11425 16.2738 9.26567 15.6791ZM4.56719 9.35338H10.0442C10.2821 9.35338 10.4767 9.54802 10.4767 9.78606C10.4767 10.0239 10.2821 10.2186 10.0442 10.2186H4.56719C4.32934 10.2186 4.1347 10.0239 4.1347 9.78606C4.1347 9.54802 4.32934 9.35338 4.56719 9.35338Z" fill="#EAB318"/>
<path d="M16.3593 11.0781C12.7964 11.0781 9.89844 13.9759 9.89844 17.539C9.89844 21.1019 12.7964 23.9999 16.3593 23.9999C19.9223 23.9999 22.8204 21.1019 22.8204 17.539C22.8204 13.9759 19.9223 11.0781 16.3593 11.0781ZM16.3487 17.0741C17.6517 17.0741 18.7058 18.1337 18.7058 19.4312C18.7058 20.599 17.8571 21.5669 16.7433 21.7561V22.3832C16.7433 22.6213 16.5486 22.8159 16.3108 22.8159C16.0729 22.8159 15.8783 22.6213 15.8783 22.3832V21.74C14.8024 21.5182 13.9914 20.5666 13.9914 19.4312C13.9914 19.1933 14.186 18.9987 14.4239 18.9987C14.6617 18.9987 14.8564 19.1933 14.8564 19.4312C14.8564 20.2532 15.5269 20.9235 16.3487 20.9235C17.1705 20.9235 17.8408 20.253 17.8408 19.4312C17.8408 18.6094 17.1705 17.9391 16.3487 17.9391C15.0457 17.9391 13.9914 16.8793 13.9914 15.5818C13.9914 14.4409 14.8024 13.4894 15.8783 13.2732V12.8136C15.8783 12.5756 16.0729 12.3809 16.3108 12.3809C16.5486 12.3809 16.7433 12.5756 16.7433 12.8136V13.2514C17.8571 13.4407 18.7058 14.4084 18.7058 15.5763C18.7058 15.8141 18.5113 16.0088 18.2733 16.0088C18.0354 16.0088 17.8408 15.8141 17.8408 15.5763C17.8408 14.7869 17.2245 14.1382 16.4459 14.0842C16.4027 14.1003 16.354 14.1058 16.3053 14.1058C16.2621 14.1058 16.2242 14.1003 16.181 14.0895C15.4348 14.1706 14.8511 14.8032 14.8511 15.5763C14.8564 16.4036 15.5267 17.0741 16.3487 17.0741Z" fill="#EAB318"/>
</g>
<defs>
<clipPath id="clip0_1091_20977">
<rect width="24" height="24" fill="white"/>
</clipPath>
</defs>
</svg>
