<svg width="24" height="24" viewBox="0 0 24 24" fill="none" xmlns="http://www.w3.org/2000/svg">
<path d="M0.480469 7.10431V14.6883H7.20047L14.6885 4.32031H3.26447C1.72847 4.32031 0.480469 5.56831 0.480469 7.10431ZM2.40047 7.68031C2.40047 7.29631 2.68847 7.00831 3.07247 7.00831H5.85647C6.24047 7.00831 6.52847 7.29631 6.52847 7.68031V10.4643C6.52847 10.8483 6.24047 11.1363 5.85647 11.1363H3.07247C2.68847 11.1363 2.40047 10.8483 2.40047 10.4643V7.68031Z" fill="#D45ED4"/>
<path d="M20.7358 4.31936H19.4878L21.1198 2.01536C21.4078 1.63136 21.3118 0.959362 20.9278 0.671362C20.5438 0.383362 19.8718 0.479362 19.5838 0.863362C19.3918 1.15136 4.2238 22.0794 4.3198 21.9834C4.0318 22.3674 4.1278 23.0394 4.5118 23.3274C4.8958 23.6154 5.5678 23.5194 5.8558 23.1354L7.5838 20.7354H20.6398C22.1758 20.7354 23.4238 19.4874 23.4238 17.9514V17.8554H9.7918L11.9998 14.7834H23.5198V7.10336C23.5198 5.56736 22.2718 4.31936 20.7358 4.31936Z" fill="#D45ED4"/>
<path d="M0.480469 17.8558C0.480469 19.2958 1.53647 20.4478 2.88047 20.6398L4.99247 17.7598H0.480469V17.8558Z" fill="#D45ED4"/>
</svg>
