<svg width="24" height="24" viewBox="0 0 24 24" fill="none" xmlns="http://www.w3.org/2000/svg">
<path d="M22.56 3.83984H1.44C0.646078 3.83984 0 4.48592 0 5.27984V7.67984H24V5.27984C24 4.48592 23.3539 3.83984 22.56 3.83984Z" fill="#FEC251"/>
<path d="M0 18.7205C0 19.5145 0.646078 20.1605 1.44 20.1605H22.56C23.3539 20.1605 24 19.5145 24 18.7205V10.5605H0V18.7205ZM4.32 13.4405H12.96C13.2249 13.4405 13.44 13.6556 13.44 13.9205C13.44 14.1855 13.2249 14.4005 12.96 14.4005H4.32C4.05506 14.4005 3.84 14.1855 3.84 13.9205C3.84 13.6556 4.05506 13.4405 4.32 13.4405ZM4.32 15.3605H9.12C9.38494 15.3605 9.6 15.5756 9.6 15.8405C9.6 16.1055 9.38494 16.3205 9.12 16.3205H4.32C4.05506 16.3205 3.84 16.1055 3.84 15.8405C3.84 15.5756 4.05506 15.3605 4.32 15.3605Z" fill="#FEC251"/>
</svg>
