<svg width="24" height="24" viewBox="0 0 24 24" fill="none" xmlns="http://www.w3.org/2000/svg">
<path d="M23.2969 4.77148H0.703125C0.314812 4.77148 0 5.0863 0 5.47461V18.5254C0 18.9137 0.314812 19.2285 0.703125 19.2285H23.2969C23.6852 19.2285 24 18.9137 24 18.5254V5.47461C24 5.0863 23.6852 4.77148 23.2969 4.77148ZM4.01789 13.0283H12.7566C13.1449 13.0283 13.4597 13.3431 13.4597 13.7315C13.4597 14.1198 13.1449 14.4346 12.7566 14.4346H4.01789C3.62958 14.4346 3.31477 14.1198 3.31477 13.7315C3.31477 13.3431 3.62958 13.0283 4.01789 13.0283ZM3.31477 10.2685C3.31477 9.8802 3.62958 9.56539 4.01789 9.56539H10.8908C11.2791 9.56539 11.5939 9.8802 11.5939 10.2685C11.5939 10.6568 11.2791 10.9716 10.8908 10.9716H4.01789C3.62958 10.9716 3.31477 10.6568 3.31477 10.2685ZM18.6522 12.5978C17.9689 12.3563 17.2692 12.0799 16.78 11.6962C16.2827 11.3062 16.0548 10.6341 16.1852 9.94236C16.3253 9.19869 16.8422 8.606 17.5355 8.39145V8.17541C17.5355 7.78709 17.8503 7.47228 18.2386 7.47228C18.6269 7.47228 18.9417 7.78709 18.9417 8.17541V8.34809C19.3785 8.45886 19.6837 8.65916 19.8094 8.75323C20.1204 8.98573 20.1841 9.42636 19.9515 9.73738C19.719 10.0483 19.2785 10.112 18.9674 9.8795C18.838 9.7828 18.4804 9.575 17.9547 9.7333C17.6605 9.82194 17.5837 10.1151 17.5672 10.2028C17.5359 10.3688 17.5691 10.5279 17.6479 10.5897C17.9783 10.8489 18.578 11.0801 19.1209 11.272C20.1499 11.6357 20.7221 12.5893 20.5446 13.645C20.4135 14.4249 19.8394 15.2152 18.9418 15.4961V15.7624C18.9418 16.1507 18.627 16.4655 18.2386 16.4655C17.8503 16.4655 17.5355 16.1507 17.5355 15.7624V15.5694C17.1207 15.5139 16.766 15.3775 16.294 15.0688C15.969 14.8562 15.878 14.4204 16.0905 14.0955C16.3031 13.7705 16.7389 13.6795 17.0639 13.892C17.4967 14.1751 17.6608 14.201 18.234 14.1972C18.7786 14.1935 19.0947 13.7876 19.1578 13.4119C19.1954 13.1879 19.1798 12.7843 18.6522 12.5978Z" fill="#D45ED4"/>
</svg>
