<svg width="24" height="24" viewBox="0 0 24 24" fill="none" xmlns="http://www.w3.org/2000/svg">
<path d="M14.2011 18.8628C14.4156 19.0773 14.4156 19.4251 14.2011 19.6397L12.1561 21.6847C9.44322 24.3975 5.029 24.3977 2.31592 21.6847C-0.396973 18.9718 -0.396973 14.5575 2.31592 11.8446L4.36098 9.79955C4.57548 9.58505 4.92329 9.58505 5.13784 9.79955L6.9505 11.6122C7.165 11.8267 7.165 12.1745 6.9505 12.3891L4.90543 14.4341C3.6204 15.7192 3.6204 17.8101 4.90543 19.0951C6.19046 20.3802 8.28142 20.3802 9.56654 19.0951L11.6116 17.0501C11.8261 16.8356 12.1739 16.8356 12.3884 17.0501L14.2011 18.8628Z" fill="#396AFF"/>
<path d="M22.3611 23.397L23.3969 22.3612C23.826 21.9321 23.826 21.2365 23.3969 20.8075L3.19255 0.603035C2.7635 0.173988 2.06788 0.173988 1.63888 0.603035L0.603035 1.63888C0.173988 2.06793 0.173988 2.76355 0.603035 3.19255L20.8075 23.397C21.2365 23.826 21.9321 23.826 22.3611 23.397Z" fill="#396AFF"/>
<path d="M11.6122 6.9505C11.8267 7.165 12.1745 7.165 12.3891 6.9505L14.4341 4.90548C15.7191 3.62031 17.8101 3.6204 19.0952 4.90548C20.3802 6.19056 20.3802 8.28146 19.0952 9.56654L17.0501 11.6116C16.8356 11.8261 16.8356 12.1739 17.0501 12.3884L18.8628 14.2011C19.0773 14.4156 19.4251 14.4156 19.6396 14.2011L21.6847 12.156C24.3976 9.44307 24.3976 5.02886 21.6847 2.31592C18.9717 -0.396973 14.5575 -0.396973 11.8446 2.31592L9.79955 4.36093C9.58505 4.57543 9.58505 4.92325 9.79955 5.13779L11.6122 6.9505Z" fill="#396AFF"/>
</svg>
