<svg width="24" height="24" viewBox="0 0 24 24" fill="none" xmlns="http://www.w3.org/2000/svg">
<g clip-path="url(#clip0_1107_20669)">
<path d="M18.6724 1.5625H6.03961C5.65195 1.5625 5.33789 1.8775 5.33789 2.26562V12.0747C6.62208 10.0765 6.08677 10.9093 7.84148 8.17937C8.24086 7.55828 8.91961 7.1875 9.65789 7.1875C10.9805 7.1875 12.5735 8.39537 12.5735 10.3103C12.5656 11.1596 12.4274 12.0019 12.1577 12.8158H12.9893C14.9091 12.8158 16.3993 14.4994 16.1674 16.4073L16.002 17.7714H19.5752C19.8743 17.7714 20.1677 17.8553 20.4223 18.0133L22.9277 19.5691C23.3956 19.8591 23.9998 19.5213 23.9998 18.9714V6.89922C23.9998 3.95641 21.6096 1.5625 18.6724 1.5625V1.5625ZM20.3998 11.4062H14.5409C14.1532 11.4062 13.8391 11.0917 13.8391 10.7031C13.8391 10.315 14.1532 10 14.5409 10H20.3998C20.7874 10 21.1015 10.315 21.1015 10.7031C21.1015 11.0917 20.7874 11.4062 20.3998 11.4062ZM20.3998 8.59375H14.5409C14.1532 8.59375 13.8391 8.27922 13.8391 7.89062C13.8391 7.5025 14.1532 7.1875 14.5409 7.1875H20.3998C20.7874 7.1875 21.1015 7.5025 21.1015 7.89062C21.1015 8.27922 20.7874 8.59375 20.3998 8.59375ZM20.3998 5.78125H8.84742C8.4593 5.78125 8.14523 5.46672 8.14523 5.07812C8.14523 4.69 8.4593 4.375 8.84742 4.375H20.3998C20.7874 4.375 21.1015 4.69 21.1015 5.07812C21.1015 5.46672 20.7874 5.78125 20.3998 5.78125Z" fill="#396AFF"/>
<path d="M12.9899 14.2218H11.1088C10.59 14.2218 10.2555 13.6758 10.4812 13.2154C10.916 12.3219 11.1583 11.3288 11.1679 10.297V10.2792C11.1679 9.30136 10.3552 8.63859 9.71523 8.59589C9.44289 8.57527 9.17617 8.70464 9.02523 8.93949C6.05523 13.5601 6.24531 13.3024 6.00977 13.537C6.01881 13.6477 6.01586 13.1633 6.01586 21.4701C6.55516 21.6728 7.00253 22.1273 8.03758 22.1273H12.6309C13.4451 22.1273 14.1323 21.5179 14.2302 20.7075L14.7721 16.2379C14.9024 15.1664 14.0676 14.2218 12.9899 14.2218V14.2218Z" fill="#396AFF"/>
<path d="M3.91908 13.0059H0.690281C0.308766 13.0059 0 13.3148 0 13.6945V21.7504C0 22.1272 0.305156 22.439 0.690281 22.439H0.698063C2.6985 22.4168 1.97667 22.425 3.92686 22.4024C4.30448 22.3982 4.60936 22.0912 4.60936 21.7138V13.6945C4.60936 13.3148 4.30017 13.0059 3.91908 13.0059Z" fill="#396AFF"/>
</g>
<defs>
<clipPath id="clip0_1107_20669">
<rect width="24" height="24" fill="white"/>
</clipPath>
</defs>
</svg>
