<svg width="24" height="24" viewBox="0 0 24 24" fill="none" xmlns="http://www.w3.org/2000/svg">
<path d="M0 10.3423H10.3423V0H0V10.3423ZM2.58557 2.58557H7.75671V7.75671H2.58557V2.58557Z" fill="#16DBCC"/>
<path d="M0 23.27H10.3423V12.9277H0V23.27ZM2.58557 15.5133H7.75671V20.6844H2.58557V15.5133Z" fill="#16DBCC"/>
<path d="M12.9277 0V10.3423H23.27V0H12.9277ZM20.6844 7.75671H15.5133V2.58557H20.6844V7.75671Z" fill="#16DBCC"/>
<path d="M23.2711 20.6836H20.6855V23.2692H23.2711V20.6836Z" fill="#16DBCC"/>
<path d="M15.5133 12.9277H12.9277V15.5133H15.5133V12.9277Z" fill="#16DBCC"/>
<path d="M18.0992 15.5137H15.5137V18.0992H18.0992V15.5137Z" fill="#16DBCC"/>
<path d="M15.5133 18.0996H12.9277V20.6852H15.5133V18.0996Z" fill="#16DBCC"/>
<path d="M18.0992 20.6836H15.5137V23.2692H18.0992V20.6836Z" fill="#16DBCC"/>
<path d="M20.6852 18.0996H18.0996V20.6852H20.6852V18.0996Z" fill="#16DBCC"/>
<path d="M20.6852 12.9277H18.0996V15.5133H20.6852V12.9277Z" fill="#16DBCC"/>
<path d="M23.2711 15.5137H20.6855V18.0992H23.2711V15.5137Z" fill="#16DBCC"/>
</svg>
