<svg width="24" height="24" viewBox="0 0 24 24" fill="none" xmlns="http://www.w3.org/2000/svg">
<path d="M0 6.62695H19.7812V8.0332H0V6.62695Z" fill="#396AFF"/>
<path d="M19.7812 4.79883C19.7812 3.63572 18.835 2.68945 17.6719 2.68945H2.10938C0.946266 2.68945 0 3.63572 0 4.79883V5.2207H19.7812V4.79883Z" fill="#396AFF"/>
<path d="M19.7344 11.3747C19.75 11.3747 19.7656 11.3752 19.7812 11.3753V9.43945H0V15.2051C0 16.3682 0.946266 17.3145 2.10938 17.3145H14.069C14.0648 17.2257 14.0625 17.1364 14.0625 17.0467C14.0625 13.9191 16.6069 11.3747 19.7344 11.3747ZM3.51562 10.8457H5.27344C5.66175 10.8457 5.97656 11.1605 5.97656 11.5488C5.97656 11.9371 5.66175 12.252 5.27344 12.252H3.51562C3.12731 12.252 2.8125 11.9371 2.8125 11.5488C2.8125 11.1605 3.12731 10.8457 3.51562 10.8457ZM7.5 14.5019H3.51562C3.12731 14.5019 2.8125 14.1871 2.8125 13.7988C2.8125 13.4105 3.12731 13.0957 3.51562 13.0957H7.5C7.88831 13.0957 8.20312 13.4105 8.20312 13.7988C8.20312 14.1871 7.88831 14.5019 7.5 14.5019Z" fill="#396AFF"/>
<path d="M19.7344 12.7812C17.3823 12.7812 15.4688 14.6948 15.4688 17.0469C15.4688 19.399 17.3823 21.3125 19.7344 21.3125C22.0864 21.3125 24 19.3989 24 17.0469C24 14.6948 22.0864 12.7812 19.7344 12.7812ZM21.7785 16.6849L20.091 18.3724C19.9537 18.5097 19.7737 18.5783 19.5938 18.5783C19.4139 18.5783 19.2339 18.5097 19.0966 18.3724L18.2295 17.5052C17.9549 17.2306 17.9549 16.7854 18.2295 16.5108C18.504 16.2362 18.9492 16.2362 19.2238 16.5108L19.5938 16.8808L20.7842 15.6905C21.0587 15.4159 21.504 15.4159 21.7785 15.6905C22.053 15.9651 22.053 16.4103 21.7785 16.6849Z" fill="#396AFF"/>
</svg>
