<svg width="24" height="20" viewBox="0 0 24 20" fill="none" xmlns="http://www.w3.org/2000/svg">
<path d="M15.3357 1.98621L13.5672 0.219697C13.4975 0.150045 13.4149 0.0947935 13.3239 0.0570977C13.2329 0.0194019 13.1353 0 13.0368 0C12.9383 0 12.8408 0.0194019 12.7498 0.0570977C12.6588 0.0947935 12.5761 0.150045 12.5065 0.219697L4.375 8.35117C4.29879 8.42684 4.24005 8.51826 4.2029 8.61903L3.14219 11.4456C3.09121 11.5804 3.08019 11.7271 3.11046 11.868C3.14073 12.0089 3.21101 12.1381 3.31286 12.2401C3.41471 12.3421 3.54381 12.4126 3.68469 12.443C3.82557 12.4735 3.97225 12.4627 4.10714 12.4119L6.93504 11.3512C7.03581 11.314 7.12723 11.2553 7.2029 11.1791L15.3357 3.04626C15.4053 2.97667 15.4606 2.89405 15.4983 2.8031C15.536 2.71216 15.5554 2.61468 15.5554 2.51624C15.5554 2.41779 15.536 2.32032 15.4983 2.22937C15.4606 2.13843 15.4053 2.0558 15.3357 1.98621Z" fill="#FEC251"/>
<path d="M21.2498 4H16.4833C16.4525 4.03482 16.4283 4.075 16.3942 4.10781L8.26205 12.24C8.03343 12.4698 7.75735 12.6469 7.45312 12.7589L4.63326 13.817C4.2284 13.9694 3.78815 14.0017 3.36538 13.91C2.94261 13.8183 2.55531 13.6065 2.25 13.3C1.94548 12.9941 1.73515 12.6073 1.64398 12.1854C1.55282 11.7636 1.58466 11.3244 1.73571 10.9201L2.79643 8.09286C2.91032 7.79115 3.08725 7.5172 3.3154 7.28929L6.60335 4.00134H2.75022C2.02121 4.00187 1.3222 4.29161 0.806582 4.80697C0.290969 5.32234 0.000886679 6.02121 0 6.75022L0 17.2502C0.000532099 17.9795 0.290458 18.6787 0.806109 19.1943C1.32176 19.71 2.02098 19.9999 2.75022 20.0004H21.2498C21.979 19.9999 22.6782 19.71 23.1939 19.1943C23.7095 18.6787 23.9995 17.9795 24 17.2502V6.75022C23.9995 6.02098 23.7095 5.32176 23.1939 4.80611C22.6782 4.29046 21.979 4.00053 21.2498 4ZM20.25 15.5004H3.75C3.55109 15.5004 3.36032 15.4214 3.21967 15.2808C3.07902 15.1401 3 14.9494 3 14.7504C3 14.5515 3.07902 14.3608 3.21967 14.2201C3.36032 14.0795 3.55109 14.0004 3.75 14.0004H20.25C20.4489 14.0004 20.6397 14.0795 20.7803 14.2201C20.921 14.3608 21 14.5515 21 14.7504C21 14.9494 20.921 15.1401 20.7803 15.2808C20.6397 15.4214 20.4489 15.5004 20.25 15.5004ZM20.25 10.5002H14.7502C14.5513 10.5002 14.3605 10.4212 14.2199 10.2806C14.0792 10.1399 14.0002 9.94913 14.0002 9.75022C14.0002 9.55131 14.0792 9.36055 14.2199 9.21989C14.3605 9.07924 14.5513 9.00022 14.7502 9.00022H20.25C20.4489 9.00022 20.6397 9.07924 20.7803 9.21989C20.921 9.36055 21 9.55131 21 9.75022C21 9.94913 20.921 10.1399 20.7803 10.2806C20.6397 10.4212 20.4489 10.5002 20.25 10.5002Z" fill="#FEC251"/>
</svg>
