<svg width="24" height="24" viewBox="0 0 24 24" fill="none" xmlns="http://www.w3.org/2000/svg">
<path d="M6.53516 17.6427H23.2877C23.6808 17.6427 23.9996 17.3239 23.9996 16.9308V6.61993C23.9996 6.22681 23.6808 5.9082 23.2877 5.9082H6.53516V17.6427ZM22.211 14.8095H21.008L20.2985 15.6197C19.9848 15.9781 19.4142 15.9329 19.1606 15.5306L18.6771 14.7637L18.418 15.0821C18.1697 15.387 17.7214 15.433 17.4164 15.1847C17.1115 14.9364 17.0657 14.488 17.3138 14.1831L18.1986 13.0966C18.506 12.719 19.0934 12.7551 19.3527 13.1663L19.8559 13.9641C20.0666 13.7689 20.2234 13.3859 20.6852 13.3859H22.211C22.6041 13.3859 22.9229 13.7046 22.9229 14.0978C22.9229 14.4909 22.6041 14.8095 22.211 14.8095ZM17.4874 8.17651H22.0125C22.4056 8.17651 22.7244 8.49512 22.7244 8.88824C22.7244 9.28137 22.4056 9.60016 22.0125 9.60016H17.4874C17.0943 9.60016 16.7755 9.28137 16.7755 8.88824C16.7755 8.49512 17.0943 8.17651 17.4874 8.17651ZM17.4874 10.586H22.0125C22.4056 10.586 22.7244 10.9046 22.7244 11.2977C22.7244 11.6909 22.4056 12.0096 22.0125 12.0096H17.4874C17.0943 12.0096 16.7755 11.6909 16.7755 11.2977C16.7755 10.9046 17.0943 10.586 17.4874 10.586ZM10.2123 9.29272H10.3307V8.86957C10.3307 8.47644 10.6494 8.15765 11.0425 8.15765C11.4358 8.15765 11.7544 8.47644 11.7544 8.86957V9.29272H12.4822C12.8754 9.29272 13.1942 9.61151 13.1942 10.0046C13.1942 10.3978 12.8754 10.7166 12.4822 10.7166H10.2123C10.0493 10.7166 9.91656 10.8491 9.91656 11.0121C9.91656 11.1752 10.0493 11.3078 10.2123 11.3078H11.4748C12.4229 11.3078 13.1942 12.079 13.1942 13.0272C13.1942 13.8799 12.5699 14.5894 11.7544 14.7233V15.1697C11.7544 15.5628 11.4358 15.8816 11.0425 15.8816C10.6494 15.8816 10.3307 15.5628 10.3307 15.1697V14.7465H9.22223C8.8291 14.7465 8.5105 14.4277 8.5105 14.0346C8.5105 13.6415 8.8291 13.3227 9.22223 13.3227H11.4748C11.6379 13.3227 11.7705 13.1901 11.7705 13.0272C11.7705 12.864 11.6379 12.7314 11.4748 12.7314H10.2123C9.26416 12.7314 8.49292 11.9602 8.49292 11.0121C8.49292 10.0641 9.26416 9.29272 10.2123 9.29272Z" fill="#D45ED4"/>
<path d="M5.11345 18.3745C4.95378 17.4885 4.19169 16.8496 3.28477 16.8496C2.33427 16.8496 1.53776 17.5705 1.43651 18.5078C1.3184 19.6207 2.19127 20.5679 3.28459 20.5679H20.5992C20.9923 20.5679 21.3111 20.2491 21.3111 19.856V19.0656H5.82426C5.43809 19.0654 5.12462 18.7579 5.11345 18.3745Z" fill="#D45ED4"/>
<path d="M0.0016236 18.6019C0.0016236 18.61 0.00217292 18.6178 0.00272223 18.6257C0.0642457 15.9897 3.01334 14.5761 5.11191 15.9831V4.04135C2.90934 2.52982 -0.0796752 4.20908 0.0016236 6.76486V18.6019Z" fill="#D45ED4"/>
</svg>
