<svg width="26" height="25" viewBox="0 0 26 25" fill="none" xmlns="http://www.w3.org/2000/svg">
<path d="M13 0C5.824 0 0 5.6 0 12.5C0 19.4 5.824 25 13 25C20.176 25 26 19.4 26 12.5C26 5.6 20.176 0 13 0ZM14.3 21.25H11.7V18.75H14.3V21.25ZM16.991 11.5625L15.821 12.7125C14.885 13.625 14.3 14.375 14.3 16.25H11.7V15.625C11.7 14.25 12.285 13 13.221 12.0875L14.833 10.5125C15.314 10.0625 15.6 9.4375 15.6 8.75C15.6 7.375 14.43 6.25 13 6.25C11.57 6.25 10.4 7.375 10.4 8.75H7.8C7.8 5.9875 10.127 3.75 13 3.75C15.873 3.75 18.2 5.9875 18.2 8.75C18.2 9.85 17.732 10.85 16.991 11.5625Z" fill="#16DBCC"/>
</svg>
