<svg width="30" height="30" viewBox="0 0 30 30" fill="none" xmlns="http://www.w3.org/2000/svg">
<circle cx="15" cy="15" r="15" fill="#2D60FF"/>
<g clip-path="url(#clip0_1163_17629)">
<path d="M22.5862 11.1628L21.2356 12.5134C21.0979 12.6511 20.8753 12.6511 20.7376 12.5134L17.4856 9.26147C17.3479 9.12378 17.3479 8.90112 17.4856 8.76343L18.8362 7.41284C19.3841 6.86499 20.2747 6.86499 20.8255 7.41284L22.5862 9.17358C23.137 9.72144 23.137 10.6121 22.5862 11.1628ZM16.3255 9.92358L8.63212 17.6169L8.01102 21.1765C7.92606 21.657 8.34501 22.073 8.82548 21.991L12.385 21.3669L20.0784 13.6736C20.2161 13.5359 20.2161 13.3132 20.0784 13.1755L16.8265 9.92358C16.6858 9.78589 16.4632 9.78589 16.3255 9.92358ZM11.635 16.9578C11.4739 16.7966 11.4739 16.5388 11.635 16.3777L16.1468 11.866C16.3079 11.7048 16.5657 11.7048 16.7268 11.866C16.888 12.0271 16.888 12.2849 16.7268 12.446L12.2151 16.9578C12.054 17.1189 11.7962 17.1189 11.635 16.9578ZM10.5774 19.4216H11.9837V20.4851L10.094 20.8162L9.1829 19.905L9.51395 18.0154H10.5774V19.4216Z" fill="white"/>
</g>
<defs>
<clipPath id="clip0_1163_17629">
<rect width="15" height="15" fill="white" transform="translate(8 7)"/>
</clipPath>
</defs>
</svg>
