<svg width="635" height="276" viewBox="0 0 635 276" fill="none" xmlns="http://www.w3.org/2000/svg">
<rect width="635" height="276" rx="25" fill="white"/>
<path d="M67.1307 240.521V247.799C67.1307 249.067 66.5241 249.748 65.4602 249.748C64.4908 249.748 63.7898 249.181 63.7898 248.316H62.5767C62.5767 249.882 63.7898 250.842 65.4602 250.842C67.2301 250.842 68.3636 249.753 68.3636 247.799V240.521H67.1307ZM75.4879 247.58C75.4879 249.012 74.3942 249.669 73.5192 249.669C72.5447 249.669 71.8487 248.953 71.8487 247.839V243.066H70.6754V247.919C70.6754 249.867 71.7095 250.802 73.1413 250.802C74.2947 250.802 75.0504 250.186 75.4084 249.41H75.4879V250.703H76.6612V243.066H75.4879V247.58ZM79.9835 240.521H78.8102V250.703H79.9835V240.521Z" fill="#718EBF"/>
<path d="M67.1307 240.521V239.521H66.1307V240.521H67.1307ZM63.7898 248.316H64.7898V247.316H63.7898V248.316ZM62.5767 248.316V247.316H61.5767V248.316H62.5767ZM68.3636 240.521H69.3636V239.521H68.3636V240.521ZM66.1307 240.521V247.799H68.1307V240.521H66.1307ZM66.1307 247.799C66.1307 248.288 66.0127 248.509 65.9384 248.595C65.8836 248.658 65.769 248.748 65.4602 248.748V250.748C66.2154 250.748 66.936 250.498 67.4504 249.904C67.9454 249.332 68.1307 248.578 68.1307 247.799H66.1307ZM65.4602 248.748C65.1647 248.748 64.9893 248.662 64.9059 248.592C64.8371 248.534 64.7898 248.457 64.7898 248.316H62.7898C62.7898 249.041 63.093 249.68 63.617 250.121C64.1265 250.551 64.7863 250.748 65.4602 250.748V248.748ZM63.7898 247.316H62.5767V249.316H63.7898V247.316ZM61.5767 248.316C61.5767 249.379 61.9982 250.293 62.7441 250.928C63.4734 251.548 64.4402 251.842 65.4602 251.842V249.842C64.8098 249.842 64.3349 249.655 64.04 249.405C63.7617 249.168 63.5767 248.82 63.5767 248.316H61.5767ZM65.4602 251.842C66.552 251.842 67.5585 251.502 68.2909 250.752C69.0212 250.005 69.3636 248.968 69.3636 247.799H67.3636C67.3636 248.584 67.1393 249.069 66.8604 249.354C66.5835 249.638 66.1384 249.842 65.4602 249.842V251.842ZM69.3636 247.799V240.521H67.3636V247.799H69.3636ZM68.3636 239.521H67.1307V241.521H68.3636V239.521ZM71.8487 243.066H72.8487V242.066H71.8487V243.066ZM70.6754 243.066V242.066H69.6754V243.066H70.6754ZM75.4084 249.41V248.41H74.7685L74.5004 248.991L75.4084 249.41ZM75.4879 249.41H76.4879V248.41H75.4879V249.41ZM75.4879 250.703H74.4879V251.703H75.4879V250.703ZM76.6612 250.703V251.703H77.6612V250.703H76.6612ZM76.6612 243.066H77.6612V242.066H76.6612V243.066ZM75.4879 243.066V242.066H74.4879V243.066H75.4879ZM74.4879 247.58C74.4879 248.018 74.3313 248.267 74.1643 248.417C73.9747 248.587 73.7238 248.669 73.5192 248.669V250.669C74.8405 250.669 76.4879 249.665 76.4879 247.58H74.4879ZM73.5192 248.669C73.2874 248.669 73.1428 248.589 73.0509 248.49C72.9545 248.387 72.8487 248.187 72.8487 247.839H70.8487C70.8487 248.605 71.0909 249.32 71.5862 249.852C72.0859 250.39 72.7765 250.669 73.5192 250.669V248.669ZM72.8487 247.839V243.066H70.8487V247.839H72.8487ZM71.8487 242.066H70.6754V244.066H71.8487V242.066ZM69.6754 243.066V247.919H71.6754V243.066H69.6754ZM69.6754 247.919C69.6754 249.063 69.9806 250.054 70.6343 250.767C71.2965 251.489 72.2021 251.802 73.1413 251.802V249.802C72.6488 249.802 72.3214 249.647 72.1086 249.415C71.8873 249.174 71.6754 248.723 71.6754 247.919H69.6754ZM73.1413 251.802C74.7118 251.802 75.8066 250.934 76.3163 249.829L74.5004 248.991C74.2943 249.438 73.8777 249.802 73.1413 249.802V251.802ZM75.4084 250.41H75.4879V248.41H75.4084V250.41ZM74.4879 249.41V250.703H76.4879V249.41H74.4879ZM75.4879 251.703H76.6612V249.703H75.4879V251.703ZM77.6612 250.703V243.066H75.6612V250.703H77.6612ZM76.6612 242.066H75.4879V244.066H76.6612V242.066ZM74.4879 243.066V247.58H76.4879V243.066H74.4879ZM79.9835 240.521H80.9835V239.521H79.9835V240.521ZM78.8102 240.521V239.521H77.8102V240.521H78.8102ZM78.8102 250.703H77.8102V251.703H78.8102V250.703ZM79.9835 250.703V251.703H80.9835V250.703H79.9835ZM79.9835 239.521H78.8102V241.521H79.9835V239.521ZM77.8102 240.521V250.703H79.8102V240.521H77.8102ZM78.8102 251.703H79.9835V249.703H78.8102V251.703ZM80.9835 250.703V240.521H78.9835V250.703H80.9835Z" fill="#718EBF"/>
<path d="M132.094 250.703L133.118 247.819H137.235L138.259 250.703H139.551L135.813 240.521H134.54L130.801 250.703H132.094ZM133.506 246.725L135.137 242.132H135.216L136.847 246.725H133.506ZM145.791 247.58C145.791 249.012 144.697 249.669 143.822 249.669C142.847 249.669 142.151 248.953 142.151 247.839V243.066H140.978V247.919C140.978 249.867 142.012 250.802 143.444 250.802C144.597 250.802 145.353 250.186 145.711 249.41H145.791V250.703H146.964V243.066H145.791V247.58ZM152.195 253.725C154.025 253.725 155.496 252.89 155.496 250.921V243.066H154.363V244.279H154.244C153.985 243.882 153.508 242.967 152.016 242.967C150.087 242.967 148.755 244.498 148.755 246.845C148.755 249.231 150.147 250.583 151.996 250.583C153.488 250.583 153.965 249.708 154.224 249.291H154.323V250.842C154.323 252.115 153.428 252.691 152.195 252.691C150.808 252.691 150.321 251.96 150.008 251.538L149.073 252.194C149.55 252.995 150.49 253.725 152.195 253.725ZM152.156 249.529C150.684 249.529 149.928 248.416 149.928 246.825C149.928 245.274 150.664 244.021 152.156 244.021C153.587 244.021 154.343 245.174 154.343 246.825C154.343 248.515 153.567 249.529 152.156 249.529Z" fill="#718EBF"/>
<path d="M132.094 250.703V251.703H132.8L133.036 251.037L132.094 250.703ZM133.118 247.819V246.819H132.412L132.176 247.484L133.118 247.819ZM137.235 247.819L138.177 247.484L137.941 246.819H137.235V247.819ZM138.259 250.703L137.316 251.037L137.553 251.703H138.259V250.703ZM139.551 250.703V251.703H140.984L140.49 250.358L139.551 250.703ZM135.813 240.521L136.751 240.176L136.511 239.521H135.813V240.521ZM134.54 240.521V239.521H133.842L133.601 240.176L134.54 240.521ZM130.801 250.703L129.863 250.358L129.369 251.703H130.801V250.703ZM133.506 246.725L132.563 246.391L132.09 247.725H133.506V246.725ZM135.137 242.132V241.132H134.43L134.194 241.797L135.137 242.132ZM135.216 242.132L136.158 241.797L135.922 241.132H135.216V242.132ZM136.847 246.725V247.725H138.263L137.789 246.391L136.847 246.725ZM133.036 251.037L134.06 248.154L132.176 247.484L131.152 250.368L133.036 251.037ZM133.118 248.819H137.235V246.819H133.118V248.819ZM136.292 248.154L137.316 251.037L139.201 250.368L138.177 247.484L136.292 248.154ZM138.259 251.703H139.551V249.703H138.259V251.703ZM140.49 250.358L136.751 240.176L134.874 240.866L138.613 251.047L140.49 250.358ZM135.813 239.521H134.54V241.521H135.813V239.521ZM133.601 240.176L129.863 250.358L131.74 251.047L135.479 240.866L133.601 240.176ZM130.801 251.703H132.094V249.703H130.801V251.703ZM134.448 247.06L136.079 242.466L134.194 241.797L132.563 246.391L134.448 247.06ZM135.137 243.132H135.216V241.132H135.137V243.132ZM134.274 242.466L135.904 247.06L137.789 246.391L136.158 241.797L134.274 242.466ZM136.847 245.725H133.506V247.725H136.847V245.725ZM142.151 243.066H143.151V242.066H142.151V243.066ZM140.978 243.066V242.066H139.978V243.066H140.978ZM145.711 249.41V248.41H145.071L144.803 248.991L145.711 249.41ZM145.791 249.41H146.791V248.41H145.791V249.41ZM145.791 250.703H144.791V251.703H145.791V250.703ZM146.964 250.703V251.703H147.964V250.703H146.964ZM146.964 243.066H147.964V242.066H146.964V243.066ZM145.791 243.066V242.066H144.791V243.066H145.791ZM144.791 247.58C144.791 248.018 144.634 248.267 144.467 248.417C144.277 248.587 144.027 248.669 143.822 248.669V250.669C145.143 250.669 146.791 249.665 146.791 247.58H144.791ZM143.822 248.669C143.59 248.669 143.446 248.589 143.354 248.49C143.257 248.387 143.151 248.187 143.151 247.839H141.151C141.151 248.605 141.394 249.32 141.889 249.852C142.389 250.39 143.079 250.669 143.822 250.669V248.669ZM143.151 247.839V243.066H141.151V247.839H143.151ZM142.151 242.066H140.978V244.066H142.151V242.066ZM139.978 243.066V247.919H141.978V243.066H139.978ZM139.978 247.919C139.978 249.063 140.283 250.054 140.937 250.767C141.599 251.489 142.505 251.802 143.444 251.802V249.802C142.952 249.802 142.624 249.647 142.411 249.415C142.19 249.174 141.978 248.723 141.978 247.919H139.978ZM143.444 251.802C145.015 251.802 146.109 250.934 146.619 249.829L144.803 248.991C144.597 249.438 144.18 249.802 143.444 249.802V251.802ZM145.711 250.41H145.791V248.41H145.711V250.41ZM144.791 249.41V250.703H146.791V249.41H144.791ZM145.791 251.703H146.964V249.703H145.791V251.703ZM147.964 250.703V243.066H145.964V250.703H147.964ZM146.964 242.066H145.791V244.066H146.964V242.066ZM144.791 243.066V247.58H146.791V243.066H144.791ZM155.496 243.066H156.496V242.066H155.496V243.066ZM154.363 243.066V242.066H153.363V243.066H154.363ZM154.363 244.279V245.279H155.363V244.279H154.363ZM154.244 244.279L153.405 244.824L153.701 245.279H154.244V244.279ZM154.224 249.291V248.291H153.667L153.373 248.764L154.224 249.291ZM154.323 249.291H155.323V248.291H154.323V249.291ZM150.008 251.538L150.811 250.942L150.231 250.159L149.433 250.719L150.008 251.538ZM149.073 252.194L148.499 251.376L147.739 251.909L148.214 252.706L149.073 252.194ZM152.195 254.725C153.243 254.725 154.31 254.489 155.138 253.857C156.007 253.194 156.496 252.186 156.496 250.921H154.496C154.496 251.626 154.25 252.019 153.926 252.266C153.561 252.544 152.977 252.725 152.195 252.725V254.725ZM156.496 250.921V243.066H154.496V250.921H156.496ZM155.496 242.066H154.363V244.066H155.496V242.066ZM153.363 243.066V244.279H155.363V243.066H153.363ZM154.363 243.279H154.244V245.279H154.363V243.279ZM155.082 243.734C154.987 243.589 154.713 243.101 154.228 242.702C153.708 242.274 152.99 241.967 152.016 241.967V243.967C152.534 243.967 152.8 244.117 152.957 244.246C153.148 244.403 153.241 244.572 153.405 244.824L155.082 243.734ZM152.016 241.967C150.768 241.967 149.67 242.471 148.9 243.378C148.141 244.272 147.755 245.487 147.755 246.845H149.755C149.755 245.856 150.035 245.132 150.425 244.673C150.803 244.228 151.336 243.967 152.016 243.967V241.967ZM147.755 246.845C147.755 248.231 148.162 249.424 148.943 250.282C149.729 251.146 150.818 251.583 151.996 251.583V249.583C151.326 249.583 150.794 249.344 150.422 248.936C150.044 248.521 149.755 247.845 149.755 246.845H147.755ZM151.996 251.583C152.958 251.583 153.674 251.294 154.198 250.874C154.693 250.477 154.962 249.998 155.074 249.817L153.373 248.764C153.227 249.001 153.128 249.168 152.947 249.313C152.795 249.435 152.526 249.583 151.996 249.583V251.583ZM154.224 250.291H154.323V248.291H154.224V250.291ZM153.323 249.291V250.842H155.323V249.291H153.323ZM153.323 250.842C153.323 251.221 153.203 251.378 153.096 251.464C152.954 251.577 152.673 251.691 152.195 251.691V253.691C152.95 253.691 153.733 253.517 154.348 253.024C154.996 252.503 155.323 251.735 155.323 250.842H153.323ZM152.195 251.691C151.694 251.691 151.429 251.564 151.275 251.456C151.095 251.329 150.986 251.178 150.811 250.942L149.204 252.133C149.343 252.32 149.635 252.746 150.123 253.091C150.637 253.453 151.31 253.691 152.195 253.691V251.691ZM149.433 250.719L148.499 251.376L149.648 253.013L150.582 252.356L149.433 250.719ZM148.214 252.706C148.878 253.82 150.151 254.725 152.195 254.725V252.725C150.829 252.725 150.222 252.169 149.932 251.682L148.214 252.706ZM152.156 248.529C151.7 248.529 151.445 248.372 151.278 248.158C151.085 247.911 150.928 247.478 150.928 246.825H148.928C148.928 247.763 149.149 248.682 149.702 249.389C150.281 250.13 151.14 250.529 152.156 250.529V248.529ZM150.928 246.825C150.928 246.191 151.081 245.717 151.29 245.431C151.473 245.181 151.73 245.021 152.156 245.021V243.021C151.09 243.021 150.233 243.487 149.675 244.251C149.144 244.979 148.928 245.908 148.928 246.825H150.928ZM152.156 245.021C152.568 245.021 152.812 245.17 152.984 245.401C153.183 245.668 153.343 246.135 153.343 246.825H155.343C155.343 245.864 155.125 244.929 154.589 244.207C154.025 243.449 153.175 243.021 152.156 243.021V245.021ZM153.343 246.825C153.343 247.534 153.178 247.96 152.997 248.188C152.841 248.383 152.6 248.529 152.156 248.529V250.529C153.123 250.529 153.976 250.168 154.561 249.434C155.12 248.733 155.343 247.806 155.343 246.825H153.343Z" fill="#718EBF"/>
<path d="M225.801 243.066H226.994C226.94 241.53 225.523 240.382 223.554 240.382C221.605 240.382 220.074 241.515 220.074 243.225C220.074 244.598 221.068 245.413 222.659 245.87L223.912 246.228C224.986 246.527 225.94 246.904 225.94 247.919C225.94 249.032 224.866 249.768 223.455 249.768C222.241 249.768 221.168 249.231 221.068 248.078H219.795C219.915 249.748 221.267 250.882 223.455 250.882C225.801 250.882 227.134 249.589 227.134 247.938C227.134 246.029 225.324 245.413 224.27 245.134L223.236 244.856C222.48 244.657 221.267 244.259 221.267 243.166C221.267 242.191 222.162 241.475 223.514 241.475C224.747 241.475 225.682 242.062 225.801 243.066ZM232.203 250.862C233.754 250.862 234.888 250.086 235.246 248.933L234.112 248.615C233.814 249.41 233.123 249.808 232.203 249.808C230.826 249.808 229.877 248.918 229.822 247.282H235.365V246.785C235.365 243.941 233.675 242.967 232.084 242.967C230.016 242.967 228.644 244.598 228.644 246.944C228.644 249.291 229.996 250.862 232.203 250.862ZM229.822 246.268C229.901 245.08 230.742 244.021 232.084 244.021C233.357 244.021 234.172 244.975 234.172 246.268H229.822ZM237.15 253.566H238.323V249.529H238.423C238.681 249.947 239.178 250.862 240.65 250.862C242.559 250.862 243.892 249.33 243.892 246.904C243.892 244.498 242.559 242.967 240.63 242.967C239.139 242.967 238.681 243.882 238.423 244.279H238.284V243.066H237.15V253.566ZM238.303 246.884C238.303 245.174 239.059 244.021 240.491 244.021C241.982 244.021 242.718 245.274 242.718 246.884C242.718 248.515 241.963 249.808 240.491 249.808C239.079 249.808 238.303 248.615 238.303 246.884Z" fill="#718EBF"/>
<path d="M225.801 243.066L224.808 243.184L224.913 244.066H225.801V243.066ZM226.994 243.066V244.066H228.031L227.994 243.031L226.994 243.066ZM222.659 245.87L222.383 246.831L222.384 246.832L222.659 245.87ZM223.912 246.228L223.637 247.19L223.644 247.192L223.912 246.228ZM221.068 248.078L222.064 247.992L221.986 247.078H221.068V248.078ZM219.795 248.078V247.078H218.721L218.798 248.149L219.795 248.078ZM224.27 245.134L224.01 246.1L224.014 246.101L224.27 245.134ZM223.236 244.856L223.496 243.89L223.49 243.889L223.236 244.856ZM225.801 244.066H226.994V242.066H225.801V244.066ZM227.994 243.031C227.914 240.782 225.868 239.382 223.554 239.382V241.382C225.178 241.382 225.966 242.278 225.995 243.102L227.994 243.031ZM223.554 239.382C221.281 239.382 219.074 240.76 219.074 243.225H221.074C221.074 242.271 221.93 241.382 223.554 241.382V239.382ZM219.074 243.225C219.074 244.186 219.435 244.991 220.075 245.61C220.685 246.2 221.505 246.579 222.383 246.831L222.935 244.909C222.223 244.704 221.749 244.447 221.465 244.172C221.21 243.925 221.074 243.637 221.074 243.225H219.074ZM222.384 246.832L223.637 247.19L224.187 245.267L222.934 244.909L222.384 246.832ZM223.644 247.192C224.181 247.341 224.539 247.474 224.759 247.627C224.856 247.694 224.894 247.744 224.91 247.771C224.922 247.792 224.94 247.83 224.94 247.919H226.94C226.94 247.019 226.484 246.389 225.899 245.983C225.373 245.619 224.717 245.414 224.18 245.265L223.644 247.192ZM224.94 247.919C224.94 248.116 224.859 248.292 224.639 248.452C224.401 248.625 223.998 248.768 223.455 248.768V250.768C224.323 250.768 225.163 250.543 225.815 250.07C226.485 249.583 226.94 248.835 226.94 247.919H224.94ZM223.455 248.768C222.98 248.768 222.612 248.661 222.385 248.514C222.189 248.388 222.085 248.233 222.064 247.992L220.072 248.164C220.151 249.076 220.633 249.766 221.303 250.196C221.94 250.607 222.716 250.768 223.455 250.768V248.768ZM221.068 247.078H219.795V249.078H221.068V247.078ZM218.798 248.149C218.877 249.254 219.375 250.219 220.232 250.892C221.074 251.555 222.194 251.882 223.455 251.882V249.882C222.528 249.882 221.877 249.642 221.467 249.32C221.071 249.009 220.833 248.572 220.793 248.006L218.798 248.149ZM223.455 251.882C224.807 251.882 225.973 251.508 226.82 250.793C227.677 250.068 228.134 249.05 228.134 247.938H226.134C226.134 248.478 225.924 248.931 225.528 249.265C225.122 249.609 224.449 249.882 223.455 249.882V251.882ZM228.134 247.938C228.134 246.603 227.475 245.694 226.688 245.118C225.943 244.573 225.072 244.312 224.525 244.168L224.014 246.101C224.522 246.235 225.082 246.421 225.506 246.732C225.888 247.011 226.134 247.365 226.134 247.938H228.134ZM224.53 244.169L223.496 243.89L222.976 245.822L224.01 246.1L224.53 244.169ZM223.49 243.889C223.123 243.792 222.768 243.675 222.517 243.51C222.294 243.364 222.267 243.265 222.267 243.166H220.267C220.267 244.16 220.847 244.807 221.419 245.183C221.963 245.539 222.593 245.721 222.981 245.823L223.49 243.889ZM222.267 243.166C222.267 243.014 222.326 242.876 222.492 242.749C222.673 242.61 223.006 242.475 223.514 242.475V240.475C222.67 240.475 221.88 240.698 221.276 241.161C220.656 241.636 220.267 242.343 220.267 243.166H222.267ZM223.514 242.475C224.492 242.475 224.774 242.899 224.808 243.184L226.794 242.948C226.589 241.225 225.002 240.475 223.514 240.475V242.475ZM235.246 248.933L236.201 249.229L236.506 248.248L235.516 247.97L235.246 248.933ZM234.112 248.615L234.383 247.652L233.499 247.404L233.176 248.263L234.112 248.615ZM229.822 247.282V246.282H228.788L228.822 247.316L229.822 247.282ZM235.365 247.282V248.282H236.365V247.282H235.365ZM229.822 246.268L228.824 246.201L228.753 247.268H229.822V246.268ZM234.172 246.268V247.268H235.172V246.268H234.172ZM232.203 251.862C234.089 251.862 235.685 250.892 236.201 249.229L234.291 248.636C234.091 249.28 233.42 249.862 232.203 249.862V251.862ZM235.516 247.97L234.383 247.652L233.842 249.577L234.976 249.896L235.516 247.97ZM233.176 248.263C233.055 248.586 232.802 248.808 232.203 248.808V250.808C233.444 250.808 234.573 250.234 235.049 248.966L233.176 248.263ZM232.203 248.808C231.736 248.808 231.43 248.662 231.233 248.46C231.03 248.253 230.843 247.881 230.821 247.249L228.822 247.316C228.856 248.319 229.17 249.21 229.801 249.857C230.436 250.508 231.293 250.808 232.203 250.808V248.808ZM229.822 248.282H235.365V246.282H229.822V248.282ZM236.365 247.282V246.785H234.365V247.282H236.365ZM236.365 246.785C236.365 245.16 235.876 243.92 235.015 243.09C234.166 242.271 233.075 241.967 232.084 241.967V243.967C232.684 243.967 233.233 244.15 233.627 244.529C234.009 244.898 234.365 245.567 234.365 246.785H236.365ZM232.084 241.967C230.768 241.967 229.627 242.495 228.829 243.424C228.043 244.34 227.644 245.581 227.644 246.944H229.644C229.644 245.961 229.93 245.213 230.347 244.727C230.753 244.254 231.332 243.967 232.084 243.967V241.967ZM227.644 246.944C227.644 248.305 228.037 249.541 228.851 250.45C229.675 251.371 230.848 251.862 232.203 251.862V249.862C231.351 249.862 230.744 249.567 230.341 249.116C229.926 248.653 229.644 247.93 229.644 246.944H227.644ZM230.82 246.335C230.872 245.549 231.383 245.021 232.084 245.021V243.021C230.1 243.021 228.931 244.611 228.824 246.201L230.82 246.335ZM232.084 245.021C232.455 245.021 232.702 245.152 232.865 245.331C233.036 245.52 233.172 245.83 233.172 246.268H235.172C235.172 245.413 234.901 244.6 234.346 243.988C233.782 243.366 232.986 243.021 232.084 243.021V245.021ZM234.172 245.268H229.822V247.268H234.172V245.268ZM237.15 253.566H236.15V254.566H237.15V253.566ZM238.323 253.566V254.566H239.323V253.566H238.323ZM238.323 249.529V248.529H237.323V249.529H238.323ZM238.423 249.529L239.273 249.003L238.98 248.529H238.423V249.529ZM238.423 244.279V245.279H238.965L239.261 244.824L238.423 244.279ZM238.284 244.279H237.284V245.279H238.284V244.279ZM238.284 243.066H239.284V242.066H238.284V243.066ZM237.15 243.066V242.066H236.15V243.066H237.15ZM237.15 254.566H238.323V252.566H237.15V254.566ZM239.323 253.566V249.529H237.323V253.566H239.323ZM238.323 250.529H238.423V248.529H238.323V250.529ZM237.572 250.056C237.683 250.235 237.955 250.719 238.445 251.124C238.966 251.553 239.683 251.862 240.65 251.862V249.862C240.145 249.862 239.878 249.713 239.718 249.581C239.527 249.423 239.421 249.242 239.273 249.003L237.572 250.056ZM240.65 251.862C241.893 251.862 242.988 251.354 243.755 250.433C244.509 249.528 244.892 248.294 244.892 246.904H242.892C242.892 247.941 242.607 248.686 242.218 249.153C241.842 249.604 241.316 249.862 240.65 249.862V251.862ZM244.892 246.904C244.892 245.523 244.508 244.293 243.75 243.39C242.979 242.472 241.879 241.967 240.63 241.967V243.967C241.31 243.967 241.841 244.227 242.218 244.676C242.608 245.141 242.892 245.88 242.892 246.904H244.892ZM240.63 241.967C239.656 241.967 238.94 242.274 238.423 242.707C237.945 243.106 237.671 243.601 237.584 243.734L239.261 244.824C239.433 244.56 239.517 244.398 239.705 244.241C239.854 244.117 240.113 243.967 240.63 243.967V241.967ZM238.423 243.279H238.284V245.279H238.423V243.279ZM239.284 244.279V243.066H237.284V244.279H239.284ZM238.284 242.066H237.15V244.066H238.284V242.066ZM236.15 243.066V253.566H238.15V243.066H236.15ZM239.303 246.884C239.303 246.158 239.466 245.676 239.667 245.402C239.838 245.168 240.08 245.021 240.491 245.021V243.021C239.47 243.021 238.618 243.45 238.054 244.22C237.518 244.951 237.303 245.9 237.303 246.884H239.303ZM240.491 245.021C240.916 245.021 241.17 245.18 241.352 245.433C241.563 245.725 241.718 246.214 241.718 246.884H243.718C243.718 245.945 243.506 245.001 242.975 244.264C242.417 243.488 241.558 243.021 240.491 243.021V245.021ZM241.718 246.884C241.718 247.562 241.559 248.071 241.34 248.38C241.147 248.652 240.89 248.808 240.491 248.808V250.808C241.564 250.808 242.42 250.317 242.973 249.535C243.5 248.79 243.718 247.837 243.718 246.884H241.718ZM240.491 248.808C240.106 248.808 239.862 248.664 239.679 248.411C239.47 248.12 239.303 247.617 239.303 246.884H237.303C237.303 247.882 237.525 248.841 238.056 249.579C238.615 250.355 239.464 250.808 240.491 250.808V248.808Z" fill="#718EBF"/>
<path d="M306.824 245.612C306.824 242.39 304.935 240.382 302.33 240.382C299.724 240.382 297.835 242.39 297.835 245.612C297.835 248.833 299.724 250.842 302.33 250.842C304.935 250.842 306.824 248.833 306.824 245.612ZM305.631 245.612C305.631 248.257 304.179 249.688 302.33 249.688C300.48 249.688 299.028 248.257 299.028 245.612C299.028 242.967 300.48 241.535 302.33 241.535C304.179 241.535 305.631 242.967 305.631 245.612ZM311.84 250.862C313.531 250.862 314.644 249.828 314.843 248.475H313.67C313.451 249.311 312.755 249.808 311.84 249.808C310.448 249.808 309.553 248.654 309.553 246.884C309.553 245.154 310.468 244.021 311.84 244.021C312.874 244.021 313.491 244.657 313.67 245.353H314.843C314.644 243.921 313.431 242.967 311.82 242.967C309.752 242.967 308.38 244.598 308.38 246.924C308.38 249.211 309.692 250.862 311.84 250.862ZM319.879 243.066H318.249V241.237H317.075V243.066H315.922V244.061H317.075V248.833C317.075 250.166 318.149 250.802 319.143 250.802C319.581 250.802 319.859 250.723 320.018 250.663L319.78 249.609C319.68 249.629 319.521 249.669 319.263 249.669C318.746 249.669 318.249 249.509 318.249 248.515V244.061H319.879V243.066Z" fill="#718EBF"/>
<path d="M307.824 245.612C307.824 243.808 307.293 242.249 306.304 241.127C305.306 239.996 303.904 239.382 302.33 239.382V241.382C303.36 241.382 304.205 241.772 304.804 242.45C305.41 243.137 305.824 244.194 305.824 245.612H307.824ZM302.33 239.382C300.755 239.382 299.353 239.996 298.355 241.127C297.366 242.249 296.835 243.808 296.835 245.612H298.835C298.835 244.194 299.249 243.137 299.855 242.45C300.454 241.772 301.299 241.382 302.33 241.382V239.382ZM296.835 245.612C296.835 247.416 297.366 248.974 298.355 250.096C299.353 251.228 300.755 251.842 302.33 251.842V249.842C301.299 249.842 300.454 249.452 299.855 248.773C299.249 248.086 298.835 247.03 298.835 245.612H296.835ZM302.33 251.842C303.904 251.842 305.306 251.228 306.304 250.096C307.293 248.974 307.824 247.416 307.824 245.612H305.824C305.824 247.03 305.41 248.086 304.804 248.773C304.205 249.452 303.36 249.842 302.33 249.842V251.842ZM304.631 245.612C304.631 246.756 304.318 247.523 303.917 247.989C303.524 248.444 302.982 248.688 302.33 248.688V250.688C303.527 250.688 304.635 250.217 305.431 249.295C306.217 248.383 306.631 247.113 306.631 245.612H304.631ZM302.33 248.688C301.677 248.688 301.135 248.444 300.743 247.989C300.341 247.523 300.028 246.756 300.028 245.612H298.028C298.028 247.113 298.442 248.383 299.228 249.295C300.024 250.217 301.132 250.688 302.33 250.688V248.688ZM300.028 245.612C300.028 244.468 300.341 243.7 300.743 243.235C301.135 242.78 301.677 242.535 302.33 242.535V240.535C301.132 240.535 300.024 241.006 299.228 241.928C298.442 242.84 298.028 244.111 298.028 245.612H300.028ZM302.33 242.535C302.982 242.535 303.524 242.78 303.917 243.235C304.318 243.7 304.631 244.468 304.631 245.612H306.631C306.631 244.111 306.217 242.84 305.431 241.928C304.635 241.006 303.527 240.535 302.33 240.535V242.535ZM314.843 248.475L315.832 248.621L316.001 247.475H314.843V248.475ZM313.67 248.475V247.475H312.898L312.702 248.222L313.67 248.475ZM313.67 245.353L312.701 245.602L312.894 246.353H313.67V245.353ZM314.843 245.353V246.353H315.992L315.834 245.216L314.843 245.353ZM311.84 251.862C313.993 251.862 315.557 250.497 315.832 248.621L313.854 248.33C313.732 249.158 313.068 249.862 311.84 249.862V251.862ZM314.843 247.475H313.67V249.475H314.843V247.475ZM312.702 248.222C312.612 248.569 312.352 248.808 311.84 248.808V250.808C313.157 250.808 314.29 250.052 314.637 248.729L312.702 248.222ZM311.84 248.808C311.449 248.808 311.169 248.659 310.963 248.395C310.738 248.106 310.553 247.612 310.553 246.884H308.553C308.553 247.927 308.816 248.894 309.386 249.625C309.975 250.38 310.839 250.808 311.84 250.808V248.808ZM310.553 246.884C310.553 246.187 310.738 245.71 310.963 245.429C311.172 245.168 311.455 245.021 311.84 245.021V243.021C310.853 243.021 309.993 243.44 309.402 244.179C308.826 244.897 308.553 245.852 308.553 246.884H310.553ZM311.84 245.021C312.142 245.021 312.33 245.11 312.449 245.205C312.575 245.307 312.662 245.448 312.701 245.602L314.638 245.104C314.353 243.996 313.361 243.021 311.84 243.021V245.021ZM313.67 246.353H314.843V244.353H313.67V246.353ZM315.834 245.216C315.555 243.207 313.842 241.967 311.82 241.967V243.967C313.02 243.967 313.734 244.636 313.853 245.491L315.834 245.216ZM311.82 241.967C310.504 241.967 309.364 242.495 308.567 243.42C307.781 244.333 307.38 245.569 307.38 246.924H309.38C309.38 245.953 309.665 245.21 310.082 244.726C310.488 244.254 311.068 243.967 311.82 243.967V241.967ZM307.38 246.924C307.38 248.252 307.762 249.484 308.544 250.4C309.341 251.333 310.49 251.862 311.84 251.862V249.862C311.043 249.862 310.462 249.565 310.065 249.101C309.655 248.62 309.38 247.883 309.38 246.924H307.38ZM319.879 243.066H320.879V242.066H319.879V243.066ZM318.249 243.066H317.249V244.066H318.249V243.066ZM318.249 241.237H319.249V240.237H318.249V241.237ZM317.075 241.237V240.237H316.075V241.237H317.075ZM317.075 243.066V244.066H318.075V243.066H317.075ZM315.922 243.066V242.066H314.922V243.066H315.922ZM315.922 244.061H314.922V245.061H315.922V244.061ZM317.075 244.061H318.075V243.061H317.075V244.061ZM320.018 250.663L320.37 251.599L321.186 251.293L320.994 250.442L320.018 250.663ZM319.78 249.609L320.755 249.388L320.54 248.437L319.584 248.628L319.78 249.609ZM318.249 244.061V243.061H317.249V244.061H318.249ZM319.879 244.061V245.061H320.879V244.061H319.879ZM319.879 242.066H318.249V244.066H319.879V242.066ZM319.249 243.066V241.237H317.249V243.066H319.249ZM318.249 240.237H317.075V242.237H318.249V240.237ZM316.075 241.237V243.066H318.075V241.237H316.075ZM317.075 242.066H315.922V244.066H317.075V242.066ZM314.922 243.066V244.061H316.922V243.066H314.922ZM315.922 245.061H317.075V243.061H315.922V245.061ZM316.075 244.061V248.833H318.075V244.061H316.075ZM316.075 248.833C316.075 249.798 316.477 250.572 317.098 251.087C317.695 251.582 318.447 251.802 319.143 251.802V249.802C318.845 249.802 318.564 249.704 318.375 249.548C318.211 249.411 318.075 249.201 318.075 248.833H316.075ZM319.143 251.802C319.712 251.802 320.109 251.697 320.37 251.599L319.667 249.727C319.61 249.748 319.45 249.802 319.143 249.802V251.802ZM320.994 250.442L320.755 249.388L318.805 249.83L319.043 250.884L320.994 250.442ZM319.584 248.628C319.505 248.644 319.486 248.649 319.435 248.657C319.395 248.663 319.339 248.669 319.263 248.669V250.669C319.635 250.669 319.889 250.607 319.976 250.589L319.584 248.628ZM319.263 248.669C319.179 248.669 319.142 248.661 319.133 248.659C319.131 248.659 319.17 248.669 319.217 248.71C319.24 248.729 319.257 248.749 319.268 248.766C319.278 248.782 319.28 248.789 319.277 248.782C319.27 248.763 319.249 248.685 319.249 248.515H317.249C317.249 249.16 317.41 249.789 317.906 250.22C318.376 250.628 318.938 250.669 319.263 250.669V248.669ZM319.249 248.515V244.061H317.249V248.515H319.249ZM318.249 245.061H319.879V243.061H318.249V245.061ZM320.879 244.061V243.066H318.879V244.061H320.879Z" fill="#718EBF"/>
<path d="M385.307 240.521H384.094V248.535H383.994L378.426 240.521H377.233V250.703H378.466V242.708H378.565L384.114 250.703H385.307V240.521ZM390.717 250.862C392.785 250.862 394.177 249.291 394.177 246.924C394.177 244.538 392.785 242.967 390.717 242.967C388.649 242.967 387.257 244.538 387.257 246.924C387.257 249.291 388.649 250.862 390.717 250.862ZM390.717 249.808C389.146 249.808 388.43 248.455 388.43 246.924C388.43 245.393 389.146 244.021 390.717 244.021C392.288 244.021 393.004 245.393 393.004 246.924C393.004 248.455 392.288 249.808 390.717 249.808ZM401.939 243.066H400.667L398.559 249.152H398.479L396.371 243.066H395.098L397.922 250.703H399.115L401.939 243.066Z" fill="#718EBF"/>
<path d="M385.307 240.521H386.307V239.521H385.307V240.521ZM384.094 240.521V239.521H383.094V240.521H384.094ZM384.094 248.535V249.535H385.094V248.535H384.094ZM383.994 248.535L383.173 249.106L383.471 249.535H383.994V248.535ZM378.426 240.521L379.247 239.95L378.949 239.521H378.426V240.521ZM377.233 240.521V239.521H376.233V240.521H377.233ZM377.233 250.703H376.233V251.703H377.233V250.703ZM378.466 250.703V251.703H379.466V250.703H378.466ZM378.466 242.708V241.708H377.466V242.708H378.466ZM378.565 242.708L379.387 242.138L379.089 241.708H378.565V242.708ZM384.114 250.703L383.292 251.273L383.59 251.703H384.114V250.703ZM385.307 250.703V251.703H386.307V250.703H385.307ZM385.307 239.521H384.094V241.521H385.307V239.521ZM383.094 240.521V248.535H385.094V240.521H383.094ZM384.094 247.535H383.994V249.535H384.094V247.535ZM384.816 247.964L379.247 239.95L377.605 241.091L383.173 249.106L384.816 247.964ZM378.426 239.521H377.233V241.521H378.426V239.521ZM376.233 240.521V250.703H378.233V240.521H376.233ZM377.233 251.703H378.466V249.703H377.233V251.703ZM379.466 250.703V242.708H377.466V250.703H379.466ZM378.466 243.708H378.565V241.708H378.466V243.708ZM377.744 243.278L383.292 251.273L384.935 250.132L379.387 242.138L377.744 243.278ZM384.114 251.703H385.307V249.703H384.114V251.703ZM386.307 250.703V240.521H384.307V250.703H386.307ZM390.717 251.862C392.021 251.862 393.165 251.359 393.973 250.441C394.771 249.535 395.177 248.3 395.177 246.924H393.177C393.177 247.915 392.887 248.648 392.472 249.119C392.067 249.579 391.482 249.862 390.717 249.862V251.862ZM395.177 246.924C395.177 245.54 394.772 244.3 393.974 243.391C393.166 242.47 392.021 241.967 390.717 241.967V243.967C391.482 243.967 392.066 244.249 392.471 244.71C392.886 245.183 393.177 245.922 393.177 246.924H395.177ZM390.717 241.967C389.414 241.967 388.268 242.47 387.46 243.391C386.662 244.3 386.257 245.54 386.257 246.924H388.257C388.257 245.922 388.548 245.183 388.963 244.71C389.368 244.249 389.953 243.967 390.717 243.967V241.967ZM386.257 246.924C386.257 248.3 386.663 249.535 387.461 250.441C388.269 251.359 389.414 251.862 390.717 251.862V249.862C389.952 249.862 389.367 249.579 388.962 249.119C388.547 248.648 388.257 247.915 388.257 246.924H386.257ZM390.717 248.808C390.263 248.808 389.993 248.633 389.8 248.362C389.58 248.051 389.43 247.553 389.43 246.924H387.43C387.43 247.827 387.639 248.771 388.169 249.519C388.727 250.306 389.6 250.808 390.717 250.808V248.808ZM389.43 246.924C389.43 246.296 389.58 245.791 389.803 245.473C389.998 245.195 390.269 245.021 390.717 245.021V243.021C389.594 243.021 388.722 243.532 388.166 244.324C387.639 245.075 387.43 246.021 387.43 246.924H389.43ZM390.717 245.021C391.165 245.021 391.436 245.195 391.631 245.473C391.854 245.791 392.004 246.296 392.004 246.924H394.004C394.004 246.021 393.796 245.075 393.268 244.324C392.712 243.532 391.84 243.021 390.717 243.021V245.021ZM392.004 246.924C392.004 247.553 391.855 248.051 391.634 248.362C391.442 248.633 391.171 248.808 390.717 248.808V250.808C391.834 250.808 392.707 250.306 393.266 249.519C393.796 248.771 394.004 247.827 394.004 246.924H392.004ZM401.939 243.066L402.877 243.413L403.375 242.066H401.939V243.066ZM400.667 243.066V242.066H399.955L399.722 242.739L400.667 243.066ZM398.559 249.152V250.152H399.27L399.504 249.479L398.559 249.152ZM398.479 249.152L397.534 249.479L397.767 250.152H398.479V249.152ZM396.371 243.066L397.316 242.739L397.083 242.066H396.371V243.066ZM395.098 243.066V242.066H393.662L394.16 243.413L395.098 243.066ZM397.922 250.703L396.984 251.049L397.226 251.703H397.922V250.703ZM399.115 250.703V251.703H399.812L400.053 251.049L399.115 250.703ZM401.939 242.066H400.667V244.066H401.939V242.066ZM399.722 242.739L397.614 248.824L399.504 249.479L401.611 243.394L399.722 242.739ZM398.559 248.152H398.479V250.152H398.559V248.152ZM399.424 248.824L397.316 242.739L395.426 243.394L397.534 249.479L399.424 248.824ZM396.371 242.066H395.098V244.066H396.371V242.066ZM394.16 243.413L396.984 251.049L398.86 250.356L396.036 242.719L394.16 243.413ZM397.922 251.703H399.115V249.703H397.922V251.703ZM400.053 251.049L402.877 243.413L401.001 242.719L398.177 250.356L400.053 251.049Z" fill="#718EBF"/>
<path d="M458.375 251.04C461.477 251.04 463.227 249.111 463.227 245.929C463.227 242.767 461.477 240.858 458.514 240.858H455.233V251.04H458.375ZM456.466 249.946V241.951H458.435C460.821 241.951 462.034 243.463 462.034 245.929C462.034 248.415 460.821 249.946 458.295 249.946H456.466ZM468.338 251.199C469.889 251.199 471.023 250.423 471.381 249.27L470.247 248.951C469.949 249.747 469.258 250.145 468.338 250.145C466.961 250.145 466.011 249.255 465.957 247.619H471.5V247.122C471.5 244.278 469.81 243.304 468.219 243.304C466.151 243.304 464.778 244.934 464.778 247.281C464.778 249.628 466.131 251.199 468.338 251.199ZM465.957 246.605C466.036 245.417 466.876 244.358 468.219 244.358C469.491 244.358 470.307 245.312 470.307 246.605H465.957ZM476.387 251.199C478.077 251.199 479.191 250.165 479.39 248.812H478.217C477.998 249.648 477.302 250.145 476.387 250.145C474.995 250.145 474.1 248.991 474.1 247.221C474.1 245.491 475.015 244.358 476.387 244.358C477.421 244.358 478.038 244.994 478.217 245.69H479.39C479.191 244.258 477.978 243.304 476.367 243.304C474.299 243.304 472.927 244.934 472.927 247.261C472.927 249.548 474.239 251.199 476.387 251.199Z" fill="#718EBF"/>
<path d="M455.233 240.858V239.858H454.233V240.858H455.233ZM455.233 251.04H454.233V252.04H455.233V251.04ZM456.466 249.946H455.466V250.946H456.466V249.946ZM456.466 241.951V240.951H455.466V241.951H456.466ZM458.375 252.04C460.138 252.04 461.64 251.485 462.694 250.361C463.739 249.247 464.227 247.697 464.227 245.929H462.227C462.227 247.342 461.84 248.348 461.235 248.993C460.639 249.629 459.714 250.04 458.375 250.04V252.04ZM464.227 245.929C464.227 244.169 463.739 242.633 462.716 241.528C461.683 240.413 460.218 239.858 458.514 239.858V241.858C459.774 241.858 460.665 242.257 461.248 242.887C461.841 243.527 462.227 244.527 462.227 245.929H464.227ZM458.514 239.858H455.233V241.858H458.514V239.858ZM454.233 240.858V251.04H456.233V240.858H454.233ZM455.233 252.04H458.375V250.04H455.233V252.04ZM457.466 249.946V241.951H455.466V249.946H457.466ZM456.466 242.951H458.435V240.951H456.466V242.951ZM458.435 242.951C459.407 242.951 460.006 243.251 460.377 243.675C460.767 244.119 461.034 244.846 461.034 245.929H463.034C463.034 244.546 462.695 243.284 461.881 242.356C461.049 241.407 459.848 240.951 458.435 240.951V242.951ZM461.034 245.929C461.034 247.024 460.766 247.755 460.366 248.204C459.983 248.633 459.351 248.946 458.295 248.946V250.946C459.766 250.946 461.003 250.493 461.858 249.535C462.695 248.597 463.034 247.32 463.034 245.929H461.034ZM458.295 248.946H456.466V250.946H458.295V248.946ZM471.381 249.27L472.336 249.566L472.64 248.585L471.651 248.307L471.381 249.27ZM470.247 248.951L470.517 247.989L469.633 247.741L469.311 248.6L470.247 248.951ZM465.957 247.619V246.619H464.923L464.957 247.653L465.957 247.619ZM471.5 247.619V248.619H472.5V247.619H471.5ZM465.957 246.605L464.959 246.538L464.887 247.605H465.957V246.605ZM470.307 246.605V247.605H471.307V246.605H470.307ZM468.338 252.199C470.224 252.199 471.82 251.229 472.336 249.566L470.426 248.973C470.226 249.617 469.555 250.199 468.338 250.199V252.199ZM471.651 248.307L470.517 247.989L469.977 249.914L471.11 250.232L471.651 248.307ZM469.311 248.6C469.19 248.923 468.937 249.145 468.338 249.145V251.145C469.579 251.145 470.708 250.571 471.183 249.303L469.311 248.6ZM468.338 249.145C467.871 249.145 467.564 248.999 467.367 248.797C467.165 248.59 466.977 248.218 466.956 247.586L464.957 247.653C464.991 248.656 465.305 249.547 465.936 250.193C466.571 250.845 467.428 251.145 468.338 251.145V249.145ZM465.957 248.619H471.5V246.619H465.957V248.619ZM472.5 247.619V247.122H470.5V247.619H472.5ZM472.5 247.122C472.5 245.497 472.011 244.257 471.15 243.426C470.301 242.608 469.209 242.304 468.219 242.304V244.304C468.819 244.304 469.368 244.487 469.762 244.866C470.144 245.234 470.5 245.904 470.5 247.122H472.5ZM468.219 242.304C466.902 242.304 465.762 242.832 464.964 243.761C464.178 244.677 463.778 245.918 463.778 247.281H465.778C465.778 246.298 466.065 245.549 466.482 245.064C466.887 244.591 467.467 244.304 468.219 244.304V242.304ZM463.778 247.281C463.778 248.642 464.172 249.878 464.985 250.787C465.81 251.708 466.983 252.199 468.338 252.199V250.199C467.486 250.199 466.879 249.904 466.476 249.453C466.061 248.99 465.778 248.267 465.778 247.281H463.778ZM466.954 246.672C467.007 245.886 467.518 245.358 468.219 245.358V243.358C466.235 243.358 465.065 244.948 464.959 246.538L466.954 246.672ZM468.219 245.358C468.59 245.358 468.837 245.489 468.999 245.668C469.17 245.857 469.307 246.167 469.307 246.605H471.307C471.307 245.75 471.036 244.937 470.481 244.325C469.917 243.703 469.12 243.358 468.219 243.358V245.358ZM470.307 245.605H465.957V247.605H470.307V245.605ZM479.39 248.812L480.379 248.958L480.548 247.812H479.39V248.812ZM478.217 248.812V247.812H477.445L477.249 248.559L478.217 248.812ZM478.217 245.69L477.248 245.939L477.441 246.69H478.217V245.69ZM479.39 245.69V246.69H480.538L480.38 245.553L479.39 245.69ZM476.387 252.199C478.54 252.199 480.103 250.834 480.379 248.958L478.401 248.667C478.279 249.495 477.615 250.199 476.387 250.199V252.199ZM479.39 247.812H478.217V249.812H479.39V247.812ZM477.249 248.559C477.158 248.906 476.899 249.145 476.387 249.145V251.145C477.704 251.145 478.837 250.389 479.184 249.066L477.249 248.559ZM476.387 249.145C475.996 249.145 475.716 248.996 475.51 248.731C475.285 248.443 475.1 247.949 475.1 247.221H473.1C473.1 248.264 473.363 249.231 473.933 249.962C474.522 250.717 475.386 251.145 476.387 251.145V249.145ZM475.1 247.221C475.1 246.524 475.285 246.046 475.51 245.766C475.718 245.505 476.002 245.358 476.387 245.358V243.358C475.4 243.358 474.54 243.777 473.949 244.516C473.373 245.234 473.1 246.189 473.1 247.221H475.1ZM476.387 245.358C476.689 245.358 476.877 245.447 476.996 245.542C477.122 245.643 477.209 245.785 477.248 245.939L479.185 245.441C478.9 244.333 477.908 243.358 476.387 243.358V245.358ZM478.217 246.69H479.39V244.69H478.217V246.69ZM480.38 245.553C480.101 243.544 478.389 242.304 476.367 242.304V244.304C477.567 244.304 478.281 244.973 478.399 245.828L480.38 245.553ZM476.367 242.304C475.051 242.304 473.911 242.832 473.114 243.757C472.327 244.67 471.927 245.906 471.927 247.261H473.927C473.927 246.29 474.212 245.547 474.629 245.062C475.035 244.591 475.615 244.304 476.367 244.304V242.304ZM471.927 247.261C471.927 248.589 472.309 249.821 473.091 250.737C473.888 251.67 475.037 252.199 476.387 252.199V250.199C475.59 250.199 475.008 249.902 474.612 249.438C474.201 248.957 473.927 248.22 473.927 247.261H471.927Z" fill="#718EBF"/>
<path d="M537.131 240.521V247.799C537.131 249.067 536.524 249.748 535.46 249.748C534.491 249.748 533.79 249.181 533.79 248.316H532.577C532.577 249.882 533.79 250.842 535.46 250.842C537.23 250.842 538.364 249.753 538.364 247.799V240.521H537.131ZM542.923 250.882C544.255 250.882 544.951 250.166 545.19 249.669H545.249V250.703H546.423V245.671C546.423 243.245 544.573 242.967 543.599 242.967C542.445 242.967 541.133 243.365 540.536 244.757L541.65 245.154C541.908 244.598 542.52 244.001 543.638 244.001C544.717 244.001 545.249 244.573 545.249 245.552V245.592C545.249 246.159 544.673 246.109 543.281 246.288C541.864 246.472 540.317 246.785 540.317 248.535C540.317 250.027 541.471 250.882 542.923 250.882ZM543.102 249.828C542.167 249.828 541.491 249.41 541.491 248.595C541.491 247.7 542.306 247.421 543.221 247.302C543.718 247.242 545.05 247.103 545.249 246.865V247.938C545.249 248.893 544.494 249.828 543.102 249.828ZM549.737 246.109C549.737 244.777 550.563 244.021 551.686 244.021C552.775 244.021 553.436 244.732 553.436 245.93V250.703H554.61V245.85C554.61 243.902 553.57 242.967 552.024 242.967C550.871 242.967 550.155 243.484 549.797 244.259H549.698V243.066H548.564V250.703H549.737V246.109Z" fill="#718EBF"/>
<path d="M537.131 240.521V239.521H536.131V240.521H537.131ZM533.79 248.316H534.79V247.316H533.79V248.316ZM532.577 248.316V247.316H531.577V248.316H532.577ZM538.364 240.521H539.364V239.521H538.364V240.521ZM536.131 240.521V247.799H538.131V240.521H536.131ZM536.131 247.799C536.131 248.288 536.013 248.509 535.938 248.595C535.884 248.658 535.769 248.748 535.46 248.748V250.748C536.215 250.748 536.936 250.498 537.45 249.904C537.945 249.332 538.131 248.578 538.131 247.799H536.131ZM535.46 248.748C535.165 248.748 534.989 248.662 534.906 248.592C534.837 248.534 534.79 248.457 534.79 248.316H532.79C532.79 249.041 533.093 249.68 533.617 250.121C534.127 250.551 534.786 250.748 535.46 250.748V248.748ZM533.79 247.316H532.577V249.316H533.79V247.316ZM531.577 248.316C531.577 249.379 531.998 250.293 532.744 250.928C533.473 251.548 534.44 251.842 535.46 251.842V249.842C534.81 249.842 534.335 249.655 534.04 249.405C533.762 249.168 533.577 248.82 533.577 248.316H531.577ZM535.46 251.842C536.552 251.842 537.559 251.502 538.291 250.752C539.021 250.005 539.364 248.968 539.364 247.799H537.364C537.364 248.584 537.139 249.069 536.86 249.354C536.584 249.638 536.138 249.842 535.46 249.842V251.842ZM539.364 247.799V240.521H537.364V247.799H539.364ZM538.364 239.521H537.131V241.521H538.364V239.521ZM545.19 249.669V248.669H544.56L544.288 249.236L545.19 249.669ZM545.249 249.669H546.249V248.669H545.249V249.669ZM545.249 250.703H544.249V251.703H545.249V250.703ZM546.423 250.703V251.703H547.423V250.703H546.423ZM540.536 244.757L539.617 244.363L539.198 245.341L540.2 245.698L540.536 244.757ZM541.65 245.154L541.314 246.096L542.173 246.403L542.557 245.575L541.65 245.154ZM543.281 246.288L543.153 245.296L543.152 245.296L543.281 246.288ZM543.221 247.302L543.102 246.309L543.092 246.31L543.221 247.302ZM545.249 246.865H546.249V244.103L544.481 246.224L545.249 246.865ZM542.923 251.882C544.664 251.882 545.697 250.923 546.091 250.101L544.288 249.236C544.205 249.408 543.846 249.882 542.923 249.882V251.882ZM545.19 250.669H545.249V248.669H545.19V250.669ZM544.249 249.669V250.703H546.249V249.669H544.249ZM545.249 251.703H546.423V249.703H545.249V251.703ZM547.423 250.703V245.671H545.423V250.703H547.423ZM547.423 245.671C547.423 244.159 546.82 243.144 545.914 242.566C545.088 242.039 544.149 241.967 543.599 241.967V243.967C544.023 243.967 544.496 244.034 544.838 244.252C545.101 244.42 545.423 244.758 545.423 245.671H547.423ZM543.599 241.967C542.253 241.967 540.439 242.444 539.617 244.363L541.455 245.151C541.826 244.285 542.638 243.967 543.599 243.967V241.967ZM540.2 245.698L541.314 246.096L541.986 244.213L540.873 243.815L540.2 245.698ZM542.557 245.575C542.618 245.443 542.723 245.304 542.88 245.198C543.03 245.098 543.266 245.001 543.638 245.001V243.001C542.093 243.001 541.149 243.859 540.743 244.733L542.557 245.575ZM543.638 245.001C544.009 245.001 544.122 245.097 544.145 245.12C544.166 245.141 544.249 245.237 544.249 245.552H546.249C546.249 244.887 546.066 244.208 545.552 243.699C545.039 243.191 544.347 243.001 543.638 243.001V245.001ZM544.249 245.552V245.592H546.249V245.552H544.249ZM544.249 245.592C544.249 245.552 544.266 245.376 544.421 245.217C544.538 245.097 544.638 245.091 544.541 245.116C544.454 245.138 544.312 245.16 544.059 245.19C543.829 245.217 543.506 245.251 543.153 245.296L543.408 247.28C543.751 247.236 544.022 247.208 544.292 247.176C544.539 247.147 544.802 247.113 545.033 247.055C545.254 246.998 545.585 246.888 545.854 246.612C546.16 246.298 546.249 245.915 546.249 245.592H544.249ZM543.152 245.296C542.459 245.386 541.53 245.525 540.774 245.955C540.375 246.181 539.997 246.502 539.724 246.957C539.449 247.414 539.317 247.945 539.317 248.535H541.317C541.317 248.25 541.379 248.086 541.439 247.986C541.5 247.885 541.597 247.787 541.761 247.694C542.132 247.483 542.686 247.373 543.409 247.28L543.152 245.296ZM539.317 248.535C539.317 249.561 539.725 250.43 540.427 251.029C541.112 251.612 542.008 251.882 542.923 251.882V249.882C542.386 249.882 541.979 249.724 541.724 249.506C541.487 249.304 541.317 249.001 541.317 248.535H539.317ZM543.102 248.828C542.765 248.828 542.592 248.75 542.531 248.706C542.518 248.696 542.511 248.689 542.508 248.686C542.505 248.683 542.504 248.681 542.503 248.679C542.503 248.679 542.491 248.657 542.491 248.595H540.491C540.491 249.318 540.81 249.93 541.36 250.328C541.871 250.696 542.503 250.828 543.102 250.828V248.828ZM542.491 248.595C542.491 248.529 542.504 248.523 542.494 248.54C542.486 248.553 542.488 248.539 542.538 248.509C542.667 248.429 542.922 248.35 543.35 248.294L543.092 246.31C542.605 246.374 541.995 246.493 541.488 246.807C540.906 247.165 540.491 247.765 540.491 248.595H542.491ZM543.34 248.295C543.573 248.267 544.064 248.214 544.516 248.136C544.741 248.097 544.986 248.048 545.202 247.984C545.309 247.952 545.433 247.91 545.554 247.853C545.654 247.806 545.853 247.702 546.018 247.505L544.481 246.224C544.546 246.147 544.607 246.102 544.637 246.081C544.67 246.059 544.692 246.048 544.697 246.046C544.705 246.042 544.688 246.051 544.635 246.066C544.529 246.097 544.373 246.131 544.178 246.165C543.79 246.231 543.366 246.277 543.102 246.309L543.34 248.295ZM544.249 246.865V247.938H546.249V246.865H544.249ZM544.249 247.938C544.249 248.152 544.165 248.364 544 248.524C543.843 248.677 543.565 248.828 543.102 248.828V250.828C545.02 250.828 546.249 249.471 546.249 247.938H544.249ZM553.436 250.703H552.436V251.703H553.436V250.703ZM554.61 250.703V251.703H555.61V250.703H554.61ZM549.797 244.259V245.259H550.437L550.705 244.679L549.797 244.259ZM549.698 244.259H548.698V245.259H549.698V244.259ZM549.698 243.066H550.698V242.066H549.698V243.066ZM548.564 243.066V242.066H547.564V243.066H548.564ZM548.564 250.703H547.564V251.703H548.564V250.703ZM549.737 250.703V251.703H550.737V250.703H549.737ZM550.737 246.109C550.737 245.652 550.875 245.398 551.006 245.264C551.138 245.129 551.353 245.021 551.686 245.021V243.021C550.896 243.021 550.137 243.291 549.575 243.867C549.013 244.443 548.737 245.233 548.737 246.109H550.737ZM551.686 245.021C552.005 245.021 552.155 245.118 552.234 245.203C552.322 245.299 552.436 245.509 552.436 245.93H554.436C554.436 245.153 554.22 244.408 553.705 243.849C553.181 243.279 552.456 243.021 551.686 243.021V245.021ZM552.436 245.93V250.703H554.436V245.93H552.436ZM553.436 251.703H554.61V249.703H553.436V251.703ZM555.61 250.703V245.85H553.61V250.703H555.61ZM555.61 245.85C555.61 244.705 555.302 243.706 554.622 242.989C553.936 242.266 553 241.967 552.024 241.967V243.967C552.595 243.967 552.952 244.135 553.171 244.366C553.397 244.604 553.61 245.047 553.61 245.85H555.61ZM552.024 241.967C551.296 241.967 550.64 242.131 550.089 242.47C549.535 242.811 549.141 243.294 548.889 243.84L550.705 244.679C550.811 244.449 550.954 244.286 551.136 244.174C551.32 244.061 551.599 243.967 552.024 243.967V241.967ZM549.797 243.259H549.698V245.259H549.797V243.259ZM550.698 244.259V243.066H548.698V244.259H550.698ZM549.698 242.066H548.564V244.066H549.698V242.066ZM547.564 243.066V250.703H549.564V243.066H547.564ZM548.564 251.703H549.737V249.703H548.564V251.703ZM550.737 250.703V246.109H548.737V250.703H550.737Z" fill="#718EBF"/>
<path d="M63 232.679V227.981" stroke="#718EBF"/>
<path d="M141 232.679V227.981" stroke="#718EBF"/>
<path d="M219 232.679V227.981" stroke="#718EBF"/>
<path d="M297 232.679V227.981" stroke="#718EBF"/>
<path d="M376 232.679V227.981" stroke="#718EBF"/>
<path d="M454 232.679V227.981" stroke="#718EBF"/>
<path d="M532 232.679V227.981" stroke="#718EBF"/>
<path d="M56 226.891H62.3985" stroke="#718EBF"/>
<path d="M43.7157 231.56C45.6418 231.56 46.7498 229.927 46.7498 227.077C46.7498 224.247 45.6248 222.594 43.7157 222.594C41.8066 222.594 40.6816 224.247 40.6816 227.077C40.6816 229.927 41.7896 231.56 43.7157 231.56ZM43.7157 230.622C42.4458 230.622 41.7043 229.348 41.7043 227.077C41.7043 224.81 42.4543 223.514 43.7157 223.514C44.9771 223.514 45.7271 224.81 45.7271 227.077C45.7271 229.348 44.9856 230.622 43.7157 230.622Z" fill="#718EBF"/>
<path d="M43.7157 232.56C45.0066 232.56 46.077 231.99 46.783 230.948C47.4554 229.955 47.7498 228.609 47.7498 227.077H45.7498C45.7498 228.394 45.4902 229.29 45.1271 229.826C44.7976 230.313 44.3509 230.56 43.7157 230.56V232.56ZM47.7498 227.077C47.7498 225.55 47.4495 224.206 46.7764 223.213C46.0721 222.174 45.0048 221.594 43.7157 221.594V223.594C44.3357 223.594 44.7854 223.84 45.1209 224.335C45.4876 224.876 45.7498 225.774 45.7498 227.077H47.7498ZM43.7157 221.594C42.4266 221.594 41.3593 222.174 40.655 223.213C39.9819 224.206 39.6816 225.55 39.6816 227.077H41.6816C41.6816 225.774 41.9438 224.876 42.3105 224.335C42.646 223.84 43.0957 223.594 43.7157 223.594V221.594ZM39.6816 227.077C39.6816 228.609 39.976 229.955 40.6484 230.948C41.3544 231.99 42.4248 232.56 43.7157 232.56V230.56C43.0805 230.56 42.6338 230.313 42.3043 229.826C41.9412 229.29 41.6816 228.394 41.6816 227.077H39.6816ZM43.7157 229.622C43.4881 229.622 43.2936 229.54 43.1021 229.205C42.88 228.816 42.7043 228.128 42.7043 227.077H40.7043C40.7043 228.296 40.8994 229.381 41.3655 230.197C41.8622 231.067 42.6734 231.622 43.7157 231.622V229.622ZM42.7043 227.077C42.7043 226.03 42.8813 225.335 43.1064 224.939C43.3034 224.593 43.5008 224.514 43.7157 224.514V222.514C42.6692 222.514 41.861 223.083 41.3676 223.951C40.9023 224.77 40.7043 225.856 40.7043 227.077H42.7043ZM43.7157 224.514C43.9306 224.514 44.128 224.593 44.325 224.939C44.5501 225.335 44.7271 226.03 44.7271 227.077H46.7271C46.7271 225.856 46.529 224.77 46.0638 223.951C45.5704 223.083 44.7622 222.514 43.7157 222.514V224.514ZM44.7271 227.077C44.7271 228.128 44.5514 228.816 44.3292 229.205C44.1377 229.54 43.9433 229.622 43.7157 229.622V231.622C44.758 231.622 45.5692 231.067 46.0659 230.197C46.532 229.381 46.7271 228.296 46.7271 227.077H44.7271Z" fill="#718EBF"/>
<path d="M56.6504 176.488H63.0001" stroke="#718EBF"/>
<path d="M25.8576 181.293H31.8221V180.277H27.4272V180.203L29.5508 177.932C31.1758 176.192 31.6559 175.379 31.6559 174.331C31.6559 172.873 30.4741 171.709 28.8121 171.709C27.1548 171.709 25.8945 172.836 25.8945 174.498H26.984C26.984 173.422 27.6811 172.706 28.7752 172.706C29.8001 172.706 30.5849 173.334 30.5849 174.331C30.5849 175.204 30.0724 175.85 28.9783 177.046L25.8576 180.462V181.293ZM36.8125 181.422C38.8991 181.422 40.0994 179.654 40.0994 176.566C40.0994 173.5 38.8807 171.709 36.8125 171.709C34.7443 171.709 33.5256 173.5 33.5256 176.566C33.5256 179.654 34.7259 181.422 36.8125 181.422ZM36.8125 180.407C35.4368 180.407 34.6335 179.026 34.6335 176.566C34.6335 174.11 35.446 172.706 36.8125 172.706C38.179 172.706 38.9915 174.11 38.9915 176.566C38.9915 179.026 38.1882 180.407 36.8125 180.407ZM44.9375 181.422C47.0241 181.422 48.2244 179.654 48.2244 176.566C48.2244 173.5 47.0057 171.709 44.9375 171.709C42.8693 171.709 41.6506 173.5 41.6506 176.566C41.6506 179.654 42.8509 181.422 44.9375 181.422ZM44.9375 180.407C43.5618 180.407 42.7585 179.026 42.7585 176.566C42.7585 174.11 43.571 172.706 44.9375 172.706C46.304 172.706 47.1165 174.11 47.1165 176.566C47.1165 179.026 46.3132 180.407 44.9375 180.407Z" fill="#718EBF"/>
<path d="M25.8576 181.293H24.8576V182.293H25.8576V181.293ZM31.8221 181.293V182.293H32.8221V181.293H31.8221ZM31.8221 180.277H32.8221V179.277H31.8221V180.277ZM27.4272 180.277H26.4272V181.277H27.4272V180.277ZM27.4272 180.203L26.6967 179.521L26.4272 179.809V180.203H27.4272ZM29.5508 177.932L30.2812 178.615L30.2817 178.615L29.5508 177.932ZM25.8945 174.498H24.8945V175.498H25.8945V174.498ZM26.984 174.498V175.498H27.984V174.498H26.984ZM28.9783 177.046L28.2406 176.371L28.24 176.371L28.9783 177.046ZM25.8576 180.462L25.1193 179.788L24.8576 180.074V180.462H25.8576ZM25.8576 182.293H31.8221V180.293H25.8576V182.293ZM32.8221 181.293V180.277H30.8221V181.293H32.8221ZM31.8221 179.277H27.4272V181.277H31.8221V179.277ZM28.4272 180.277V180.203H26.4272V180.277H28.4272ZM28.1577 180.886L30.2812 178.615L28.8203 177.249L26.6967 179.521L28.1577 180.886ZM30.2817 178.615C31.8998 176.882 32.6559 175.81 32.6559 174.331H30.6559C30.6559 174.949 30.4518 175.502 28.8199 177.25L30.2817 178.615ZM32.6559 174.331C32.6559 172.263 30.9675 170.709 28.8121 170.709V172.709C29.9806 172.709 30.6559 173.482 30.6559 174.331H32.6559ZM28.8121 170.709C26.6648 170.709 24.8945 172.223 24.8945 174.498H26.8945C26.8945 173.448 27.6448 172.709 28.8121 172.709V170.709ZM25.8945 175.498H26.984V173.498H25.8945V175.498ZM27.984 174.498C27.984 174.179 28.0831 174 28.179 173.903C28.2738 173.808 28.4512 173.706 28.7752 173.706V171.706C28.0051 171.706 27.2869 171.963 26.7596 172.494C26.2335 173.024 25.984 173.74 25.984 174.498H27.984ZM28.7752 173.706C29.0881 173.706 29.2953 173.801 29.4087 173.9C29.5088 173.987 29.5849 174.115 29.5849 174.331H31.5849C31.5849 173.55 31.2686 172.866 30.72 172.39C30.1848 171.925 29.4872 171.706 28.7752 171.706V173.706ZM29.5849 174.331C29.5849 174.749 29.396 175.108 28.2406 176.371L29.7161 177.721C30.7489 176.592 31.5849 175.659 31.5849 174.331H29.5849ZM28.24 176.371L25.1193 179.788L26.5959 181.136L29.7167 177.72L28.24 176.371ZM24.8576 180.462V181.293H26.8576V180.462H24.8576ZM36.8125 182.422C38.1837 182.422 39.3173 181.819 40.0664 180.713C40.782 179.656 41.0994 178.217 41.0994 176.566H39.0994C39.0994 178.002 38.8167 178.992 38.4105 179.591C38.0378 180.142 37.5279 180.422 36.8125 180.422V182.422ZM41.0994 176.566C41.0994 174.921 40.7757 173.484 40.0593 172.427C39.3117 171.324 38.1812 170.709 36.8125 170.709V172.709C37.512 172.709 38.025 172.99 38.4038 173.549C38.8138 174.154 39.0994 175.145 39.0994 176.566H41.0994ZM36.8125 170.709C35.4438 170.709 34.3133 171.324 33.5657 172.427C32.8493 173.484 32.5256 174.921 32.5256 176.566H34.5256C34.5256 175.145 34.8112 174.154 35.2212 173.549C35.6 172.99 36.113 172.709 36.8125 172.709V170.709ZM32.5256 176.566C32.5256 178.217 32.843 179.656 33.5586 180.713C34.3077 181.819 35.4413 182.422 36.8125 182.422V180.422C36.0971 180.422 35.5872 180.142 35.2145 179.591C34.8083 178.992 34.5256 178.002 34.5256 176.566H32.5256ZM36.8125 179.407C36.532 179.407 36.2956 179.298 36.0755 178.913C35.8246 178.474 35.6335 177.712 35.6335 176.566H33.6335C33.6335 177.88 33.8441 179.039 34.3388 179.905C34.8642 180.825 35.7173 181.407 36.8125 181.407V179.407ZM35.6335 176.566C35.6335 175.424 35.8261 174.656 36.08 174.209C36.3057 173.812 36.5451 173.706 36.8125 173.706V171.706C35.7135 171.706 34.8633 172.302 34.3412 173.221C33.8472 174.09 33.6335 175.251 33.6335 176.566H35.6335ZM36.8125 173.706C37.0799 173.706 37.3193 173.812 37.5451 174.209C37.7989 174.656 37.9915 175.424 37.9915 176.566H39.9915C39.9915 175.251 39.7778 174.09 39.2838 173.221C38.7617 172.302 37.9115 171.706 36.8125 171.706V173.706ZM37.9915 176.566C37.9915 177.712 37.8004 178.474 37.5495 178.913C37.3294 179.298 37.093 179.407 36.8125 179.407V181.407C37.9077 181.407 38.7608 180.825 39.2862 179.905C39.7809 179.039 39.9915 177.88 39.9915 176.566H37.9915ZM44.9375 182.422C46.3087 182.422 47.4423 181.819 48.1914 180.713C48.907 179.656 49.2244 178.217 49.2244 176.566H47.2244C47.2244 178.002 46.9417 178.992 46.5355 179.591C46.1628 180.142 45.6529 180.422 44.9375 180.422V182.422ZM49.2244 176.566C49.2244 174.921 48.9007 173.484 48.1843 172.427C47.4367 171.324 46.3062 170.709 44.9375 170.709V172.709C45.637 172.709 46.15 172.99 46.5288 173.549C46.9388 174.154 47.2244 175.145 47.2244 176.566H49.2244ZM44.9375 170.709C43.5688 170.709 42.4383 171.324 41.6907 172.427C40.9743 173.484 40.6506 174.921 40.6506 176.566H42.6506C42.6506 175.145 42.9362 174.154 43.3462 173.549C43.725 172.99 44.238 172.709 44.9375 172.709V170.709ZM40.6506 176.566C40.6506 178.217 40.968 179.656 41.6836 180.713C42.4327 181.819 43.5663 182.422 44.9375 182.422V180.422C44.2221 180.422 43.7122 180.142 43.3395 179.591C42.9333 178.992 42.6506 178.002 42.6506 176.566H40.6506ZM44.9375 179.407C44.657 179.407 44.4206 179.298 44.2005 178.913C43.9496 178.474 43.7585 177.712 43.7585 176.566H41.7585C41.7585 177.88 41.9691 179.039 42.4638 179.905C42.9892 180.825 43.8423 181.407 44.9375 181.407V179.407ZM43.7585 176.566C43.7585 175.424 43.9511 174.656 44.205 174.209C44.4307 173.812 44.6701 173.706 44.9375 173.706V171.706C43.8385 171.706 42.9883 172.302 42.4662 173.221C41.9722 174.09 41.7585 175.251 41.7585 176.566H43.7585ZM44.9375 173.706C45.2049 173.706 45.4443 173.812 45.6701 174.209C45.9239 174.656 46.1165 175.424 46.1165 176.566H48.1165C48.1165 175.251 47.9028 174.09 47.4088 173.221C46.8867 172.302 46.0365 171.706 44.9375 171.706V173.706ZM46.1165 176.566C46.1165 177.712 45.9254 178.474 45.6745 178.913C45.4544 179.298 45.218 179.407 44.9375 179.407V181.407C46.0327 181.407 46.8858 180.825 47.4112 179.905C47.9059 179.039 48.1165 177.88 48.1165 176.566H46.1165Z" fill="#718EBF"/>
<path d="M56.6504 126.771H63.0001" stroke="#718EBF"/>
<path d="M24.7429 129.207H29.1932V131.146H30.2827V129.207H31.5753V128.191H30.2827V121.691H28.8978L24.7429 128.265V129.207ZM29.1932 128.191H25.9802V128.117L29.1194 123.15H29.1932V128.191ZM36.3892 131.275C38.4758 131.275 39.6761 129.507 39.6761 126.418C39.6761 123.353 38.4573 121.562 36.3892 121.562C34.321 121.562 33.1022 123.353 33.1022 126.418C33.1022 129.507 34.3025 131.275 36.3892 131.275ZM36.3892 130.259C35.0134 130.259 34.2102 128.879 34.2102 126.418C34.2102 123.963 35.0227 122.559 36.3892 122.559C37.7556 122.559 38.5681 123.963 38.5681 126.418C38.5681 128.879 37.7649 130.259 36.3892 130.259ZM44.5142 131.275C46.6008 131.275 47.8011 129.507 47.8011 126.418C47.8011 123.353 46.5823 121.562 44.5142 121.562C42.446 121.562 41.2272 123.353 41.2272 126.418C41.2272 129.507 42.4275 131.275 44.5142 131.275ZM44.5142 130.259C43.1384 130.259 42.3352 128.879 42.3352 126.418C42.3352 123.963 43.1477 122.559 44.5142 122.559C45.8806 122.559 46.6931 123.963 46.6931 126.418C46.6931 128.879 45.8899 130.259 44.5142 130.259Z" fill="#718EBF"/>
<path d="M24.7429 129.207H23.7429V130.207H24.7429V129.207ZM29.1932 129.207H30.1932V128.207H29.1932V129.207ZM29.1932 131.146H28.1932V132.146H29.1932V131.146ZM30.2827 131.146V132.146H31.2827V131.146H30.2827ZM30.2827 129.207V128.207H29.2827V129.207H30.2827ZM31.5753 129.207V130.207H32.5753V129.207H31.5753ZM31.5753 128.191H32.5753V127.191H31.5753V128.191ZM30.2827 128.191H29.2827V129.191H30.2827V128.191ZM30.2827 121.691H31.2827V120.691H30.2827V121.691ZM28.8978 121.691V120.691H28.3468L28.0525 121.157L28.8978 121.691ZM24.7429 128.265L23.8976 127.731L23.7429 127.976V128.265H24.7429ZM29.1932 128.191V129.191H30.1932V128.191H29.1932ZM25.9802 128.191H24.9802V129.191H25.9802V128.191ZM25.9802 128.117L25.1348 127.583L24.9802 127.828V128.117H25.9802ZM29.1194 123.15V122.15H28.5684L28.274 122.616L29.1194 123.15ZM29.1932 123.15H30.1932V122.15H29.1932V123.15ZM24.7429 130.207H29.1932V128.207H24.7429V130.207ZM28.1932 129.207V131.146H30.1932V129.207H28.1932ZM29.1932 132.146H30.2827V130.146H29.1932V132.146ZM31.2827 131.146V129.207H29.2827V131.146H31.2827ZM30.2827 130.207H31.5753V128.207H30.2827V130.207ZM32.5753 129.207V128.191H30.5753V129.207H32.5753ZM31.5753 127.191H30.2827V129.191H31.5753V127.191ZM31.2827 128.191V121.691H29.2827V128.191H31.2827ZM30.2827 120.691H28.8978V122.691H30.2827V120.691ZM28.0525 121.157L23.8976 127.731L25.5883 128.799L29.7431 122.225L28.0525 121.157ZM23.7429 128.265V129.207H25.7429V128.265H23.7429ZM29.1932 127.191H25.9802V129.191H29.1932V127.191ZM26.9802 128.191V128.117H24.9802V128.191H26.9802ZM26.8255 128.652L29.9647 123.684L28.274 122.616L25.1348 127.583L26.8255 128.652ZM29.1194 124.15H29.1932V122.15H29.1194V124.15ZM28.1932 123.15V128.191H30.1932V123.15H28.1932ZM36.3892 132.275C37.7604 132.275 38.894 131.672 39.6431 130.566C40.3586 129.509 40.6761 128.07 40.6761 126.418H38.6761C38.6761 127.855 38.3934 128.844 37.9872 129.444C37.6145 129.994 37.1046 130.275 36.3892 130.275V132.275ZM40.6761 126.418C40.6761 124.774 40.3524 123.337 39.636 122.28C38.8883 121.177 37.7578 120.562 36.3892 120.562V122.562C37.0887 122.562 37.6016 122.843 37.9804 123.402C38.3904 124.007 38.6761 124.998 38.6761 126.418H40.6761ZM36.3892 120.562C35.0205 120.562 33.89 121.177 33.1423 122.28C32.4259 123.337 32.1022 124.774 32.1022 126.418H34.1022C34.1022 124.998 34.3879 124.007 34.7979 123.402C35.1767 122.843 35.6896 122.562 36.3892 122.562V120.562ZM32.1022 126.418C32.1022 128.07 32.4197 129.509 33.1353 130.566C33.8844 131.672 35.018 132.275 36.3892 132.275V130.275C35.6737 130.275 35.1638 129.994 34.7911 129.444C34.3849 128.844 34.1022 127.855 34.1022 126.418H32.1022ZM36.3892 129.259C36.1087 129.259 35.8723 129.151 35.6521 128.766C35.4013 128.327 35.2102 127.565 35.2102 126.418H33.2102C33.2102 127.733 33.4207 128.891 33.9154 129.758C34.4408 130.677 35.2939 131.259 36.3892 131.259V129.259ZM35.2102 126.418C35.2102 125.277 35.4028 124.508 35.6566 124.062C35.8824 123.665 36.1217 123.559 36.3892 123.559V121.559C35.2901 121.559 34.44 122.155 33.9179 123.074C33.4238 123.943 33.2102 125.104 33.2102 126.418H35.2102ZM36.3892 123.559C36.6566 123.559 36.8959 123.665 37.1217 124.062C37.3755 124.508 37.5681 125.277 37.5681 126.418H39.5681C39.5681 125.104 39.3545 123.943 38.8604 123.074C38.3384 122.155 37.4882 121.559 36.3892 121.559V123.559ZM37.5681 126.418C37.5681 127.565 37.377 128.327 37.1262 128.766C36.906 129.151 36.6696 129.259 36.3892 129.259V131.259C37.4844 131.259 38.3375 130.677 38.8629 129.758C39.3576 128.891 39.5681 127.733 39.5681 126.418H37.5681ZM44.5142 132.275C45.8854 132.275 47.019 131.672 47.7681 130.566C48.4836 129.509 48.8011 128.07 48.8011 126.418H46.8011C46.8011 127.855 46.5184 128.844 46.1122 129.444C45.7395 129.994 45.2296 130.275 44.5142 130.275V132.275ZM48.8011 126.418C48.8011 124.774 48.4774 123.337 47.761 122.28C47.0133 121.177 45.8828 120.562 44.5142 120.562V122.562C45.2137 122.562 45.7266 122.843 46.1054 123.402C46.5154 124.007 46.8011 124.998 46.8011 126.418H48.8011ZM44.5142 120.562C43.1455 120.562 42.015 121.177 41.2673 122.28C40.5509 123.337 40.2272 124.774 40.2272 126.418H42.2272C42.2272 124.998 42.5129 124.007 42.9229 123.402C43.3017 122.843 43.8146 122.562 44.5142 122.562V120.562ZM40.2272 126.418C40.2272 128.07 40.5447 129.509 41.2603 130.566C42.0094 131.672 43.143 132.275 44.5142 132.275V130.275C43.7987 130.275 43.2888 129.994 42.9161 129.444C42.5099 128.844 42.2272 127.855 42.2272 126.418H40.2272ZM44.5142 129.259C44.2337 129.259 43.9973 129.151 43.7771 128.766C43.5263 128.327 43.3352 127.565 43.3352 126.418H41.3352C41.3352 127.733 41.5457 128.891 42.0404 129.758C42.5658 130.677 43.4189 131.259 44.5142 131.259V129.259ZM43.3352 126.418C43.3352 125.277 43.5278 124.508 43.7816 124.062C44.0074 123.665 44.2467 123.559 44.5142 123.559V121.559C43.4151 121.559 42.565 122.155 42.0429 123.074C41.5488 123.943 41.3352 125.104 41.3352 126.418H43.3352ZM44.5142 123.559C44.7816 123.559 45.0209 123.665 45.2467 124.062C45.5005 124.508 45.6931 125.277 45.6931 126.418H47.6931C47.6931 125.104 47.4795 123.943 46.9854 123.074C46.4634 122.155 45.6132 121.559 44.5142 121.559V123.559ZM45.6931 126.418C45.6931 127.565 45.502 128.327 45.2512 128.766C45.031 129.151 44.7946 129.259 44.5142 129.259V131.259C45.6094 131.259 46.4625 130.677 46.9879 129.758C47.4826 128.891 47.6931 127.733 47.6931 126.418H45.6931Z" fill="#718EBF"/>
<path d="M56.6504 75.5336H63.0001" stroke="#718EBF"/>
<path d="M28.3323 80.0377C30.2435 80.0608 31.4899 78.6205 31.4899 76.8616C31.4899 75.0334 30.1373 73.7224 28.5169 73.7224C27.5428 73.7224 26.7073 74.1979 26.1902 74.978H26.1163C26.121 72.6744 27.0166 71.3403 28.48 71.3403C29.4771 71.3403 30.0773 71.9681 30.2896 72.8175H31.4161C31.1852 71.3495 30.068 70.3246 28.48 70.3246C26.3518 70.3246 25.0453 72.2082 25.0453 75.5505C25.0453 79.0452 26.7811 80.0192 28.3323 80.0377ZM28.3323 79.0221C27.1458 79.0221 26.2779 78.0111 26.2825 76.88C26.2872 75.749 27.1966 74.738 28.3692 74.738C29.5279 74.738 30.382 75.689 30.382 76.8616C30.382 78.0619 29.491 79.0221 28.3323 79.0221ZM36.3892 80.0377C38.4758 80.0377 39.6761 78.2696 39.6761 75.1812C39.6761 72.1158 38.4573 70.3246 36.3892 70.3246C34.321 70.3246 33.1022 72.1158 33.1022 75.1812C33.1022 78.2696 34.3025 80.0377 36.3892 80.0377ZM36.3892 79.0221C35.0134 79.0221 34.2102 77.6418 34.2102 75.1812C34.2102 72.7252 35.0227 71.3218 36.3892 71.3218C37.7556 71.3218 38.5681 72.7252 38.5681 75.1812C38.5681 77.6418 37.7649 79.0221 36.3892 79.0221ZM44.5142 80.0377C46.6008 80.0377 47.8011 78.2696 47.8011 75.1812C47.8011 72.1158 46.5823 70.3246 44.5142 70.3246C42.446 70.3246 41.2272 72.1158 41.2272 75.1812C41.2272 78.2696 42.4275 80.0377 44.5142 80.0377ZM44.5142 79.0221C43.1384 79.0221 42.3352 77.6418 42.3352 75.1812C42.3352 72.7252 43.1477 71.3218 44.5142 71.3218C45.8806 71.3218 46.6931 72.7252 46.6931 75.1812C46.6931 77.6418 45.8899 79.0221 44.5142 79.0221Z" fill="#718EBF"/>
<path d="M28.3323 80.0377L28.3443 79.0378L28.3442 79.0378L28.3323 80.0377ZM26.1902 74.978V75.978H26.7272L27.0238 75.5305L26.1902 74.978ZM26.1163 74.978L25.1163 74.976L25.1143 75.978H26.1163V74.978ZM30.2896 72.8175L29.3195 73.0601L29.5089 73.8175H30.2896V72.8175ZM31.4161 72.8175V73.8175H32.5856L32.4039 72.6622L31.4161 72.8175ZM26.2825 76.88L25.2825 76.876L26.2825 76.88ZM28.3202 81.0376C30.8436 81.0681 32.4899 79.1205 32.4899 76.8616H30.4899C30.4899 78.1204 29.6433 79.0535 28.3443 79.0378L28.3202 81.0376ZM32.4899 76.8616C32.4899 74.5081 30.7162 72.7224 28.5169 72.7224V74.7224C29.5584 74.7224 30.4899 75.5588 30.4899 76.8616H32.4899ZM28.5169 72.7224C27.1953 72.7224 26.0521 73.3762 25.3566 74.4256L27.0238 75.5305C27.3624 75.0195 27.8903 74.7224 28.5169 74.7224V72.7224ZM26.1902 73.978H26.1163V75.978H26.1902V73.978ZM27.1163 74.9801C27.1184 73.9368 27.3252 73.2435 27.5874 72.8435C27.8201 72.4886 28.1033 72.3403 28.48 72.3403V70.3403C27.3932 70.3403 26.4969 70.859 25.9148 71.7471C25.3622 72.5901 25.1189 73.7156 25.1163 74.976L27.1163 74.9801ZM28.48 72.3403C28.7548 72.3403 28.9154 72.4211 29.0212 72.5135C29.1381 72.6156 29.252 72.7901 29.3195 73.0601L31.2598 72.575C31.1149 71.9956 30.8225 71.4314 30.337 71.0073C29.8403 70.5734 29.2023 70.3403 28.48 70.3403V72.3403ZM30.2896 73.8175H31.4161V71.8175H30.2896V73.8175ZM32.4039 72.6622C32.0986 70.7206 30.5732 69.3246 28.48 69.3246V71.3246C29.5629 71.3246 30.2718 71.9783 30.4282 72.9729L32.4039 72.6622ZM28.48 69.3246C27.0729 69.3246 25.9059 69.9698 25.1326 71.1294C24.3901 72.2428 24.0453 73.7699 24.0453 75.5505H26.0453C26.0453 73.9888 26.3538 72.9029 26.7965 72.239C27.2086 71.6212 27.7588 71.3246 28.48 71.3246V69.3246ZM24.0453 75.5505C24.0453 77.4537 24.5187 78.8478 25.3711 79.7746C26.2298 80.7083 27.3423 81.026 28.3203 81.0376L28.3442 79.0378C27.771 79.031 27.2401 78.8524 26.8432 78.4207C26.4399 77.9823 26.0453 77.1419 26.0453 75.5505H24.0453ZM28.3323 78.0221C27.7678 78.0221 27.2799 77.5319 27.2825 76.8841L25.2825 76.876C25.276 78.4902 26.5238 80.0221 28.3323 80.0221V78.0221ZM27.2825 76.8841C27.2851 76.2512 27.7984 75.738 28.3692 75.738V73.738C26.5948 73.738 25.2892 75.2468 25.2825 76.876L27.2825 76.8841ZM28.3692 75.738C28.9109 75.738 29.382 76.1742 29.382 76.8616H31.382C31.382 75.2037 30.1449 73.738 28.3692 73.738V75.738ZM29.382 76.8616C29.382 77.5664 28.8836 78.0221 28.3323 78.0221V80.0221C30.0984 80.0221 31.382 78.5573 31.382 76.8616H29.382ZM36.3892 81.0377C37.7604 81.0377 38.894 80.4343 39.6431 79.3284C40.3586 78.272 40.6761 76.8329 40.6761 75.1812H38.6761C38.6761 76.6179 38.3934 77.6071 37.9872 78.2068C37.6145 78.757 37.1046 79.0377 36.3892 79.0377V81.0377ZM40.6761 75.1812C40.6761 73.5367 40.3524 72.0994 39.636 71.0424C38.8883 69.9393 37.7578 69.3246 36.3892 69.3246V71.3246C37.0887 71.3246 37.6016 71.6056 37.9804 72.1645C38.3904 72.7694 38.6761 73.7603 38.6761 75.1812H40.6761ZM36.3892 69.3246C35.0205 69.3246 33.89 69.9393 33.1423 71.0424C32.4259 72.0994 32.1022 73.5367 32.1022 75.1812H34.1022C34.1022 73.7603 34.3879 72.7694 34.7979 72.1645C35.1767 71.6056 35.6896 71.3246 36.3892 71.3246V69.3246ZM32.1022 75.1812C32.1022 76.8329 32.4197 78.272 33.1353 79.3284C33.8844 80.4343 35.018 81.0377 36.3892 81.0377V79.0377C35.6737 79.0377 35.1638 78.757 34.7911 78.2068C34.3849 77.6071 34.1022 76.6179 34.1022 75.1812H32.1022ZM36.3892 78.0221C36.1087 78.0221 35.8723 77.9139 35.6521 77.5284C35.4013 77.0892 35.2102 76.3272 35.2102 75.1812H33.2102C33.2102 76.4957 33.4207 77.6542 33.9154 78.5203C34.4408 79.4402 35.2939 80.0221 36.3892 80.0221V78.0221ZM35.2102 75.1812C35.2102 74.0398 35.4028 73.2712 35.6566 72.8247C35.8824 72.4274 36.1217 72.3218 36.3892 72.3218V70.3218C35.2901 70.3218 34.44 70.9179 33.9179 71.8363C33.4238 72.7055 33.2102 73.8665 33.2102 75.1812H35.2102ZM36.3892 72.3218C36.6566 72.3218 36.8959 72.4274 37.1217 72.8247C37.3755 73.2712 37.5681 74.0398 37.5681 75.1812H39.5681C39.5681 73.8665 39.3545 72.7055 38.8604 71.8363C38.3384 70.9179 37.4882 70.3218 36.3892 70.3218V72.3218ZM37.5681 75.1812C37.5681 76.3272 37.377 77.0892 37.1262 77.5284C36.906 77.9139 36.6696 78.0221 36.3892 78.0221V80.0221C37.4844 80.0221 38.3375 79.4402 38.8629 78.5203C39.3576 77.6542 39.5681 76.4957 39.5681 75.1812H37.5681ZM44.5142 81.0377C45.8854 81.0377 47.019 80.4343 47.7681 79.3284C48.4836 78.272 48.8011 76.8329 48.8011 75.1812H46.8011C46.8011 76.6179 46.5184 77.6071 46.1122 78.2068C45.7395 78.757 45.2296 79.0377 44.5142 79.0377V81.0377ZM48.8011 75.1812C48.8011 73.5367 48.4774 72.0994 47.761 71.0424C47.0133 69.9393 45.8828 69.3246 44.5142 69.3246V71.3246C45.2137 71.3246 45.7266 71.6056 46.1054 72.1645C46.5154 72.7694 46.8011 73.7603 46.8011 75.1812H48.8011ZM44.5142 69.3246C43.1455 69.3246 42.015 69.9393 41.2673 71.0424C40.5509 72.0994 40.2272 73.5367 40.2272 75.1812H42.2272C42.2272 73.7603 42.5129 72.7694 42.9229 72.1645C43.3017 71.6056 43.8146 71.3246 44.5142 71.3246V69.3246ZM40.2272 75.1812C40.2272 76.8329 40.5447 78.272 41.2603 79.3284C42.0094 80.4343 43.143 81.0377 44.5142 81.0377V79.0377C43.7987 79.0377 43.2888 78.757 42.9161 78.2068C42.5099 77.6071 42.2272 76.6179 42.2272 75.1812H40.2272ZM44.5142 78.0221C44.2337 78.0221 43.9973 77.9139 43.7771 77.5284C43.5263 77.0892 43.3352 76.3272 43.3352 75.1812H41.3352C41.3352 76.4957 41.5457 77.6542 42.0404 78.5203C42.5658 79.4402 43.4189 80.0221 44.5142 80.0221V78.0221ZM43.3352 75.1812C43.3352 74.0398 43.5278 73.2712 43.7816 72.8247C44.0074 72.4274 44.2467 72.3218 44.5142 72.3218V70.3218C43.4151 70.3218 42.565 70.9179 42.0429 71.8363C41.5488 72.7055 41.3352 73.8665 41.3352 75.1812H43.3352ZM44.5142 72.3218C44.7816 72.3218 45.0209 72.4274 45.2467 72.8247C45.5005 73.2712 45.6931 74.0398 45.6931 75.1812H47.6931C47.6931 73.8665 47.4795 72.7055 46.9854 71.8363C46.4634 70.9179 45.6132 70.3218 44.5142 70.3218V72.3218ZM45.6931 75.1812C45.6931 76.3272 45.502 77.0892 45.2512 77.5284C45.031 77.9139 44.7946 78.0221 44.5142 78.0221V80.0221C45.6094 80.0221 46.4625 79.4402 46.9879 78.5203C47.4826 77.6542 47.6931 76.4957 47.6931 75.1812H45.6931Z" fill="#718EBF"/>
<path d="M56.6504 25.3864H63.0001" stroke="#718EBF"/>
<path d="M28.323 29.8905C30.2112 29.8905 31.5269 28.7872 31.5361 27.2499C31.5269 26.0542 30.7282 25.0386 29.708 24.8493V24.7939C30.5943 24.5631 31.176 23.6952 31.1852 22.6888C31.176 21.2484 29.9665 20.1774 28.323 20.1774C26.6611 20.1774 25.4516 21.2484 25.4608 22.6888C25.4516 23.6952 26.0332 24.5631 26.9381 24.7939V24.8493C25.8994 25.0386 25.1007 26.0542 25.11 27.2499C25.1007 28.7872 26.4164 29.8905 28.323 29.8905ZM28.323 28.8749C27.0258 28.8749 26.2271 28.2101 26.2364 27.1945C26.2271 26.1281 27.1089 25.3663 28.323 25.3663C29.5187 25.3663 30.4004 26.1281 30.4097 27.1945C30.4004 28.2101 29.6018 28.8749 28.323 28.8749ZM28.323 24.3877C27.2889 24.3877 26.5595 23.7413 26.5688 22.7627C26.5595 21.8024 27.2612 21.1746 28.323 21.1746C29.3663 21.1746 30.068 21.8024 30.0773 22.7627C30.068 23.7413 29.3386 24.3877 28.323 24.3877ZM36.3892 29.8905C38.4758 29.8905 39.6761 28.1224 39.6761 25.034C39.6761 21.9686 38.4573 20.1774 36.3892 20.1774C34.321 20.1774 33.1022 21.9686 33.1022 25.034C33.1022 28.1224 34.3025 29.8905 36.3892 29.8905ZM36.3892 28.8749C35.0134 28.8749 34.2102 27.4945 34.2102 25.034C34.2102 22.578 35.0227 21.1746 36.3892 21.1746C37.7556 21.1746 38.5681 22.578 38.5681 25.034C38.5681 27.4945 37.7649 28.8749 36.3892 28.8749ZM44.5142 29.8905C46.6008 29.8905 47.8011 28.1224 47.8011 25.034C47.8011 21.9686 46.5823 20.1774 44.5142 20.1774C42.446 20.1774 41.2272 21.9686 41.2272 25.034C41.2272 28.1224 42.4275 29.8905 44.5142 29.8905ZM44.5142 28.8749C43.1384 28.8749 42.3352 27.4945 42.3352 25.034C42.3352 22.578 43.1477 21.1746 44.5142 21.1746C45.8806 21.1746 46.6931 22.578 46.6931 25.034C46.6931 27.4945 45.8899 28.8749 44.5142 28.8749Z" fill="#718EBF"/>
<path d="M31.5361 27.2499L32.5362 27.2559L32.5361 27.2421L31.5361 27.2499ZM29.708 24.8493H28.708V25.6808L29.5256 25.8325L29.708 24.8493ZM29.708 24.7939L29.456 23.8262L28.708 24.021V24.7939H29.708ZM31.1852 22.6888L32.1852 22.698L32.1853 22.6902L32.1852 22.6824L31.1852 22.6888ZM25.4608 22.6888L26.4608 22.698L26.4608 22.6902L26.4608 22.6824L25.4608 22.6888ZM26.9381 24.7939H27.9381V24.017L27.1853 23.8249L26.9381 24.7939ZM26.9381 24.8493L27.1173 25.8331L27.9381 25.6835V24.8493H26.9381ZM25.11 27.2499L26.11 27.2559L26.1099 27.2421L25.11 27.2499ZM26.2364 27.1945L27.2363 27.2036L27.2364 27.1947L27.2363 27.1858L26.2364 27.1945ZM30.4097 27.1945L31.4096 27.2036L31.4097 27.1947L31.4096 27.1858L30.4097 27.1945ZM26.5688 22.7627L27.5687 22.7721L27.5688 22.7626L27.5687 22.753L26.5688 22.7627ZM30.0773 22.7627L31.0772 22.7721L31.0773 22.7626L31.0772 22.753L30.0773 22.7627ZM28.323 30.8905C30.5812 30.8905 32.5225 29.5071 32.5361 27.2559L30.5361 27.2439C30.5312 28.0672 29.8411 28.8905 28.323 28.8905V30.8905ZM32.5361 27.2421C32.5237 25.642 31.4512 24.1556 29.8904 23.8661L29.5256 25.8325C30.0052 25.9215 30.53 26.4664 30.5361 27.2576L32.5361 27.2421ZM30.708 24.8493V24.7939H28.708V24.8493H30.708ZM29.96 25.7616C31.3726 25.3938 32.1727 24.0571 32.1852 22.698L30.1853 22.6796C30.1793 23.3333 29.8161 23.7324 29.456 23.8262L29.96 25.7616ZM32.1852 22.6824C32.1718 20.5818 30.3989 19.1774 28.323 19.1774V21.1774C29.5341 21.1774 30.1803 21.9151 30.1853 22.6952L32.1852 22.6824ZM28.323 19.1774C26.2373 19.1774 24.4473 20.5776 24.4608 22.6952L26.4608 22.6824C26.4559 21.9193 27.0849 21.1774 28.323 21.1774V19.1774ZM24.4608 22.6796C24.4482 24.0587 25.2601 25.3979 26.6909 25.7629L27.1853 23.8249C26.8064 23.7283 26.4549 23.3317 26.4608 22.698L24.4608 22.6796ZM25.9381 24.7939V24.8493H27.9381V24.7939H25.9381ZM26.7588 23.8655C25.1817 24.1529 24.0975 25.6398 24.11 27.2576L26.1099 27.2421C26.1039 26.4686 26.617 25.9243 27.1173 25.8331L26.7588 23.8655ZM24.11 27.2439C24.1035 28.3223 24.5708 29.2642 25.3609 29.9174C26.1382 30.56 27.1822 30.8905 28.323 30.8905V28.8905C27.5572 28.8905 26.9901 28.6693 26.6352 28.3759C26.2931 28.0931 26.1072 27.7147 26.1099 27.2559L24.11 27.2439ZM28.323 27.8749C27.8348 27.8749 27.5556 27.7493 27.4205 27.6395C27.3079 27.548 27.2343 27.4229 27.2363 27.2036L25.2364 27.1854C25.2292 27.9816 25.5503 28.6967 26.159 29.1915C26.7453 29.668 27.5141 29.8749 28.323 29.8749V27.8749ZM27.2363 27.1858C27.2331 26.807 27.5228 26.3663 28.323 26.3663V24.3663C26.695 24.3663 25.2212 25.4491 25.2364 27.2031L27.2363 27.1858ZM28.323 26.3663C29.0931 26.3663 29.4062 26.8012 29.4097 27.2031L31.4096 27.1858C31.3946 25.4549 29.9443 24.3663 28.323 24.3663V26.3663ZM29.4097 27.1854C29.4077 27.4108 29.3294 27.5438 29.2117 27.6395C29.0742 27.7513 28.798 27.8749 28.323 27.8749V29.8749C29.1268 29.8749 29.8893 29.666 30.4732 29.1915C31.0767 28.7009 31.4024 27.9938 31.4096 27.2036L29.4097 27.1854ZM28.323 23.3877C28.0126 23.3877 27.8261 23.2925 27.7295 23.2042C27.6421 23.1243 27.5666 22.9963 27.5687 22.7721L25.5688 22.7532C25.5617 23.5077 25.8462 24.1922 26.3798 24.6801C26.9042 25.1596 27.5994 25.3877 28.323 25.3877V23.3877ZM27.5687 22.753C27.5666 22.5332 27.6384 22.4193 27.7141 22.351C27.801 22.2727 27.9857 22.1746 28.323 22.1746V20.1746C27.5985 20.1746 26.9015 20.3904 26.3744 20.8661C25.8361 21.3517 25.5617 22.0318 25.5688 22.7723L27.5687 22.753ZM28.323 22.1746C28.6459 22.1746 28.828 22.2697 28.918 22.351C28.9993 22.4243 29.0752 22.5466 29.0773 22.7723L31.0772 22.753C31.0702 22.0185 30.7905 21.3467 30.2578 20.8661C29.7339 20.3933 29.0434 20.1746 28.323 20.1746V22.1746ZM29.0773 22.7532C29.0752 22.9833 28.9954 23.1194 28.9027 23.2042C28.8028 23.2956 28.619 23.3877 28.323 23.3877V25.3877C29.0427 25.3877 29.7314 25.1566 30.2524 24.6801C30.7806 24.1971 31.0702 23.5207 31.0772 22.7721L29.0773 22.7532ZM36.3892 30.8905C37.7604 30.8905 38.894 30.2871 39.6431 29.1812C40.3586 28.1248 40.6761 26.6857 40.6761 25.034H38.6761C38.6761 26.4707 38.3934 27.4598 37.9872 28.0596C37.6145 28.6098 37.1046 28.8905 36.3892 28.8905V30.8905ZM40.6761 25.034C40.6761 23.3895 40.3524 21.9521 39.636 20.8951C38.8883 19.7921 37.7578 19.1774 36.3892 19.1774V21.1774C37.0887 21.1774 37.6016 21.4584 37.9804 22.0172C38.3904 22.6222 38.6761 23.6131 38.6761 25.034H40.6761ZM36.3892 19.1774C35.0205 19.1774 33.89 19.7921 33.1423 20.8951C32.4259 21.9521 32.1022 23.3895 32.1022 25.034H34.1022C34.1022 23.6131 34.3879 22.6222 34.7979 22.0172C35.1767 21.4584 35.6896 21.1774 36.3892 21.1774V19.1774ZM32.1022 25.034C32.1022 26.6857 32.4197 28.1248 33.1353 29.1812C33.8844 30.2871 35.018 30.8905 36.3892 30.8905V28.8905C35.6737 28.8905 35.1638 28.6098 34.7911 28.0596C34.3849 27.4598 34.1022 26.4707 34.1022 25.034H32.1022ZM36.3892 27.8749C36.1087 27.8749 35.8723 27.7666 35.6521 27.3812C35.4013 26.942 35.2102 26.18 35.2102 25.034H33.2102C33.2102 26.3485 33.4207 27.507 33.9154 28.3731C34.4408 29.2929 35.2939 29.8749 36.3892 29.8749V27.8749ZM35.2102 25.034C35.2102 23.8926 35.4028 23.124 35.6566 22.6774C35.8824 22.2802 36.1217 22.1746 36.3892 22.1746V20.1746C35.2901 20.1746 34.44 20.7706 33.9179 21.6891C33.4238 22.5583 33.2102 23.7193 33.2102 25.034H35.2102ZM36.3892 22.1746C36.6566 22.1746 36.8959 22.2802 37.1217 22.6774C37.3755 23.124 37.5681 23.8926 37.5681 25.034H39.5681C39.5681 23.7193 39.3545 22.5583 38.8604 21.6891C38.3384 20.7706 37.4882 20.1746 36.3892 20.1746V22.1746ZM37.5681 25.034C37.5681 26.18 37.377 26.942 37.1262 27.3812C36.906 27.7666 36.6696 27.8749 36.3892 27.8749V29.8749C37.4844 29.8749 38.3375 29.2929 38.8629 28.3731C39.3576 27.507 39.5681 26.3485 39.5681 25.034H37.5681ZM44.5142 30.8905C45.8854 30.8905 47.019 30.2871 47.7681 29.1812C48.4836 28.1248 48.8011 26.6857 48.8011 25.034H46.8011C46.8011 26.4707 46.5184 27.4598 46.1122 28.0596C45.7395 28.6098 45.2296 28.8905 44.5142 28.8905V30.8905ZM48.8011 25.034C48.8011 23.3895 48.4774 21.9521 47.761 20.8951C47.0133 19.7921 45.8828 19.1774 44.5142 19.1774V21.1774C45.2137 21.1774 45.7266 21.4584 46.1054 22.0172C46.5154 22.6222 46.8011 23.6131 46.8011 25.034H48.8011ZM44.5142 19.1774C43.1455 19.1774 42.015 19.7921 41.2673 20.8951C40.5509 21.9521 40.2272 23.3895 40.2272 25.034H42.2272C42.2272 23.6131 42.5129 22.6222 42.9229 22.0172C43.3017 21.4584 43.8146 21.1774 44.5142 21.1774V19.1774ZM40.2272 25.034C40.2272 26.6857 40.5447 28.1248 41.2603 29.1812C42.0094 30.2871 43.143 30.8905 44.5142 30.8905V28.8905C43.7987 28.8905 43.2888 28.6098 42.9161 28.0596C42.5099 27.4598 42.2272 26.4707 42.2272 25.034H40.2272ZM44.5142 27.8749C44.2337 27.8749 43.9973 27.7666 43.7771 27.3812C43.5263 26.942 43.3352 26.18 43.3352 25.034H41.3352C41.3352 26.3485 41.5457 27.507 42.0404 28.3731C42.5658 29.2929 43.4189 29.8749 44.5142 29.8749V27.8749ZM43.3352 25.034C43.3352 23.8926 43.5278 23.124 43.7816 22.6774C44.0074 22.2802 44.2467 22.1746 44.5142 22.1746V20.1746C43.4151 20.1746 42.565 20.7706 42.0429 21.6891C41.5488 22.5583 41.3352 23.7193 41.3352 25.034H43.3352ZM44.5142 22.1746C44.7816 22.1746 45.0209 22.2802 45.2467 22.6774C45.5005 23.124 45.6931 23.8926 45.6931 25.034H47.6931C47.6931 23.7193 47.4795 22.5583 46.9854 21.6891C46.4634 20.7706 45.6132 20.1746 44.5142 20.1746V22.1746ZM45.6931 25.034C45.6931 26.18 45.502 26.942 45.2512 27.3812C45.031 27.7666 44.7946 27.8749 44.5142 27.8749V29.8749C45.6094 29.8749 46.4625 29.2929 46.9879 28.3731C47.4826 27.507 47.6931 26.3485 47.6931 25.034H45.6931Z" fill="#718EBF"/>
<path d="M63 226.891H610" stroke="#DFE5EE" stroke-dasharray="4 4"/>
<path d="M63 176.471H610" stroke="#DFE5EE" stroke-dasharray="4 4"/>
<path d="M63 126.052H610" stroke="#DFE5EE" stroke-dasharray="4 4"/>
<path d="M63 75.6323H610" stroke="#DFE5EE" stroke-dasharray="4 4"/>
<path d="M63 25.212H610" stroke="#DFE5EE" stroke-dasharray="4 4"/>
<path d="M63 25.2122V226.891" stroke="#DFE5EE" stroke-dasharray="4 4"/>
<path d="M141.143 25.212V226.891" stroke="#DFE5EE" stroke-dasharray="4 4"/>
<path d="M219.285 25.212V226.891" stroke="#DFE5EE" stroke-dasharray="4 4"/>
<path d="M297.428 25.212V226.891" stroke="#DFE5EE" stroke-dasharray="4 4"/>
<path d="M375.57 25.212V226.891" stroke="#DFE5EE" stroke-dasharray="4 4"/>
<path d="M453.715 25.212V226.891" stroke="#DFE5EE" stroke-dasharray="4 4"/>
<path d="M531.857 25.212V226.891" stroke="#DFE5EE" stroke-dasharray="4 4"/>
<path d="M609.9 25.212V226.891" stroke="#EFF3F9"/>
<path d="M100.708 128.378C82.0925 136.009 74.4555 160.49 63 176.069V197.007H610V68.2873C605.227 68.2873 587.089 53.5031 570.383 60.1798C553.677 66.8565 548.904 145.07 520.265 147.931C491.627 150.793 478.262 71.1488 443.418 74.0102C408.574 76.8716 417.166 150.548 384.709 153.177C352.251 155.807 325.045 23.4577 296.406 28.7037C267.767 33.9497 266.812 93.0866 250.584 102.148C234.355 111.209 219.558 89.2713 202.853 93.5635C186.147 97.8557 179.464 145.07 162.281 146.977C145.098 148.885 119.323 120.747 100.708 128.378Z" fill="url(#paint0_linear_406_5267)" fill-opacity="0.5"/>
<path d="M63 176.069C74.4555 160.49 82.0925 136.009 100.708 128.378C119.323 120.747 145.098 148.885 162.281 146.977C179.464 145.07 186.147 97.8557 202.853 93.5635C219.558 89.2713 234.355 111.209 250.584 102.148C266.812 93.0866 267.767 33.9497 296.406 28.7037C325.044 23.4577 352.251 155.807 384.709 153.177C417.166 150.548 408.574 76.8716 443.418 74.0102C478.262 71.1488 491.627 150.793 520.265 147.931C548.904 145.07 553.677 66.8565 570.383 60.1798C587.089 53.5031 605.227 68.2873 610 68.2873" stroke="#2D60FF" stroke-width="3"/>
<defs>
<linearGradient id="paint0_linear_406_5267" x1="336.5" y1="28.5518" x2="336.5" y2="197.007" gradientUnits="userSpaceOnUse">
<stop stop-color="#2D60FF" stop-opacity="0.5"/>
<stop offset="1" stop-color="#2D60FF" stop-opacity="0"/>
</linearGradient>
</defs>
</svg>
