<svg width="730" height="322" viewBox="0 0 730 322" fill="none" xmlns="http://www.w3.org/2000/svg">
<rect width="730" height="322" rx="25" fill="white"/>
<rect x="69" y="76" width="631" height="1" fill="#F3F3F5"/>
<rect x="69" y="113" width="631" height="1" fill="#F3F3F5"/>
<rect x="69" y="150" width="631" height="1" fill="#F3F3F5"/>
<rect x="69" y="187" width="631" height="1" fill="#F3F3F5"/>
<rect x="69" y="224" width="631" height="1" fill="#F3F3F5"/>
<rect x="69" y="261" width="631" height="1" fill="#F3F3F5"/>
<path d="M111.646 283.909H112.754C112.704 282.483 111.388 281.416 109.56 281.416C107.75 281.416 106.328 282.469 106.328 284.057C106.328 285.331 107.252 286.088 108.729 286.513L109.892 286.845C110.889 287.122 111.776 287.473 111.776 288.415C111.776 289.449 110.778 290.132 109.467 290.132C108.341 290.132 107.344 289.634 107.252 288.562H106.07C106.18 290.114 107.436 291.166 109.467 291.166C111.646 291.166 112.884 289.966 112.884 288.433C112.884 286.661 111.203 286.088 110.225 285.83L109.264 285.571C108.563 285.386 107.436 285.017 107.436 284.001C107.436 283.097 108.267 282.432 109.523 282.432C110.668 282.432 111.536 282.977 111.646 283.909ZM116.705 291.166C117.942 291.166 118.588 290.501 118.81 290.04H118.865V291H119.955V286.328C119.955 284.075 118.238 283.817 117.333 283.817C116.262 283.817 115.043 284.186 114.489 285.479L115.523 285.848C115.763 285.331 116.331 284.777 117.37 284.777C118.371 284.777 118.865 285.308 118.865 286.217V286.254C118.865 286.781 118.33 286.734 117.037 286.901C115.722 287.071 114.286 287.362 114.286 288.987C114.286 290.372 115.357 291.166 116.705 291.166ZM116.871 290.188C116.003 290.188 115.375 289.8 115.375 289.043C115.375 288.212 116.132 287.953 116.982 287.842C117.444 287.787 118.681 287.658 118.865 287.436V288.433C118.865 289.32 118.164 290.188 116.871 290.188ZM125.027 283.909H123.513V282.21H122.424V283.909H121.353V284.832H122.424V289.264C122.424 290.501 123.421 291.092 124.344 291.092C124.75 291.092 125.009 291.018 125.157 290.963L124.935 289.984C124.843 290.003 124.695 290.04 124.455 290.04C123.975 290.04 123.513 289.892 123.513 288.969V284.832H125.027V283.909Z" fill="#718EBF"/>
<path d="M199.591 283.909H200.699C200.648 282.483 199.333 281.416 197.505 281.416C195.695 281.416 194.273 282.469 194.273 284.057C194.273 285.331 195.196 286.088 196.674 286.513L197.837 286.845C198.834 287.122 199.72 287.473 199.72 288.415C199.72 289.449 198.723 290.132 197.412 290.132C196.286 290.132 195.289 289.634 195.196 288.562H194.015C194.125 290.114 195.381 291.166 197.412 291.166C199.591 291.166 200.828 289.966 200.828 288.433C200.828 286.661 199.148 286.088 198.169 285.83L197.209 285.571C196.507 285.386 195.381 285.017 195.381 284.001C195.381 283.097 196.212 282.432 197.468 282.432C198.613 282.432 199.48 282.977 199.591 283.909ZM207.032 288.101C207.032 289.43 206.016 290.04 205.204 290.04C204.299 290.04 203.653 289.375 203.653 288.341V283.909H202.563V288.415C202.563 290.224 203.523 291.092 204.853 291.092C205.924 291.092 206.626 290.52 206.958 289.8H207.032V291H208.121V283.909H207.032V288.101ZM211.206 286.734C211.206 285.497 211.973 284.795 213.016 284.795C214.027 284.795 214.641 285.456 214.641 286.568V291H215.73V286.494C215.73 284.685 214.766 283.817 213.33 283.817C212.259 283.817 211.594 284.297 211.262 285.017H211.169V283.909H210.117V291H211.206V286.734Z" fill="#718EBF"/>
<path d="M283.182 281.545V291H284.253V283.817H284.345L287.299 291H288.333L291.288 283.817H291.38V291H292.451V281.545H291.085L287.872 289.393H287.761L284.548 281.545H283.182ZM297.48 291.148C299.4 291.148 300.693 289.689 300.693 287.491C300.693 285.276 299.4 283.817 297.48 283.817C295.559 283.817 294.267 285.276 294.267 287.491C294.267 289.689 295.559 291.148 297.48 291.148ZM297.48 290.169C296.021 290.169 295.356 288.913 295.356 287.491C295.356 286.07 296.021 284.795 297.48 284.795C298.939 284.795 299.603 286.07 299.603 287.491C299.603 288.913 298.939 290.169 297.48 290.169ZM303.446 286.734C303.446 285.497 304.212 284.795 305.255 284.795C306.266 284.795 306.88 285.456 306.88 286.568V291H307.97V286.494C307.97 284.685 307.005 283.817 305.569 283.817C304.498 283.817 303.833 284.297 303.501 285.017H303.409V283.909H302.356V291H303.446V286.734Z" fill="#718EBF"/>
<path d="M374.88 282.561H377.853V291H378.998V282.561H381.971V281.545H374.88V282.561ZM387.094 288.101C387.094 289.43 386.078 290.04 385.266 290.04C384.361 290.04 383.715 289.375 383.715 288.341V283.909H382.625V288.415C382.625 290.224 383.585 291.092 384.915 291.092C385.986 291.092 386.688 290.52 387.02 289.8H387.094V291H388.183V283.909H387.094V288.101ZM393.152 291.148C394.592 291.148 395.645 290.428 395.977 289.357L394.925 289.061C394.648 289.8 394.006 290.169 393.152 290.169C391.873 290.169 390.991 289.343 390.941 287.824H396.088V287.362C396.088 284.722 394.518 283.817 393.041 283.817C391.121 283.817 389.846 285.331 389.846 287.51C389.846 289.689 391.102 291.148 393.152 291.148ZM390.941 286.882C391.014 285.779 391.795 284.795 393.041 284.795C394.223 284.795 394.98 285.682 394.98 286.882H390.941Z" fill="#718EBF"/>
<path d="M464.202 291H465.384L467.471 283.466H467.544L469.631 291H470.813L473.398 281.545H472.235L470.259 289.246H470.167L468.154 281.545H466.861L464.848 289.246H464.756L462.78 281.545H461.617L464.202 291ZM476.99 291.148C478.43 291.148 479.483 290.428 479.815 289.357L478.762 289.061C478.485 289.8 477.844 290.169 476.99 290.169C475.711 290.169 474.829 289.343 474.778 287.824H479.926V287.362C479.926 284.722 478.356 283.817 476.879 283.817C474.958 283.817 473.684 285.331 473.684 287.51C473.684 289.689 474.94 291.148 476.99 291.148ZM474.778 286.882C474.852 285.779 475.632 284.795 476.879 284.795C478.061 284.795 478.818 285.682 478.818 286.882H474.778ZM484.261 291.148C485.627 291.148 486.089 290.298 486.329 289.911H486.458V291H487.511V281.545H486.421V285.036H486.329C486.089 284.666 485.664 283.817 484.279 283.817C482.488 283.817 481.251 285.239 481.251 287.473C481.251 289.726 482.488 291.148 484.261 291.148ZM484.408 290.169C483.042 290.169 482.34 288.969 482.34 287.455C482.34 285.959 483.023 284.795 484.408 284.795C485.738 284.795 486.44 285.866 486.44 287.455C486.44 289.061 485.719 290.169 484.408 290.169Z" fill="#718EBF"/>
<path d="M553.84 282.561H556.813V291H557.958V282.561H560.931V281.545H553.84V282.561ZM563.64 286.734C563.64 285.497 564.429 284.795 565.505 284.795C566.53 284.795 567.148 285.442 567.148 286.568V291H568.238V286.494C568.238 284.671 567.268 283.817 565.819 283.817C564.702 283.817 564.065 284.283 563.732 285.017H563.64V281.545H562.55V291H563.64V286.734ZM574.7 288.101C574.7 289.43 573.684 290.04 572.872 290.04C571.967 290.04 571.321 289.375 571.321 288.341V283.909H570.231V288.415C570.231 290.224 571.191 291.092 572.521 291.092C573.592 291.092 574.294 290.52 574.626 289.8H574.7V291H575.789V283.909H574.7V288.101Z" fill="#718EBF"/>
<path d="M648.407 291H649.552V286.771H653.651V285.756H649.552V282.561H654.076V281.545H648.407V291ZM655.813 291H656.903V286.513C656.903 285.553 657.66 284.851 658.694 284.851C658.985 284.851 659.285 284.906 659.359 284.925V283.817C659.234 283.808 658.948 283.798 658.786 283.798C657.937 283.798 657.198 284.278 656.939 284.98H656.866V283.909H655.813V291ZM660.65 291H661.739V283.909H660.65V291ZM661.204 282.727C661.629 282.727 661.98 282.395 661.98 281.989C661.98 281.582 661.629 281.25 661.204 281.25C660.779 281.25 660.428 281.582 660.428 281.989C660.428 282.395 660.779 282.727 661.204 282.727Z" fill="#718EBF"/>
<path d="M37.7741 81.1293C39.5745 81.1293 40.8948 79.7997 40.8948 77.9901C40.8948 76.1573 39.6206 74.8139 37.8849 74.8139C37.2478 74.8139 36.6292 75.0401 36.2414 75.3494H36.186L36.5184 72.5611H40.4701V71.5455H35.5581L34.9857 76.1989L36.0567 76.3281C36.4491 76.0465 37.1185 75.8434 37.7002 75.848C38.9051 75.8572 39.7868 76.7713 39.7868 78.0085C39.7868 79.2227 38.9374 80.1136 37.7741 80.1136C36.8046 80.1136 36.0336 79.4904 35.9459 78.6364H34.838C34.9072 80.0767 36.1491 81.1293 37.7741 81.1293ZM45.8125 81.1293C47.8991 81.1293 49.0994 79.3612 49.0994 76.2727C49.0994 73.2074 47.8807 71.4162 45.8125 71.4162C43.7443 71.4162 42.5256 73.2074 42.5256 76.2727C42.5256 79.3612 43.7259 81.1293 45.8125 81.1293ZM45.8125 80.1136C44.4368 80.1136 43.6335 78.7333 43.6335 76.2727C43.6335 73.8168 44.446 72.4134 45.8125 72.4134C47.179 72.4134 47.9915 73.8168 47.9915 76.2727C47.9915 78.7333 47.1882 80.1136 45.8125 80.1136ZM53.9375 81.1293C56.0241 81.1293 57.2244 79.3612 57.2244 76.2727C57.2244 73.2074 56.0057 71.4162 53.9375 71.4162C51.8693 71.4162 50.6506 73.2074 50.6506 76.2727C50.6506 79.3612 51.8509 81.1293 53.9375 81.1293ZM53.9375 80.1136C52.5618 80.1136 51.7585 78.7333 51.7585 76.2727C51.7585 73.8168 52.571 72.4134 53.9375 72.4134C55.304 72.4134 56.1165 73.8168 56.1165 76.2727C56.1165 78.7333 55.3132 80.1136 53.9375 80.1136Z" fill="#718EBF"/>
<path d="M35.1663 116.061H39.6166V118H40.7061V116.061H41.9987V115.045H40.7061V108.545H39.3211L35.1663 115.119V116.061ZM39.6166 115.045H36.4035V114.972L39.5427 110.004H39.6166V115.045ZM46.8125 118.129C48.8991 118.129 50.0994 116.361 50.0994 113.273C50.0994 110.207 48.8807 108.416 46.8125 108.416C44.7443 108.416 43.5256 110.207 43.5256 113.273C43.5256 116.361 44.7259 118.129 46.8125 118.129ZM46.8125 117.114C45.4368 117.114 44.6335 115.733 44.6335 113.273C44.6335 110.817 45.446 109.413 46.8125 109.413C48.179 109.413 48.9915 110.817 48.9915 113.273C48.9915 115.733 48.1882 117.114 46.8125 117.114ZM54.9375 118.129C57.0241 118.129 58.2244 116.361 58.2244 113.273C58.2244 110.207 57.0057 108.416 54.9375 108.416C52.8693 108.416 51.6506 110.207 51.6506 113.273C51.6506 116.361 52.8509 118.129 54.9375 118.129ZM54.9375 117.114C53.5618 117.114 52.7585 115.733 52.7585 113.273C52.7585 110.817 53.571 109.413 54.9375 109.413C56.304 109.413 57.1165 110.817 57.1165 113.273C57.1165 115.733 56.3132 117.114 54.9375 117.114Z" fill="#718EBF"/>
<path d="M38.646 155.129C40.4787 155.129 41.8406 153.98 41.8406 152.433C41.8406 151.233 41.1296 150.36 39.9386 150.162V150.088C40.8942 149.797 41.4897 149.012 41.4897 147.946C41.4897 146.607 40.4325 145.416 38.6829 145.416C37.0487 145.416 35.6914 146.423 35.636 147.909H36.744C36.7855 146.967 37.6811 146.413 38.6644 146.413C39.7077 146.413 40.3817 147.046 40.3817 148.001C40.3817 148.999 39.6016 149.645 38.4798 149.645H37.7227V150.661H38.4798C39.9155 150.661 40.7141 151.39 40.7141 152.433C40.7141 153.435 39.8416 154.114 38.6275 154.114C37.5334 154.114 36.6655 153.55 36.5962 152.636H35.4329C35.5021 154.123 36.8132 155.129 38.646 155.129ZM46.8125 155.129C48.8991 155.129 50.0994 153.361 50.0994 150.273C50.0994 147.207 48.8807 145.416 46.8125 145.416C44.7443 145.416 43.5256 147.207 43.5256 150.273C43.5256 153.361 44.7259 155.129 46.8125 155.129ZM46.8125 154.114C45.4368 154.114 44.6335 152.733 44.6335 150.273C44.6335 147.817 45.446 146.413 46.8125 146.413C48.179 146.413 48.9915 147.817 48.9915 150.273C48.9915 152.733 48.1882 154.114 46.8125 154.114ZM54.9375 155.129C57.0241 155.129 58.2244 153.361 58.2244 150.273C58.2244 147.207 57.0057 145.416 54.9375 145.416C52.8693 145.416 51.6506 147.207 51.6506 150.273C51.6506 153.361 52.8509 155.129 54.9375 155.129ZM54.9375 154.114C53.5618 154.114 52.7585 152.733 52.7585 150.273C52.7585 147.817 53.571 146.413 54.9375 146.413C56.304 146.413 57.1165 147.817 57.1165 150.273C57.1165 152.733 56.3132 154.114 54.9375 154.114Z" fill="#718EBF"/>
<path d="M34.8576 192H40.8221V190.984H36.4272V190.911L38.5508 188.639C40.1758 186.899 40.6559 186.086 40.6559 185.038C40.6559 183.58 39.4741 182.416 37.8121 182.416C36.1548 182.416 34.8945 183.543 34.8945 185.205H35.984C35.984 184.129 36.6811 183.413 37.7752 183.413C38.8001 183.413 39.5849 184.041 39.5849 185.038C39.5849 185.911 39.0724 186.557 37.9783 187.753L34.8576 191.169V192ZM45.8125 192.129C47.8991 192.129 49.0994 190.361 49.0994 187.273C49.0994 184.207 47.8807 182.416 45.8125 182.416C43.7443 182.416 42.5256 184.207 42.5256 187.273C42.5256 190.361 43.7259 192.129 45.8125 192.129ZM45.8125 191.114C44.4368 191.114 43.6335 189.733 43.6335 187.273C43.6335 184.817 44.446 183.413 45.8125 183.413C47.179 183.413 47.9915 184.817 47.9915 187.273C47.9915 189.733 47.1882 191.114 45.8125 191.114ZM53.9375 192.129C56.0241 192.129 57.2244 190.361 57.2244 187.273C57.2244 184.207 56.0057 182.416 53.9375 182.416C51.8693 182.416 50.6506 184.207 50.6506 187.273C50.6506 190.361 51.8509 192.129 53.9375 192.129ZM53.9375 191.114C52.5618 191.114 51.7585 189.733 51.7585 187.273C51.7585 184.817 52.571 183.413 53.9375 183.413C55.304 183.413 56.1165 184.817 56.1165 187.273C56.1165 189.733 55.3132 191.114 53.9375 191.114Z" fill="#718EBF"/>
<path d="M38.0096 219.545H36.8647L34.5011 221.115V222.278L36.8093 220.746H36.8647V229H38.0096V219.545ZM43.8125 229.129C45.8991 229.129 47.0994 227.361 47.0994 224.273C47.0994 221.207 45.8807 219.416 43.8125 219.416C41.7443 219.416 40.5256 221.207 40.5256 224.273C40.5256 227.361 41.7259 229.129 43.8125 229.129ZM43.8125 228.114C42.4368 228.114 41.6335 226.733 41.6335 224.273C41.6335 221.817 42.446 220.413 43.8125 220.413C45.179 220.413 45.9915 221.817 45.9915 224.273C45.9915 226.733 45.1882 228.114 43.8125 228.114ZM51.9375 229.129C54.0241 229.129 55.2244 227.361 55.2244 224.273C55.2244 221.207 54.0057 219.416 51.9375 219.416C49.8693 219.416 48.6506 221.207 48.6506 224.273C48.6506 227.361 49.8509 229.129 51.9375 229.129ZM51.9375 228.114C50.5618 228.114 49.7585 226.733 49.7585 224.273C49.7585 221.817 50.571 220.413 51.9375 220.413C53.304 220.413 54.1165 221.817 54.1165 224.273C54.1165 226.733 53.3132 228.114 51.9375 228.114Z" fill="#718EBF"/>
<path d="M51.9375 266.129C54.0241 266.129 55.2244 264.361 55.2244 261.273C55.2244 258.207 54.0057 256.416 51.9375 256.416C49.8693 256.416 48.6506 258.207 48.6506 261.273C48.6506 264.361 49.8509 266.129 51.9375 266.129ZM51.9375 265.114C50.5618 265.114 49.7585 263.733 49.7585 261.273C49.7585 258.817 50.571 257.413 51.9375 257.413C53.304 257.413 54.1165 258.817 54.1165 261.273C54.1165 263.733 53.3132 265.114 51.9375 265.114Z" fill="#718EBF"/>
<rect x="94" y="83" width="15" height="178" rx="7.5" fill="#FDAA0A"/>
<rect x="121" y="170" width="15" height="91" rx="7.5" fill="#16DBCC"/>
<rect x="184" y="131" width="15" height="130" rx="7.5" fill="#FDAA0A"/>
<rect x="211" y="212" width="15" height="49" rx="7.5" fill="#16DBCC"/>
<rect x="274" y="139" width="15" height="122" rx="7.5" fill="#FDAA0A"/>
<rect x="301" y="163" width="15" height="98" rx="7.5" fill="#16DBCC"/>
<rect x="364" y="83" width="15" height="178" rx="7.5" fill="#FDAA0A"/>
<rect x="391" y="123" width="15" height="138" rx="7.5" fill="#16DBCC"/>
<rect x="454" y="204" width="15" height="57" rx="7.5" fill="#FDAA0A"/>
<rect x="481" y="170" width="15" height="91" rx="7.5" fill="#16DBCC"/>
<rect x="544" y="116" width="15" height="145" rx="7.5" fill="#FDAA0A"/>
<rect x="571" y="170" width="15" height="91" rx="7.5" fill="#16DBCC"/>
<rect x="634" y="114" width="15" height="147" rx="7.5" fill="#FDAA0A"/>
<rect x="661" y="135" width="15" height="126" rx="7.5" fill="#16DBCC"/>
<circle cx="509.5" cy="37.5" r="7.5" fill="#16DBCC"/>
<path d="M531.688 42H528.321V31.0909H531.837C532.895 31.0909 533.8 31.3093 534.553 31.7461C535.306 32.1793 535.883 32.8026 536.284 33.6158C536.686 34.4254 536.886 35.3949 536.886 36.5241C536.886 37.6605 536.684 38.6388 536.279 39.4592C535.874 40.2759 535.285 40.9045 534.511 41.3448C533.737 41.7816 532.795 42 531.688 42ZM529.642 40.8281H531.602C532.504 40.8281 533.252 40.6541 533.845 40.3061C534.438 39.9581 534.88 39.4627 535.171 38.82C535.462 38.1772 535.608 37.4119 535.608 36.5241C535.608 35.6435 535.464 34.8853 535.176 34.2496C534.889 33.6104 534.459 33.1204 533.887 32.7795C533.316 32.435 532.604 32.2628 531.751 32.2628H529.642V40.8281ZM542.362 42.1705C541.574 42.1705 540.894 41.9964 540.322 41.6484C539.754 41.2969 539.315 40.8068 539.006 40.1783C538.701 39.5462 538.548 38.8111 538.548 37.973C538.548 37.1349 538.701 36.3963 539.006 35.7571C539.315 35.1143 539.745 34.6136 540.295 34.255C540.849 33.8928 541.496 33.7116 542.234 33.7116C542.661 33.7116 543.081 33.7827 543.497 33.9247C543.912 34.0668 544.29 34.2976 544.631 34.6172C544.972 34.9332 545.244 35.3523 545.446 35.8743C545.649 36.3963 545.75 37.0391 545.75 37.8026V38.3352H539.443V37.2486H544.472C544.472 36.7869 544.379 36.375 544.195 36.0128C544.013 35.6506 543.754 35.3647 543.417 35.1552C543.083 34.9457 542.689 34.8409 542.234 34.8409C541.734 34.8409 541.3 34.9652 540.935 35.2138C540.572 35.4588 540.294 35.7784 540.098 36.1726C539.903 36.5668 539.805 36.9893 539.805 37.4403V38.1648C539.805 38.7827 539.912 39.3065 540.125 39.7362C540.342 40.1623 540.642 40.4872 541.025 40.7109C541.409 40.9311 541.854 41.0412 542.362 41.0412C542.692 41.0412 542.991 40.995 543.257 40.9027C543.527 40.8068 543.76 40.6648 543.955 40.4766C544.15 40.2848 544.301 40.0469 544.408 39.7628L545.622 40.1037C545.494 40.5156 545.279 40.8778 544.978 41.1903C544.676 41.4993 544.303 41.7408 543.859 41.9148C543.415 42.0852 542.916 42.1705 542.362 42.1705ZM547.662 45.0682V33.8182H548.877V35.1179H549.026C549.118 34.9759 549.246 34.7947 549.409 34.5746C549.576 34.3509 549.814 34.152 550.123 33.978C550.436 33.8004 550.858 33.7116 551.391 33.7116C552.08 33.7116 552.687 33.8839 553.213 34.2283C553.738 34.5728 554.148 35.0611 554.443 35.6932C554.738 36.3253 554.885 37.071 554.885 37.9304C554.885 38.7969 554.738 39.5479 554.443 40.1836C554.148 40.8157 553.74 41.3058 553.218 41.6538C552.696 41.9982 552.094 42.1705 551.412 42.1705C550.887 42.1705 550.466 42.0835 550.15 41.9094C549.834 41.7319 549.591 41.5312 549.42 41.3075C549.25 41.0803 549.118 40.892 549.026 40.7429H548.919V45.0682H547.662ZM548.898 37.9091C548.898 38.527 548.989 39.0721 549.17 39.5444C549.351 40.0131 549.615 40.3807 549.963 40.647C550.311 40.9098 550.738 41.0412 551.242 41.0412C551.767 41.0412 552.206 40.9027 552.558 40.6257C552.913 40.3452 553.179 39.9687 553.357 39.4964C553.538 39.0206 553.628 38.4915 553.628 37.9091C553.628 37.3338 553.539 36.8153 553.362 36.3537C553.188 35.8885 552.923 35.521 552.568 35.2511C552.217 34.9776 551.775 34.8409 551.242 34.8409C550.73 34.8409 550.301 34.9705 549.953 35.2298C549.605 35.4854 549.342 35.8441 549.164 36.3058C548.987 36.7638 548.898 37.2983 548.898 37.9091ZM560.127 42.1705C559.388 42.1705 558.74 41.9947 558.183 41.6431C557.629 41.2915 557.195 40.7997 556.883 40.1676C556.574 39.5355 556.419 38.7969 556.419 37.9517C556.419 37.0994 556.574 36.3555 556.883 35.7198C557.195 35.0842 557.629 34.5906 558.183 34.239C558.74 33.8874 559.388 33.7116 560.127 33.7116C560.865 33.7116 561.512 33.8874 562.066 34.239C562.623 34.5906 563.056 35.0842 563.365 35.7198C563.678 36.3555 563.834 37.0994 563.834 37.9517C563.834 38.7969 563.678 39.5355 563.365 40.1676C563.056 40.7997 562.623 41.2915 562.066 41.6431C561.512 41.9947 560.865 42.1705 560.127 42.1705ZM560.127 41.0412C560.688 41.0412 561.15 40.8974 561.512 40.6097C561.874 40.3221 562.142 39.9439 562.316 39.4751C562.49 39.0064 562.577 38.4986 562.577 37.9517C562.577 37.4048 562.49 36.8952 562.316 36.4229C562.142 35.9506 561.874 35.5689 561.512 35.2777C561.15 34.9865 560.688 34.8409 560.127 34.8409C559.566 34.8409 559.104 34.9865 558.742 35.2777C558.38 35.5689 558.112 35.9506 557.938 36.4229C557.763 36.8952 557.676 37.4048 557.676 37.9517C557.676 38.4986 557.763 39.0064 557.938 39.4751C558.112 39.9439 558.38 40.3221 558.742 40.6097C559.104 40.8974 559.566 41.0412 560.127 41.0412ZM571.549 35.6506L570.419 35.9702C570.348 35.782 570.244 35.5991 570.105 35.4215C569.97 35.2404 569.785 35.0913 569.551 34.9741C569.317 34.8569 569.017 34.7983 568.651 34.7983C568.15 34.7983 567.733 34.9137 567.399 35.1445C567.069 35.3718 566.904 35.6612 566.904 36.0128C566.904 36.3253 567.017 36.5721 567.245 36.7532C567.472 36.9343 567.827 37.0852 568.31 37.206L569.524 37.5043C570.256 37.6818 570.801 37.9535 571.16 38.3192C571.518 38.6815 571.698 39.1484 571.698 39.7202C571.698 40.1889 571.563 40.608 571.293 40.9773C571.027 41.3466 570.654 41.6378 570.174 41.8509C569.695 42.0639 569.137 42.1705 568.502 42.1705C567.667 42.1705 566.976 41.9893 566.43 41.6271C565.883 41.2649 565.536 40.7358 565.391 40.0398L566.584 39.7415C566.698 40.1818 566.913 40.5121 567.229 40.7322C567.548 40.9524 567.965 41.0625 568.48 41.0625C569.066 41.0625 569.532 40.9382 569.876 40.6896C570.224 40.4375 570.398 40.1357 570.398 39.7841C570.398 39.5 570.299 39.2621 570.1 39.0703C569.901 38.875 569.595 38.7294 569.184 38.6335L567.82 38.3139C567.071 38.1364 566.52 37.8612 566.169 37.4883C565.821 37.1119 565.647 36.6413 565.647 36.0767C565.647 35.6151 565.776 35.2067 566.035 34.8516C566.298 34.4964 566.655 34.2177 567.106 34.0153C567.561 33.8129 568.076 33.7116 568.651 33.7116C569.46 33.7116 570.096 33.8892 570.558 34.2443C571.023 34.5994 571.353 35.0682 571.549 35.6506ZM573.59 42V33.8182H574.847V42H573.59ZM574.229 32.4545C573.984 32.4545 573.773 32.3711 573.595 32.2042C573.421 32.0373 573.334 31.8366 573.334 31.6023C573.334 31.3679 573.421 31.1673 573.595 31.0004C573.773 30.8335 573.984 30.75 574.229 30.75C574.474 30.75 574.684 30.8335 574.858 31.0004C575.035 31.1673 575.124 31.3679 575.124 31.6023C575.124 31.8366 575.035 32.0373 574.858 32.2042C574.684 32.3711 574.474 32.4545 574.229 32.4545ZM580.708 33.8182V34.8835H576.468V33.8182H580.708ZM577.704 31.858H578.961V39.6562C578.961 40.0114 579.012 40.2777 579.115 40.4553C579.222 40.6293 579.357 40.7464 579.52 40.8068C579.687 40.8636 579.863 40.892 580.047 40.892C580.186 40.892 580.299 40.8849 580.388 40.8707C580.477 40.853 580.548 40.8388 580.601 40.8281L580.857 41.9574C580.772 41.9893 580.653 42.0213 580.5 42.0533C580.347 42.0888 580.154 42.1065 579.919 42.1065C579.564 42.1065 579.216 42.0302 578.875 41.8775C578.538 41.7248 578.258 41.4922 578.034 41.1797C577.814 40.8672 577.704 40.473 577.704 39.9972V31.858Z" fill="#718EBF"/>
<circle cx="614.5" cy="37.5" r="7.5" fill="#FF82AC"/>
<path d="M635.303 42H636.666L639.074 33.3068H639.159L641.567 42H642.93L645.913 31.0909H644.571L642.291 39.9759H642.185L639.862 31.0909H638.371L636.048 39.9759H635.942L633.662 31.0909H632.32L635.303 42ZM647.389 42H648.646V33.8182H647.389V42ZM648.028 32.4545C648.518 32.4545 648.923 32.071 648.923 31.6023C648.923 31.1335 648.518 30.75 648.028 30.75C647.538 30.75 647.133 31.1335 647.133 31.6023C647.133 32.071 647.538 32.4545 648.028 32.4545ZM654.507 33.8182H652.759V31.858H651.502V33.8182H650.267V34.8835H651.502V39.9972C651.502 41.4247 652.653 42.1065 653.718 42.1065C654.187 42.1065 654.485 42.0213 654.656 41.9574L654.4 40.8281C654.294 40.8494 654.123 40.892 653.846 40.892C653.292 40.892 652.759 40.7216 652.759 39.6562V34.8835H654.507V33.8182ZM657.831 37.0781C657.831 35.6506 658.741 34.8409 659.983 34.8409C661.165 34.8409 661.879 35.5866 661.879 36.8864V42H663.136V36.8011C663.136 34.6971 662.017 33.7116 660.345 33.7116C659.056 33.7116 658.321 34.2496 657.937 35.0966H657.831V31.0909H656.573V42H657.831V37.0781ZM668.525 42.1705C670.102 42.1705 670.635 41.1903 670.912 40.7429H671.061V42H672.275V31.0909H671.018V35.1179H670.912C670.635 34.6918 670.145 33.7116 668.547 33.7116C666.48 33.7116 665.052 35.3523 665.052 37.9304C665.052 40.5298 666.48 42.1705 668.525 42.1705ZM668.696 41.0412C667.119 41.0412 666.309 39.6562 666.309 37.9091C666.309 36.1832 667.098 34.8409 668.696 34.8409C670.23 34.8409 671.039 36.0767 671.039 37.9091C671.039 39.7628 670.208 41.0412 668.696 41.0412ZM674.752 42H676.009V36.8224C676.009 35.7145 676.883 34.9048 678.076 34.9048C678.412 34.9048 678.758 34.9688 678.843 34.9901V33.7116C678.699 33.701 678.369 33.6903 678.183 33.6903C677.202 33.6903 676.35 34.2443 676.052 35.054H675.967V33.8182H674.752V42ZM682.741 42.1918C684.168 42.1918 684.914 41.4247 685.17 40.892H685.234V42H686.491V36.6094C686.491 34.0099 684.509 33.7116 683.465 33.7116C682.229 33.7116 680.823 34.1378 680.184 35.6293L681.377 36.0554C681.654 35.4588 682.309 34.8196 683.508 34.8196C684.664 34.8196 685.234 35.4322 685.234 36.4815V36.5241C685.234 37.1314 684.616 37.0781 683.124 37.2699C681.606 37.467 679.95 37.8026 679.95 39.6776C679.95 41.2756 681.185 42.1918 682.741 42.1918ZM682.933 41.0625C681.931 41.0625 681.207 40.6151 681.207 39.7415C681.207 38.7827 682.08 38.4844 683.06 38.3565C683.593 38.2926 685.021 38.1435 685.234 37.8878V39.0384C685.234 40.0611 684.424 41.0625 682.933 41.0625ZM690.639 42H691.875L693.665 35.7145H693.792L695.582 42H696.818L699.311 33.8182H697.99L696.221 40.0611H696.136L694.41 33.8182H693.068L691.321 40.0824H691.236L689.467 33.8182H688.146L690.639 42Z" fill="#718EBF"/>
</svg>
