<svg width="25" height="25" viewBox="0 0 25 25" fill="none" xmlns="http://www.w3.org/2000/svg">
<g clip-path="url(#clip0_406_5626)">
<path d="M5.20898 22.9166C5.20964 23.4689 5.42934 23.9984 5.8199 24.389C6.21046 24.7796 6.73998 24.9993 7.29232 24.9999H17.709C18.2613 24.9993 18.7908 24.7796 19.1814 24.389C19.572 23.9984 19.7917 23.4689 19.7923 22.9166V22.0051H5.20898V22.9166Z" fill="#5B73A0"/>
<path d="M19.7923 2.08333C19.7917 1.531 19.572 1.00148 19.1814 0.610917C18.7908 0.220358 18.2613 0.00065473 17.709 0L7.29232 0C6.73998 0.00065473 6.21046 0.220358 5.8199 0.610917C5.42934 1.00148 5.20964 1.531 5.20898 2.08333V3.125H19.7923V2.08333Z" fill="#5B73A0"/>
<path d="M24.7091 6.70052L21.5841 3.44531L20.0813 4.88802L21.3887 6.25H19.791V8.33333H21.501L20.112 9.66459L21.5534 11.1688L24.6784 8.17396C24.7772 8.07926 24.8564 7.96602 24.9114 7.8407C24.9664 7.71538 24.9962 7.58045 24.9991 7.44361C25.0019 7.30677 24.9778 7.17071 24.928 7.04321C24.8783 6.91571 24.8039 6.79926 24.7091 6.70052Z" fill="#5B73A0"/>
<path d="M16.6673 6.25008H19.7923V4.16675H5.20898V16.6667H8.33398V18.7501H5.20898V20.8334H19.7923V8.33342H16.6673V6.25008ZM15.6257 10.4167H11.9798C11.8417 10.4167 11.7092 10.4716 11.6115 10.5693C11.5139 10.667 11.459 10.7994 11.459 10.9376C11.459 11.0757 11.5139 11.2082 11.6115 11.3059C11.7092 11.4035 11.8417 11.4584 11.9798 11.4584H13.0215C13.6673 11.4578 14.2903 11.6971 14.7696 12.13C15.2488 12.5628 15.5502 13.1583 15.6151 13.8009C15.68 14.4434 15.5038 15.0871 15.1208 15.6071C14.7378 16.1271 14.1752 16.4862 13.5423 16.6147V17.7084H11.459V16.6667H9.37565V14.5834H13.0215C13.1596 14.5834 13.2921 14.5285 13.3898 14.4309C13.4874 14.3332 13.5423 14.2007 13.5423 14.0626C13.5423 13.9244 13.4874 13.792 13.3898 13.6943C13.2921 13.5966 13.1596 13.5417 13.0215 13.5417H11.9798C11.334 13.5424 10.711 13.3031 10.2317 12.8702C9.75246 12.4373 9.45112 11.8418 9.38622 11.1993C9.32132 10.5568 9.49748 9.91303 9.8805 9.39306C10.2635 8.8731 10.8261 8.51401 11.459 8.3855V7.29175H13.5423V8.33342H15.6257V10.4167Z" fill="#5B73A0"/>
<path d="M3.49828 16.6667L4.88734 15.3355L3.44593 13.8313L0.320931 16.8261C0.222115 16.9208 0.142929 17.034 0.0879011 17.1594C0.0328728 17.2847 0.00308028 17.4196 0.000226477 17.5564C-0.00262733 17.6933 0.0215135 17.8293 0.0712692 17.9568C0.121025 18.0843 0.19542 18.2008 0.290202 18.2995L3.4152 21.5547L4.91807 20.112L3.61064 18.75H5.2083V16.6667H3.49828Z" fill="#5B73A0"/>
</g>
<defs>
<clipPath id="clip0_406_5626">
<rect width="25" height="25" fill="white"/>
</clipPath>
</defs>
</svg>
