<svg width="25" height="25" viewBox="0 0 25 25" fill="none" xmlns="http://www.w3.org/2000/svg">
<g clip-path="url(#clip0_406_5652)">
<path d="M4.81218 16.6678C5.06357 16.8174 5.27942 17.0121 5.45167 17.2371H8.70683V14.0806L7.16332 13.1236C6.81956 12.9105 6.71366 12.459 6.92677 12.1153C7.13994 11.7716 7.59121 11.6657 7.93513 11.8787L9.43918 12.8112L10.7502 11.9984C8.1353 8.41283 8.73583 3.33221 12.2165 0.464604C6.48306 -1.45611 0.468638 2.8135 0.441492 8.94559C0.427334 12.1976 2.15867 15.0882 4.81218 16.6678Z" fill="#5B73A0"/>
<path d="M5.91016 18.7017H12.8431V20.3617H5.91016V18.7017Z" fill="#5B73A0"/>
<path d="M10.1719 14.0807V17.2372H13.2912C13.4568 17.0186 13.6634 16.8313 13.9039 16.6897C14.5696 16.2979 15.1806 15.8201 15.7222 15.2731C14.1923 14.9286 12.8185 14.1678 11.7259 13.1165C11.6843 13.1435 11.3841 13.3292 10.1719 14.0807Z" fill="#5B73A0"/>
<path d="M17.5794 0.00244141C13.7392 0.00244141 10.5977 3.17582 10.5977 7.03303C10.5977 10.6612 13.3828 13.6656 16.9539 13.9862C21.0867 14.3554 24.5612 11.0794 24.5612 7.03303C24.5612 3.18329 21.4292 0.00244141 17.5794 0.00244141ZM18.3128 10.2073V10.3604C18.3128 10.7649 17.9849 11.0928 17.5804 11.0928C17.1759 11.0928 16.848 10.7649 16.848 10.3604V10.2901C16.5106 10.231 16.2024 10.1047 15.8129 9.8499C15.4744 9.62849 15.3795 9.17462 15.6009 8.83613C15.8224 8.49759 16.2763 8.40277 16.6147 8.62414C16.9717 8.85771 17.0874 8.87592 17.5754 8.87255C18.0466 8.86943 18.2343 8.49959 18.271 8.28159C18.3039 8.08586 18.2669 7.82563 17.904 7.69737C17.2959 7.4824 16.6724 7.23574 16.2307 6.88929C15.2249 6.1004 15.5285 4.29857 16.8481 3.81907V3.71303C16.8481 3.30857 17.176 2.98068 17.5804 2.98068C17.9849 2.98068 18.3128 3.30857 18.3128 3.71303V3.75365C18.6737 3.8555 18.9643 4.03971 19.1639 4.24272C19.4475 4.53107 19.4436 4.99474 19.1553 5.27836C18.867 5.56183 18.4037 5.55807 18.1201 5.27021C18.0792 5.23032 17.8536 5.0422 17.3652 5.18931C17.1702 5.24804 17.1178 5.45027 17.1064 5.51086C17.0825 5.63731 17.1165 5.72256 17.1346 5.73681C17.4109 5.95349 17.9253 6.15137 18.3921 6.3164C20.3223 6.99866 20.0872 9.56585 18.3128 10.2073Z" fill="#5B73A0"/>
<path d="M7.08203 22.7052C7.08203 23.9705 8.11143 24.9999 9.37674 24.9999C10.642 24.9999 11.6714 23.9705 11.6714 22.7052V21.8264H7.08203V22.7052Z" fill="#5B73A0"/>
</g>
<defs>
<clipPath id="clip0_406_5652">
<rect width="25" height="25" fill="white"/>
</clipPath>
</defs>
</svg>
