<svg width="25" height="25" viewBox="0 0 25 25" fill="none" xmlns="http://www.w3.org/2000/svg">
<g clip-path="url(#clip0_406_5590)">
<path d="M24.7847 1.25045L23.749 0.214663C23.5331 -0.00135204 23.2058 -0.0605316 22.9282 0.0654447L17.3649 2.52135C17.146 2.62096 16.9901 2.8213 16.9472 3.05743C16.9046 3.2942 16.98 3.53638 17.15 3.70636L21.2931 7.84946C21.4631 8.01943 21.7053 8.09477 21.942 8.05224C22.1782 8.00933 22.3785 7.85351 22.4781 7.63452L24.934 2.07125C25.0599 1.79357 25.0008 1.46637 24.7847 1.25045Z" fill="#5B73A0"/>
<path d="M4.73145 16.1255L0.642589 20.2143C-0.214196 21.0711 -0.214196 22.4649 0.642589 23.3217L1.67833 24.3574C2.53512 25.2142 3.92891 25.2142 4.78565 24.3574L8.87451 20.2685L4.73145 16.1255ZM4.27496 21.7711C3.98868 22.0574 3.52535 22.0574 3.23912 21.7711C2.95294 21.4848 2.95294 21.0215 3.23912 20.7353L5.25645 18.718C5.54273 18.4317 6.00601 18.4317 6.29219 18.718C6.57847 19.0043 6.57847 19.4675 6.29219 19.7538L4.27496 21.7711Z" fill="#5B73A0"/>
<path d="M11.9828 17.1612L7.83965 13.0181C7.26861 12.4471 6.33912 12.4471 5.76813 13.0181C5.19708 13.5892 5.19708 14.5187 5.76813 15.0897L9.91123 19.2328C10.4822 19.8038 11.4117 19.8038 11.9828 19.2328C12.5538 18.6619 12.5538 17.7323 11.9828 17.1612Z" fill="#5B73A0"/>
<path d="M19.2227 7.84941L17.1511 5.77783L11.4644 11.4644C10.8924 10.8924 9.96504 10.8924 9.39292 11.4644L8.875 11.9824L13.0181 16.1255L13.536 15.6075C14.108 15.0354 14.108 14.1081 13.536 13.536L19.2227 7.84941Z" fill="#5B73A0"/>
<path d="M23.7154 17.498C22.5264 16.309 21.0966 16.0534 19.4561 16.3465L16.1263 13.0171L15.3311 13.8123C15.593 14.7961 15.3384 15.8763 14.5715 16.6432L14.0547 17.16L16.3462 19.4514C16.1152 20.7444 16.1369 21.841 16.9399 23.0304C17.8665 24.4035 19.4884 25.184 21.1875 24.9501C21.4684 24.9115 21.703 24.7167 21.7933 24.4479C21.8836 24.1792 21.8139 23.8824 21.6135 23.6819L20.6062 22.6764V20.6051H22.6797L23.6814 21.6068C23.8823 21.8077 24.1798 21.8768 24.4488 21.7858C24.7178 21.6948 24.912 21.4591 24.9498 21.1776C25.1286 19.8453 24.6928 18.475 23.7154 17.498Z" fill="#5B73A0"/>
<path d="M8.64339 5.53236C8.93406 3.90898 8.69871 2.48085 7.49188 1.27314C6.67074 0.45205 5.57211 0 4.39838 0C4.20077 0 4.00526 0.0128906 3.8123 0.0384277C3.53051 0.0758299 3.29462 0.270263 3.20351 0.53955C3.1124 0.808739 3.18197 1.10639 3.38295 1.30737L4.39447 2.30883V4.39447H2.31279L1.30879 3.37641C1.10825 3.17587 0.811227 3.10649 0.54238 3.19697C0.273631 3.28745 0.0792463 3.52231 0.0406233 3.80331C-0.182521 5.42816 0.521531 7.07889 1.958 8.04862C3.15195 8.85301 4.25517 8.87293 5.53847 8.64159L7.83929 10.9462L8.35633 10.4291C9.12322 9.66224 10.2033 9.40779 11.1872 9.66951L11.9821 8.87469L8.64339 5.53236Z" fill="#5B73A0"/>
</g>
<defs>
<clipPath id="clip0_406_5590">
<rect width="25" height="25" fill="white"/>
</clipPath>
</defs>
</svg>
