<svg width="24" height="24" viewBox="0 0 24 24" fill="none" xmlns="http://www.w3.org/2000/svg">
<path d="M20.5 0.304932H3.5C2.57457 0.31405 1.68962 0.685726 1.03521 1.34014C0.380795 1.99455 0.00911822 2.8795 0 3.80493L0 16.8049C0.0352283 17.7619 0.374824 18.6827 0.969399 19.4334C1.56397 20.1841 2.38252 20.7255 3.306 20.9789L14.465 23.5999C14.8897 23.7099 15.3337 23.723 15.7641 23.6384C16.1946 23.5537 16.6005 23.3735 16.952 23.1109C17.2919 22.8327 17.5632 22.48 17.7449 22.0801C17.9266 21.6803 18.0139 21.2439 18 20.8049V11.1129C17.9984 10.1829 17.6927 9.27888 17.1296 8.53868C16.5665 7.79847 15.7769 7.26267 14.881 7.01293L4.056 4.02793C3.96105 4.00167 3.87221 3.95696 3.79454 3.89636C3.71688 3.83576 3.65191 3.76046 3.60334 3.67475C3.55478 3.58904 3.52357 3.49461 3.5115 3.39684C3.49943 3.29907 3.50674 3.19988 3.533 3.10493C3.55926 3.00999 3.60397 2.92114 3.66457 2.84348C3.72517 2.76581 3.80047 2.70084 3.88618 2.65227C3.97189 2.60371 4.06633 2.5725 4.1641 2.56043C4.26187 2.54836 4.36105 2.55567 4.456 2.58193L7.99 3.55693H8.002H20.5C20.6989 3.55693 20.8897 3.63595 21.0303 3.7766C21.171 3.91725 21.25 4.10802 21.25 4.30693C21.25 4.50584 21.171 4.69661 21.0303 4.83726C20.8897 4.97791 20.6989 5.05693 20.5 5.05693H15.265C15.2045 5.0568 15.1459 5.07865 15.1003 5.11841C15.0546 5.15817 15.025 5.21315 15.0168 5.27313C15.0086 5.33311 15.0224 5.39403 15.0558 5.44457C15.0891 5.49511 15.1396 5.53183 15.198 5.54793L15.284 5.57193C16.4232 5.88832 17.4364 6.55001 18.184 7.46593C18.2078 7.49432 18.2374 7.51717 18.2709 7.53289C18.3044 7.54861 18.341 7.55682 18.378 7.55693H20.5C20.6989 7.55693 20.8897 7.63595 21.0303 7.7766C21.171 7.91725 21.25 8.10802 21.25 8.30693C21.25 8.50584 21.171 8.69661 21.0303 8.83726C20.8897 8.97791 20.6989 9.05693 20.5 9.05693H19.462C19.4225 9.05669 19.3835 9.06585 19.3482 9.08367C19.3129 9.10149 19.2824 9.12745 19.2591 9.1594C19.2359 9.19135 19.2206 9.22838 19.2145 9.26742C19.2084 9.30647 19.2116 9.3464 19.224 9.38393C19.4078 9.94263 19.5027 10.5268 19.505 11.1149V18.0569C19.505 18.1232 19.5313 18.1868 19.5782 18.2337C19.6251 18.2806 19.6887 18.3069 19.755 18.3069H20.5C21.4283 18.3069 22.3185 17.9382 22.9749 17.2818C23.6313 16.6254 24 15.7352 24 14.8069V3.80693C24.0003 3.34714 23.9099 2.8918 23.7342 2.46693C23.5584 2.04205 23.3006 1.65598 22.9756 1.33077C22.6505 1.00555 22.2646 0.747561 21.8399 0.571544C21.4151 0.395528 20.9598 0.304932 20.5 0.304932ZM15.5 15.3049C15.5 15.7005 15.3827 16.0872 15.1629 16.4161C14.9432 16.745 14.6308 17.0013 14.2654 17.1527C13.8999 17.3041 13.4978 17.3437 13.1098 17.2665C12.7219 17.1893 12.3655 16.9988 12.0858 16.7191C11.8061 16.4394 11.6156 16.0831 11.5384 15.6951C11.4613 15.3071 11.5009 14.905 11.6522 14.5396C11.8036 14.1741 12.06 13.8618 12.3889 13.642C12.7178 13.4222 13.1044 13.3049 13.5 13.3049C14.0304 13.3049 14.5391 13.5156 14.9142 13.8907C15.2893 14.2658 15.5 14.7745 15.5 15.3049Z" fill="#5B73A0"/>
</svg>
