<svg width="26" height="26" viewBox="0 0 26 26" fill="none" xmlns="http://www.w3.org/2000/svg">
<g clip-path="url(#clip0_406_5609)">
<path d="M22.9608 7.16342V6.80775C22.9608 5.17274 21.6306 3.84253 19.9956 3.84253H2.96522C1.33016 3.84258 0 5.17274 0 6.80775V7.16342H22.9608Z" fill="#5B73A0"/>
<path d="M13.5651 16.7017C13.5651 15.1636 14.0598 13.7017 14.9731 12.4968H0V16.6331C0 18.2681 1.33016 19.5983 2.96522 19.5983H14.1911C13.7813 18.7007 13.5651 17.7179 13.5651 16.7017ZM11.4804 15.803H8.92125V14.2796H11.4804V15.803ZM3.41545 14.2796H7.39781V15.803H3.41545V14.2796Z" fill="#5B73A0"/>
<path d="M16.5547 10.9735C17.7165 10.1607 19.0967 9.72275 20.5443 9.72275C21.3822 9.72275 22.1973 9.86986 22.9608 10.151V8.68701H0V10.9735H16.5547Z" fill="#5B73A0"/>
<path d="M25.9994 16.7018C25.9994 13.6887 23.5567 11.2461 20.5436 11.2461C17.5305 11.2461 15.0879 13.6887 15.0879 16.7018C15.0879 19.7149 17.5305 22.1575 20.5436 22.1575C23.5567 22.1575 25.9994 19.7149 25.9994 16.7018ZM21.279 19.6164V20.2364H20.5173V20.2364V20.2364H19.7556V19.6209C19.2951 19.465 18.9183 19.1906 18.5503 18.9215L19.4496 17.6919C19.944 18.0534 20.197 18.2272 20.5436 18.2272C20.7396 18.2272 20.8983 18.1339 20.9578 17.9838C21.0299 17.802 20.9281 17.6345 20.6855 17.5357C20.6855 17.5357 19.5967 17.1726 19.0933 16.6593C18.6709 16.2288 18.5365 15.622 18.671 15.0447C18.8064 14.4635 19.1988 14.0091 19.7556 13.7822V13.1671H21.279V13.7567C21.6659 13.8641 21.9934 14.0229 22.1817 14.1251L21.4549 15.464C20.973 15.2024 20.5297 15.1239 20.3571 15.1829C20.1897 15.2401 20.1642 15.3493 20.1546 15.3904C20.1411 15.4486 20.1338 15.538 20.227 15.6418C20.3166 15.7417 21.2598 16.1248 21.2598 16.1248C22.2776 16.5391 22.7566 17.5795 22.3741 18.5449C22.1754 19.0467 21.7754 19.4267 21.279 19.6164Z" fill="#5B73A0"/>
</g>
<defs>
<clipPath id="clip0_406_5609">
<rect width="26" height="26" fill="white"/>
</clipPath>
</defs>
</svg>
