<svg width="379" height="432" viewBox="0 0 379 432" fill="none" xmlns="http://www.w3.org/2000/svg">
<g clip-path="url(#clip0_721_1097)">
<path d="M332.664 271.532L276.626 250.234C275.705 249.884 274.862 249.355 274.145 248.678C273.428 248 272.851 247.187 272.446 246.285C272.042 245.383 271.818 244.41 271.789 243.421C271.759 242.432 271.923 241.447 272.272 240.522L301.597 162.563C302.301 160.694 303.714 159.183 305.526 158.361C307.337 157.539 309.4 157.474 311.26 158.18L346.803 171.687L363.584 210.643L342.326 267.18C341.617 269.043 340.201 270.547 338.39 271.363C336.579 272.179 334.52 272.24 332.664 271.532Z" fill="#F5F5F5"/>
<path d="M346.803 171.687L338.543 193.627C338.219 194.488 338.066 195.405 338.094 196.325C338.122 197.245 338.33 198.151 338.707 198.99C339.083 199.83 339.62 200.586 340.288 201.217C340.955 201.847 341.739 202.34 342.596 202.666L363.584 210.643L346.803 171.687Z" fill="#EBEBEB"/>
<path d="M338.103 195.664C338.103 195.664 335.83 200.884 341.185 204.958C341.387 205.11 341.598 205.249 341.817 205.376C344.375 206.925 361.203 216.993 361.357 216.583L363.576 210.681L342.588 202.704C342.588 202.704 337.425 200.497 338.103 195.664Z" fill="#E0E0E0"/>
<path d="M334.182 190.947C334.074 191.234 328.187 189.251 321.029 186.533C313.871 183.815 308.154 181.375 308.262 181.112C308.37 180.848 314.257 182.808 321.415 185.526C328.573 188.245 334.29 190.645 334.182 190.947Z" fill="#E0E0E0"/>
<path d="M346.255 209.721C346.147 210 336.516 206.623 324.735 202.123C312.954 197.623 303.485 193.782 303.593 193.495C303.701 193.209 313.332 196.593 325.12 201.101C336.909 205.608 346.34 209.434 346.255 209.721Z" fill="#E0E0E0"/>
<path d="M346.202 221.54C346.094 221.819 335.6 218.093 322.755 213.206C309.911 208.319 299.586 204.137 299.694 203.858C299.802 203.58 310.296 207.305 323.141 212.192C335.985 217.079 346.34 221.253 346.202 221.54Z" fill="#E0E0E0"/>
<path d="M342.526 231.313C342.418 231.592 331.924 227.867 319.079 222.98C306.235 218.093 295.911 213.88 296.018 213.632C296.126 213.384 306.62 217.078 319.465 221.958C332.309 226.837 342.634 231.027 342.526 231.313Z" fill="#E0E0E0"/>
<path d="M338.851 241.088C338.743 241.366 328.241 237.641 315.404 232.754C302.568 227.867 292.236 223.685 292.336 223.406C292.436 223.127 302.938 226.853 315.79 231.732C328.642 236.611 338.951 240.801 338.851 241.088Z" fill="#E0E0E0"/>
<path d="M335.167 250.861C335.067 251.14 324.565 247.407 311.729 242.528C298.892 237.648 288.552 233.459 288.66 233.18C288.768 232.901 299.262 236.626 312.106 241.505C324.951 246.385 335.275 250.574 335.167 250.861Z" fill="#E0E0E0"/>
<path d="M145.822 190.597L71.9463 216.601C69.392 217.501 68.0464 220.311 68.9409 222.878L106.007 329.268C106.901 331.836 109.697 333.188 112.252 332.289L186.128 306.285C188.682 305.385 190.027 302.575 189.133 300.008L152.067 193.618C151.172 191.05 148.377 189.698 145.822 190.597Z" fill="#EBEBEB"/>
<path d="M146.769 197.217L75.3076 222.372L112.045 327.819L183.507 302.664L146.769 197.217Z" fill="#E0E0E0"/>
<path d="M145.498 196.713L74.0361 221.868L110.073 325.305L181.535 300.15L145.498 196.713Z" fill="#FAFAFA"/>
<path d="M181.523 300.149L145.394 196.749L145.525 196.811L74.0764 221.974L74.1457 221.834C87.6141 260.682 100.15 296.563 110.159 325.273L110.043 325.219L181.53 300.149L110.097 325.405H110.013V325.32C99.996 296.61 87.4985 260.728 73.9531 221.889V221.78H74.0533L145.509 196.641H145.61V196.734L181.523 300.149Z" fill="#E0E0E0"/>
<path d="M156.181 309.071C156.181 309.071 172.091 295.579 174.85 281.53C173.253 283.757 171.225 285.636 168.886 287.054C166.547 288.471 163.947 289.398 161.243 289.778C161.243 289.778 160.927 304.493 156.181 309.071Z" fill="#E0E0E0"/>
<path d="M98.4586 244.916L94.6989 246.24C93.3254 246.723 92.6018 248.234 93.0829 249.615L94.3995 253.394C94.8805 254.775 96.3839 255.502 97.7574 255.019L101.517 253.695C102.891 253.212 103.614 251.7 103.133 250.32L101.817 246.541C101.336 245.16 99.8321 244.433 98.4586 244.916Z" fill="#EBEBEB"/>
<path d="M147.343 228.905C147.343 228.967 138.097 232.289 126.624 236.324C115.151 240.359 105.82 243.581 105.82 243.527C105.82 243.473 115.066 240.143 126.547 236.108C138.027 232.073 147.327 228.851 147.343 228.905Z" fill="#E0E0E0"/>
<path d="M125.553 243.79C125.553 243.79 125.315 243.898 124.883 244.069L123.018 244.766C121.477 245.339 119.258 246.121 116.854 246.973C114.45 247.825 112.231 248.584 110.69 249.118L108.803 249.746C108.574 249.83 108.34 249.897 108.102 249.947C108.317 249.834 108.541 249.738 108.772 249.661L110.637 248.971C112.178 248.39 114.397 247.608 116.8 246.756C119.204 245.904 121.423 245.153 122.964 244.611L124.852 243.984C125.08 243.899 125.315 243.834 125.553 243.79Z" fill="#E0E0E0"/>
<path d="M148.322 231.755C148.322 231.809 139.076 235.131 127.595 239.167C116.115 243.202 106.792 246.431 106.792 246.369C106.792 246.307 116.038 242.992 127.526 238.957C139.014 234.922 148.322 231.693 148.322 231.755Z" fill="#E0E0E0"/>
<path d="M103.825 260.328L100.065 261.651C98.6916 262.134 97.9681 263.646 98.4491 265.026L99.7657 268.805C100.247 270.186 101.75 270.913 103.124 270.43L106.883 269.106C108.257 268.623 108.98 267.112 108.499 265.731L107.183 261.952C106.702 260.571 105.198 259.844 103.825 260.328Z" fill="#EBEBEB"/>
<path d="M152.714 244.317C152.714 244.379 143.468 247.694 131.987 251.737C120.507 255.779 111.184 258.993 111.184 258.939C111.184 258.885 120.43 255.555 131.91 251.52C143.39 247.485 152.698 244.263 152.714 244.317Z" fill="#E0E0E0"/>
<path d="M130.924 259.202C130.924 259.202 130.685 259.311 130.245 259.481L128.389 260.178C126.848 260.751 124.629 261.533 122.225 262.385C119.821 263.237 117.602 263.996 116.061 264.531L114.173 265.158C113.944 265.242 113.71 265.309 113.472 265.359C113.686 265.244 113.911 265.148 114.142 265.073L116.007 264.383C117.548 263.803 119.767 263.02 122.171 262.168C124.575 261.316 126.794 260.565 128.335 260.023L130.222 259.396C130.45 259.311 130.685 259.246 130.924 259.202Z" fill="#E0E0E0"/>
<path d="M153.715 247.183C153.715 247.237 144.469 250.56 132.989 254.595C121.509 258.63 112.186 261.859 112.186 261.797C112.186 261.735 121.432 258.421 132.912 254.386C144.392 250.351 153.715 247.106 153.715 247.183Z" fill="#E0E0E0"/>
<path d="M109.2 275.738L105.44 277.061C104.067 277.545 103.343 279.056 103.824 280.436L105.141 284.215C105.622 285.596 107.125 286.323 108.499 285.84L112.258 284.516C113.632 284.033 114.355 282.522 113.874 281.141L112.558 277.362C112.077 275.981 110.573 275.254 109.2 275.738Z" fill="#EBEBEB"/>
<path d="M158.084 259.729C158.084 259.791 148.838 263.106 137.357 267.149C125.877 271.191 116.554 274.406 116.554 274.344C116.554 274.282 125.8 270.967 137.288 266.932C148.776 262.897 158.061 259.675 158.084 259.729Z" fill="#E0E0E0"/>
<path d="M136.294 274.606C136.076 274.719 135.849 274.814 135.616 274.893L133.752 275.59C132.211 276.163 129.999 276.945 127.588 277.797C125.176 278.649 122.965 279.4 121.424 279.943L119.536 280.57C119.307 280.653 119.073 280.72 118.835 280.771C119.05 280.656 119.274 280.56 119.505 280.485L121.37 279.788C122.911 279.215 125.13 278.432 127.534 277.58C129.938 276.729 132.157 275.977 133.698 275.435L135.578 274.808C135.813 274.727 136.052 274.66 136.294 274.606Z" fill="#E0E0E0"/>
<path d="M159.109 262.579C159.109 262.633 149.863 265.956 138.383 269.991C126.902 274.026 117.579 277.255 117.579 277.193C117.579 277.131 126.825 273.817 138.306 269.774C149.786 265.731 159.055 262.517 159.109 262.579Z" fill="#E0E0E0"/>
<path d="M114.567 291.156L110.807 292.479C109.434 292.963 108.71 294.474 109.191 295.854L110.508 299.633C110.989 301.014 112.492 301.741 113.866 301.258L117.625 299.934C118.999 299.451 119.723 297.94 119.242 296.559L117.925 292.78C117.444 291.399 115.94 290.672 114.567 291.156Z" fill="#EBEBEB"/>
<path d="M163.454 275.141C163.454 275.203 154.208 278.518 142.727 282.553C131.247 286.588 121.924 289.817 121.924 289.755C121.924 289.693 131.17 286.379 142.65 282.344C154.131 278.309 163.431 275.064 163.454 275.141Z" fill="#E0E0E0"/>
<path d="M141.657 290.019C141.442 290.134 141.218 290.23 140.987 290.305L139.122 291.002C137.581 291.575 135.362 292.357 132.958 293.209C130.554 294.061 128.335 294.813 126.794 295.355L124.906 295.982C124.459 296.121 124.205 296.191 124.205 296.183C124.42 296.068 124.644 295.972 124.875 295.897L126.74 295.2C128.281 294.627 130.5 293.844 132.904 292.993C135.308 292.141 137.527 291.389 139.068 290.847L140.956 290.22C141.185 290.137 141.419 290.07 141.657 290.019Z" fill="#E0E0E0"/>
<path d="M164.448 277.991C164.448 278.045 155.202 281.368 143.721 285.403C132.241 289.438 122.918 292.66 122.918 292.605C122.918 292.551 132.164 289.229 143.644 285.186C155.125 281.143 164.425 277.929 164.448 277.991Z" fill="#E0E0E0"/>
<path d="M82.1279 211.789L84.008 217.21C84.5338 218.719 85.6342 219.957 87.0674 220.651C88.5006 221.345 90.1493 221.439 91.6513 220.912L131.178 206.971C131.921 206.711 132.606 206.305 133.193 205.778C133.78 205.251 134.258 204.613 134.599 203.9C134.94 203.187 135.139 202.414 135.182 201.624C135.226 200.834 135.114 200.043 134.853 199.296L132.973 193.875L82.1279 211.789Z" fill="#E0E0E0"/>
<path d="M108.078 204.447C107.028 204.818 105.892 204.868 104.814 204.59C103.736 204.312 102.764 203.719 102.021 202.885C101.279 202.052 100.799 201.016 100.643 199.908C100.486 198.8 100.66 197.671 101.143 196.662C101.626 195.654 102.395 194.812 103.354 194.244C104.313 193.676 105.418 193.406 106.529 193.469C107.64 193.532 108.708 193.925 109.597 194.599C110.486 195.272 111.156 196.195 111.523 197.252C112.013 198.665 111.926 200.216 111.28 201.565C110.634 202.914 109.483 203.95 108.078 204.447ZM105.073 195.827C104.426 196.054 103.86 196.469 103.447 197.02C103.034 197.571 102.793 198.232 102.755 198.921C102.716 199.609 102.881 200.293 103.23 200.887C103.578 201.481 104.094 201.958 104.712 202.257C105.33 202.556 106.022 202.665 106.701 202.568C107.38 202.472 108.016 202.175 108.527 201.715C109.039 201.256 109.403 200.654 109.574 199.987C109.745 199.319 109.715 198.615 109.488 197.964C109.184 197.093 108.549 196.378 107.721 195.977C106.893 195.577 105.941 195.522 105.073 195.827Z" fill="#E0E0E0"/>
<path d="M139.669 218.527C139.669 218.628 129.283 222.399 116.392 226.93C103.502 231.461 93.023 235.062 92.9845 234.961C92.946 234.861 103.371 231.089 116.261 226.558C129.152 222.028 139.631 218.395 139.669 218.527Z" fill="#E0E0E0"/>
<path d="M126.316 220.425C126.316 220.525 121.77 222.237 116.076 224.243C110.382 226.249 105.736 227.821 105.698 227.681C105.659 227.542 110.251 225.869 115.945 223.863C121.639 221.857 126.285 220.324 126.316 220.425Z" fill="#E0E0E0"/>
<path d="M331.7 377.357C334.537 376.018 337.726 375.63 340.799 376.249C342.448 376.52 344.174 377.024 345.291 378.263C346.408 379.502 346.632 381.702 345.337 382.77C344.502 383.341 343.492 383.597 342.487 383.491C340.075 383.491 337.409 383.034 335.49 384.49C334.389 385.318 333.664 386.697 332.355 387.107C331.695 387.262 331.004 387.194 330.387 386.914C329.77 386.634 329.262 386.158 328.941 385.558C328.318 384.347 328.181 382.942 328.556 381.632C328.718 380.724 329.085 379.866 329.63 379.125C330.176 378.383 330.884 377.778 331.7 377.357Z" fill="#FF725E"/>
<path d="M325.321 365.057C327.016 367.481 330.306 366.684 331.831 365.197C333.357 363.71 333.996 361.564 334.582 359.52C335.923 354.834 337.279 349.924 336.285 345.153C336.037 343.72 335.406 342.381 334.459 341.281C333.976 340.735 333.358 340.326 332.669 340.095C331.979 339.864 331.241 339.819 330.529 339.964C328.865 340.406 327.84 342.04 327.093 343.589C324.895 348.181 323.745 353.208 323.726 358.304C323.726 360.674 323.995 363.152 325.321 365.112" fill="#FF725E"/>
<path d="M320.674 368.543C321.545 367.401 322.125 366.062 322.364 364.644C322.603 363.225 322.493 361.769 322.046 360.403C321.114 357.682 319.456 355.27 317.253 353.433C314.748 351.192 311.833 349.464 308.67 348.344C307.448 347.848 306.134 347.623 304.817 347.686C304.159 347.723 303.52 347.922 302.956 348.265C302.392 348.608 301.92 349.085 301.581 349.653C300.672 351.388 301.581 353.487 302.475 355.198C304.124 358.22 306.01 361.105 308.115 363.826C309.802 366.018 311.736 368.179 314.317 369.17C316.899 370.161 319.565 370.037 320.928 368.248" fill="#FF725E"/>
<path d="M325.213 401.698C325.297 401.337 325.346 400.969 325.359 400.599C325.444 399.824 325.536 398.786 325.652 397.586C325.8 396.101 326.026 394.625 326.33 393.164C326.721 391.386 327.255 389.643 327.925 387.951C328.583 386.262 329.475 384.674 330.575 383.235C331.472 382.062 332.617 381.104 333.927 380.431C334.814 379.988 335.766 379.69 336.747 379.548C337.116 379.535 337.483 379.483 337.841 379.393C337.47 379.353 337.095 379.353 336.724 379.393C335.708 379.476 334.714 379.738 333.788 380.168C332.408 380.82 331.198 381.785 330.252 382.987C329.107 384.449 328.183 386.072 327.509 387.804C326.825 389.52 326.294 391.292 325.921 393.102C325.638 394.581 325.442 396.076 325.336 397.578C325.236 398.856 325.205 399.902 325.189 400.606C325.154 400.97 325.162 401.337 325.213 401.698Z" fill="#263238"/>
<path d="M325.413 399.383C325.436 399.213 325.436 399.041 325.413 398.871V397.431C325.413 396.161 325.413 394.333 325.475 392.01C325.59 387.463 325.975 382.577 326.73 375.684C327.439 369.201 328.395 361.658 329.404 356.755C329.62 355.64 329.836 354.633 330.044 353.758C330.252 352.883 330.406 352.116 330.568 351.505C330.729 350.893 330.814 350.451 330.907 350.079C330.949 349.911 330.98 349.741 330.999 349.568C330.922 349.721 330.862 349.882 330.822 350.049C330.706 350.42 330.568 350.885 330.398 351.458C330.229 352.031 330.013 352.821 329.797 353.696C329.581 354.571 329.327 355.571 329.088 356.686C327.853 362.493 326.925 368.361 326.307 374.266C325.536 381.175 325.213 387.432 325.189 392.017C325.189 394.294 325.189 396.138 325.267 397.439C325.267 398.035 325.328 398.523 325.351 398.902C325.358 399.064 325.378 399.225 325.413 399.383Z" fill="#263238"/>
<path d="M325.443 387.255C325.486 386.739 325.486 386.221 325.443 385.706C325.356 384.317 325.199 382.935 324.973 381.562C324.643 379.524 324.195 377.507 323.633 375.521C322.981 373.077 322.141 370.687 321.121 368.373C319.377 364.108 316.879 360.195 313.747 356.825C313.201 356.25 312.62 355.709 312.006 355.207C311.744 354.974 311.505 354.75 311.235 354.572L310.565 354.107C310.161 353.796 309.731 353.521 309.278 353.286C310.758 354.448 312.16 355.705 313.478 357.05C316.515 360.443 318.949 364.336 320.674 368.559C321.673 370.859 322.517 373.224 323.201 375.637C323.781 377.604 324.257 379.6 324.627 381.616C324.943 383.344 325.127 384.714 325.235 385.721C325.267 386.237 325.337 386.749 325.443 387.255Z" fill="#263238"/>
<path d="M313.778 408.653L314.988 425.305H336.269L337.479 408.653H313.778Z" fill="#263238"/>
<path d="M340.021 402.093H311.721V408.66H340.021V402.093Z" fill="#263238"/>
<path d="M311.721 424.669V426.489H313.054H339.551V424.669H311.721Z" fill="#455A64"/>
<path d="M314.356 429.688L313.054 426.489H338.542L337.016 429.688H314.356Z" fill="#455A64"/>
<path d="M337.093 414.09C337.093 414.09 337.093 414.152 336.993 414.245L336.677 414.671L335.436 416.266L335.383 416.336L335.329 416.259L332.285 412.03H332.47L329.465 416.297L329.373 416.429L329.265 416.305L325.713 412.045H325.913L325.72 412.293L322.538 416.297L322.438 416.437L322.338 416.297C321.259 414.748 320.25 413.323 319.333 412.03H319.51L315.82 416.259L315.75 416.336L315.696 416.251C315.211 415.43 314.826 414.772 314.541 414.299L314.248 413.78C314.209 413.723 314.178 413.66 314.155 413.594C314.155 413.594 314.202 413.641 314.279 413.757L314.61 414.26L315.82 416.173H315.704L319.341 411.891L319.433 411.782L319.518 411.898L322.546 416.15H322.338L325.536 412.146L325.736 411.898L325.836 411.767L325.936 411.891L329.488 416.158H329.288L332.316 411.906L332.401 411.782L332.493 411.906C333.687 413.633 334.712 415.097 335.475 416.189H335.359L336.654 414.64L337.001 414.237L337.093 414.09Z" fill="#E0E0E0"/>
<path d="M337.779 408.537C337.779 408.614 332.447 408.676 325.867 408.676C319.287 408.676 313.955 408.614 313.955 408.537C313.955 408.459 319.287 408.405 325.867 408.405C332.447 408.405 337.779 408.467 337.779 408.537Z" fill="#455A64"/>
<path d="M338.858 426.668C338.858 426.737 333.056 426.799 325.913 426.799C318.771 426.799 312.969 426.737 312.969 426.668C312.969 426.598 318.763 426.528 325.913 426.528C333.063 426.528 338.858 426.59 338.858 426.668Z" fill="#263238"/>
<path d="M128.905 373.538C128.843 373.608 128.358 373.314 127.818 372.88C127.279 372.446 126.886 372.036 126.948 371.958C127.009 371.881 127.487 372.183 128.026 372.617C128.566 373.05 128.959 373.461 128.905 373.538Z" fill="#263238"/>
<path d="M143.698 351.358C143.908 349.292 143.738 347.205 143.197 345.201C142.55 343.226 141.04 341.421 139.021 340.995C136.71 340.515 134.352 341.979 133.058 343.961C131.763 345.944 131.324 348.345 130.939 350.676C128.31 366.784 127.342 383.122 128.049 399.429L137.48 400.761C141.587 383.746 142.928 368.869 143.698 351.358Z" fill="#455A64"/>
<path d="M137.673 340.895L137.626 341.049L137.472 341.475L136.841 343.117C136.71 343.474 136.532 343.892 136.394 344.302L135.939 345.735L135.407 347.385L134.922 349.267C134.13 352.375 133.521 355.527 133.096 358.707C132.587 362.27 132.256 366.22 131.986 370.371C131.509 378.681 131.432 386.225 131.216 391.677C131.116 394.411 131.023 396.618 130.923 398.136C130.869 398.911 130.831 399.46 130.8 399.894C130.8 400.072 130.8 400.227 130.8 400.343C130.8 400.459 130.8 400.498 130.8 400.498C130.8 400.498 130.8 400.452 130.8 400.343C130.8 400.235 130.8 400.072 130.8 399.886C130.8 399.46 130.8 398.872 130.854 398.128C130.915 396.579 130.969 394.403 131.039 391.669C131.193 386.248 131.231 378.673 131.717 370.356C131.979 366.197 132.325 362.239 132.849 358.661C133.291 355.491 133.927 352.351 134.752 349.259L135.261 347.377C135.461 346.799 135.646 346.249 135.816 345.727L136.309 344.294C136.455 343.861 136.64 343.474 136.779 343.117L137.472 341.506C137.544 341.336 137.606 341.197 137.657 341.088C137.652 341.023 137.657 340.958 137.673 340.895Z" fill="#263238"/>
<path d="M138.543 340.933C139.034 341.516 139.425 342.179 139.699 342.892C140.42 344.851 140.711 346.943 140.554 349.026C140.307 354.269 139.837 361.487 139.221 369.464C138.605 377.441 137.903 384.644 137.349 389.856C137.064 392.459 136.825 394.565 136.647 396.052C136.555 396.757 136.486 397.314 136.432 397.725L136.37 398.159C136.374 398.208 136.374 398.257 136.37 398.306C136.37 398.306 136.37 398.259 136.37 398.159C136.37 398.058 136.37 397.895 136.37 397.717C136.37 397.307 136.455 396.749 136.517 396.037C136.663 394.55 136.863 392.451 137.11 389.841C137.603 384.621 138.258 377.449 138.882 369.441C139.506 361.433 140.007 354.254 140.315 349.026C140.483 346.968 140.22 344.897 139.545 342.946C139.271 342.247 138.935 341.573 138.543 340.933Z" fill="#263238"/>
<path d="M145.085 365.475C144.466 365.43 143.86 365.273 143.297 365.011C142.698 364.854 142.132 364.592 141.625 364.236C142.245 364.277 142.851 364.435 143.413 364.701C144.012 364.856 144.578 365.118 145.085 365.475Z" fill="#263238"/>
<path d="M146.225 355.811C145.714 356.221 145.138 356.543 144.522 356.763C143.95 357.082 143.327 357.299 142.681 357.406C143.761 356.672 144.96 356.132 146.225 355.811Z" fill="#263238"/>
<path d="M145.632 347.918C144.701 348.087 143.742 348.021 142.843 347.724C143.299 347.593 143.779 347.569 144.245 347.655C144.721 347.634 145.196 347.724 145.632 347.918Z" fill="#263238"/>
<path d="M135.893 342.869C135.816 342.915 135.4 342.396 134.976 341.715C134.668 341.321 134.45 340.863 134.337 340.375C134.414 340.329 134.83 340.84 135.262 341.529C135.693 342.218 135.993 342.815 135.893 342.869Z" fill="#263238"/>
<path d="M132.679 347.64C132.25 347.795 131.79 347.843 131.339 347.779C130.885 347.823 130.427 347.754 130.006 347.578C130.435 347.423 130.895 347.375 131.347 347.438C131.801 347.395 132.258 347.464 132.679 347.64Z" fill="#263238"/>
<path d="M130.369 357.158C129.875 357.139 129.393 357.006 128.959 356.771C128.483 356.635 128.043 356.394 127.672 356.066C128.165 356.086 128.647 356.219 129.082 356.454C129.558 356.59 129.997 356.83 130.369 357.158Z" fill="#263238"/>
<path d="M130.121 365.205C130.121 365.298 129.605 365.492 128.919 365.631C128.234 365.771 127.671 365.825 127.648 365.732C127.625 365.639 128.172 365.445 128.85 365.306C129.259 365.167 129.696 365.132 130.121 365.205Z" fill="#263238"/>
<path d="M129.058 378.34C129.058 378.433 128.504 378.611 127.779 378.743C127.347 378.872 126.889 378.894 126.446 378.805C126.835 378.572 127.274 378.437 127.725 378.41C128.157 378.276 128.615 378.252 129.058 378.34Z" fill="#263238"/>
<path d="M128.288 385.589C128.334 385.666 127.856 386.007 127.224 386.363C126.593 386.72 126.046 386.905 126.007 386.82C125.969 386.735 126.439 386.402 127.07 386.046C127.702 385.69 128.288 385.504 128.288 385.589Z" fill="#263238"/>
<path d="M134.198 393.814C134.121 393.86 133.705 393.287 133.273 392.528C132.961 392.094 132.746 391.597 132.642 391.072C132.719 391.026 133.135 391.599 133.566 392.358C133.878 392.792 134.094 393.288 134.198 393.814Z" fill="#263238"/>
<path d="M135.9 380.145C135.962 380.207 135.5 380.772 134.868 381.399C134.236 382.027 133.666 382.476 133.597 382.406C133.527 382.337 133.997 381.779 134.629 381.152C135.261 380.524 135.831 380.075 135.9 380.145Z" fill="#263238"/>
<path d="M135.523 372.965C135.453 373.035 135.03 372.679 134.567 372.191C134.105 371.703 133.797 371.23 133.858 371.168C133.92 371.106 134.352 371.455 134.814 371.943C135.276 372.431 135.592 372.903 135.523 372.965Z" fill="#263238"/>
<path d="M136.694 363.803C136.764 363.865 136.379 364.415 135.831 365.019C135.284 365.623 134.791 366.08 134.722 366.018C134.653 365.956 135.038 365.406 135.577 364.794C136.117 364.182 136.625 363.741 136.694 363.803Z" fill="#263238"/>
<path d="M137.349 357.158C137.279 357.227 136.748 356.801 136.147 356.213C135.546 355.624 135.122 355.09 135.184 355.02C135.245 354.95 135.785 355.376 136.386 355.973C136.987 356.569 137.41 357.088 137.349 357.158Z" fill="#263238"/>
<path d="M138.644 348.159C138.542 348.648 138.334 349.108 138.035 349.507C137.627 350.204 137.226 350.73 137.149 350.684C137.072 350.637 137.334 350.033 137.75 349.336C138.166 348.639 138.559 348.113 138.644 348.159Z" fill="#263238"/>
<path d="M141.071 339.825C141.156 339.872 140.917 340.476 140.539 341.173C140.162 341.87 139.769 342.404 139.707 342.366C139.78 341.882 139.962 341.421 140.239 341.018C140.616 340.313 140.986 339.787 141.071 339.825Z" fill="#263238"/>
<path d="M143.829 343.613C143.867 343.698 143.49 343.961 142.981 344.209C142.473 344.457 142.033 344.581 141.995 344.496C141.956 344.41 142.334 344.147 142.842 343.899C143.351 343.651 143.79 343.528 143.829 343.613Z" fill="#263238"/>
<path d="M143.89 373.538C142.611 373.444 141.398 372.923 140.446 372.059C141.046 372.241 141.627 372.482 142.18 372.779C142.774 372.972 143.348 373.227 143.89 373.538Z" fill="#263238"/>
<path d="M142.765 379.873C142.765 379.966 142.218 380.152 141.494 380.291C141.064 380.43 140.606 380.459 140.161 380.376C140.547 380.139 140.982 379.996 141.432 379.958C142.157 379.819 142.75 379.78 142.765 379.873Z" fill="#263238"/>
<path d="M141.386 390.74C141.332 390.817 140.616 390.314 139.953 389.477C139.512 389 139.201 388.415 139.052 387.781C139.482 388.242 139.872 388.739 140.215 389.268C140.65 389.722 141.042 390.214 141.386 390.74Z" fill="#263238"/>
<path d="M126.215 395.711C126.154 395.641 126.539 395.208 127.071 394.751C127.602 394.294 128.088 393.976 128.149 394.054C128.211 394.131 127.826 394.549 127.294 395.014C126.763 395.479 126.277 395.781 126.215 395.711Z" fill="#263238"/>
<path d="M121.855 371.997C121.238 370.069 120.09 367.823 118.079 367.792C117.48 367.825 116.901 368.019 116.402 368.354C115.903 368.689 115.503 369.153 115.244 369.697C114.69 370.772 114.425 371.973 114.473 373.182C114.722 381.766 116.177 390.272 118.796 398.446H126.17C126.08 389.46 124.625 380.541 121.855 371.997Z" fill="#455A64"/>
<path d="M108.532 359.861C108.168 358.055 107.21 356.424 105.813 355.23C104.416 354.037 102.66 353.349 100.827 353.278C97.5683 353.851 96.3047 357.073 95.9194 360.373C95.5342 363.672 96.5512 366.956 97.5606 370.123C100.786 380.284 104.017 390.448 107.253 400.614L116.422 399.607C113.556 385.992 111.892 373.368 108.532 359.861Z" fill="#455A64"/>
<path d="M118.078 367.792C117.84 368.121 117.631 368.471 117.454 368.838C117.074 369.885 116.955 371.009 117.108 372.114C117.246 373.523 117.408 375.211 117.647 377.07C117.886 378.929 118.217 380.943 118.633 383.096C119.465 387.355 120.405 391.166 120.999 393.938C121.299 395.325 121.53 396.455 121.669 397.238C121.731 397.602 121.785 397.896 121.823 398.144C121.862 398.392 121.869 398.461 121.823 398.461C121.783 398.364 121.752 398.263 121.731 398.159L121.515 397.269C121.315 396.44 121.053 395.332 120.744 393.992C120.089 391.22 119.111 387.417 118.279 383.15C117.863 381.012 117.508 378.968 117.316 377.093C117.192 376.164 117.115 375.266 117.038 374.437C116.961 373.608 116.884 372.826 116.846 372.114C116.714 370.977 116.873 369.825 117.308 368.768C117.491 368.39 117.754 368.057 118.078 367.792Z" fill="#263238"/>
<path d="M100.997 353.015C100.589 353.483 100.218 353.982 99.8876 354.509C99.0437 355.982 98.5653 357.637 98.493 359.334C98.4546 361.851 98.8375 364.357 99.6256 366.746C100.396 369.488 101.313 372.5 102.245 375.653C104.071 381.972 105.72 387.688 106.93 391.862L108.317 396.788C108.471 397.346 108.586 397.787 108.679 398.128C108.729 398.281 108.763 398.44 108.779 398.6C108.708 398.456 108.652 398.306 108.61 398.151C108.509 397.81 108.363 397.377 108.194 396.819C107.831 395.634 107.323 393.969 106.706 391.932L101.922 375.746C100.997 372.578 100.126 369.55 99.3251 366.824C98.5402 364.4 98.1778 361.859 98.2541 359.311C98.3534 357.581 98.8833 355.903 99.7951 354.432C100.115 353.896 100.521 353.417 100.997 353.015Z" fill="#263238"/>
<path d="M114.457 398.623C114.38 398.48 114.31 398.333 114.249 398.182C114.134 397.88 113.941 397.454 113.733 396.881C113.294 395.75 112.732 394.085 112.192 391.994C111.653 389.903 111.036 387.347 110.482 384.559C109.927 381.771 109.372 378.649 108.756 375.397C108.139 372.144 107.415 369.085 106.591 366.351C105.875 363.92 104.982 361.546 103.917 359.249C103.193 357.703 102.367 356.207 101.444 354.772C101.128 354.261 100.843 353.882 100.673 353.618C100.577 353.487 100.492 353.347 100.419 353.2C100.532 353.315 100.635 353.439 100.727 353.572C100.92 353.835 101.22 354.192 101.552 354.703C102.526 356.115 103.389 357.601 104.133 359.148C105.238 361.44 106.158 363.818 106.883 366.258C107.754 369.244 108.469 372.274 109.025 375.335C109.634 378.58 110.204 381.678 110.728 384.504C111.252 387.331 111.807 389.833 112.362 391.932C112.916 394.031 113.433 395.696 113.833 396.834C114.018 397.415 114.195 397.849 114.296 398.151C114.367 398.302 114.421 398.46 114.457 398.623Z" fill="#263238"/>
<path d="M97.7612 368.605C97.7612 368.69 97.2835 368.892 96.644 369.047C96.0044 369.202 95.4728 369.256 95.4574 369.163C95.442 369.07 95.9274 368.876 96.5669 368.721C97.2064 368.566 97.7381 368.512 97.7612 368.605Z" fill="#263238"/>
<path d="M96.79 362.316C96.2892 362.458 95.7685 362.515 95.249 362.486C94.7364 362.559 94.2153 362.543 93.708 362.44C94.1878 362.21 94.7187 362.109 95.249 362.146C95.7687 362.07 96.2992 362.128 96.79 362.316Z" fill="#263238"/>
<path d="M97.8229 356.57C97.7613 356.647 97.2605 356.322 96.7134 355.85C96.1664 355.377 95.758 354.936 95.8196 354.866C95.8813 354.796 96.3744 355.114 96.9292 355.586C97.4839 356.059 97.8846 356.5 97.8229 356.57Z" fill="#263238"/>
<path d="M100.619 351.257C100.712 351.257 100.681 351.729 100.673 352.264C100.666 352.798 100.673 353.255 100.558 353.27C100.442 353.286 100.319 352.837 100.334 352.256C100.35 351.675 100.55 351.234 100.619 351.257Z" fill="#263238"/>
<path d="M106.329 353.758C106.406 353.812 106.183 354.269 105.828 354.773C105.474 355.276 105.127 355.648 105.058 355.594C104.989 355.54 105.204 355.09 105.551 354.579C105.898 354.068 106.252 353.704 106.329 353.758Z" fill="#263238"/>
<path d="M110.035 360.256C110.035 360.349 109.595 360.62 108.979 360.876C108.363 361.131 107.823 361.263 107.792 361.178C107.762 361.092 108.232 360.814 108.848 360.566C109.464 360.318 110.004 360.148 110.035 360.256Z" fill="#263238"/>
<path d="M112.285 366.894C111.877 367.249 111.372 367.473 110.836 367.536C110.323 367.704 109.773 367.722 109.249 367.591C109.743 367.394 110.262 367.263 110.79 367.203C111.274 367.039 111.776 366.935 112.285 366.894Z" fill="#263238"/>
<path d="M101.96 365.003C101.876 365.003 101.96 364.515 102.107 363.973C102.253 363.431 102.484 363.02 102.569 363.051C102.654 363.082 102.569 363.539 102.423 364.082C102.276 364.624 102.091 365.034 101.96 365.003Z" fill="#263238"/>
<path d="M103.401 373.368C103.433 372.879 103.575 372.405 103.817 371.981C104.133 371.253 104.457 370.696 104.542 370.734C104.511 371.222 104.368 371.697 104.126 372.121C103.81 372.849 103.486 373.422 103.401 373.368Z" fill="#263238"/>
<path d="M99.8409 375.66C99.3868 375.649 98.9393 375.549 98.5233 375.366C97.8221 375.141 97.252 374.94 97.2751 374.847C97.7337 374.788 98.1997 374.855 98.6235 375.041C99.34 375.265 99.8794 375.575 99.8409 375.66Z" fill="#263238"/>
<path d="M101.891 382.476C101.945 382.554 101.552 382.925 101.02 383.312C100.489 383.7 99.9954 383.948 99.9415 383.878C99.8875 383.808 100.28 383.421 100.82 383.034C101.359 382.646 101.837 382.399 101.891 382.476Z" fill="#263238"/>
<path d="M103.54 389.275C103.54 389.36 103.077 389.562 102.453 389.709C101.829 389.856 101.313 389.91 101.29 389.825C101.267 389.74 101.752 389.539 102.376 389.384C103 389.229 103.517 389.182 103.54 389.275Z" fill="#263238"/>
<path d="M112.47 372.578C112.516 372.656 112.1 372.989 111.499 373.213C110.898 373.438 110.359 373.469 110.343 373.384C110.328 373.299 110.805 373.12 111.376 372.896C111.946 372.671 112.423 372.493 112.47 372.578Z" fill="#263238"/>
<path d="M113.741 383.15C113.703 383.235 113.21 383.088 112.639 382.817C112.069 382.546 111.638 382.259 111.676 382.174C111.715 382.089 112.216 382.244 112.786 382.507C113.356 382.77 113.787 383.065 113.741 383.15Z" fill="#263238"/>
<path d="M115.998 390.724C115.488 390.698 114.989 390.563 114.534 390.329C113.764 390.027 113.171 389.709 113.201 389.616C113.709 389.643 114.206 389.777 114.658 390.011C115.428 390.313 116.029 390.631 115.998 390.724Z" fill="#263238"/>
<path d="M103.902 396.656C103.856 396.571 104.457 396.168 105.15 395.618C105.844 395.068 106.383 394.573 106.452 394.642C106.522 394.712 106.082 395.308 105.358 395.881C104.955 396.273 104.45 396.541 103.902 396.656Z" fill="#263238"/>
<path d="M109.85 392.783C109.758 392.783 109.627 392.288 109.395 391.699C109.164 391.111 108.933 390.638 109.01 390.584C109.087 390.53 109.473 390.932 109.711 391.575C109.95 392.218 109.943 392.783 109.85 392.783Z" fill="#263238"/>
<path d="M108.255 383.699C108.201 383.777 107.815 383.591 107.392 383.289C106.968 382.987 106.675 382.677 106.729 382.6C106.783 382.522 107.168 382.708 107.592 383.01C108.016 383.312 108.332 383.622 108.255 383.699Z" fill="#263238"/>
<path d="M122.124 369.433C122.178 369.511 121.8 369.882 121.284 370.262C120.768 370.641 120.305 370.897 120.251 370.819C120.197 370.742 120.567 370.378 121.083 369.991C121.6 369.603 122.124 369.356 122.124 369.433Z" fill="#263238"/>
<path d="M124.242 375.18C124.242 375.273 123.665 375.397 122.94 375.319C122.216 375.242 121.669 374.994 121.692 374.909C121.715 374.824 122.285 374.909 122.979 374.978C123.672 375.048 124.235 375.087 124.242 375.18Z" fill="#263238"/>
<path d="M115.252 376.474C115.252 376.559 114.735 376.753 114.026 376.799C113.318 376.846 112.763 376.729 112.771 376.636C112.778 376.543 113.333 376.512 114.011 376.466C114.689 376.42 115.236 376.381 115.252 376.474Z" fill="#263238"/>
<path d="M116.029 371.037C116.029 371.129 115.475 371.145 114.874 370.858C114.273 370.572 113.926 370.161 113.988 370.084C114.049 370.006 114.465 370.301 115.012 370.549C115.559 370.796 116.037 370.944 116.029 371.037Z" fill="#263238"/>
<path d="M125.014 381.353C124.967 381.431 124.405 381.167 123.758 380.757C123.111 380.346 122.633 379.982 122.687 379.874C122.741 379.765 123.295 380.067 123.943 380.47C124.59 380.873 125.068 381.276 125.014 381.353Z" fill="#263238"/>
<path d="M146.95 397.485H98.9863V406.028H146.95V397.485Z" fill="#FF725E"/>
<path d="M102.568 404.331L108.401 429.866H136.987L143.366 404.331H102.568Z" fill="#FF725E"/>
<path d="M146.926 406.036C146.926 406.129 136.139 406.206 122.763 406.206C109.388 406.206 98.6006 406.129 98.6006 406.036C98.6006 405.943 109.388 405.865 122.763 405.865C136.139 405.865 146.926 405.95 146.926 406.036Z" fill="#263238"/>
<path d="M120.252 376.659C120.175 376.706 119.844 376.326 119.52 375.799C119.196 375.273 118.996 374.808 119.073 374.762C119.15 374.715 119.481 375.095 119.805 375.621C120.129 376.148 120.329 376.605 120.252 376.659Z" fill="#263238"/>
<path d="M120.267 383.529C120.244 383.084 120.332 382.639 120.522 382.236C120.745 381.547 121.007 381.012 121.092 381.043C121.115 381.491 121.028 381.939 120.837 382.344C120.583 383.026 120.36 383.56 120.267 383.529Z" fill="#263238"/>
<path d="M122.609 390.747C122.525 390.794 122.17 390.213 121.839 389.462C121.573 389.026 121.405 388.537 121.346 388.029C121.43 387.983 121.785 388.563 122.116 389.315C122.382 389.751 122.55 390.239 122.609 390.747Z" fill="#263238"/>
<path d="M117.547 396.555C117.478 396.493 117.763 396.052 118.187 395.556C118.611 395.06 119.004 394.72 119.081 394.782C119.158 394.844 118.865 395.293 118.441 395.781C118.018 396.269 117.617 396.656 117.547 396.555Z" fill="#263238"/>
<path d="M116.484 386.015C116.484 386.108 116.006 386.1 115.452 386.015C114.897 385.93 114.465 385.767 114.481 385.674C114.496 385.581 114.959 385.589 115.506 385.674C116.053 385.759 116.5 385.922 116.484 386.015Z" fill="#263238"/>
<path d="M283.352 338.757H169.61V429.928H283.352V338.757Z" fill="#E0E0E0"/>
<g opacity="0.3">
<path opacity="0.3" d="M177.894 338.943C191.285 343.744 206.055 344.774 220.425 345.045C223.407 345.1 226.42 345.092 229.301 345.82C232.183 346.548 234.964 348.198 236.444 350.792C238.054 353.619 237.885 357.158 236.968 360.279C236.051 363.4 234.471 366.289 233.331 369.333C231.312 374.718 230.694 380.532 231.536 386.224C231.795 388.649 232.607 390.981 233.909 393.04C234.568 394.062 235.457 394.916 236.503 395.531C237.549 396.147 238.724 396.509 239.934 396.587C244.257 396.649 247.215 392.381 249.357 388.602C258.149 373.112 267.657 355.532 273.281 338.625L177.894 338.943Z" fill="black"/>
</g>
<path d="M208.366 429.44C208.251 429.44 208.166 409.234 208.166 384.311C208.166 359.389 208.251 339.175 208.366 339.175C208.482 339.175 208.567 359.381 208.567 384.311C208.567 409.242 208.474 429.44 208.366 429.44Z" fill="#455A64"/>
<path d="M254.974 271.378C254.635 269.101 247.87 261.588 247.87 261.588C247.87 261.588 244.495 247.95 243.478 243.93C243.139 242.768 242.644 241.658 242.006 240.631C239.614 236.625 236.212 233.326 232.144 231.066L222.782 225.777L220.548 220.773L198.065 209.156L191.97 219.999C191.97 219.999 177.169 224.723 175.212 228.077C173.255 231.43 176.182 276.714 176.182 276.714C176.182 276.714 170.018 302.829 168.686 308.235C167.353 313.641 169.102 320.084 169.102 320.084L180.127 306.183C183.556 301.861 191.076 299.871 196.477 299.948L242.638 300.157L240.781 287.161L278.127 294.426C278.127 294.426 284.546 281.833 285.062 281.585C285.578 281.337 254.974 271.378 254.974 271.378Z" fill="#FF725E"/>
<path d="M246.221 280.485C246.187 280.298 246.187 280.106 246.221 279.919C246.272 279.413 246.37 278.913 246.514 278.425C246.982 276.796 247.851 275.312 249.041 274.111C250.238 272.913 251.713 272.035 253.333 271.555C253.818 271.41 254.316 271.312 254.82 271.261C255.003 271.226 255.191 271.226 255.375 271.261C255.375 271.33 254.604 271.416 253.418 271.826C251.878 272.357 250.479 273.236 249.329 274.394C248.179 275.553 247.308 276.961 246.784 278.51C246.375 279.71 246.291 280.485 246.221 280.485Z" fill="#263238"/>
<path d="M247.361 271.687C248.389 271.08 249.552 270.742 250.744 270.704C251.924 270.539 253.126 270.683 254.234 271.122C254.234 271.246 252.693 270.944 250.775 271.122C248.856 271.3 247.408 271.803 247.361 271.687Z" fill="#263238"/>
<g opacity="0.3">
<path opacity="0.3" d="M173.957 291.723L172.03 293.907C174.039 296.399 176.761 298.21 179.828 299.096C182.919 299.755 186.077 300.041 189.236 299.948C190.515 300.01 191.797 299.887 193.042 299.584C194.298 299.22 195.461 298.507 196.763 298.43C197.637 298.434 198.505 298.559 199.344 298.801C200.189 299.042 201.082 299.055 201.933 298.84C202.355 298.726 202.729 298.478 202.999 298.133C203.27 297.789 203.423 297.366 203.436 296.927C193.83 294.105 183.944 292.36 173.957 291.723Z" fill="black"/>
</g>
<path d="M237.137 294.526L231.744 288.733L220.533 285.906C220.533 285.906 210.301 289.004 210.054 289.004C209.808 289.004 201.147 286.619 201.147 286.619L198.119 297.787L213.722 298.863L231.536 298.143C231.536 298.143 232.468 297.276 231.913 296.679C231.358 296.083 234.895 297.686 235.311 297.702C235.727 297.717 236.529 298.042 237.083 297.376C237.461 296.881 237.969 295.417 237.137 294.526Z" fill="#FFBE9D"/>
<path d="M231.913 296.641C231.308 296.526 230.715 296.355 230.141 296.13C229.063 295.789 227.56 295.355 225.888 294.891C224.216 294.426 222.675 294.116 221.558 293.923C220.947 293.842 220.345 293.7 219.763 293.497C220.38 293.47 220.998 293.516 221.604 293.636C223.078 293.843 224.539 294.133 225.981 294.504C227.424 294.872 228.845 295.327 230.234 295.867C230.824 296.052 231.389 296.312 231.913 296.641Z" fill="#EB996E"/>
<path d="M237.137 294.527C236.297 294.313 235.469 294.054 234.656 293.752C233.115 293.241 231.012 292.606 228.646 291.948C226.281 291.289 224.185 290.538 222.59 290.445C221.731 290.401 220.87 290.434 220.017 290.546C220.225 290.431 220.452 290.352 220.687 290.313C221.317 290.177 221.962 290.125 222.605 290.158C224.254 290.158 226.458 290.863 228.769 291.56C231.081 292.257 233.254 292.9 234.764 293.489C235.534 293.775 236.112 294.039 236.528 294.224C236.745 294.295 236.95 294.396 237.137 294.527Z" fill="#EB996E"/>
<path d="M175.212 228.076C175.212 228.076 167.16 233.707 165.196 241.808C163.231 249.909 154.748 283.017 156.489 287.966C158.23 292.915 192.086 297.779 192.086 297.779L196.1 280.741L178.903 276.008C178.903 276.008 179.126 260.248 179.342 253.719C179.558 247.19 175.212 228.076 175.212 228.076Z" fill="#FF725E"/>
<path d="M156.365 286.217C156.365 286.217 156.365 286.503 156.45 286.991C156.638 287.74 157.049 288.413 157.629 288.92C159.101 290.298 161.913 291.444 165.473 292.087C167.099 292.629 168.955 293.055 170.936 293.504C172.916 293.954 175.058 294.411 177.308 294.867C181.815 295.797 186.8 296.773 192.086 297.764L191.855 297.911C192.232 296.362 192.625 294.666 193.049 292.97C193.997 289.098 194.921 285.287 195.792 281.701L195.931 281.934L180.682 277.589C178.577 276.698 176.299 276.296 174.018 276.412C172.284 276.509 170.581 276.913 168.986 277.604C167.973 278.045 167.005 278.585 166.097 279.215L165.396 279.726C165.319 279.789 165.236 279.843 165.149 279.889C165.149 279.889 165.219 279.812 165.365 279.688C165.511 279.564 165.735 279.37 166.043 279.138C166.938 278.471 167.901 277.902 168.917 277.442C170.521 276.711 172.244 276.278 174.002 276.164C176.324 276.015 178.648 276.402 180.798 277.295L196.092 281.601L196.277 281.647L196.231 281.833C195.36 285.419 194.444 289.198 193.504 293.109C193.087 294.798 192.687 296.471 192.302 298.043L192.255 298.229H192.07C186.785 297.23 181.807 296.238 177.3 295.293C175.05 294.821 172.916 294.349 170.928 293.884C168.94 293.419 167.075 292.978 165.442 292.412C161.836 291.723 159.024 290.53 157.537 289.082C156.947 288.549 156.542 287.841 156.381 287.061C156.325 286.783 156.32 286.497 156.365 286.217Z" fill="#263238"/>
<path d="M179.842 277.163C179.796 277.217 179.218 276.683 178.186 275.993C175.482 274.173 172.286 273.235 169.032 273.306C167.784 273.306 167.021 273.476 167.006 273.407C167.651 273.172 168.331 273.044 169.017 273.027C172.36 272.783 175.679 273.754 178.371 275.761C178.935 276.143 179.432 276.617 179.842 277.163Z" fill="#263238"/>
<path d="M182.101 249.437C182.129 249.782 182.129 250.129 182.101 250.474C182.101 251.148 182.031 252.108 181.939 253.301C181.746 255.679 181.4 258.955 180.775 262.548C180.288 265.623 179.574 268.657 178.641 271.625C178.456 272.191 178.256 272.702 178.094 273.174L177.601 274.289C177.457 274.607 177.278 274.909 177.069 275.188C177.166 274.856 177.295 274.534 177.455 274.228C177.586 273.894 177.724 273.515 177.886 273.097C178.048 272.679 178.202 272.136 178.371 271.548C179.214 268.568 179.885 265.543 180.382 262.486C180.999 258.908 181.392 255.648 181.654 253.278C181.769 252.155 181.87 251.218 181.947 250.474C181.957 250.123 182.008 249.775 182.101 249.437Z" fill="#263238"/>
<path d="M201.732 240.662C201.732 240.662 201.655 240.453 201.471 240.089C201.196 239.573 200.796 239.136 200.307 238.819C199.945 238.569 199.532 238.406 199.098 238.341C198.664 238.277 198.221 238.313 197.803 238.447C197.273 238.629 196.8 238.947 196.429 239.37C196.059 239.792 195.805 240.304 195.692 240.855L195.584 241.405L195.345 240.894C194.444 238.95 193.659 236.953 192.995 234.915C191.818 231.52 191.229 227.947 191.254 224.351C191.254 223.662 191.346 223.042 191.385 222.493C191.423 221.943 191.546 221.486 191.631 221.114C191.713 220.723 191.826 220.34 191.97 219.968C191.707 221.415 191.561 222.881 191.531 224.351C191.595 227.907 192.216 231.43 193.373 234.791C194.037 236.814 194.809 238.799 195.684 240.739L195.337 240.786C195.47 240.177 195.76 239.613 196.178 239.153C196.596 238.692 197.127 238.35 197.718 238.16C198.177 238.021 198.662 237.991 199.134 238.073C199.606 238.155 200.052 238.347 200.438 238.633C200.939 238.986 201.333 239.471 201.578 240.034C201.646 240.183 201.695 240.339 201.725 240.499C201.74 240.6 201.748 240.662 201.732 240.662Z" fill="#263238"/>
<path d="M220.518 242.404C220.435 242.101 220.376 241.793 220.34 241.482C220.172 240.628 220.117 239.756 220.179 238.887C220.352 237.552 221.014 236.329 222.035 235.457C222.667 234.934 223.459 234.647 224.278 234.643C224.724 234.638 225.165 234.73 225.572 234.914C225.98 235.097 226.342 235.367 226.635 235.704L226.296 235.906L225.564 234.055C224.124 230.407 222.845 227.084 221.935 224.691L220.88 221.834C220.733 221.492 220.622 221.137 220.548 220.772C220.738 221.093 220.898 221.43 221.026 221.779C221.334 222.554 221.727 223.46 222.205 224.591C223.184 226.968 224.517 230.26 225.942 233.884L226.666 235.743L227.136 236.936L226.366 235.937C226.111 235.64 225.795 235.403 225.44 235.243C225.084 235.082 224.698 235.002 224.308 235.007C223.575 235.003 222.862 235.251 222.29 235.712C221.327 236.521 220.684 237.651 220.479 238.895C220.396 239.743 220.412 240.599 220.525 241.443C220.562 241.762 220.559 242.085 220.518 242.404Z" fill="#263238"/>
<path d="M234.81 244.325C234.918 244.325 236.659 256.082 238.701 270.619C240.743 285.156 242.299 296.951 242.191 296.951C242.083 296.951 240.342 285.194 238.3 270.619C236.259 256.043 234.702 244.341 234.81 244.325Z" fill="#263238"/>
<g opacity="0.3">
<path opacity="0.3" d="M193.227 235.039C193.32 238.051 193.971 241.018 195.145 243.791C195.985 242.745 196.917 241.645 198.227 241.336C199.814 240.956 201.425 241.94 202.573 243.148C202.374 241.94 201.899 240.795 201.186 239.802C200.83 239.314 200.366 238.916 199.832 238.638C199.297 238.36 198.706 238.209 198.104 238.199C197.504 238.213 196.926 238.428 196.461 238.809C195.996 239.191 195.672 239.717 195.538 240.305L193.327 235.093" fill="black"/>
</g>
<path d="M180.213 243.551C180.143 243.551 180.166 242.737 179.935 241.475C179.619 239.83 178.982 238.264 178.063 236.867C177.545 236.11 176.954 235.407 176.299 234.768C175.755 234.251 175.164 233.787 174.534 233.382C173.448 232.692 172.685 232.429 172.716 232.359C172.905 232.373 173.09 232.42 173.263 232.499C173.478 232.557 173.688 232.638 173.887 232.739C174.153 232.854 174.411 232.989 174.657 233.142C175.328 233.522 175.955 233.974 176.53 234.489C177.221 235.136 177.838 235.858 178.371 236.642C179.326 238.081 179.948 239.716 180.19 241.428C180.266 241.941 180.292 242.46 180.267 242.977C180.267 243.349 180.244 243.551 180.213 243.551Z" fill="#263238"/>
<path d="M224.94 188.322C224.5 184.175 222.522 180.346 219.401 177.598C216.28 174.85 212.245 173.384 208.097 173.491H207.241C198.034 174.265 193.55 182.56 194.582 191.784L197.109 224.234L198.18 225.551C200.585 228.52 203.899 230.606 207.606 231.485C211.313 232.363 215.205 231.984 218.676 230.407L217.967 219.967C217.967 219.967 226.797 218.356 226.673 209.45C226.619 205.128 225.787 196.284 224.94 188.322Z" fill="#FFBE9D"/>
<path d="M218.036 219.945C213.925 220.06 209.868 218.984 206.348 216.847C206.348 216.847 209.237 223.19 218.059 222.16L218.036 219.945Z" fill="#EB996E"/>
<path d="M222.135 195.649C222.144 195.98 222.026 196.302 221.805 196.547C221.584 196.792 221.277 196.942 220.949 196.966C220.788 196.982 220.626 196.966 220.472 196.918C220.318 196.87 220.174 196.792 220.05 196.689C219.926 196.585 219.824 196.457 219.749 196.314C219.675 196.17 219.629 196.012 219.616 195.851C219.605 195.519 219.723 195.197 219.944 194.951C220.166 194.706 220.473 194.556 220.802 194.534C220.963 194.517 221.126 194.533 221.281 194.58C221.435 194.627 221.579 194.705 221.703 194.809C221.828 194.913 221.93 195.041 222.004 195.185C222.078 195.329 222.123 195.487 222.135 195.649Z" fill="#263238"/>
<path d="M222.698 190.808C222.598 190.963 221.596 191.071 220.386 191.722C219.177 192.373 218.468 193.186 218.306 193.17C218.144 193.155 218.306 192.946 218.607 192.582C219.067 192.068 219.615 191.641 220.225 191.319C220.806 190.993 221.444 190.78 222.105 190.692C222.559 190.645 222.752 190.731 222.698 190.808Z" fill="#263238"/>
<path d="M209.345 196.323C209.36 196.655 209.244 196.98 209.022 197.227C208.799 197.473 208.489 197.622 208.159 197.64C207.998 197.657 207.835 197.641 207.681 197.594C207.526 197.547 207.382 197.469 207.258 197.365C207.134 197.261 207.032 197.133 206.957 196.989C206.883 196.844 206.838 196.687 206.826 196.524C206.815 196.193 206.933 195.871 207.154 195.625C207.376 195.379 207.683 195.23 208.012 195.208C208.173 195.191 208.336 195.206 208.491 195.254C208.645 195.301 208.789 195.379 208.913 195.483C209.037 195.587 209.14 195.714 209.214 195.859C209.288 196.003 209.333 196.161 209.345 196.323Z" fill="#263238"/>
<path d="M209.191 192.675C209.014 192.675 208.189 192.156 206.879 191.831C205.57 191.505 204.483 191.575 204.368 191.467C204.252 191.358 204.506 191.312 204.976 191.273C205.663 191.229 206.352 191.295 207.018 191.467C207.663 191.621 208.278 191.882 208.836 192.241C209.145 192.489 209.237 192.659 209.191 192.675Z" fill="#263238"/>
<path d="M214.492 203.308C215.206 203.069 215.946 202.915 216.696 202.851C217.042 202.851 217.366 202.728 217.42 202.487C217.442 202.129 217.353 201.772 217.166 201.465L216.064 198.824C214.523 195.076 213.429 191.986 213.583 191.931C213.737 191.877 215.124 194.859 216.611 198.607C216.981 199.537 217.335 200.42 217.666 201.264C217.894 201.679 217.97 202.161 217.882 202.627C217.834 202.752 217.759 202.864 217.661 202.955C217.564 203.047 217.447 203.114 217.32 203.154C217.13 203.213 216.933 203.247 216.734 203.254C215.992 203.369 215.239 203.387 214.492 203.308Z" fill="#263238"/>
<path d="M209.191 187.393C209.037 187.757 207.688 187.517 206.109 187.626C204.529 187.734 203.189 188.121 203.027 187.773C202.934 187.61 203.181 187.269 203.713 186.936C204.428 186.527 205.227 186.288 206.048 186.237C206.869 186.186 207.691 186.324 208.451 186.642C208.96 186.913 209.237 187.215 209.191 187.393Z" fill="#263238"/>
<path d="M222.668 187.695C222.367 188.013 221.196 187.695 219.794 187.695C218.391 187.695 217.197 187.935 216.92 187.61C216.796 187.455 216.981 187.137 217.497 186.835C218.209 186.46 219.006 186.276 219.809 186.301C220.619 186.295 221.416 186.504 222.12 186.905C222.629 187.223 222.799 187.548 222.668 187.695Z" fill="#263238"/>
<path d="M227.521 180.407C227.443 180.001 227.22 179.637 226.893 179.384C226.567 179.132 226.16 179.008 225.749 179.036C226.192 178.91 226.605 178.696 226.966 178.409C227.146 178.264 227.281 178.07 227.356 177.851C227.431 177.632 227.443 177.396 227.39 177.17C227.159 176.481 226.281 176.334 225.587 176.14C224.677 175.874 223.87 175.333 223.276 174.591C222.436 173.522 222.112 172.128 221.38 170.974C220.907 170.229 220.274 169.6 219.528 169.134C218.781 168.667 217.94 168.375 217.066 168.278C216.193 168.182 215.308 168.283 214.479 168.575C213.649 168.868 212.895 169.343 212.273 169.967C211.593 169.265 210.756 168.736 209.832 168.424C208.908 168.112 207.923 168.026 206.959 168.174C205.995 168.322 205.08 168.698 204.291 169.273C203.501 169.848 202.859 170.603 202.418 171.478C201.236 170.982 199.943 170.815 198.675 170.994C197.407 171.173 196.21 171.692 195.21 172.495C194.209 173.299 193.442 174.358 192.989 175.562C192.536 176.766 192.413 178.07 192.633 179.338L198.15 182.738C198.194 182.317 198.328 181.909 198.541 181.543C198.754 181.177 199.042 180.861 199.385 180.615C199.729 180.369 200.121 180.199 200.535 180.116C200.949 180.034 201.375 180.041 201.786 180.136C203.451 180.624 204.514 182.56 206.24 182.692C207.588 182.793 208.736 181.747 210.038 181.399C211.618 180.973 213.29 181.608 214.715 182.413C216.141 183.219 217.505 184.225 219.092 184.628C220.988 185.01 222.955 184.774 224.709 183.954C225.487 183.68 226.197 183.239 226.789 182.661C227.081 182.371 227.3 182.015 227.427 181.623C227.554 181.231 227.587 180.814 227.521 180.407Z" fill="#263238"/>
<path d="M199.082 180.121L224.355 179.982C223.443 178.274 222.118 176.825 220.502 175.768C217.146 173.303 213.101 171.967 208.945 171.95C204.822 171.95 196.578 177.271 193.673 180.206C191.362 182.53 191.423 184.535 191.423 184.535C191.131 187.835 193.065 191.506 193.889 194.735C194.305 196.393 195.176 201.411 195.176 201.411C196.563 201.373 197.048 200.242 196.802 198.863L196.393 193.442C197.757 192.298 198.712 190.739 199.114 189C199.516 187.261 199.342 185.438 198.62 183.807C198.273 183.327 197.441 181.089 199.082 180.121Z" fill="#263238"/>
<path d="M196.031 193.085C194.745 188.594 193.558 183.792 194.929 179.3H194.159L193.851 179.524C193.138 179.284 192.368 179.278 191.652 179.507C190.936 179.736 190.311 180.188 189.868 180.798C189.424 181.409 189.186 182.145 189.188 182.9C189.189 183.656 189.43 184.391 189.875 185C189.124 184.993 188.396 185.263 187.828 185.758C187.261 186.253 186.892 186.939 186.793 187.687C186.796 188.73 187.081 189.753 187.617 190.646C188.155 191.541 188.485 192.547 188.581 193.589C188.613 194.108 188.462 194.621 188.155 195.039C187.848 195.457 187.404 195.752 186.901 195.874C187.144 196.402 187.562 196.83 188.082 197.085C188.603 197.341 189.195 197.408 189.759 197.275C189.4 198.158 188.798 198.921 188.026 199.475C189.675 200.606 191.932 200.249 193.72 199.343C194.829 198.895 195.734 198.051 196.262 196.973C196.756 195.726 196.386 194.356 196.031 193.085Z" fill="#263238"/>
<path d="M195.615 198.328C195.461 198.266 189.451 196.679 189.829 202.758C190.206 208.838 196.185 207.235 196.185 207.057C196.185 206.879 195.615 198.328 195.615 198.328Z" fill="#FFBE9D"/>
<path d="M194.737 204.85C194.737 204.85 194.637 204.927 194.459 205.02C194.22 205.139 193.944 205.162 193.689 205.082C193.034 204.881 192.441 203.897 192.348 202.797C192.302 202.272 192.373 201.743 192.556 201.248C192.605 201.053 192.701 200.872 192.836 200.723C192.97 200.573 193.138 200.458 193.327 200.389C193.446 200.351 193.575 200.356 193.692 200.403C193.808 200.449 193.905 200.535 193.966 200.644C194.059 200.807 194.02 200.931 194.059 200.946C194.097 200.962 194.182 200.83 194.12 200.582C194.071 200.438 193.98 200.311 193.858 200.218C193.773 200.158 193.676 200.117 193.574 200.095C193.472 200.074 193.367 200.074 193.265 200.094C193.02 200.159 192.795 200.285 192.612 200.462C192.428 200.638 192.293 200.858 192.217 201.101C191.995 201.645 191.903 202.234 191.948 202.821C192.063 204.044 192.718 205.144 193.643 205.361C193.807 205.397 193.977 205.396 194.141 205.359C194.305 205.322 194.458 205.248 194.59 205.144C194.737 204.997 194.76 204.857 194.737 204.85Z" fill="#EB996E"/>
<path d="M189.335 193.287C189.335 193.287 189.166 193.054 189.22 192.574C189.284 192.248 189.419 191.941 189.615 191.673C189.81 191.405 190.062 191.184 190.352 191.025C191.22 190.61 192.165 190.38 193.126 190.351C193.664 190.351 194.194 190.224 194.673 189.979C195.153 189.734 195.568 189.379 195.884 188.942C196.388 187.957 196.556 186.833 196.362 185.743C196.216 184.721 195.946 183.799 195.815 183.002C195.571 182.147 195.584 181.239 195.854 180.392C195.859 181.246 195.954 182.098 196.139 182.932C196.308 183.706 196.609 184.613 196.794 185.689C197.026 186.88 196.847 188.115 196.285 189.19C195.951 189.745 195.445 190.175 194.844 190.413C194.307 190.614 193.744 190.739 193.172 190.785C192.261 190.79 191.359 190.969 190.514 191.312C190.249 191.448 190.014 191.637 189.823 191.865C189.631 192.094 189.486 192.359 189.397 192.644C189.362 192.856 189.342 193.071 189.335 193.287Z" fill="#455A64"/>
<path d="M187.871 190.645C187.871 190.645 187.74 190.475 187.686 190.096C187.624 189.56 187.729 189.019 187.987 188.547C188.164 188.211 188.408 187.916 188.703 187.679C189.049 187.418 189.446 187.234 189.867 187.137C190.276 187.049 190.665 186.886 191.015 186.657C191.17 186.518 191.291 186.345 191.37 186.152C191.449 185.959 191.483 185.75 191.47 185.542C191.47 185.085 191.416 184.597 191.431 184.109C191.437 183.643 191.489 183.179 191.585 182.723C191.741 181.952 192.036 181.217 192.456 180.554C192.589 180.311 192.781 180.105 193.014 179.955C193.247 179.804 193.513 179.715 193.789 179.694C194.189 179.694 194.359 179.88 194.344 179.896C194.328 179.911 194.143 179.826 193.804 179.896C193.573 179.945 193.355 180.048 193.17 180.196C192.984 180.344 192.835 180.532 192.733 180.748C192.385 181.397 192.141 182.098 192.009 182.823C191.934 183.253 191.896 183.688 191.893 184.124C191.893 184.574 191.963 185.054 191.94 185.58C191.951 185.856 191.899 186.131 191.788 186.383C191.677 186.635 191.51 186.859 191.3 187.036C190.902 187.304 190.454 187.486 189.983 187.571C189.632 187.631 189.298 187.766 189.003 187.966C188.708 188.167 188.459 188.428 188.272 188.732C187.955 189.317 187.816 189.982 187.871 190.645Z" fill="#455A64"/>
<path d="M223.283 174.591C223.322 174.591 222.829 174.924 222.035 174.553C221.588 174.309 221.197 173.974 220.887 173.569C220.505 173.065 220.029 172.642 219.485 172.322C218.777 171.922 217.969 171.738 217.159 171.792C216.349 171.845 215.572 172.134 214.923 172.624C214.153 173.166 213.513 173.933 212.612 174.568C212.153 174.91 211.628 175.15 211.071 175.273C210.494 175.374 209.9 175.318 209.353 175.11C208.258 174.715 207.395 174.041 206.455 173.701C205.548 173.351 204.584 173.175 203.612 173.182C201.939 173.18 200.312 173.738 198.989 174.769C198.106 175.463 197.372 176.33 196.832 177.317C196.454 178.022 196.316 178.456 196.277 178.44C196.239 178.425 196.277 178.324 196.339 178.115C196.426 177.814 196.534 177.519 196.662 177.232C197.16 176.178 197.884 175.247 198.781 174.506C200.134 173.395 201.82 172.775 203.566 172.748C204.594 172.721 205.618 172.897 206.579 173.267C207.596 173.639 208.474 174.312 209.468 174.661C209.939 174.843 210.45 174.894 210.947 174.808C211.43 174.697 211.884 174.486 212.28 174.189C213.089 173.608 213.767 172.841 214.592 172.268C215.354 171.694 216.282 171.386 217.235 171.393C218.047 171.399 218.844 171.618 219.546 172.028C220.109 172.388 220.598 172.854 220.987 173.399C221.257 173.796 221.606 174.134 222.012 174.39C222.394 174.618 222.849 174.691 223.283 174.591Z" fill="#455A64"/>
<path d="M211.133 204.904C211.325 204.904 211.541 206.159 212.805 206.895C214.068 207.63 215.417 207.259 215.463 207.437C215.509 207.615 215.193 207.747 214.615 207.855C213.86 207.996 213.08 207.864 212.412 207.483C211.772 207.111 211.298 206.507 211.086 205.795C210.948 205.261 211.04 204.912 211.133 204.904Z" fill="#263238"/>
<path d="M290.864 325.916C288.518 323.89 285.474 322.872 282.388 323.082L277.18 339.71C280.994 339.88 284.8 341.855 288.483 340.84C289.954 340.384 291.264 339.515 292.259 338.335C293.255 337.155 293.893 335.713 294.1 334.18C294.26 332.642 294.05 331.089 293.486 329.65C292.923 328.212 292.024 326.931 290.864 325.916Z" fill="#FF725E"/>
<path d="M282.451 322.701C282.451 322.57 283.013 322.461 283.992 322.469C285.447 322.496 286.888 322.771 288.252 323.282C290.337 324.099 292.141 325.506 293.446 327.333C294.243 328.416 294.831 329.641 295.179 330.942C295.556 332.366 295.599 333.859 295.303 335.302C295.016 336.765 294.366 338.131 293.415 339.275C292.503 340.317 291.349 341.115 290.055 341.599C287.953 342.346 285.687 342.493 283.506 342.025C282.103 341.748 280.734 341.32 279.423 340.747C278.506 340.352 278.02 340.057 278.066 339.926C278.113 339.794 278.667 339.833 279.607 339.996C280.548 340.158 281.973 340.46 283.668 340.615C285.59 340.829 287.536 340.563 289.331 339.841C290.316 339.422 291.187 338.775 291.874 337.951C292.594 337.05 293.086 335.987 293.307 334.853C293.519 333.729 293.503 332.574 293.26 331.456C293.018 330.338 292.554 329.281 291.897 328.347C290.835 326.731 289.375 325.418 287.659 324.537C286.443 323.96 285.17 323.514 283.861 323.205C282.975 323.004 282.435 322.841 282.451 322.701Z" fill="#F5F5F5"/>
<path d="M234.194 385.086L222.867 416.987L262.278 431.353C263.419 427.481 245.766 412.456 245.766 412.456L253.857 392.32L234.194 385.086Z" fill="#FF725E"/>
<path d="M246.483 412.487C246.406 412.68 245.412 412.417 244.241 412.696C243.07 412.975 242.268 413.602 242.122 413.47C241.976 413.339 242.661 412.316 244.087 412.007C245.512 411.697 246.583 412.324 246.483 412.487Z" fill="#263238"/>
<path d="M250.028 415.716C250.028 415.917 249.049 415.941 248.101 416.49C247.154 417.04 246.653 417.869 246.46 417.792C246.268 417.714 246.545 416.576 247.739 415.871C248.933 415.166 250.028 415.53 250.028 415.716Z" fill="#263238"/>
<path d="M250.544 421.54C250.359 421.54 250.436 420.456 251.314 419.573C252.193 418.69 253.241 418.605 253.264 418.799C253.287 418.992 252.532 419.348 251.823 420.084C251.114 420.82 250.744 421.594 250.544 421.54Z" fill="#263238"/>
<path d="M247.816 407.693C247.67 407.84 246.884 407.251 245.774 406.918C244.665 406.585 243.686 406.632 243.648 406.43C243.609 406.229 244.665 405.834 245.959 406.237C247.253 406.639 247.97 407.576 247.816 407.693Z" fill="#263238"/>
<path d="M248.572 402.651C247.864 402.588 247.186 402.337 246.607 401.923C245.939 401.538 245.323 401.07 244.773 400.528C244.444 400.212 244.138 399.873 243.856 399.514C243.679 399.31 243.533 399.08 243.425 398.832C243.347 398.649 243.333 398.445 243.385 398.252C243.437 398.06 243.551 397.891 243.71 397.771C243.855 397.672 244.021 397.607 244.194 397.583C244.368 397.559 244.545 397.576 244.712 397.632C244.962 397.722 245.198 397.847 245.413 398.004C245.798 398.262 246.159 398.555 246.491 398.879C247.048 399.421 247.516 400.048 247.878 400.738C248.274 401.341 248.476 402.052 248.456 402.774C248.348 402.774 248.117 402.039 247.447 400.993C247.049 400.392 246.578 399.843 246.045 399.359C245.729 399.074 245.391 398.816 245.035 398.585C244.658 398.321 244.303 398.19 244.134 398.337C243.964 398.484 244.049 398.422 244.095 398.577C244.175 398.759 244.282 398.929 244.411 399.08C244.664 399.424 244.939 399.75 245.236 400.056C245.735 400.586 246.285 401.065 246.877 401.489C247.894 402.225 248.618 402.55 248.572 402.651Z" fill="#263238"/>
<path d="M248.225 402.853C248.058 402.15 248.117 401.412 248.394 400.746C248.628 399.999 248.985 399.298 249.45 398.67C249.729 398.302 250.041 397.96 250.382 397.648C250.585 397.426 250.841 397.26 251.125 397.165C251.41 397.071 251.713 397.05 252.008 397.106C252.182 397.176 252.333 397.293 252.443 397.445C252.554 397.597 252.619 397.778 252.632 397.966C252.646 398.225 252.626 398.486 252.57 398.74C252.449 399.369 252.204 399.967 251.849 400.499C251.495 401.031 251.038 401.486 250.505 401.838C249.365 402.612 248.479 402.52 248.487 402.45C248.494 402.38 249.257 402.202 250.213 401.428C250.756 400.983 251.198 400.425 251.507 399.793C251.687 399.426 251.814 399.035 251.885 398.632C251.977 398.19 251.939 397.787 251.769 397.78C251.595 397.773 251.423 397.805 251.263 397.873C251.103 397.942 250.96 398.044 250.844 398.175C250.525 398.447 250.231 398.747 249.966 399.073C249.514 399.628 249.146 400.247 248.872 400.909C248.394 402.078 248.34 402.853 248.225 402.853Z" fill="#263238"/>
<path d="M196.015 299.894C190.036 300.033 184.365 300.877 180.243 305.237C174.78 311.023 168.031 319.256 167.645 324.963C167.075 333.483 172.199 336.038 175.936 338.129C177.589 339.028 179.452 339.464 181.329 339.392L250.428 338.865L252.593 327.101L207.904 316.026L209.761 299.119L196.015 299.894Z" fill="#263238"/>
<path d="M209.8 299.111L231.536 298.104C231.536 298.104 269.09 300.203 277.095 307.584C285.101 314.965 284.107 323.352 281.433 331.399C278.76 339.446 255.236 390.941 255.236 390.941C255.236 390.941 257.147 394.217 256.076 397.485C255.643 398.917 254.847 400.21 253.766 401.239C252.686 402.269 251.358 402.998 249.912 403.356L229.016 395.611C229.016 395.611 226.181 394.604 228.184 391.917C230.187 389.229 231.52 388.734 231.52 388.734V383.367C231.52 383.367 238.863 369.945 239.526 368.102C240.188 366.258 247.231 338.95 247.231 338.95L251.908 330.873C251.908 330.873 240.605 325.529 230.804 321.656L207.92 315.987L209.8 299.111Z" fill="#263238"/>
<path d="M245.058 394.666C244.426 394.296 243.814 393.893 243.224 393.457C240.272 391.535 236.947 390.265 233.47 389.732C232.74 389.661 232.015 389.553 231.297 389.407C232.03 389.322 232.771 389.335 233.5 389.446C237.065 389.828 240.47 391.13 243.386 393.225C244.004 393.629 244.566 394.114 245.058 394.666Z" fill="#455A64"/>
<path d="M255.499 390.98C255.043 390.604 254.636 390.172 254.289 389.694C253.58 388.865 252.64 387.688 251.661 386.34C250.683 384.993 249.835 383.746 249.257 382.824C248.913 382.342 248.624 381.823 248.395 381.275C248.808 381.696 249.175 382.161 249.489 382.662L251.985 386.1C252.917 387.371 253.773 388.517 254.512 389.516C254.893 389.966 255.224 390.457 255.499 390.98Z" fill="#455A64"/>
<path d="M263.127 323.53C263.127 323.592 262.356 323.763 261.146 324.165C257.979 325.216 255.109 327.017 252.779 329.416C252.324 329.944 251.843 330.448 251.338 330.927C251.664 330.301 252.079 329.727 252.571 329.223C253.692 327.95 254.989 326.847 256.423 325.947C257.856 325.04 259.414 324.348 261.046 323.894C261.717 323.668 262.419 323.545 263.127 323.53Z" fill="#455A64"/>
<path d="M241.783 359.993C241.792 359.838 241.821 359.684 241.868 359.536L242.192 358.258L243.44 353.572L247.716 338.153C248.587 335.14 249.326 332.274 250.166 329.672C251.053 327.411 252.393 325.357 254.104 323.639C255.233 322.475 256.483 321.436 257.833 320.541C258.318 320.231 258.696 319.999 258.965 319.859C259.095 319.777 259.231 319.707 259.374 319.65C259.374 319.65 258.85 320.007 257.925 320.665C256.62 321.602 255.407 322.662 254.304 323.833C252.654 325.544 251.365 327.572 250.513 329.796C249.742 332.36 248.972 335.264 248.101 338.261L243.717 353.642C243.147 355.571 242.677 357.143 242.338 358.289C242.176 358.8 242.053 359.218 241.945 359.544C241.911 359.7 241.857 359.851 241.783 359.993Z" fill="#455A64"/>
<path d="M222.56 320.657C222.444 320.657 221.989 316.584 221.535 311.534C221.08 306.485 220.764 302.38 220.918 302.372C221.073 302.364 221.481 306.446 221.935 311.495C222.39 316.545 222.667 320.65 222.56 320.657Z" fill="#455A64"/>
<path d="M186.376 331.6C186.314 331.6 185.983 330.973 185.297 330.005C184.412 328.746 183.351 327.621 182.146 326.667C180.932 325.724 179.591 324.96 178.163 324.398C177.061 323.964 176.344 323.801 176.36 323.731C177.008 323.762 177.648 323.895 178.255 324.126C181.268 325.125 183.842 327.146 185.536 329.842C185.91 330.378 186.194 330.972 186.376 331.6Z" fill="#455A64"/>
<path d="M199.691 316.731C199.691 316.793 198.735 316.204 197.14 315.468C192.956 313.558 188.314 312.891 183.765 313.548C182.031 313.796 180.975 314.105 180.96 314.036C181.184 313.908 181.425 313.814 181.677 313.757C182.346 313.549 183.028 313.383 183.718 313.261C188.32 312.449 193.059 313.133 197.248 315.213C197.876 315.524 198.484 315.876 199.067 316.266C199.295 316.391 199.505 316.548 199.691 316.731Z" fill="#455A64"/>
<path d="M251.746 327.077C251.561 327.068 251.377 327.037 251.199 326.984L249.658 326.651L244.034 325.404C239.28 324.336 232.699 322.895 225.403 321.447C218.106 319.998 211.48 318.798 206.68 317.969L200.986 316.986L199.445 316.715C199.263 316.693 199.084 316.649 198.913 316.583C199.096 316.588 199.279 316.604 199.46 316.629L201.001 316.831C202.35 317.017 204.299 317.311 206.711 317.691C211.526 318.465 218.168 319.596 225.472 321.052C232.777 322.508 239.341 323.987 244.087 325.125C246.453 325.699 248.371 326.179 249.689 326.527L251.23 326.93C251.406 326.963 251.579 327.013 251.746 327.077Z" fill="#455A64"/>
<path d="M207.943 318.008C207.866 318.008 207.704 317.094 206.988 315.793C206.568 315.042 206.05 314.352 205.447 313.741C204.686 312.987 203.878 312.284 203.027 311.634C201.461 310.471 199.804 309.435 198.073 308.536C197.341 308.186 196.635 307.782 195.962 307.328C196.737 307.575 197.488 307.893 198.204 308.281C199.992 309.114 201.691 310.129 203.274 311.309C204.136 311.97 204.95 312.692 205.709 313.47C206.328 314.114 206.847 314.847 207.25 315.646C207.527 316.186 207.736 316.758 207.874 317.35C207.937 317.563 207.961 317.786 207.943 318.008Z" fill="#455A64"/>
<path d="M284.908 328.503C284.993 328.596 283.837 329.765 282.936 331.554C282.034 333.343 281.742 334.954 281.626 334.931C281.623 333.679 281.953 332.449 282.581 331.368C283.092 330.224 283.895 329.235 284.908 328.503Z" fill="#263238"/>
<g opacity="0.3">
<path opacity="0.3" d="M235.45 249.149L240.397 284.171L240.643 284.729C241.803 272.621 240.021 260.412 235.45 249.149Z" fill="black"/>
</g>
<path d="M262.086 269.27L246.005 297.523L206.378 298.391L206.278 300.195L244.649 299.909L245.867 299.862L286.379 299.947L294.57 285.751L305.033 270.68C305.185 270.456 305.272 270.195 305.287 269.925C305.302 269.655 305.243 269.386 305.117 269.147C304.991 268.908 304.803 268.708 304.572 268.569C304.341 268.43 304.077 268.356 303.808 268.356L263.365 268.511C263.104 268.513 262.848 268.585 262.623 268.718C262.399 268.851 262.213 269.042 262.086 269.27Z" fill="#E0E0E0"/>
<path d="M294.57 285.774C294.57 285.774 296.65 287.695 296.327 289.322C296.003 290.948 296.103 292.164 294.57 292.272C294.599 292.867 294.399 293.451 294.012 293.902C293.624 294.353 293.08 294.638 292.49 294.696C292.49 294.696 292.96 297.252 290.001 297.694C290.001 297.694 289.092 300.428 287.227 299.761C286.153 299.394 285.119 298.914 284.145 298.329L283.598 297.337C283.598 297.337 280.847 296.3 281.525 294.743C281.942 293.798 283.359 293.55 283.359 293.55C283.196 293.162 283.127 292.741 283.158 292.32C283.189 291.9 283.318 291.494 283.536 291.134C284.191 290.243 286.333 290.979 286.333 290.979C286.289 290.216 286.531 289.464 287.011 288.872C287.782 287.997 291.157 290.359 291.157 290.359L293.014 288.129L294.57 285.774Z" fill="#FFBE9D"/>
<path d="M290.001 297.694C288.8 297.18 287.654 296.544 286.58 295.797C285.437 295.162 284.363 294.41 283.375 293.551C284.576 294.07 285.722 294.708 286.796 295.456C287.937 296.092 289.011 296.842 290.001 297.694Z" fill="#EB996E"/>
<path d="M292.489 294.697C291.372 294.255 290.307 293.689 289.315 293.009C288.255 292.444 287.26 291.764 286.349 290.979C287.468 291.417 288.533 291.984 289.523 292.668C290.583 293.232 291.578 293.913 292.489 294.697Z" fill="#EB996E"/>
<path d="M289.1 289.089C289.161 288.973 290.433 289.647 291.912 290.592C292.829 291.124 293.712 291.714 294.555 292.357C294.501 292.489 293.176 291.885 291.696 290.932C290.769 290.412 289.898 289.794 289.1 289.089Z" fill="#EB996E"/>
<path d="M305.033 269.441C304.969 269.451 304.904 269.451 304.84 269.441H304.27H302.082L294.038 269.503L267.494 269.565H265.56C265.275 269.537 264.988 269.588 264.729 269.71C264.471 269.833 264.249 270.023 264.089 270.262C263.472 271.367 262.871 272.456 262.286 273.53L258.865 279.726L253.063 290.204C251.414 293.163 250.066 295.564 249.118 297.26C248.663 298.034 248.293 298.7 248.032 299.165L247.739 299.653L247.631 299.816C247.631 299.816 247.631 299.746 247.7 299.63L247.962 299.119L248.987 297.182L252.839 290.065L258.572 279.54C259.651 277.565 260.791 275.489 261.962 273.344L263.773 270.053C263.97 269.758 264.242 269.521 264.56 269.366C264.878 269.211 265.231 269.143 265.583 269.17H267.517L294.061 269.224L302.105 269.294L304.293 269.332H304.864C304.926 269.359 304.983 269.395 305.033 269.441Z" fill="#263238"/>
<g opacity="0.3">
<path opacity="0.3" d="M164.032 272.74C163.693 272.879 163.3 273.112 163.3 273.515C163.312 273.664 163.374 273.805 163.476 273.915C163.578 274.025 163.714 274.096 163.862 274.119C164.427 274.038 164.981 273.89 165.511 273.677C169.68 272.756 173.108 273.638 177.069 275.226L177.2 275.094C175.628 271.664 168.516 270.905 164.032 272.74Z" fill="black"/>
</g>
<path d="M378.701 429.958C378.701 430.067 309.009 430.16 223.06 430.16C137.111 430.16 67.4189 430.036 67.4189 429.958C67.4189 429.881 137.095 429.757 223.06 429.757C309.025 429.757 378.701 429.811 378.701 429.958Z" fill="#263238"/>
<path d="M142.481 183.063C142.612 183.195 168.2 174.358 168.2 174.358L158.338 151.666L135.585 160.441L148.113 167.674L142.481 183.063Z" fill="#455A64"/>
<path d="M154.485 158.497V127.603C154.485 127.603 189.782 121.113 215.216 121.5C240.65 121.887 266.84 126.077 266.84 126.077V155.74C266.84 155.74 187.124 148.583 154.485 158.497Z" fill="#455A64"/>
<path d="M154.301 158.528L168.17 174.49V155.74C168.17 155.74 156.574 157.134 154.301 158.528Z" fill="#263238"/>
<path d="M154.485 127.596C154.601 127.596 154.647 134.566 154.601 143.085C154.555 151.604 154.416 158.575 154.308 158.575C154.2 158.575 154.146 151.651 154.192 143.085C154.239 134.52 154.37 127.596 154.485 127.596Z" fill="#263238"/>
<path d="M278.782 180.693C278.651 180.825 253.062 171.988 253.062 171.988L262.902 149.288L285.678 158.047L273.142 165.281L278.782 180.693Z" fill="#455A64"/>
<path d="M266.978 156.158L253.109 172.12V154.726C257.759 154.886 262.393 155.364 266.978 156.158Z" fill="#263238"/>
<path d="M266.824 126.077C266.932 126.077 267.055 132.807 267.094 141.117C267.132 149.428 267.094 156.158 266.963 156.158C266.832 156.158 266.732 149.428 266.693 141.117C266.654 132.807 266.708 126.077 266.824 126.077Z" fill="#263238"/>
<path d="M174.387 141.149C174.315 140.259 174.504 139.368 174.933 138.586C175.361 137.805 176.01 137.167 176.796 136.754C177.583 136.341 178.474 136.17 179.357 136.263C180.24 136.356 181.076 136.708 181.761 137.276L180.682 138.577C180.392 138.311 180.047 138.112 179.671 137.996C179.295 137.879 178.899 137.848 178.51 137.904C177.819 138 177.195 138.368 176.774 138.928C176.354 139.487 176.171 140.191 176.267 140.885C176.363 141.58 176.73 142.207 177.286 142.63C177.843 143.052 178.543 143.236 179.234 143.139C179.626 143.087 180.001 142.948 180.331 142.73C180.662 142.513 180.94 142.224 181.145 141.884L182.501 142.837C181.998 143.572 181.291 144.141 180.469 144.474C179.646 144.807 178.744 144.888 177.875 144.708C177.006 144.527 176.21 144.094 175.585 143.46C174.961 142.827 174.536 142.023 174.364 141.149H174.387Z" fill="#6EBE44"/>
<path d="M182.794 139.987C182.65 139.093 182.777 138.176 183.158 137.355C183.539 136.534 184.156 135.847 184.93 135.383C185.704 134.919 186.598 134.699 187.498 134.752C188.397 134.804 189.26 135.127 189.975 135.679C190.69 136.23 191.224 136.984 191.507 137.844C191.791 138.704 191.811 139.629 191.565 140.501C191.319 141.372 190.819 142.149 190.129 142.731C189.439 143.314 188.59 143.674 187.694 143.767C187.123 143.858 186.54 143.832 185.979 143.689C185.419 143.546 184.894 143.29 184.435 142.937C183.976 142.583 183.594 142.139 183.312 141.632C183.03 141.125 182.854 140.565 182.794 139.987ZM189.813 139.259C189.75 138.757 189.542 138.284 189.214 137.899C188.885 137.515 188.452 137.237 187.967 137.099C187.482 136.96 186.968 136.969 186.488 137.122C186.008 137.276 185.584 137.569 185.268 137.963C184.952 138.358 184.759 138.837 184.712 139.342C184.666 139.846 184.768 140.353 185.006 140.799C185.244 141.245 185.608 141.611 186.052 141.851C186.496 142.091 187 142.194 187.501 142.148C187.847 142.125 188.185 142.03 188.492 141.869C188.8 141.709 189.071 141.485 189.288 141.214C189.506 140.942 189.665 140.628 189.755 140.292C189.845 139.955 189.865 139.604 189.813 139.259Z" fill="#6EBE44"/>
<path d="M200.954 142.566L200.622 137.625L198.473 141.853L197.625 141.907L194.967 138.097L195.283 142.93L193.503 143.046L193.01 134.813L194.551 134.713L197.941 139.63L200.63 134.325L202.171 134.225L202.726 142.45L200.954 142.566Z" fill="#6EBE44"/>
<path d="M211.564 136.928C211.61 138.771 210.269 139.949 208.081 140.026L206.424 140.073L206.494 142.35L204.591 142.404L204.359 134.109L207.911 134.008C210.107 133.977 211.502 135.085 211.564 136.928ZM209.637 136.982C209.637 136.076 209.013 135.565 207.85 135.596L206.309 135.643L206.393 138.508L207.934 138.462C209.09 138.431 209.66 137.881 209.637 136.982Z" fill="#6EBE44"/>
<path d="M213.043 133.931H214.938V140.622H219.053V142.171H213.043V133.931Z" fill="#6EBE44"/>
<path d="M226.411 140.863V142.412L220.055 142.226L220.294 133.978L226.458 134.163L226.411 135.712L222.097 135.581L222.05 137.377L225.857 137.486L225.81 138.973L222.004 138.857L221.95 140.77L226.411 140.863Z" fill="#6EBE44"/>
<path d="M229.924 135.89L227.305 135.735L227.397 134.187L234.532 134.62L234.44 136.169L231.82 136.007L231.419 142.69L229.524 142.574L229.924 135.89Z" fill="#6EBE44"/>
<path d="M241.444 141.993L241.305 143.542L234.972 142.954L235.742 134.744L241.906 135.317L241.767 136.866L237.468 136.432L237.306 138.222L241.097 138.57L240.966 140.049L237.168 139.701L236.998 141.598L241.444 141.993Z" fill="#6EBE44"/>
<path d="M243.817 135.495L247.508 135.991C250.166 136.347 251.776 138.198 251.453 140.638C251.129 143.077 249.079 144.51 246.421 144.123L242.73 143.627L243.817 135.495ZM246.537 142.597C246.872 142.651 247.215 142.637 247.545 142.556C247.875 142.475 248.185 142.328 248.458 142.124C248.73 141.92 248.959 141.664 249.131 141.369C249.304 141.075 249.415 140.749 249.46 140.411C249.505 140.072 249.482 139.728 249.392 139.399C249.302 139.07 249.148 138.762 248.938 138.493C248.728 138.225 248.467 138.002 248.169 137.837C247.872 137.671 247.545 137.568 247.207 137.532L245.489 137.3L244.819 142.365L246.537 142.597Z" fill="#6EBE44"/>
<path d="M282.611 128.888L284.622 131.266L290.309 128.888L288.652 126.387L282.611 128.888Z" fill="#455A64"/>
<path d="M280.007 117.574C280.007 118.162 279.834 118.737 279.509 119.226C279.184 119.715 278.721 120.096 278.181 120.321C277.64 120.546 277.045 120.605 276.471 120.49C275.897 120.376 275.37 120.092 274.956 119.677C274.543 119.261 274.261 118.731 274.147 118.154C274.033 117.577 274.091 116.979 274.315 116.436C274.539 115.892 274.918 115.428 275.405 115.101C275.891 114.774 276.463 114.6 277.049 114.6C277.833 114.602 278.584 114.916 279.138 115.473C279.693 116.03 280.005 116.785 280.007 117.574Z" fill="#FF725E"/>
<path d="M213.729 161.935C213.728 162.23 213.639 162.518 213.474 162.762C213.31 163.006 213.077 163.195 212.805 163.306C212.533 163.416 212.235 163.443 211.948 163.383C211.661 163.323 211.398 163.178 211.193 162.968C210.988 162.757 210.849 162.49 210.796 162.2C210.742 161.911 210.775 161.611 210.891 161.341C211.006 161.07 211.2 160.84 211.446 160.679C211.692 160.519 211.98 160.436 212.273 160.441C212.663 160.447 213.034 160.607 213.307 160.887C213.579 161.167 213.731 161.544 213.729 161.935Z" fill="#FF725E"/>
<path d="M144.807 139.584C144.807 139.808 144.741 140.027 144.617 140.214C144.492 140.4 144.316 140.545 144.109 140.63C143.903 140.715 143.676 140.737 143.457 140.692C143.239 140.647 143.038 140.538 142.882 140.378C142.725 140.218 142.619 140.015 142.577 139.795C142.536 139.575 142.56 139.347 142.648 139.14C142.735 138.934 142.882 138.759 143.069 138.636C143.256 138.514 143.475 138.45 143.698 138.453C143.994 138.457 144.276 138.578 144.483 138.79C144.691 139.001 144.808 139.287 144.807 139.584Z" fill="#FF725E"/>
<path d="M140.624 127.139L143.945 127.34L145.517 120.796L142.419 120.92L140.624 127.139Z" fill="#455A64"/>
<path d="M244.187 179.438L245.304 182.583L251.907 181.475L250.582 178.656L244.187 179.438Z" fill="#FF725E"/>
<path d="M177.315 161.301L175.273 163.934L179.758 168.937L181.407 166.304L177.315 161.301Z" fill="#455A64"/>
<path d="M169.402 99.4346L177.23 107.458L188.241 103.268L188.68 106.018L183.91 115.838L188.302 123.165L187.932 125.349L177.284 123.544L170.981 130.499L169.502 129.368L168.2 120.531L158.26 115.327L157.821 113.313L167.83 110.556L169.402 99.4346Z" fill="#FF725E"/>
<g opacity="0.3">
<path opacity="0.3" d="M169.402 99.4346L177.23 107.458L188.241 103.268L188.68 106.018L183.91 115.838L188.302 123.165L187.932 125.349L177.284 123.544L170.981 130.499L169.502 129.368L168.2 120.531L158.26 115.327L157.821 113.313L167.83 110.556L169.402 99.4346Z" fill="black"/>
</g>
<path d="M169.402 97.1895L177.23 105.205L188.241 103.269L183.071 113.237L188.302 123.165L177.284 121.299L169.502 129.369L167.861 118.255L157.821 113.314L167.83 108.311L169.402 97.1895Z" fill="#FF725E"/>
<path d="M250.497 99.4346L242.668 107.458L231.658 103.268L231.227 106.018L235.996 115.838L231.596 123.165L231.966 125.349L242.622 123.544L248.917 130.499L250.397 129.368L251.706 120.531L261.646 115.327L262.077 113.313L252.069 110.556L250.497 99.4346Z" fill="#FF725E"/>
<g opacity="0.3">
<path opacity="0.3" d="M250.497 99.4346L242.668 107.458L231.658 103.268L231.227 106.018L235.996 115.838L231.596 123.165L231.966 125.349L242.622 123.544L248.917 130.499L250.397 129.368L251.706 120.531L261.646 115.327L262.077 113.313L252.069 110.556L250.497 99.4346Z" fill="black"/>
</g>
<path d="M250.497 97.1895L242.669 105.205L231.658 103.269L236.828 113.237L231.597 123.165L242.623 121.299L250.397 129.369L252.038 118.255L262.078 113.314L252.069 108.311L250.497 97.1895Z" fill="#FF725E"/>
<path d="M209.691 85.3623L216.202 98.1489L231.227 97.2583L230.718 100.774L221.179 110.928L223.76 121.554L222.481 124.078L210.169 117.805L199.852 123.869L198.473 121.925L200.229 110.641L190.074 100.488L190.305 97.8623L203.558 98.3348L209.691 85.3623Z" fill="#FF725E"/>
<g opacity="0.3">
<path opacity="0.3" d="M209.691 85.3623L216.202 98.1489L231.227 97.2583L230.718 100.774L221.179 110.928L223.76 121.554L222.481 124.078L210.169 117.805L199.852 123.869L198.473 121.925L200.229 110.641L190.074 100.488L190.305 97.8623L203.558 98.3348L209.691 85.3623Z" fill="black"/>
</g>
<path d="M210.547 82.6211L217.057 95.4077L231.227 97.2587L221.141 107.435L223.761 121.554L211.017 115.056L198.473 121.926L200.677 107.737L190.306 97.8628L204.414 95.5936L210.547 82.6211Z" fill="#FF725E"/>
<path d="M236.489 197.329L247.369 198.537C251.042 193.311 256.527 189.654 262.746 188.285C268.965 186.917 275.469 187.936 280.978 191.142C286.488 194.349 290.605 199.511 292.521 205.613C294.437 211.716 294.013 218.318 291.332 224.122C288.651 229.926 283.907 234.513 278.033 236.98C272.159 239.448 265.579 239.618 259.587 237.457C253.595 235.296 248.623 230.96 245.649 225.302C242.675 219.644 241.915 213.072 243.516 206.879L236.489 197.329Z" fill="#FAFAFA"/>
<path d="M236.489 197.329C236.913 197.903 239.117 200.83 243.616 206.832H243.455C243.46 206.819 243.468 206.808 243.479 206.799C243.489 206.79 243.501 206.783 243.515 206.78C243.528 206.776 243.542 206.775 243.556 206.778C243.569 206.78 243.582 206.785 243.593 206.794C243.611 206.804 243.626 206.821 243.634 206.84C243.642 206.86 243.644 206.881 243.639 206.902C242.537 211.247 242.595 215.807 243.809 220.122C244.165 221.417 244.637 222.677 245.219 223.886C245.527 224.506 245.82 225.141 246.151 225.768L247.299 227.604C250.965 232.945 256.511 236.69 262.817 238.082C266.308 238.854 269.922 238.869 273.419 238.129C277.106 237.322 280.571 235.709 283.567 233.405C286.705 231.009 289.228 227.894 290.925 224.32C292.682 220.685 293.549 216.681 293.452 212.641C293.34 208.776 292.366 204.986 290.601 201.55C288.942 198.293 286.591 195.443 283.713 193.201C278.53 189.175 272.008 187.301 265.491 187.966C262.737 188.298 260.049 189.045 257.516 190.181C253.486 192.053 250.015 194.953 247.446 198.592C247.438 198.607 247.425 198.619 247.41 198.626C247.395 198.632 247.377 198.634 247.361 198.631L236.489 197.329L247.384 198.437L247.292 198.483C249.852 194.795 253.341 191.855 257.401 189.964C259.946 188.785 262.656 188.007 265.437 187.656C272.043 186.953 278.665 188.834 283.929 192.907C286.856 195.175 289.248 198.066 290.933 201.372C292.734 204.857 293.727 208.707 293.838 212.633C293.939 216.737 293.062 220.805 291.28 224.498C289.552 228.128 286.987 231.29 283.798 233.722C280.753 236.059 277.233 237.693 273.489 238.508C269.929 239.261 266.251 239.237 262.702 238.439C256.329 237.026 250.728 233.23 247.037 227.821L245.882 225.962C245.55 225.327 245.258 224.676 244.942 224.049C244.362 222.823 243.893 221.548 243.539 220.238C242.331 215.877 242.299 211.272 243.447 206.894L243.632 206.964C243.617 206.986 243.595 207.003 243.57 207.01C243.544 207.017 243.517 207.014 243.493 207.003L236.489 197.329Z" fill="#263238"/>
<path d="M258.81 204.153C258.819 204.271 258.819 204.391 258.81 204.509C258.81 204.765 258.81 205.09 258.81 205.5C258.81 206.399 258.81 207.646 258.857 209.226C258.857 212.44 258.911 216.97 258.949 222.392L258.772 222.214H276.902C276.948 222.167 276.524 222.593 276.701 222.407V219.929C276.701 219.116 276.701 218.303 276.701 217.497V212.781C276.701 209.729 276.701 206.84 276.701 204.184L276.871 204.362L263.772 204.269L260.066 204.23H259.08H258.726H259.042H259.997L263.657 204.184L276.856 204.099H277.033V204.269C277.033 206.925 277.033 209.814 277.033 212.866V222.4C277.218 222.221 276.794 222.655 276.832 222.609H258.703H258.525V222.4C258.525 216.932 258.587 212.37 258.61 209.133C258.61 207.584 258.61 206.329 258.656 205.446C258.656 205.051 258.656 204.734 258.656 204.486C258.693 204.368 258.744 204.256 258.81 204.153Z" fill="#263238"/>
<path d="M274.983 207.165C275.245 207.374 272.81 210.906 269.536 215.057C268.889 215.886 268.249 216.676 267.656 217.381L267.271 217.853L266.839 217.458C264.004 214.895 262.085 212.927 262.255 212.726C262.424 212.525 264.651 214.151 267.586 216.598L266.762 216.676C267.324 215.901 267.941 215.127 268.596 214.306C271.863 210.155 274.729 206.964 274.983 207.165Z" fill="#53B848"/>
</g>
<defs>
<clipPath id="clip0_721_1097">
<rect width="378.716" height="430.423" fill="white" transform="translate(0 0.9375)"/>
</clipPath>
</defs>
</svg>
